<svg width="110" height="110" viewBox="0 0 110 110" fill="none" xmlns="http://www.w3.org/2000/svg">
<path d="M15.4688 22.3438H82.5C85.4219 22.3438 87.6562 24.5781 87.6562 27.5V80.7812C87.6562 83.7031 85.4219 85.9375 82.5 85.9375H73.9062V97.9688C73.9062 99.5156 72.0156 100.203 70.9844 99.1719L57.75 85.9375H12.0312C11 85.9375 10.3125 85.25 10.3125 84.2188V27.5C10.3125 24.5781 12.5469 22.3438 15.4688 22.3438ZM70.4688 61.875C74.25 61.875 77.3438 58.7812 77.3438 55C77.3438 51.2188 74.25 48.125 70.4688 48.125C66.6875 48.125 63.5938 51.2188 63.5938 55C63.5938 58.7812 66.6875 61.875 70.4688 61.875ZM48.9844 61.0156C52.7656 61.0156 55.8594 57.9219 55.8594 54.1406C55.8594 50.3594 52.7656 47.2656 48.9844 47.2656C45.2031 47.2656 42.1094 50.3594 42.1094 54.1406C42.1094 57.9219 45.2031 61.0156 48.9844 61.0156ZM27.5 61.875C31.2812 61.875 34.375 58.7812 34.375 55C34.375 51.2188 31.2812 48.125 27.5 48.125C23.7188 48.125 20.625 51.2188 20.625 55C20.625 58.7812 23.7188 61.875 27.5 61.875Z" fill="#59A4FE" fill-opacity="0.7"/>
<path d="M6.87501 30.9375V84.2188C6.87501 87.1406 9.10938 89.375 12.0313 89.375H56.375L61.5312 94.5312H31.7969L18.5625 107.766C17.5313 108.797 15.6406 108.109 15.6406 106.562V94.5312H7.04688C4.12501 94.5312 1.89063 92.2969 1.89063 89.375V36.0938C1.71876 33.1719 3.95313 30.9375 6.87501 30.9375Z" fill="#59A4FE" fill-opacity="0.7"/>
<path d="M33.5156 51.5625H27.5C24.5781 51.5625 22.3438 49.3281 22.3438 46.4062V6.875C22.3438 3.95312 24.5781 1.71875 27.5 1.71875H103.125C106.047 1.71875 108.281 3.95312 108.281 6.875V53.2812C108.281 54.3125 107.594 55 106.562 55H65.3125C64.2812 55 63.5938 54.3125 63.5938 53.2812C63.5938 52.7656 63.5938 52.0781 63.7656 51.5625H59.2969C59.125 55.3438 57.0625 58.7812 54.1406 61.0156C63.5938 63.5938 70.4688 72.1875 70.4688 82.5V84.2188C70.4688 85.25 69.7812 85.9375 68.75 85.9375H24.0625C23.0312 85.9375 22.3438 85.25 22.3438 84.2188V82.5C22.3438 72.1875 29.2188 63.5938 38.6719 61.0156C35.75 58.7812 33.8594 55.3438 33.5156 51.5625ZM104.844 51.5625C103.984 41.9375 95.9062 34.375 85.9375 34.375C75.9688 34.375 68.0625 41.9375 67.0312 51.5625H104.844ZM94.5312 22.3438C94.5312 17.5312 90.75 13.75 85.9375 13.75C81.125 13.75 77.3438 17.5312 77.3438 22.3438C77.3438 27.1562 81.125 30.9375 85.9375 30.9375C90.75 30.9375 94.5312 27.1562 94.5312 22.3438ZM64.2812 48.125C66 40.5625 71.6719 34.5469 78.8906 32.1406C75.7969 29.9063 73.9062 26.4688 73.9062 22.3438C73.9062 15.6406 79.2344 10.3125 85.9375 10.3125C92.6406 10.3125 97.9688 15.6406 97.9688 22.3438C97.9688 26.2969 95.9063 29.9063 92.9844 32.1406C97.9688 33.8594 102.094 37.125 104.844 41.4219V6.875C104.844 5.84375 104.156 5.15625 103.125 5.15625H27.5C26.4688 5.15625 25.7812 5.84375 25.7812 6.875V46.4062C25.7812 47.4375 26.4688 48.125 27.5 48.125H33.8594C35.0625 42.2812 40.2188 37.8125 46.4062 37.8125C52.5938 37.8125 57.9219 42.2812 58.9531 48.125H64.2812ZM25.7812 82.5H67.0312C67.0312 72.0156 58.6094 63.5938 48.125 63.5938H44.6875C34.2031 63.5938 25.7812 72.0156 25.7812 82.5ZM46.4062 60.1562C51.5625 60.1562 55.8594 55.8594 55.8594 50.7031C55.8594 45.5469 51.5625 41.25 46.4062 41.25C41.25 41.25 36.9531 45.5469 36.9531 50.7031C36.9531 55.8594 41.25 60.1562 46.4062 60.1562Z" fill="#14166C"/>
<path d="M67.0312 17.1875H32.6562C31.625 17.1875 30.9375 16.5 30.9375 15.4688C30.9375 14.4375 31.625 13.75 32.6562 13.75H67.0312C68.0625 13.75 68.75 14.4375 68.75 15.4688C68.75 16.5 68.0625 17.1875 67.0312 17.1875Z" fill="#14166C"/>
<path d="M30.9375 32.6562C30.9375 31.625 31.625 30.9375 32.6562 30.9375H67.0312C68.0625 30.9375 68.75 31.625 68.75 32.6562C68.75 33.6875 68.0625 34.375 67.0312 34.375H32.6562C31.625 34.375 30.9375 33.6875 30.9375 32.6562Z" fill="#14166C"/>
<path d="M67.0312 25.7812H32.6562C31.625 25.7812 30.9375 25.0938 30.9375 24.0625C30.9375 23.0312 31.625 22.3438 32.6562 22.3438H67.0312C68.0625 22.3438 68.75 23.0312 68.75 24.0625C68.75 25.0938 68.0625 25.7812 67.0312 25.7812Z" fill="#14166C"/>
</svg>
