<svg width="178" height="98" viewBox="0 0 178 98" fill="none" xmlns="http://www.w3.org/2000/svg">
<path d="M85.9989 98.0001C133.495 98.0001 171.998 95.7522 171.998 92.9792C171.998 90.2062 133.495 87.9583 85.9989 87.9583C38.503 87.9583 0 90.2062 0 92.9792C0 95.7522 38.503 98.0001 85.9989 98.0001Z" fill="#F5F5F5"/>
<path d="M72.4309 90.7617H58.4548C57.9278 90.7617 57.4224 90.5524 57.0497 90.1797C56.6771 89.8071 56.4677 89.3017 56.4677 88.7746V64.4196H74.418V88.7791C74.4168 89.3053 74.2069 89.8096 73.8344 90.1813C73.4619 90.553 72.9571 90.7617 72.4309 90.7617Z" fill="#407BFF"/>
<path opacity="0.2" d="M74.418 64.4199H56.4722V74.9896L74.418 71.0997V64.4199Z" fill="black"/>
<path d="M82.1401 32.4669C82.1401 25.7617 84.8038 19.3311 89.5451 14.5898C94.2864 9.84845 100.717 7.18481 107.422 7.18481C114.127 7.18481 120.558 9.84845 125.299 14.5898C130.041 19.3311 132.704 25.7617 132.704 32.4669V64.4021H82.1401V32.4669Z" fill="#407BFF"/>
<path opacity="0.3" d="M82.1401 32.4669C82.1401 25.7617 84.8038 19.3311 89.5451 14.5898C94.2864 9.84845 100.717 7.18481 107.422 7.18481C114.127 7.18481 120.558 9.84845 125.299 14.5898C130.041 19.3311 132.704 25.7617 132.704 32.4669V64.4021H82.1401V32.4669Z" fill="black"/>
<path d="M22.6208 32.4622V61.2705C22.6208 61.6844 22.7025 62.0943 22.861 62.4766C23.0195 62.859 23.2519 63.2063 23.5448 63.4988C23.8377 63.7913 24.1854 64.0232 24.568 64.1812C24.9505 64.3392 25.3605 64.4202 25.7745 64.4196H82.1401V32.4622C82.1401 25.757 84.8038 19.3264 89.5451 14.5851C94.2864 9.84381 100.717 7.18018 107.422 7.18018H47.9029C41.1977 7.18018 34.7671 9.84381 30.0258 14.5851C25.2845 19.3264 22.6208 25.757 22.6208 32.4622Z" fill="#407BFF"/>
<path opacity="0.2" d="M22.6252 54.99L82.1445 54.99V46.1191L22.6252 46.1191V54.99Z" fill="black"/>
<path opacity="0.2" d="M22.6252 43.3647L82.1445 43.3647V34.4938L22.6252 34.4938V43.3647Z" fill="black"/>
<path d="M85.8703 5.62793H78.6272V6.07147H85.8703V5.62793Z" fill="#407BFF"/>
<path d="M74.8305 5.62793H70.9362V6.07147H74.8305V5.62793Z" fill="#407BFF"/>
<path d="M51.7308 40.7743V4.84719C51.7308 4.70395 51.6996 4.56243 51.6394 4.43248C51.5791 4.30254 51.4913 4.18731 51.3819 4.09482C51.2725 4.00234 51.1443 3.93483 51.0061 3.89701C50.868 3.85919 50.7232 3.85196 50.582 3.87583L38.043 5.93831V11.1411H47.628V40.6945C46.66 41.1391 45.8716 41.899 45.3915 42.8498C44.9114 43.8006 44.7681 44.8862 44.985 45.929C45.2018 46.9719 45.7661 47.9103 46.5854 48.5909C47.4048 49.2715 48.4308 49.654 49.4958 49.6759C50.5607 49.6978 51.6015 49.3577 52.4482 48.7114C53.2948 48.065 53.8971 47.1505 54.1566 46.1174C54.4161 45.0844 54.3175 43.9938 53.8768 43.0241C53.4362 42.0543 52.6796 41.2628 51.7308 40.7788V40.7743Z" fill="#263238"/>
<path d="M85.7373 68.0347H150.601C151.075 68.0359 151.529 67.8502 151.867 67.518C152.204 67.1857 152.396 66.7338 152.402 66.2605C152.402 65.7829 152.212 65.3249 151.875 64.9872C151.537 64.6494 151.079 64.4597 150.601 64.4597H82.1401C82.146 65.4099 82.5276 66.3191 83.2015 66.989C83.8755 67.6588 84.7871 68.0347 85.7373 68.0347Z" fill="#407BFF"/>
<path opacity="0.2" d="M85.7373 68.0347H112.244C112.717 68.0359 113.172 67.8502 113.509 67.518C113.846 67.1857 114.038 66.7338 114.044 66.2605C114.044 65.7829 113.855 65.3249 113.517 64.9872C113.179 64.6494 112.721 64.4597 112.244 64.4597H82.1401C82.146 65.4099 82.5276 66.3191 83.2015 66.989C83.8755 67.6588 84.7871 68.0347 85.7373 68.0347Z" fill="black"/>
<path d="M168.035 3.70014L177.449 31.3993C177.815 32.4863 177.734 33.6733 177.225 34.7014C176.715 35.7295 175.818 36.5152 174.73 36.8871L111.451 58.2571C110.359 58.6223 109.166 58.5413 108.133 58.032C107.1 57.5226 106.312 56.6264 105.942 55.5396L96.5324 27.8493C96.3511 27.3245 96.276 26.7692 96.3114 26.2153C96.3622 25.3548 96.6689 24.5288 97.1925 23.8425C97.7162 23.1562 98.433 22.6406 99.2518 22.3615L162.543 0.991443C163.363 0.716743 164.246 0.691538 165.08 0.919035C165.914 1.14653 166.661 1.61642 167.226 2.26872C167.588 2.68798 167.863 3.17447 168.035 3.70014Z" fill="#A5C1FF"/>
<path d="M167.267 2.27297L141.07 25.8021C139.753 26.9837 138.212 27.886 136.539 28.4548C134.866 29.0237 133.097 29.2474 131.336 29.1126L96.3029 26.4464C96.3537 25.5782 96.6606 24.7449 97.1846 24.0524C97.7086 23.36 98.4258 22.8399 99.2451 22.5582L162.577 0.997641C163.396 0.717985 164.28 0.689946 165.116 0.917103C165.951 1.14426 166.7 1.61631 167.267 2.27297Z" fill="#407BFF"/>
</svg>
