<svg width="613" height="463" viewBox="0 0 613 463" fill="none" xmlns="http://www.w3.org/2000/svg">
<path d="M613 401.393H-6.10352e-05V401.699H613V401.393Z" fill="#EBEBEB"/>
<path d="M551.578 421.119H510.972V421.425H551.578V421.119Z" fill="#EBEBEB"/>
<path d="M406.076 424.454H395.422V424.76H406.076V424.454Z" fill="#EBEBEB"/>
<path d="M509.746 409.741H486.219V410.048H509.746V409.741Z" fill="#EBEBEB"/>
<path d="M117.267 411.802H64.3159V412.108H117.267V411.802Z" fill="#EBEBEB"/>
<path d="M135.951 411.802H128.191V412.108H135.951V411.802Z" fill="#EBEBEB"/>
<path d="M276.034 416.975H161.182V417.282H276.034V416.975Z" fill="#EBEBEB"/>
<path d="M290.562 346.713H53.8336C51.9791 346.71 50.2016 345.971 48.8915 344.658C47.5813 343.346 46.8454 341.567 46.8454 339.712V6.93916C46.8615 5.09529 47.6045 3.33224 48.913 2.03298C50.2214 0.73371 51.9897 0.00315865 53.8336 0H290.562C292.419 0 294.199 0.737547 295.512 2.05039C296.825 3.36323 297.563 5.14382 297.563 7.00046V339.712C297.563 341.569 296.825 343.35 295.512 344.663C294.199 345.975 292.419 346.713 290.562 346.713ZM53.8336 0.245201C52.0604 0.248449 50.3609 0.955134 49.1082 2.21014C47.8555 3.46515 47.1519 5.16594 47.1519 6.93916V339.712C47.1519 341.486 47.8555 343.186 49.1082 344.441C50.3609 345.697 52.0604 346.403 53.8336 346.406H290.562C292.336 346.403 294.037 345.697 295.292 344.442C296.546 343.188 297.253 341.487 297.256 339.712V6.93916C297.253 5.16481 296.546 3.46406 295.292 2.2094C294.037 0.954736 292.336 0.248442 290.562 0.245201H53.8336Z" fill="#EBEBEB"/>
<path d="M555.758 346.713H319.018C317.162 346.71 315.383 345.971 314.071 344.659C312.759 343.347 312.02 341.568 312.017 339.712V6.93916C312.036 5.09417 312.782 3.33114 314.093 2.03221C315.403 0.733282 317.172 0.0031242 319.018 0H555.758C557.6 0.00638071 559.365 0.738358 560.671 2.03728C561.977 3.3362 562.718 5.09741 562.734 6.93916V339.712C562.734 341.565 562 343.342 560.693 344.654C559.385 345.966 557.611 346.706 555.758 346.713ZM319.018 0.245201C317.243 0.248442 315.542 0.954736 314.288 2.2094C313.033 3.46406 312.327 5.16481 312.324 6.93916V339.712C312.327 341.487 313.033 343.188 314.288 344.442C315.542 345.697 317.243 346.403 319.018 346.406H555.758C557.533 346.403 559.233 345.697 560.488 344.442C561.743 343.188 562.449 341.487 562.452 339.712V6.93916C562.449 5.16481 561.743 3.46406 560.488 2.2094C559.233 0.954736 557.533 0.248442 555.758 0.245201H319.018Z" fill="#EBEBEB"/>
<path d="M543.339 28.6516V23.392L540.666 23.1346C540.307 21.3869 539.621 19.7229 538.643 18.2306L540.384 16.1341L536.706 12.4561L534.536 14.1848C533.044 13.207 531.38 12.5206 529.632 12.1619L529.387 9.45239H524.115L523.858 12.1619C522.11 12.5192 520.445 13.2057 518.954 14.1848L516.845 12.4438L513.167 16.1218L514.92 18.2673C513.937 19.757 513.251 21.422 512.897 23.1713L510.188 23.4288V28.6883L512.897 28.9458C513.251 30.6952 513.937 32.3601 514.92 33.8498L513.179 35.9463L516.857 39.6243L518.966 37.8833C520.458 38.8624 522.122 39.5489 523.87 39.9062L524.127 42.6157H529.399L529.644 39.9062C531.392 39.5475 533.056 38.8611 534.548 37.8833L536.657 39.6243L540.335 35.9463L538.594 33.8498C539.572 32.3574 540.258 30.6935 540.617 28.9458L543.339 28.6516ZM526.776 33.1019C525.364 33.1044 523.983 32.6879 522.808 31.9054C521.633 31.1228 520.717 30.0093 520.175 28.7057C519.633 27.4021 519.49 25.967 519.764 24.5821C520.038 23.1972 520.716 21.9246 521.714 20.9255C522.711 19.9264 523.982 19.2456 525.367 18.9693C526.751 18.693 528.187 18.8336 529.491 19.3733C530.796 19.913 531.911 20.8275 532.695 22.0012C533.48 23.1748 533.899 24.5549 533.899 25.9666C533.899 27.8569 533.149 29.6699 531.813 31.0077C530.478 32.3455 528.666 33.0987 526.776 33.1019Z" fill="#E0E0E0"/>
<path d="M564.684 43.5103V39.3909L562.55 39.2316C562.266 37.8767 561.73 36.5874 560.969 35.431L562.342 33.7759L559.424 30.858L557.83 32.1821C556.672 31.4136 555.378 30.8727 554.017 30.5883L553.821 28.4673H549.702L549.432 30.6496C548.072 30.936 546.779 31.4767 545.619 32.2434L543.976 30.8702L541.059 33.7881L542.419 35.4432C541.662 36.6016 541.126 37.8902 540.838 39.2438L538.717 39.4522V43.5716L540.838 43.78C541.122 45.1349 541.658 46.4242 542.419 47.5806L541.059 49.2357L543.976 52.1536L545.57 50.7192C546.729 51.4859 548.023 52.0266 549.383 52.313L549.592 54.434H553.711L553.907 52.313C555.268 52.0286 556.562 51.4877 557.72 50.7192L559.375 52.0923L562.293 49.1744L560.92 47.5193C561.681 46.3629 562.217 45.0736 562.501 43.7187L564.684 43.5103ZM551.7 47.0412C550.594 47.0436 549.512 46.7178 548.591 46.105C547.67 45.4922 546.952 44.6199 546.526 43.5985C546.101 42.5772 545.989 41.4528 546.203 40.3675C546.418 39.2822 546.949 38.2849 547.73 37.5019C548.512 36.7188 549.508 36.1851 550.593 35.9684C551.678 35.7517 552.802 35.8617 553.825 36.2845C554.847 36.7072 555.721 37.4238 556.335 38.3434C556.95 39.263 557.279 40.3444 557.279 41.4506C557.279 42.9312 556.691 44.3513 555.645 45.3994C554.6 46.4475 553.181 47.0379 551.7 47.0412Z" fill="#E0E0E0"/>
<path d="M543.339 55.2314V51.7618L541.561 51.5902C541.324 50.4481 540.87 49.3619 540.225 48.3903L541.377 47.0049L538.925 44.5529L537.54 45.7054C536.566 45.0649 535.48 44.6117 534.34 44.369L534.168 42.5913H530.711L530.539 44.369C529.399 44.6117 528.314 45.0649 527.34 45.7054L525.954 44.5529L523.502 47.0049L524.642 48.3903C524.006 49.3652 523.557 50.4504 523.318 51.5902L521.528 51.7618V55.2314L523.318 55.3908C523.557 56.5305 524.006 57.6157 524.642 58.5906L523.502 59.976L525.954 62.428L527.34 61.2878C528.312 61.9295 529.398 62.3789 530.539 62.6119L530.711 64.4019H534.168L534.34 62.6119C535.481 62.3789 536.568 61.9295 537.54 61.2878L538.925 62.428L541.377 59.976L540.225 58.5906C540.87 57.619 541.324 56.5328 541.561 55.3908L543.339 55.2314ZM532.44 58.186C531.511 58.1885 530.602 57.9151 529.828 57.4007C529.054 56.8862 528.45 56.1537 528.093 55.2959C527.736 54.4381 527.641 53.4936 527.821 52.5819C528 51.6703 528.447 50.8325 529.103 50.1745C529.759 49.5166 530.596 49.0682 531.507 48.886C532.418 48.7038 533.363 48.7961 534.222 49.1511C535.08 49.5062 535.814 50.108 536.331 50.8805C536.847 51.6529 537.123 52.5612 537.123 53.4905C537.123 54.7337 536.63 55.9262 535.752 56.8064C534.874 57.6866 533.683 58.1828 532.44 58.186Z" fill="#E0E0E0"/>
<path d="M61.8763 400.252L89.2651 218.204V400.252H96.6211V217.063L124.059 400.252H131.93L97.6019 170.954L96.6211 171.101V163.634H89.2651V171.064L88.2598 170.954L53.8459 400.252H61.8763Z" fill="#E0E0E0"/>
<path d="M130.643 196.381H54.8512L60.9935 133.058H124.513L130.643 196.381Z" fill="#EBEBEB"/>
<path opacity="0.5" d="M306.5 456.759C437.783 456.759 544.209 450.545 544.209 442.88C544.209 435.216 437.783 429.002 306.5 429.002C175.217 429.002 68.7909 435.216 68.7909 442.88C68.7909 450.545 175.217 456.759 306.5 456.759Z" fill="#C6D7FF"/>
<path d="M544.344 46.11V292.843C544.278 295.764 543.099 298.55 541.049 300.633C538.998 302.715 536.231 303.937 533.31 304.048H178.248C172.351 304.048 167.962 298.752 167.962 292.843V46.11C167.921 44.7353 168.157 43.3665 168.656 42.0849C169.155 40.8034 169.907 39.6353 170.866 38.6504C171.826 37.6654 172.974 36.8837 174.242 36.3517C175.511 35.8198 176.873 35.5485 178.248 35.5541H533.31C536.164 35.5237 538.916 36.6111 540.978 38.5838C543.04 40.5565 544.248 43.2578 544.344 46.11Z" fill="#172AB4"/>
<path opacity="0.1" d="M544.344 76.8579V292.842C544.278 295.764 543.099 298.55 541.049 300.633C538.998 302.715 536.23 303.936 533.31 304.048H178.248C172.351 304.048 167.962 298.752 167.962 292.842V208.776C199.201 148.702 273.668 138.967 360.849 174.092C484.27 223.819 536.902 156.327 544.344 76.8579Z" fill="white"/>
<path opacity="0.2" d="M447.392 275.85H267.268C265.642 275.85 264.083 275.204 262.933 274.055C261.784 272.905 261.138 271.346 261.138 269.72C261.138 268.094 261.784 266.535 262.933 265.386C264.083 264.236 265.642 263.59 267.268 263.59H447.392C449.018 263.59 450.577 264.236 451.727 265.386C452.876 266.535 453.522 268.094 453.522 269.72C453.522 271.346 452.876 272.905 451.727 274.055C450.577 275.204 449.018 275.85 447.392 275.85Z" fill="black"/>
<path d="M267.268 274.624C265.967 274.624 264.72 274.108 263.8 273.188C262.881 272.268 262.364 271.021 262.364 269.72C262.364 268.42 262.881 267.172 263.8 266.253C264.72 265.333 265.967 264.816 267.268 264.816H373.734C375.035 264.816 376.282 265.333 377.202 266.253C378.121 267.172 378.638 268.42 378.638 269.72C378.638 271.021 378.121 272.268 377.202 273.188C376.282 274.108 375.035 274.624 373.734 274.624H267.268Z" fill="#407BFF"/>
<path opacity="0.7" d="M267.268 274.624C265.967 274.624 264.72 274.108 263.8 273.188C262.881 272.268 262.364 271.021 262.364 269.72C262.364 268.42 262.881 267.172 263.8 266.253C264.72 265.333 265.967 264.816 267.268 264.816H373.734C375.035 264.816 376.282 265.333 377.202 266.253C378.121 267.172 378.638 268.42 378.638 269.72C378.638 271.021 378.121 272.268 377.202 273.188C376.282 274.108 375.035 274.624 373.734 274.624H267.268Z" fill="white"/>
<path d="M196.074 284.751C207.501 293.934 203.516 337.763 205.662 344.506C207.807 351.249 217.002 356.766 217.002 356.766L204.178 371.785C204.178 371.785 193.451 369.921 185.298 352.451C177.145 334.98 196.074 284.751 196.074 284.751Z" fill="#263238"/>
<path opacity="0.2" d="M196.074 284.751C207.501 293.934 203.516 337.763 205.662 344.506C207.807 351.249 217.002 356.766 217.002 356.766L204.178 371.785C204.178 371.785 193.451 369.921 185.298 352.451C177.145 334.98 196.074 284.751 196.074 284.751Z" fill="black"/>
<path d="M183.9 380.98C183.9 380.98 266.042 358.066 276.316 386.889C286.59 415.712 212.098 438.675 170.868 440.134C129.637 441.593 112.792 412.561 124.954 385.062L183.9 380.98Z" fill="#407BFF"/>
<path opacity="0.2" d="M183.9 380.98C183.9 380.98 266.042 358.066 276.316 386.889C286.59 415.712 212.098 438.675 170.868 440.134C129.637 441.593 112.792 412.561 124.954 385.062L183.9 380.98Z" fill="black"/>
<path d="M264.412 427.629C264.366 427.659 264.313 427.675 264.258 427.675C264.204 427.675 264.151 427.659 264.105 427.629C264.064 427.602 264.035 427.561 264.021 427.514C264.008 427.467 264.012 427.417 264.031 427.372C264.166 426.918 265.539 422.946 266.913 422.529C267.061 422.497 267.215 422.503 267.361 422.545C267.506 422.588 267.639 422.667 267.746 422.774C267.937 422.935 268.082 423.143 268.166 423.378C268.25 423.613 268.27 423.866 268.224 424.111C268.002 424.852 267.552 425.504 266.937 425.974C266.15 426.605 265.304 427.159 264.412 427.629ZM264.767 426.857C266.052 426.296 267.093 425.29 267.697 424.025C267.733 423.857 267.72 423.682 267.659 423.521C267.598 423.36 267.492 423.22 267.354 423.118C267.318 423.07 267.267 423.036 267.209 423.02C267.152 423.005 267.09 423.009 267.035 423.032C266.915 423.066 266.806 423.129 266.716 423.216C265.865 424.302 265.221 425.537 264.816 426.857H264.767Z" fill="#407BFF"/>
<path d="M264.338 427.678C264.293 427.692 264.244 427.693 264.198 427.68C264.153 427.666 264.112 427.64 264.08 427.605C263.946 427.494 262.045 425.079 262.364 423.461C262.401 423.26 262.477 423.069 262.589 422.899C262.701 422.728 262.845 422.582 263.014 422.468C263.159 422.328 263.348 422.242 263.548 422.224C263.749 422.206 263.95 422.257 264.117 422.37C265.11 423.068 264.988 426.28 264.497 427.506V427.629L264.338 427.678ZM263.247 422.958C263.079 423.109 262.967 423.312 262.928 423.534C262.72 424.564 263.676 426.109 264.154 426.844C264.461 425.471 264.362 423.166 263.774 422.811C263.713 422.811 263.59 422.676 263.296 422.884L263.198 422.958H263.247Z" fill="#407BFF"/>
<path d="M180.712 442.206C180.727 442.155 180.755 442.108 180.794 442.072C180.833 442.035 180.881 442.009 180.933 441.998C180.981 441.992 181.03 442.001 181.073 442.026C181.115 442.05 181.148 442.088 181.166 442.133C181.411 442.55 183.287 446.301 182.613 447.576C182.537 447.707 182.428 447.815 182.296 447.888C182.165 447.961 182.016 447.998 181.865 447.993C181.618 448.022 181.368 447.984 181.142 447.883C180.915 447.781 180.72 447.62 180.578 447.417C180.203 446.737 180.052 445.956 180.149 445.186C180.239 444.177 180.428 443.179 180.712 442.206ZM181.007 442.991C180.523 444.309 180.523 445.756 181.007 447.074C181.103 447.218 181.238 447.331 181.397 447.401C181.555 447.47 181.731 447.493 181.902 447.466C181.962 447.47 182.022 447.455 182.075 447.425C182.127 447.394 182.169 447.349 182.196 447.294C182.242 447.181 182.271 447.061 182.282 446.939C182.097 445.557 181.665 444.22 181.007 442.991Z" fill="#407BFF"/>
<path d="M200.61 414.474L186.082 425.128L179.106 430.24L183.655 438.197L190.741 434.323L208.04 424.858L200.61 414.474Z" fill="#EBB376"/>
<path d="M185.911 437.952L181.522 428.279C181.464 428.152 181.381 428.038 181.278 427.943C181.175 427.849 181.055 427.776 180.923 427.729C180.792 427.682 180.652 427.662 180.513 427.67C180.373 427.679 180.237 427.715 180.112 427.776L175.379 430.094C175.379 430.094 168.796 432.754 168.023 434.887C165.571 441.14 174.754 462.779 177.611 462.791C178.653 462.791 179.278 461.173 179.425 460.143C179.879 456.857 179.965 448.618 180.381 445.884C180.872 442.697 184.059 440.245 185.592 439.264C185.79 439.117 185.931 438.906 185.989 438.666C186.047 438.426 186.019 438.174 185.911 437.952Z" fill="#263238"/>
<path d="M180.725 442.12C180.747 442.078 180.781 442.044 180.822 442.02C180.863 441.996 180.91 441.984 180.958 441.985C181.129 441.985 184.182 442.292 185.126 443.653C185.358 443.994 185.446 444.412 185.371 444.817C185.37 445.019 185.3 445.214 185.173 445.37C185.046 445.526 184.869 445.634 184.672 445.676C183.446 445.896 181.264 443.567 180.737 442.365V442.255C180.721 442.212 180.717 442.166 180.725 442.12ZM184.856 444.646C184.871 444.418 184.806 444.193 184.672 444.008C184.084 443.15 182.306 442.782 181.424 442.598C182.184 443.824 183.876 445.296 184.562 445.161C184.636 445.161 184.783 445.161 184.844 444.768V444.646H184.856Z" fill="#407BFF"/>
<path opacity="0.2" d="M200.61 414.474L186.082 425.128L190.741 434.323L208.04 424.858L200.61 414.474Z" fill="black"/>
<path d="M194.051 434.924L198.833 433.857L190.901 418.704L186.462 423.228L194.051 434.924Z" fill="#407BFF"/>
<path opacity="0.6" d="M194.051 434.924L198.833 433.857L190.901 418.704L186.462 423.228L194.051 434.924Z" fill="white"/>
<path d="M230.672 432.815L248.449 435.745L256.994 437.155L259.483 428.328L251.759 425.986L232.903 420.249L230.672 432.815Z" fill="#EBB376"/>
<path d="M257.742 426.894L253.893 436.787C253.843 436.919 253.821 437.058 253.825 437.198C253.83 437.338 253.863 437.476 253.921 437.604C253.979 437.731 254.061 437.846 254.164 437.941C254.266 438.037 254.387 438.112 254.518 438.161L259.483 439.914C259.483 439.914 265.993 442.758 268.065 441.851C274.195 439.203 283.292 417.527 281.294 415.48C280.558 414.732 278.976 415.418 278.131 416.044C275.47 418.005 269.549 423.718 267.28 425.324C264.657 427.212 260.648 426.624 258.907 426.244C258.667 426.196 258.418 426.236 258.205 426.355C257.992 426.474 257.828 426.665 257.742 426.894Z" fill="#263238"/>
<path opacity="0.2" d="M230.672 432.815L248.449 435.745L251.759 425.986L232.903 420.249L230.672 432.815Z" fill="black"/>
<path d="M248.694 424.196C248.694 424.196 174.791 380.6 149.78 381.765C124.77 382.929 122.6 407.768 132.911 421.561C143.221 435.353 162.335 438.725 162.335 438.725C162.335 438.725 149.364 420.335 151.239 415.234C153.115 410.134 160.263 427.421 160.263 427.421C160.263 427.421 206.054 433.416 245.948 436.8L248.694 424.196Z" fill="#407BFF"/>
<path d="M249.871 423.019L245.764 420.261L240.492 436.456H246.818L249.871 423.019Z" fill="#407BFF"/>
<path opacity="0.6" d="M249.871 423.019L245.764 420.261L240.492 436.456H246.818L249.871 423.019Z" fill="white"/>
<path d="M193.573 388.642C180.198 362.896 184.452 323.725 196.025 284.751C187.934 277.996 155.653 273.435 131.047 280.595C131.047 280.595 115.428 338.474 117.267 401.699L193.573 388.642Z" fill="#263238"/>
<path d="M165.179 291.077C154.427 291.077 147.427 279.798 147.427 279.798C161.526 274.894 161.575 259.974 161.575 259.974L167.006 265.282L174.742 272.859C168.305 277.42 171.346 281.367 173.393 283.12C173.812 283.495 174.263 283.832 174.742 284.126C174.742 284.126 175.931 291.077 165.179 291.077Z" fill="#EBB376"/>
<path opacity="0.2" d="M173.393 283.12C160.201 284.604 161.133 264.853 161.133 264.853C163.112 264.821 165.089 264.965 167.043 265.282L174.779 272.859C168.305 277.419 171.346 281.367 173.393 283.12Z" fill="black"/>
<path d="M183.692 245.2C178.702 247.26 179.658 252.716 187.946 262.659C193.046 258.257 195.817 248.253 193.132 245.041C190.447 241.829 188.056 243.374 183.692 245.2Z" fill="#263238"/>
<path d="M191.072 267.268C190.62 268.599 190.088 269.901 189.478 271.167C184.574 281.208 170.377 283.157 164.1 273.226L164.027 273.128C159.883 266.447 161.44 260.206 163.168 249.393C163.553 246.887 164.57 244.519 166.121 242.513C167.672 240.508 169.708 238.929 172.038 237.926C174.367 236.924 176.913 236.53 179.436 236.781C181.959 237.033 184.377 237.922 186.462 239.364C194.726 245.114 194.235 258.036 191.072 267.268Z" fill="#EBB376"/>
<path d="M178.432 255.928C178.236 256.798 178.542 257.608 179.106 257.73C179.67 257.853 180.332 257.264 180.48 256.394C180.627 255.523 180.369 254.726 179.818 254.592C179.266 254.457 178.677 255.082 178.432 255.928Z" fill="#263238"/>
<path d="M188.289 258.159C188.093 259.018 188.4 259.827 188.976 259.949C189.552 260.072 190.202 259.496 190.361 258.613C190.521 257.73 190.239 256.933 189.675 256.811C189.111 256.688 188.485 257.289 188.289 258.159Z" fill="#263238"/>
<path d="M184.979 257.84C185.408 260.727 186.233 263.541 187.431 266.202C185.543 267.281 183.103 266.042 183.103 266.042L184.979 257.84Z" fill="#D58745"/>
<path d="M176.434 252.213C176.316 252.206 176.207 252.153 176.127 252.066C176.078 252.018 176.039 251.961 176.013 251.898C175.986 251.835 175.973 251.767 175.973 251.698C175.973 251.63 175.986 251.562 176.013 251.499C176.039 251.436 176.078 251.378 176.127 251.33C176.742 250.768 177.483 250.363 178.288 250.15C179.093 249.936 179.937 249.921 180.749 250.104C180.877 250.139 180.987 250.223 181.053 250.338C181.12 250.452 181.139 250.589 181.105 250.717C181.06 250.847 180.969 250.955 180.848 251.02C180.728 251.086 180.588 251.105 180.455 251.073C179.809 250.926 179.138 250.937 178.497 251.106C177.857 251.274 177.267 251.595 176.777 252.041C176.688 252.139 176.565 252.2 176.434 252.213Z" fill="#263238"/>
<path d="M193.524 255.842C193.428 255.816 193.341 255.765 193.272 255.694C193.203 255.622 193.155 255.534 193.132 255.437C192.999 254.796 192.717 254.196 192.307 253.684C191.898 253.173 191.374 252.765 190.778 252.495C190.648 252.445 190.543 252.347 190.483 252.222C190.424 252.096 190.415 251.953 190.459 251.821C190.506 251.692 190.602 251.587 190.725 251.527C190.849 251.468 190.991 251.459 191.121 251.502C191.881 251.83 192.551 252.335 193.076 252.975C193.6 253.615 193.964 254.371 194.137 255.18C194.154 255.246 194.157 255.315 194.147 255.382C194.136 255.449 194.113 255.514 194.077 255.572C194.042 255.63 193.996 255.681 193.941 255.721C193.886 255.761 193.823 255.789 193.757 255.805H193.524V255.842Z" fill="#263238"/>
<path d="M169.531 240.934C174.129 243.766 172.314 249.001 162.555 257.485C158.203 252.335 157.063 242 160.238 239.279C163.414 236.557 165.51 238.469 169.531 240.934Z" fill="#263238"/>
<path d="M156.168 256.823C156.247 258.186 156.594 259.52 157.189 260.749C157.784 261.977 158.616 263.076 159.638 263.983C162.384 266.435 165.314 264.301 165.866 260.893C166.368 257.816 165.522 252.863 162.188 251.784C158.853 250.705 155.984 253.451 156.168 256.823Z" fill="#EBB376"/>
<path d="M174.742 266.153C174.742 266.153 175.87 270.051 181.093 270.959" stroke="#263238" stroke-width="0.557248" stroke-linecap="round" stroke-linejoin="round"/>
<path d="M184.133 257.914C184.133 258.641 183.917 259.352 183.513 259.957C183.109 260.562 182.535 261.033 181.863 261.312C181.19 261.59 180.451 261.663 179.738 261.521C179.024 261.379 178.369 261.029 177.854 260.515C177.34 260 176.99 259.345 176.848 258.631C176.706 257.918 176.779 257.178 177.057 256.506C177.335 255.834 177.807 255.26 178.412 254.856C179.016 254.452 179.728 254.236 180.455 254.236C181.431 254.236 182.366 254.623 183.056 255.313C183.746 256.003 184.133 256.938 184.133 257.914Z" stroke="#263238" stroke-width="0.557248" stroke-linecap="round" stroke-linejoin="round"/>
<path d="M194.149 259.974C194.149 260.701 193.934 261.412 193.53 262.017C193.125 262.622 192.551 263.093 191.879 263.372C191.207 263.65 190.467 263.723 189.754 263.581C189.04 263.439 188.385 263.089 187.871 262.574C187.356 262.06 187.006 261.405 186.864 260.691C186.722 259.978 186.795 259.238 187.073 258.566C187.352 257.894 187.823 257.32 188.428 256.916C189.033 256.511 189.744 256.296 190.471 256.296C191.447 256.296 192.382 256.683 193.072 257.373C193.762 258.063 194.149 258.998 194.149 259.974Z" stroke="#263238" stroke-width="0.557248" stroke-linecap="round" stroke-linejoin="round"/>
<path d="M184.133 258.919C184.571 258.685 185.082 258.625 185.562 258.753C186.042 258.88 186.456 259.185 186.72 259.606" stroke="#263238" stroke-width="0.557248" stroke-linecap="round" stroke-linejoin="round"/>
<path d="M176.777 257.154C176.777 257.154 166.123 252.667 164.137 252.25" stroke="#263238" stroke-width="0.557248" stroke-linecap="round" stroke-linejoin="round"/>
<path d="M160.128 239.426C160.128 239.426 159.025 230.77 167.864 229.336C176.703 227.901 188.265 230.12 191.845 228.588C191.705 229.355 191.407 230.084 190.97 230.73C190.533 231.376 189.967 231.924 189.307 232.339C189.307 232.339 196.05 234.791 201.358 232.683C201.358 232.683 199.053 239.07 196.074 241.522H198.612C198.612 241.522 193.586 246.328 187.468 246.426C181.35 246.524 175.588 238.102 169.531 240.934C163.475 243.766 160.128 239.426 160.128 239.426Z" fill="#263238"/>
<path opacity="0.4" d="M191.072 267.269C190.62 268.599 190.088 269.901 189.478 271.167C184.574 281.208 170.377 283.157 164.1 273.227L164.027 273.129C160.79 267.379 163.377 261.102 163.377 261.102L165.265 254.972L166.638 253.611C166.638 253.611 166.957 259.827 167.925 261.58C168.894 263.333 174.411 263.848 175.539 264.154C176.667 264.461 179.339 267.649 180.663 268.507C181.988 269.365 186.793 268.654 187.419 269.365C188.044 270.076 191.072 267.269 191.072 267.269Z" fill="black"/>
<path opacity="0.2" d="M135.951 365.961L161.378 394.159C161.378 394.159 189.478 393.534 223.61 410.22C223.61 410.22 260.231 395.091 263.602 382.525C266.974 369.958 186.72 378.847 186.72 378.847L135.951 365.961Z" fill="black"/>
<path d="M143.136 357.686L183.9 371.024C183.9 371.024 198.465 367.8 201.064 367.8C203.663 367.8 213.729 375.977 208.04 378.834C202.351 381.691 186.818 382.058 185.126 381.139C183.434 380.219 138.232 369.639 138.232 369.639L143.136 357.686Z" fill="#EBB376"/>
<path d="M131.047 280.595C140.267 278.805 124.267 335.005 128.191 343.28C132.114 351.556 147.427 356.766 147.427 356.766L140.377 372.324C140.377 372.324 119.535 368.389 108.195 353.934C96.8541 339.48 115.992 283.513 131.047 280.595Z" fill="#263238"/>
<path opacity="0.2" d="M131.047 280.595C140.267 278.805 124.267 335.005 128.191 343.28C132.114 351.556 147.427 356.766 147.427 356.766L140.377 372.324C140.377 372.324 119.535 368.389 108.195 353.934C96.8541 339.48 115.992 283.513 131.047 280.595Z" fill="black"/>
<path d="M147.427 355.54L138.845 372.349L146.201 373.93L152.944 358.458L147.427 355.54Z" fill="#263238"/>
<path opacity="0.2" d="M147.427 355.54L138.845 372.349L146.201 373.93L152.944 358.458L147.427 355.54Z" fill="white"/>
<path d="M164.284 378.834V381.507C164.286 382.398 164.631 383.254 165.248 383.898C165.864 384.542 166.704 384.924 167.594 384.964H266.152C267.072 384.939 267.948 384.569 268.608 383.929C269.269 383.289 269.665 382.425 269.72 381.507V378.834H164.284Z" fill="#263238"/>
<path opacity="0.2" d="M164.284 378.834V381.507C164.286 382.398 164.631 383.254 165.248 383.898C165.864 384.542 166.704 384.924 167.594 384.964H266.152C267.072 384.939 267.948 384.569 268.608 383.929C269.269 383.289 269.665 382.425 269.72 381.507V378.834H164.284Z" fill="white"/>
<path opacity="0.2" d="M201.064 378.834V381.507C201.069 382.399 201.417 383.256 202.035 383.899C202.654 384.542 203.495 384.924 204.387 384.964H266.152C267.072 384.939 267.948 384.569 268.608 383.929C269.269 383.289 269.665 382.425 269.72 381.507V378.834H201.064Z" fill="white"/>
<path d="M204.387 382.512H269.499C270.545 382.461 271.552 382.103 272.394 381.481C273.236 380.859 273.875 380.002 274.232 379.018L289.164 332.173C289.336 331.774 289.403 331.338 289.362 330.905C289.32 330.473 289.17 330.058 288.926 329.699C288.681 329.34 288.35 329.048 287.964 328.851C287.577 328.653 287.147 328.556 286.712 328.568H221.551C220.497 328.645 219.489 329.027 218.648 329.667C217.808 330.307 217.172 331.178 216.818 332.173L201.886 378.957C201.713 379.357 201.646 379.795 201.69 380.229C201.735 380.663 201.89 381.078 202.141 381.435C202.392 381.791 202.73 382.078 203.123 382.266C203.516 382.455 203.951 382.54 204.387 382.512Z" fill="#263238"/>
<path opacity="0.2" d="M204.387 382.512H269.499C270.545 382.461 271.552 382.103 272.394 381.481C273.236 380.859 273.875 380.002 274.232 379.018L289.164 332.173C289.336 331.774 289.403 331.338 289.362 330.905C289.32 330.473 289.17 330.058 288.926 329.699C288.681 329.34 288.35 329.048 287.964 328.851C287.577 328.653 287.147 328.556 286.712 328.568H221.551C220.497 328.645 219.489 329.027 218.648 329.667C217.808 330.307 217.172 331.178 216.818 332.173L201.886 378.957C201.713 379.357 201.646 379.795 201.69 380.229C201.735 380.663 201.89 381.078 202.141 381.435C202.392 381.791 202.73 382.078 203.123 382.266C203.516 382.455 203.951 382.54 204.387 382.512Z" fill="white"/>
<path opacity="0.2" d="M206.839 382.512H269.499C270.545 382.461 271.552 382.103 272.394 381.481C273.236 380.859 273.875 380.002 274.232 379.018L289.164 332.173C289.336 331.774 289.403 331.338 289.361 330.905C289.32 330.473 289.17 330.058 288.925 329.699C288.681 329.34 288.35 329.048 287.964 328.851C287.577 328.653 287.147 328.556 286.712 328.568H224.003C222.949 328.645 221.941 329.027 221.1 329.667C220.26 330.307 219.624 331.178 219.27 332.173L204.337 378.957C204.165 379.357 204.097 379.795 204.142 380.229C204.187 380.663 204.342 381.078 204.593 381.435C204.844 381.791 205.182 382.078 205.575 382.266C205.968 382.455 206.403 382.54 206.839 382.512Z" fill="white"/>
<path opacity="0.2" d="M251.722 350.403L242.711 356.791L246.61 363.166L255.621 356.791L251.722 350.403Z" fill="white"/>
<path opacity="0.2" d="M296.827 47.446H214.378C208.461 47.446 203.663 52.2434 203.663 58.1613V140.61C203.663 146.528 208.461 151.325 214.378 151.325H296.827C302.745 151.325 307.542 146.528 307.542 140.61V58.1613C307.542 52.2434 302.745 47.446 296.827 47.446Z" fill="black"/>
<path d="M310.852 36.0444H241.78C236.816 36.0444 232.793 40.0679 232.793 45.031V114.104C232.793 119.067 236.816 123.09 241.78 123.09H310.852C315.816 123.09 319.839 119.067 319.839 114.104V45.031C319.839 40.0679 315.816 36.0444 310.852 36.0444Z" fill="#407BFF"/>
<path opacity="0.3" d="M310.852 36.0444H241.78C236.816 36.0444 232.793 40.0679 232.793 45.031V114.104C232.793 119.067 236.816 123.09 241.78 123.09H310.852C315.816 123.09 319.839 119.067 319.839 114.104V45.031C319.839 40.0679 315.816 36.0444 310.852 36.0444Z" fill="#00C5FD" fill-opacity="0.5"/>
<path d="M283.022 69.5141V64.2545L280.313 63.9971C279.958 62.2482 279.271 60.5836 278.29 59.0931L280.031 56.9844L276.353 53.3064L274.256 55.0473C272.764 54.0695 271.1 53.3832 269.352 53.0244L269.083 50.2659H263.823L263.59 53.0244C261.842 53.3832 260.178 54.0695 258.686 55.0473L256.59 53.3064L252.912 56.9844L254.653 59.0931C253.671 60.5836 252.985 62.2482 252.63 63.9971L249.92 64.2545V69.5141L252.63 69.7715C252.988 71.5192 253.675 73.1832 254.653 74.6755L252.912 76.7842L256.59 80.4622L258.686 78.7213C260.178 79.6991 261.842 80.3854 263.59 80.7442L263.848 83.4537H269.107L269.365 80.7442C271.112 80.3854 272.776 79.6991 274.269 78.7213L276.365 80.4622L280.043 76.7842L278.302 74.6387C279.28 73.1464 279.966 71.4824 280.325 69.7347L283.022 69.5141ZM266.459 74.0135C265.047 74.0159 263.665 73.5992 262.49 72.8161C261.315 72.033 260.398 70.9187 259.857 69.6144C259.315 68.3101 259.173 66.8744 259.448 65.4891C259.723 64.1039 260.403 62.8314 261.401 61.8327C262.4 60.8341 263.672 60.1543 265.058 59.8794C266.443 59.6044 267.879 59.7468 269.183 60.2883C270.487 60.8299 271.602 61.7464 272.385 62.9216C273.168 64.0969 273.584 65.4781 273.582 66.8904C273.579 68.7786 272.827 70.5885 271.492 71.9236C270.157 73.2587 268.347 74.0102 266.459 74.0135Z" fill="white"/>
<path d="M304.355 84.3856V80.254L302.234 80.0578C301.953 78.698 301.416 77.404 300.652 76.245L302.013 74.6021L299.144 71.6842L297.501 73.0451C296.342 72.2807 295.048 71.7439 293.688 71.4636L293.492 69.3303H289.336L289.14 71.4636C287.78 71.7439 286.486 72.2807 285.327 73.0451L283.684 71.6842L280.754 74.6021L282.115 76.245C281.35 77.404 280.814 78.698 280.533 80.0578L278.412 80.254V84.3856L280.533 84.5818C280.814 85.9416 281.35 87.2356 282.115 88.3946L280.754 90.0375L283.672 92.9554L285.315 91.5945C286.474 92.3589 287.768 92.8957 289.128 93.176L289.324 95.297H293.455L293.652 93.176C295.011 92.8957 296.305 92.3589 297.464 91.5945L299.107 92.9554L302.025 90.0375L300.664 88.3946C301.429 87.2356 301.965 85.9416 302.246 84.5818L304.355 84.3856ZM291.371 87.9042C290.266 87.9042 289.185 87.5763 288.265 86.962C287.346 86.3477 286.629 85.4746 286.206 84.4531C285.783 83.4315 285.672 82.3075 285.888 81.223C286.104 80.1385 286.636 79.1424 287.418 78.3605C288.2 77.5787 289.196 77.0462 290.281 76.8305C291.365 76.6148 292.489 76.7255 293.511 77.1487C294.532 77.5718 295.405 78.2883 296.02 79.2077C296.634 80.1271 296.962 81.208 296.962 82.3137C296.962 83.7964 296.373 85.2184 295.324 86.2668C294.276 87.3152 292.854 87.9042 291.371 87.9042Z" fill="white"/>
<path d="M283.022 96.0939V92.6243L281.232 92.465C280.999 91.3236 280.55 90.2374 279.908 89.2651L281.048 87.8797L278.596 85.4277L277.211 86.5679C276.237 85.9305 275.151 85.4813 274.011 85.2438L273.84 83.4539H270.37L270.198 85.2438C269.058 85.4813 267.973 85.9305 266.998 86.5679L265.613 85.4277L263.161 87.8797L264.301 89.2651C263.66 90.2374 263.21 91.3236 262.977 92.465L261.187 92.6243V96.0939L262.977 96.2656C263.215 97.4055 263.664 98.4909 264.301 99.4654L263.161 100.851L265.613 103.303L266.998 102.163C267.975 102.799 269.059 103.252 270.198 103.499L270.37 105.277H273.84L274.011 103.499C275.15 103.252 276.235 102.799 277.211 102.163L278.596 103.303L281.048 100.851L279.908 99.4654C280.546 98.4909 280.995 97.4055 281.232 96.2656L283.022 96.0939ZM272.172 99.0486C271.242 99.051 270.333 98.7774 269.559 98.2623C268.785 97.7473 268.181 97.0141 267.824 96.1556C267.467 95.2971 267.373 94.352 267.554 93.44C267.735 92.528 268.182 91.6902 268.84 91.0327C269.497 90.3753 270.335 89.9279 271.247 89.7471C272.159 89.5663 273.104 89.6603 273.963 90.0172C274.821 90.3741 275.554 90.9779 276.069 91.7519C276.584 92.526 276.858 93.4355 276.856 94.3653C276.856 95.6074 276.362 96.7986 275.484 97.6769C274.605 98.5551 273.414 99.0486 272.172 99.0486Z" fill="white"/>
<path opacity="0.2" d="M314.53 36.0444H245.458C240.494 36.0444 236.471 40.0679 236.471 45.031V114.104C236.471 119.067 240.494 123.09 245.458 123.09H314.53C319.494 123.09 323.517 119.067 323.517 114.104V45.031C323.517 40.0679 319.494 36.0444 314.53 36.0444Z" fill="white"/>
<path opacity="0.2" d="M446.571 148.273H370.35C364.879 148.273 360.444 152.708 360.444 158.179V234.399C360.444 239.87 364.879 244.305 370.35 244.305H446.571C452.042 244.305 456.477 239.87 456.477 234.399V158.179C456.477 152.708 452.042 148.273 446.571 148.273Z" fill="black"/>
<path d="M456.734 143.136H392.872C388.288 143.136 384.572 146.852 384.572 151.436V215.298C384.572 219.882 388.288 223.598 392.872 223.598H456.734C461.318 223.598 465.034 219.882 465.034 215.298V151.436C465.034 146.852 461.318 143.136 456.734 143.136Z" fill="#407BFF"/>
<path opacity="0.2" d="M456.734 143.136H392.872C388.288 143.136 384.572 146.852 384.572 151.436V215.298C384.572 219.882 388.288 223.598 392.872 223.598H456.734C461.318 223.598 465.034 219.882 465.034 215.298V151.436C465.034 146.852 461.318 143.136 456.734 143.136Z" fill="#00C5FD" fill-opacity="0.5"/>
<path d="M427.874 196.295C427.874 196.87 427.703 197.432 427.384 197.91C427.064 198.388 426.609 198.761 426.078 198.98C425.546 199.2 424.961 199.257 424.397 199.144C423.833 199.031 423.315 198.753 422.91 198.345C422.504 197.937 422.228 197.419 422.117 196.854C422.007 196.29 422.066 195.705 422.288 195.174C422.509 194.644 422.884 194.191 423.363 193.873C423.843 193.555 424.406 193.387 424.981 193.389C425.749 193.392 426.485 193.7 427.027 194.245C427.57 194.789 427.874 195.526 427.874 196.295Z" fill="white"/>
<path d="M424.723 167.312C420.935 167.311 417.183 168.056 413.682 169.505C410.181 170.954 407 173.079 404.321 175.758C401.642 178.437 399.517 181.618 398.068 185.119C396.619 188.619 395.874 192.371 395.876 196.16H418.912C418.874 195.392 418.999 194.625 419.279 193.909C419.559 193.194 419.988 192.545 420.537 192.008C421.087 191.47 421.744 191.055 422.465 190.79C423.187 190.525 423.957 190.417 424.723 190.471C425.312 190.5 425.894 190.611 426.452 190.802L437.253 178.26L429.627 193.095C430.224 194.005 430.536 195.072 430.522 196.16H453.62C453.62 192.368 452.872 188.612 451.42 185.109C449.967 181.606 447.838 178.424 445.154 175.744C442.47 173.065 439.284 170.941 435.778 169.494C432.272 168.047 428.516 167.306 424.723 167.312Z" fill="white"/>
<path opacity="0.2" d="M460.13 143.136H396.268C391.684 143.136 387.968 146.852 387.968 151.436V215.298C387.968 219.882 391.684 223.598 396.268 223.598H460.13C464.714 223.598 468.43 219.882 468.43 215.298V151.436C468.43 146.852 464.714 143.136 460.13 143.136Z" fill="white"/>
<path opacity="0.2" d="M469.975 71.5249H403.097C398.296 71.5249 394.404 75.4166 394.404 80.2173V147.096C394.404 151.896 398.296 155.788 403.097 155.788H469.975C474.776 155.788 478.667 151.896 478.667 147.096V80.2173C478.667 75.4166 474.776 71.5249 469.975 71.5249Z" fill="black"/>
<path d="M480.322 64.0955H424.282C420.26 64.0955 417 67.3559 417 71.3779V127.418C417 131.44 420.26 134.701 424.282 134.701H480.322C484.344 134.701 487.605 131.44 487.605 127.418V71.3779C487.605 67.3559 484.344 64.0955 480.322 64.0955Z" fill="#407BFF"/>
<path opacity="0.2" d="M480.322 64.0955H424.282C420.26 64.0955 417 67.3559 417 71.3779V127.418C417 131.44 420.26 134.701 424.282 134.701H480.322C484.344 134.701 487.605 131.44 487.605 127.418V71.3779C487.605 67.3559 484.344 64.0955 480.322 64.0955Z" fill="#00C5FD" fill-opacity="0.5"/>
<path d="M472.01 82.0071C472.01 81.3925 471.766 80.8032 471.332 80.3686C470.897 79.9341 470.308 79.6899 469.693 79.6899H435.095C434.481 79.6899 433.891 79.9341 433.457 80.3686C433.022 80.8032 432.778 81.3925 432.778 82.0071V89.6328C432.778 90.2474 433.022 90.8367 433.457 91.2713C433.891 91.7058 434.481 91.95 435.095 91.95H469.693C470.308 91.95 470.897 91.7058 471.332 91.2713C471.766 90.8367 472.01 90.2474 472.01 89.6328V82.0071ZM460.584 86.1387H458.598V84.1526H460.584V86.1387ZM465.892 87.1318C465.496 87.1342 465.108 87.0187 464.778 86.8001C464.447 86.5814 464.189 86.2695 464.036 85.9038C463.884 85.5382 463.843 85.1353 463.92 84.7466C463.996 84.3578 464.187 84.0006 464.467 83.7204C464.747 83.4401 465.105 83.2496 465.493 83.1728C465.882 83.0961 466.285 83.1367 466.651 83.2895C467.016 83.4423 467.328 83.7003 467.547 84.0308C467.766 84.3613 467.881 84.7494 467.879 85.1456C467.879 85.4075 467.827 85.6668 467.726 85.9085C467.626 86.1503 467.478 86.3698 467.293 86.5544C467.107 86.739 466.886 86.885 466.644 86.9841C466.402 87.0832 466.142 87.1334 465.88 87.1318H465.892Z" fill="white"/>
<path d="M472.01 95.4932C472.01 94.8786 471.766 94.2893 471.332 93.8547C470.897 93.4202 470.308 93.176 469.693 93.176H435.095C434.481 93.176 433.891 93.4202 433.457 93.8547C433.022 94.2893 432.778 94.8786 432.778 95.4932V103.119C432.778 103.733 433.022 104.323 433.457 104.757C433.891 105.192 434.481 105.436 435.095 105.436H469.693C470.308 105.436 470.897 105.192 471.332 104.757C471.766 104.323 472.01 103.733 472.01 103.119V95.4932ZM460.584 100.397H458.598V98.4111H460.584V100.397ZM465.892 101.39C465.5 101.39 465.116 101.274 464.789 101.056C464.462 100.837 464.208 100.527 464.058 100.164C463.907 99.8013 463.868 99.4019 463.945 99.0166C464.021 98.6314 464.21 98.2775 464.488 97.9997C464.766 97.722 465.12 97.5328 465.505 97.4562C465.89 97.3795 466.29 97.4188 466.653 97.5692C467.015 97.7195 467.326 97.9741 467.544 98.3007C467.762 98.6273 467.879 99.0113 467.879 99.4041C467.879 99.6654 467.827 99.9241 467.726 100.165C467.625 100.406 467.478 100.625 467.292 100.809C467.106 100.992 466.885 101.137 466.643 101.235C466.401 101.333 466.141 101.381 465.88 101.378L465.892 101.39Z" fill="white"/>
<path d="M472.01 108.979C472.01 108.364 471.766 107.775 471.332 107.341C470.897 106.906 470.308 106.662 469.693 106.662H435.095C434.481 106.662 433.891 106.906 433.457 107.341C433.022 107.775 432.778 108.364 432.778 108.979V116.605C432.778 117.219 433.022 117.809 433.457 118.243C433.891 118.678 434.481 118.922 435.095 118.922H469.693C470.308 118.922 470.897 118.678 471.332 118.243C471.766 117.809 472.01 117.219 472.01 116.605V108.979ZM460.584 114.643H458.598V112.657H460.584V114.643ZM465.892 115.636C465.5 115.636 465.116 115.52 464.789 115.301C464.462 115.083 464.208 114.773 464.058 114.41C463.907 114.047 463.868 113.648 463.945 113.263C464.021 112.877 464.21 112.523 464.488 112.246C464.766 111.968 465.12 111.779 465.505 111.702C465.89 111.625 466.29 111.665 466.653 111.815C467.015 111.965 467.326 112.22 467.544 112.547C467.762 112.873 467.879 113.257 467.879 113.65C467.879 113.912 467.827 114.171 467.726 114.413C467.626 114.655 467.478 114.874 467.293 115.059C467.107 115.243 466.886 115.389 466.644 115.489C466.402 115.588 466.142 115.638 465.88 115.636H465.892Z" fill="white"/>
<path opacity="0.2" d="M483.314 64.0955H427.273C423.251 64.0955 419.991 67.3559 419.991 71.3779V127.418C419.991 131.44 423.251 134.701 427.273 134.701H483.314C487.336 134.701 490.596 131.44 490.596 127.418V71.3779C490.596 67.3559 487.336 64.0955 483.314 64.0955Z" fill="white"/>
<path opacity="0.2" d="M350.146 136.772H267.697C261.779 136.772 256.982 141.57 256.982 147.488V229.936C256.982 235.854 261.779 240.651 267.697 240.651H350.146C356.064 240.651 360.861 235.854 360.861 229.936V147.488C360.861 141.57 356.064 136.772 350.146 136.772Z" fill="black"/>
<path d="M359.414 129.429H290.341C285.378 129.429 281.355 133.452 281.355 138.415V207.488C281.355 212.451 285.378 216.475 290.341 216.475H359.414C364.377 216.475 368.401 212.451 368.401 207.488V138.415C368.401 133.452 364.377 129.429 359.414 129.429Z" fill="#407BFF"/>
<path opacity="0.5" d="M359.414 129.429H290.341C285.378 129.429 281.355 133.452 281.355 138.415V207.488C281.355 212.451 285.378 216.475 290.341 216.475H359.414C364.377 216.475 368.401 212.451 368.401 207.488V138.415C368.401 133.452 364.377 129.429 359.414 129.429Z" fill="#00C5FD" fill-opacity="0.5"/>
<path d="M300.799 196.847C300.167 196.215 299.666 195.465 299.324 194.639C298.982 193.813 298.806 192.928 298.806 192.035C298.806 191.141 298.982 190.256 299.324 189.43C299.666 188.605 300.167 187.855 300.799 187.223L316.737 171.358C317.092 171 317.514 170.716 317.979 170.522C318.444 170.328 318.943 170.228 319.447 170.228C319.95 170.228 320.449 170.328 320.914 170.522C321.38 170.716 321.802 171 322.156 171.358L326.349 175.539C326.707 175.894 326.992 176.318 327.186 176.784C327.38 177.25 327.48 177.75 327.48 178.254C327.48 178.759 327.38 179.259 327.186 179.725C326.992 180.191 326.707 180.614 326.349 180.97L310.472 196.847C309.841 197.489 309.089 197.999 308.258 198.348C307.428 198.696 306.536 198.875 305.636 198.875C304.735 198.875 303.844 198.696 303.013 198.348C302.183 197.999 301.43 197.489 300.799 196.847Z" fill="white"/>
<path d="M330.052 170.721L326.925 167.594L344.862 149.658L348.773 148.873L347.988 152.784L330.052 170.721Z" fill="white"/>
<path d="M328.286 174.876L322.769 169.347C322.649 169.233 322.553 169.095 322.487 168.942C322.421 168.789 322.388 168.625 322.388 168.458C322.388 168.292 322.421 168.128 322.487 167.975C322.553 167.822 322.649 167.684 322.769 167.569C322.884 167.447 323.022 167.349 323.176 167.283C323.33 167.216 323.496 167.181 323.664 167.181C323.832 167.181 323.998 167.216 324.152 167.283C324.306 167.349 324.444 167.447 324.559 167.569L330.076 173.086C330.199 173.201 330.296 173.34 330.363 173.494C330.43 173.648 330.464 173.814 330.464 173.981C330.464 174.149 330.43 174.315 330.363 174.469C330.296 174.623 330.199 174.762 330.076 174.876C329.961 174.999 329.823 175.097 329.669 175.163C329.515 175.23 329.349 175.265 329.181 175.265C329.013 175.265 328.847 175.23 328.693 175.163C328.539 175.097 328.401 174.999 328.286 174.876Z" fill="white"/>
<path d="M320.857 164.284L313.292 156.695C314.702 152.907 311.845 148.248 308.744 147.022L308.682 152.858C308.682 153.508 308.424 154.132 307.964 154.592C307.504 155.051 306.881 155.31 306.23 155.31C305.58 155.31 304.956 155.051 304.496 154.592C304.037 154.132 303.778 153.508 303.778 152.858V147.12C302.355 147.697 301.126 148.668 300.236 149.918C299.346 151.169 298.831 152.648 298.752 154.182C298.77 155.992 299.443 157.734 300.647 159.087C301.85 160.439 303.503 161.31 305.299 161.538C306.549 161.73 307.827 161.551 308.977 161.023L316.602 168.673L320.857 164.284Z" fill="white"/>
<path d="M346.039 193.07V198.869C347.462 198.293 348.691 197.322 349.581 196.071C350.471 194.82 350.986 193.341 351.065 191.808C351.077 190.005 350.439 188.258 349.268 186.887C348.098 185.516 346.473 184.612 344.69 184.341C343.518 184.098 342.299 184.218 341.196 184.684L333.276 176.74L328.936 181.08L336.807 188.963C334.527 193.622 338.033 197.545 341.184 198.771V193.009C341.184 192.359 341.442 191.735 341.902 191.275C342.362 190.815 342.985 190.557 343.636 190.557C343.959 190.563 344.278 190.634 344.573 190.763C344.869 190.893 345.137 191.08 345.36 191.314C345.583 191.548 345.758 191.823 345.875 192.124C345.991 192.426 346.047 192.747 346.039 193.07Z" fill="white"/>
<path opacity="0.2" d="M363.092 129.429H294.019C289.056 129.429 285.033 133.452 285.033 138.415V207.488C285.033 212.451 289.056 216.475 294.019 216.475H363.092C368.055 216.475 372.079 212.451 372.079 207.488V138.415C372.079 133.452 368.055 129.429 363.092 129.429Z" fill="white"/>
<path d="M341.135 113.675L424.405 113.675C430.383 113.675 435.23 108.828 435.23 102.849V19.5793C435.23 13.6005 430.383 8.75368 424.405 8.75368L341.135 8.75368C335.156 8.75368 330.309 13.6005 330.309 19.5793V102.849C330.309 108.828 335.156 113.675 341.135 113.675Z" fill="#407BFF"/>
<path opacity="0.2" d="M418.397 25.4148H319.018C311.881 25.4148 306.096 31.2002 306.096 38.3368V137.716C306.096 144.853 311.881 150.638 319.018 150.638H418.397C425.534 150.638 431.319 144.853 431.319 137.716V38.3368C431.319 31.2002 425.534 25.4148 418.397 25.4148Z" fill="black"/>
<path opacity="0.5" d="M341.135 113.675L424.405 113.675C430.383 113.675 435.23 108.828 435.23 102.849V19.5793C435.23 13.6005 430.383 8.75368 424.405 8.75368L341.135 8.75368C335.156 8.75368 330.309 13.6005 330.309 19.5793V102.849C330.309 108.828 335.156 113.675 341.135 113.675Z" fill="#00C5FD" fill-opacity="0.5"/>
<path d="M382.733 28.7007L350.636 41.304C350.636 41.304 354.694 85.44 382.77 93.7155C410.857 85.44 414.915 41.304 414.915 41.304L382.733 28.7007ZM381.924 71.4391C381.715 71.7136 381.446 71.9369 381.138 72.092C380.83 72.247 380.491 72.3298 380.146 72.334C379.798 72.3284 379.455 72.2411 379.146 72.0793C378.838 71.9175 378.571 71.6856 378.368 71.4023L367.101 55.8689C366.93 55.633 366.807 55.3657 366.738 55.0821C366.67 54.7986 366.659 54.5044 366.704 54.2164C366.75 53.9284 366.852 53.6521 367.004 53.4035C367.156 53.1548 367.356 52.9385 367.592 52.7671C367.828 52.5956 368.095 52.4723 368.379 52.4041C368.662 52.336 368.956 52.3243 369.244 52.3699C369.532 52.4154 369.808 52.5172 370.057 52.6695C370.306 52.8218 370.522 53.0216 370.694 53.2575L380.207 66.3512L395.753 45.8279C396.108 45.3608 396.634 45.0534 397.215 44.973C397.797 44.8925 398.386 45.0457 398.855 45.3988C399.314 45.792 399.613 46.3413 399.692 46.941C399.771 47.5408 399.626 48.1486 399.284 48.6477L381.924 71.4391Z" fill="white"/>
<path opacity="0.2" d="M345.56 113.675L428.83 113.675C434.809 113.675 439.656 108.828 439.656 102.849V19.5793C439.656 13.6005 434.809 8.75368 428.83 8.75368L345.56 8.75368C339.582 8.75368 334.735 13.6005 334.735 19.5793V102.849C334.735 108.828 339.582 113.675 345.56 113.675Z" fill="white"/>
<path opacity="0.3" d="M530.932 281.894H426.415V352.426H530.932V281.894Z" fill="#00C5FD" fill-opacity="0.1"/>
<path opacity="0.3" d="M530.932 281.894H426.415V352.426H530.932V281.894Z" fill="#00C5FD" fill-opacity="0.5"/>
<path d="M528.725 287.325H428.352V350.072H528.725V287.325Z" fill="#263238"/>
<path d="M515.472 297.047H432.95V298.886H515.472V297.047Z" fill="white"/>
<path d="M503.2 302.258H432.95V304.097H503.2V302.258Z" fill="white"/>
<path d="M515.472 307.469H432.95V309.308H515.472V307.469Z" fill="white"/>
<path d="M503.2 312.679H432.95V314.518H503.2V312.679Z" fill="white"/>
<path d="M441.863 317.89H432.95V319.729H441.863V317.89Z" fill="white"/>
<path d="M478.668 323.1H432.95V324.939H478.668V323.1Z" fill="white"/>
<path d="M503.2 328.311H432.95V330.15H503.2V328.311Z" fill="white"/>
<path d="M441.863 333.521H432.95V335.36H441.863V333.521Z" fill="white"/>
<path d="M441.863 338.732H432.95V340.571H441.863V338.732Z" fill="white"/>
<path opacity="0.5" d="M229.544 135.154H125.028V205.686H229.544V135.154Z" fill="#00C5FD" fill-opacity="0.5"/>
<path opacity="0.3" d="M229.544 135.154H125.028V205.686H229.544V135.154Z" fill="#00C5FD" fill-opacity="0.1"/>
<path d="M227.35 140.585H126.977V203.332H227.35V140.585Z" fill="#263238"/>
<path d="M214.096 150.307H131.574V152.146H214.096V150.307Z" fill="white"/>
<path d="M201.824 155.518H131.574V157.357H201.824V155.518Z" fill="white"/>
<path d="M214.096 160.729H131.574V162.568H214.096V160.729Z" fill="white"/>
<path d="M201.824 165.939H131.574V167.778H201.824V165.939Z" fill="white"/>
<path d="M140.487 171.15H131.574V172.989H140.487V171.15Z" fill="white"/>
<path d="M177.292 176.36H131.574V178.199H177.292V176.36Z" fill="white"/>
<path d="M201.824 181.571H131.574V183.41H201.824V181.571Z" fill="white"/>
<path d="M140.487 186.781H131.574V188.62H140.487V186.781Z" fill="white"/>
<path d="M140.487 191.991H131.574V193.83H140.487V191.991Z" fill="white"/>
</svg>
