<svg width="58" height="58" viewBox="0 0 58 58" fill="none" xmlns="http://www.w3.org/2000/svg">
<rect width="58" height="58" rx="29" fill="#172AB4"/>
<path d="M29.15 38.7275L29 38.8801L28.835 38.7275C21.71 32.151 17 27.8022 17 23.3924C17 20.3406 19.25 18.0518 22.25 18.0518C24.56 18.0518 26.81 19.5777 27.605 21.6529H30.395C31.19 19.5777 33.44 18.0518 35.75 18.0518C38.75 18.0518 41 20.3406 41 23.3924C41 27.8022 36.29 32.151 29.15 38.7275ZM35.75 15C33.14 15 30.635 16.236 29 18.1738C27.365 16.236 24.86 15 22.25 15C17.63 15 14 18.6774 14 23.3924C14 29.145 19.1 33.8599 26.825 40.9858L29 43L31.175 40.9858C38.9 33.8599 44 29.145 44 23.3924C44 18.6774 40.37 15 35.75 15Z" fill="white"/>
</svg>
