<svg width="58" height="58" viewBox="0 0 58 58" fill="none" xmlns="http://www.w3.org/2000/svg">
<rect width="58" height="58" rx="29" fill="#172AB4"/>
<path d="M18.6991 30.8702H16.7503C15.8038 30.8702 15.0799 30.1623 15.0799 29.2367V16.7134C15.0799 15.7878 15.8038 15.08 16.7503 15.08H41.2495C42.1961 15.08 42.9199 15.7878 42.9199 16.7134V31.4146C42.9199 31.7413 42.6972 31.9591 42.3631 31.9591H28.9999C28.6658 31.9591 28.4431 31.7413 28.4431 31.4146C28.4431 31.2513 28.4431 31.0335 28.4988 30.8702H27.0511C26.9954 32.068 26.3273 33.157 25.3807 33.8649C28.4431 34.6816 30.6703 37.404 30.6703 40.671V41.2155C30.6703 41.5422 30.4476 41.76 30.1135 41.76H15.6367C15.3026 41.76 15.0799 41.5422 15.0799 41.2155V40.671C15.0799 37.404 17.3071 34.6816 20.3695 33.8649C19.423 33.157 18.8105 32.068 18.6991 30.8702ZM41.8063 30.8702C41.5279 27.821 38.911 25.4253 35.6815 25.4253C32.4521 25.4253 29.8908 27.821 29.5567 30.8702H41.8063ZM38.4655 21.6138C38.4655 20.0893 37.2406 18.8914 35.6815 18.8914C34.1225 18.8914 32.8975 20.0893 32.8975 21.6138C32.8975 23.1384 34.1225 24.3363 35.6815 24.3363C37.2406 24.3363 38.4655 23.1384 38.4655 21.6138ZM28.6658 29.7812C29.2226 27.3854 31.0601 25.4797 33.3986 24.7174C32.3964 24.0096 31.7839 22.9206 31.7839 21.6138C31.7839 19.4903 33.51 17.8024 35.6815 17.8024C37.853 17.8024 39.5791 19.4903 39.5791 21.6138C39.5791 22.8662 38.911 24.0096 37.9644 24.7174C39.5791 25.2619 40.9154 26.2964 41.8063 27.6577V16.7134C41.8063 16.3867 41.5836 16.1689 41.2495 16.1689H16.7503C16.4162 16.1689 16.1935 16.3867 16.1935 16.7134V29.2367C16.1935 29.5634 16.4162 29.7812 16.7503 29.7812H18.8105C19.2002 27.9299 20.8706 26.5142 22.8751 26.5142C24.8796 26.5142 26.6057 27.9299 26.9398 29.7812H28.6658ZM16.1935 40.671H29.5567C29.5567 37.3496 26.8284 34.6816 23.4319 34.6816H22.3183C18.9218 34.6816 16.1935 37.3496 16.1935 40.671ZM22.8751 33.5926C24.5455 33.5926 25.9375 32.2314 25.9375 30.5979C25.9375 28.9644 24.5455 27.6032 22.8751 27.6032C21.2047 27.6032 19.8127 28.9644 19.8127 30.5979C19.8127 32.2314 21.2047 33.5926 22.8751 33.5926Z" fill="white"/>
<path d="M29.6329 20.88H19.0874C18.7711 20.88 18.5602 20.648 18.5602 20.3C18.5602 19.952 18.7711 19.72 19.0874 19.72H29.6329C29.9492 19.72 30.1602 19.952 30.1602 20.3C30.1602 20.648 29.9492 20.88 29.6329 20.88Z" fill="white"/>
<path d="M18.5602 24.94C18.5602 24.592 18.7711 24.36 19.0874 24.36H29.6329C29.9492 24.36 30.1602 24.592 30.1602 24.94C30.1602 25.288 29.9492 25.52 29.6329 25.52H19.0874C18.7711 25.52 18.5602 25.288 18.5602 24.94Z" fill="white"/>
<path d="M29.6329 23.1999H19.0874C18.7711 23.1999 18.5602 22.9679 18.5602 22.6199C18.5602 22.2719 18.7711 22.0399 19.0874 22.0399H29.6329C29.9492 22.0399 30.1602 22.2719 30.1602 22.6199C30.1602 22.9679 29.9492 23.1999 29.6329 23.1999Z" fill="white"/>
</svg>
