<svg width="418" height="365" viewBox="0 0 418 365" fill="none" xmlns="http://www.w3.org/2000/svg">
<path d="M354.521 254.527C462.497 200.771 306.402 158.591 282.698 126.103C265.699 102.776 292.4 48.3946 263.457 20.8211C232.995 -8.15369 172.739 -3.97132 136.499 15.5716C81.7398 45.1284 42.9666 165.404 103.708 203.638C149.768 232.688 208.267 181.788 258.046 204.177C289.285 218.266 295.677 283.793 354.521 254.527Z" fill="#407BFF"/>
<path opacity="0.9" d="M354.521 254.527C462.497 200.771 306.402 158.591 282.698 126.103C265.699 102.776 292.4 48.3946 263.457 20.8211C232.995 -8.15369 172.739 -3.97132 136.499 15.5716C81.7398 45.1284 42.9666 165.404 103.708 203.638C149.768 232.688 208.267 181.788 258.046 204.177C289.285 218.266 295.677 283.793 354.521 254.527Z" fill="white"/>
<path d="M209 364.465C324.427 364.465 418 359.002 418 352.263C418 345.524 324.427 340.061 209 340.061C93.5725 340.061 0 345.524 0 352.263C0 359.002 93.5725 364.465 209 364.465Z" fill="#F5F5F5"/>
<path d="M285.641 337.657L277.471 335.415L280.51 315.883L288.681 318.136L285.641 337.657Z" fill="#FFC3BD"/>
<path d="M345.951 343.09H337.468L335.355 323.461H343.838L345.951 343.09Z" fill="#FFC3BD"/>
<path d="M336.778 342.109H347.105C347.273 342.11 347.437 342.168 347.568 342.274C347.699 342.379 347.79 342.526 347.827 342.691L349.509 350.236C349.548 350.421 349.545 350.612 349.499 350.795C349.454 350.978 349.368 351.148 349.248 351.293C349.128 351.438 348.976 351.554 348.805 351.633C348.634 351.711 348.447 351.75 348.258 351.746C344.938 351.692 342.513 351.487 338.32 351.487C335.743 351.487 327.982 351.756 324.425 351.756C320.868 351.756 320.394 348.242 321.849 347.919C328.381 346.496 333.307 344.523 335.399 342.648C335.775 342.302 336.267 342.11 336.778 342.109Z" fill="#263238"/>
<path d="M277.784 334.477L286.709 336.935C286.871 336.981 287.012 337.081 287.11 337.218C287.208 337.355 287.257 337.521 287.248 337.69L286.86 345.397C286.853 345.583 286.803 345.766 286.714 345.931C286.626 346.096 286.501 346.238 286.349 346.347C286.198 346.456 286.023 346.529 285.839 346.561C285.654 346.592 285.465 346.581 285.286 346.529C282.052 345.58 277.482 344.114 273.429 343.004C268.697 341.699 264.536 340.848 258.995 339.296C255.643 338.369 255.643 334.725 257.13 334.801C263.911 335.167 269.171 336.461 275.628 334.574C276.323 334.342 277.07 334.308 277.784 334.477Z" fill="#263238"/>
<path opacity="0.2" d="M280.51 315.894L278.937 325.951L287.118 328.204L288.681 318.147L280.51 315.894Z" fill="black"/>
<path opacity="0.2" d="M343.838 323.472H335.355L336.454 333.593H344.927L343.838 323.472Z" fill="black"/>
<path d="M244.637 74.502L243.904 66.3744L235.949 70.2442C235.949 70.2442 238.04 77.4555 241.985 76.7117L244.637 74.502Z" fill="#FFC3BD"/>
<path d="M242.114 62.5476L233.146 64.4016L235.97 70.244L243.904 66.3743L242.114 62.5476Z" fill="#FFC3BD"/>
<path d="M296.841 75.7309C292.605 77.4092 288.523 79.4505 284.639 81.832C283.809 82.2416 282.979 82.6512 282.138 83.0392C280.09 83.9663 278.009 84.8178 275.918 85.5508C272.009 87.036 267.884 87.877 263.705 88.0408C263.253 88.0408 262.789 88.0409 262.358 87.987H262.045H261.905C261.792 87.9729 261.681 87.9512 261.571 87.9223C260.857 87.7849 260.165 87.5529 259.512 87.2324C257.695 86.2894 256.01 85.1116 254.5 83.7291C251.08 80.6347 247.968 77.216 245.208 73.5211L239.678 76.6795C241.839 81.4092 244.495 85.8968 247.601 90.0674C249.31 92.367 251.302 94.4422 253.53 96.2439C254.871 97.3305 256.373 98.2032 257.981 98.8309C258.448 99.0003 258.923 99.1442 259.404 99.2621L260.17 99.4346L260.763 99.5316C261.528 99.6717 262.293 99.758 263.048 99.8334C268.644 100.165 274.255 99.5527 279.648 98.0225C281.89 97.4404 284.067 96.7613 286.213 96.0175C288.519 95.5325 307.491 91.3285 310.735 84.5268C314.929 75.7201 306.93 72.1306 296.841 75.7309Z" fill="#263238"/>
<path opacity="0.2" d="M293.251 94.1957C295.917 93.4332 298.537 92.519 301.099 91.4577L301.746 84.5159C301.746 84.5159 296.679 86.5855 293.251 94.1957Z" fill="black"/>
<path d="M346.975 76.9596C347.223 77.0235 347.455 77.1357 347.659 77.2896C347.862 77.4436 348.034 77.6362 348.163 77.8565C348.292 78.0769 348.377 78.3205 348.411 78.5736C348.446 78.8266 348.431 79.084 348.366 79.331C346.149 87.8802 344.518 96.5705 343.483 105.341C342.685 111.906 342.2 118.169 341.909 123.86C341.198 137.184 341.489 147.338 341.101 150.809C334.471 150.356 309.496 148.653 295.827 147.661C289.672 99.4452 301.433 74.6097 301.433 74.6097C304.995 73.9401 308.595 73.4901 312.212 73.2623C312.977 73.2623 313.753 73.1868 314.551 73.176C320.982 73.2514 327.402 73.6977 333.781 74.5127C334.989 74.6528 336.207 74.836 337.403 75.0301C341.305 75.6229 344.819 76.4421 346.975 76.9596Z" fill="#263238"/>
<path opacity="0.2" d="M340.863 85.7555C339.97 91.4624 341.017 97.3042 343.839 102.345C344.377 98.3457 345.046 94.2604 345.865 90.1319L340.863 85.7555Z" fill="black"/>
<path d="M333.437 52.6954C331.787 58.8073 330.203 69.7052 333.35 74.5882C329.955 77.628 325.913 76.8626 322.453 76.3237C318.238 75.6661 317.677 74.7068 319.014 72.7342C319.844 71.8287 319.995 70.9017 320.782 68.7889C321.418 66.5616 321.47 64.2081 320.933 61.9549L333.437 52.6954Z" fill="#FFC3BD"/>
<path d="M318.733 70.1256C319.283 72.8959 315.855 74.3726 316.858 75.5799C317.86 76.7872 326.796 79.8269 330.731 78.3933C334.665 76.9596 334.245 76.6039 333.964 73.133C333.684 69.6621 335.905 67.3984 333.037 68.3254C331.571 68.7997 323.961 67.5493 321.773 67.5493C319.585 67.5493 318.291 67.905 318.733 70.1256Z" fill="#263238"/>
<path opacity="0.2" d="M328.338 56.4789L320.933 61.944C321.156 63.0842 321.276 64.2424 321.289 65.4041C323.951 65.2101 327.756 62.5692 328.252 59.8312C328.481 58.728 328.511 57.5925 328.338 56.4789Z" fill="black"/>
<path d="M317.063 32.3333C315.177 33.2065 312.126 37.281 314.638 39.9759C317.149 42.6707 319.726 31.1153 317.063 32.3333Z" fill="#263238"/>
<path d="M335.916 43.8024C334.526 52.1025 334.127 57.0286 329.448 60.8768C322.431 66.6545 312.525 61.7392 311.404 53.1912C310.401 45.5055 312.848 33.2279 321.375 30.7702C323.252 30.2149 325.239 30.1492 327.149 30.5792C329.058 31.0093 330.826 31.9208 332.283 33.2271C333.741 34.5334 334.84 36.191 335.476 38.0421C336.112 39.8932 336.263 41.8762 335.916 43.8024Z" fill="#FFC3BD"/>
<path d="M333.436 49.7527C330.332 47.7801 330.202 45.4949 331.14 43.4468C334.126 36.5265 333.296 33.0232 327.993 33.6592C322.689 34.2952 315.133 34.9096 316.071 32.4842C317.009 30.0589 323.67 29.0349 329.329 29.7032C334.988 30.3715 341.057 34.7694 339.85 41.6898C338.686 48.3082 337.274 50.1839 333.436 49.7527Z" fill="#263238"/>
<path d="M338.891 51.6391C337.832 53.4715 336.093 54.8118 334.051 55.3687C331.335 56.0801 330.03 53.644 330.817 51.057C331.529 48.7826 333.803 45.6673 336.509 46.0662C339.214 46.465 340.163 49.3754 338.891 51.6391Z" fill="#FFC3BD"/>
<path d="M276.403 323.224L290.233 327.029C290.233 327.029 301.131 272.41 301.81 246.012C302.015 237.981 305.486 228.484 308.138 216.562C311.501 201.547 315.683 185.302 319.154 172.583C322.797 159.184 325.568 149.709 325.568 149.709L295.838 147.629C295.838 147.629 280.489 218.136 278.645 243.942C276.716 270.772 276.403 323.224 276.403 323.224Z" fill="#407BFF"/>
<path opacity="0.4" d="M276.403 323.224L290.233 327.029C290.233 327.029 301.131 272.41 301.81 246.012C302.015 237.981 305.486 228.484 308.138 216.562C311.501 201.547 315.683 185.302 319.154 172.583C322.797 159.184 325.568 149.709 325.568 149.709L295.838 147.629C295.838 147.629 280.489 218.136 278.645 243.942C276.716 270.772 276.403 323.224 276.403 323.224Z" fill="black"/>
<path opacity="0.2" d="M308.17 216.563C311.533 201.547 315.715 185.303 319.186 172.583L316.103 165.932C308.698 174.696 306.715 201.827 308.17 216.563Z" fill="black"/>
<path d="M311.878 148.75C311.878 148.75 314.034 216.185 317.57 240.762C321.494 267.71 332.532 331.631 332.532 331.631H348.054C348.054 331.631 347.224 270.728 342.362 244.653C336.822 214.967 341.058 150.787 341.058 150.787L311.878 148.75Z" fill="#407BFF"/>
<path opacity="0.4" d="M311.878 148.75C311.878 148.75 314.034 216.185 317.57 240.762C321.494 267.71 332.532 331.631 332.532 331.631H348.054C348.054 331.631 347.224 270.728 342.362 244.653C336.822 214.967 341.058 150.787 341.058 150.787L311.878 148.75Z" fill="black"/>
<path d="M330.677 331.966H348.959V326.501L328.521 326.145L330.677 331.966Z" fill="#263238"/>
<path d="M274.571 323.062L291.063 327.611L292.529 322.286L274.172 316.929L274.571 323.062Z" fill="#263238"/>
<path d="M324.091 44.266C324.026 44.945 323.606 45.4625 323.164 45.4193C322.722 45.3762 322.409 44.7834 322.485 44.1043C322.56 43.4252 322.97 42.9078 323.423 42.9509C323.875 42.994 324.166 43.5869 324.091 44.266Z" fill="#263238"/>
<path d="M315.565 43.9966C315.5 44.6757 315.08 45.1931 314.627 45.1392C314.174 45.0853 313.883 44.5032 313.959 43.8241C314.034 43.145 314.444 42.6384 314.896 42.6815C315.349 42.7246 315.64 43.3175 315.565 43.9966Z" fill="#263238"/>
<path d="M323.487 49.106C322.408 49.1861 321.329 48.9393 320.392 48.3978C319.455 47.8564 318.703 47.0453 318.233 46.0702C317.763 45.0951 317.598 44.0012 317.758 42.9308C317.919 41.8605 318.398 40.8633 319.134 40.0692C319.869 39.275 320.827 38.7207 321.882 38.4783C322.936 38.2359 324.04 38.3168 325.048 38.7103C326.056 39.1039 326.923 39.7919 327.534 40.6847C328.146 41.5776 328.475 42.634 328.478 43.7163C328.525 45.0912 328.027 46.4289 327.092 47.4383C326.157 48.4477 324.862 49.0471 323.487 49.106ZM323.487 38.8117C322.504 38.7204 321.517 38.9285 320.654 39.4087C319.791 39.889 319.094 40.6188 318.654 41.5025C318.214 42.3862 318.051 43.3823 318.188 44.3601C318.324 45.3379 318.753 46.2516 319.418 46.9813C320.083 47.7109 320.953 48.2223 321.914 48.4483C322.875 48.6744 323.882 48.6045 324.802 48.2478C325.723 47.8912 326.514 47.2644 327.072 46.4499C327.63 45.6354 327.928 44.6712 327.928 43.684C327.975 42.4548 327.535 41.2569 326.703 40.3505C325.872 39.4442 324.716 38.9028 323.487 38.8441V38.8117Z" fill="white"/>
<path d="M312.481 49.106C311.402 49.1861 310.323 48.9393 309.386 48.3978C308.449 47.8564 307.697 47.0453 307.227 46.0702C306.757 45.0951 306.592 44.0012 306.753 42.9308C306.913 41.8605 307.393 40.8633 308.128 40.0692C308.863 39.275 309.821 38.7207 310.876 38.4783C311.931 38.2359 313.034 38.3168 314.042 38.7103C315.05 39.1039 315.917 39.7919 316.529 40.6847C317.14 41.5776 317.469 42.634 317.472 43.7163C317.519 45.0912 317.021 46.4289 316.086 47.4383C315.151 48.4477 313.856 49.0471 312.481 49.106ZM312.481 38.8117C311.499 38.7161 310.511 38.9196 309.647 39.3955C308.783 39.8714 308.082 40.5974 307.638 41.4784C307.193 42.3593 307.026 43.354 307.157 44.332C307.288 45.3099 307.711 46.2255 308.372 46.9585C309.032 47.6915 309.899 48.2077 310.858 48.4394C311.817 48.6712 312.824 48.6075 313.746 48.257C314.668 47.9064 315.463 47.2852 316.026 46.4749C316.589 45.6645 316.894 44.703 316.901 43.7163C316.957 42.4852 316.523 41.2821 315.695 40.3693C314.867 39.4566 313.712 38.9083 312.481 38.8441V38.8117Z" fill="white"/>
<path d="M317.569 44.4384C316.721 46.5115 315.593 48.459 314.217 50.2268C314.675 50.5666 315.201 50.8023 315.76 50.9177C316.318 51.0332 316.895 51.0255 317.451 50.8952L317.569 44.4384Z" fill="#ED847E"/>
<path d="M326.118 42.1856C326.047 42.2011 325.973 42.1962 325.904 42.1714C325.835 42.1466 325.775 42.1029 325.73 42.0455C325.427 41.6409 325.033 41.3132 324.58 41.0885C324.127 40.8639 323.627 40.7486 323.121 40.752C323.069 40.7562 323.016 40.7501 322.966 40.734C322.916 40.7178 322.87 40.692 322.83 40.658C322.79 40.624 322.757 40.5824 322.733 40.5356C322.709 40.4889 322.695 40.4378 322.69 40.3855C322.686 40.3331 322.692 40.2804 322.708 40.2304C322.724 40.1803 322.75 40.134 322.784 40.094C322.818 40.0539 322.86 40.021 322.907 39.997C322.953 39.9731 323.004 39.9585 323.057 39.9543C323.693 39.936 324.325 40.0703 324.898 40.3459C325.472 40.6216 325.972 41.0306 326.355 41.5388C326.422 41.6235 326.452 41.7308 326.44 41.8377C326.428 41.9446 326.374 42.0425 326.291 42.1101C326.238 42.1461 326.18 42.1717 326.118 42.1856Z" fill="#263238"/>
<path d="M319.919 54.4956C320.908 54.5098 321.885 54.2872 322.771 53.8466C323.656 53.4059 324.422 52.7599 325.007 51.9624C325.038 51.9138 325.049 51.8547 325.037 51.7981C325.025 51.7415 324.991 51.6921 324.942 51.6606C324.918 51.645 324.891 51.6344 324.863 51.6292C324.835 51.624 324.806 51.6244 324.778 51.6305C324.721 51.6426 324.672 51.6767 324.641 51.7253C324.091 52.4571 323.378 53.0499 322.558 53.4562C321.738 53.8624 320.834 54.0707 319.919 54.0644C319.891 54.0644 319.863 54.07 319.837 54.0808C319.811 54.0916 319.787 54.1075 319.767 54.1276C319.747 54.1476 319.731 54.1713 319.72 54.1975C319.709 54.2237 319.704 54.2517 319.704 54.28C319.704 54.3083 319.709 54.3363 319.72 54.3625C319.731 54.3887 319.747 54.4124 319.767 54.4324C319.787 54.4525 319.811 54.4683 319.837 54.4792C319.863 54.49 319.891 54.4956 319.919 54.4956Z" fill="#263238"/>
<path d="M310.865 42.2179C310.778 42.2185 310.692 42.1962 310.617 42.1533C310.529 42.0957 310.466 42.0066 310.442 41.9042C310.418 41.8019 310.434 41.6942 310.487 41.6035C310.812 41.0523 311.265 40.5873 311.807 40.2477C312.349 39.9081 312.965 39.704 313.602 39.6525C313.709 39.6524 313.812 39.6941 313.888 39.7686C313.965 39.8431 314.009 39.9445 314.012 40.0513C314.01 40.1573 313.967 40.2584 313.893 40.3343C313.819 40.4103 313.719 40.4555 313.613 40.4609C313.112 40.5067 312.628 40.6726 312.204 40.9446C311.78 41.2167 311.428 41.5869 311.177 42.0239C311.143 42.0778 311.097 42.1233 311.043 42.1569C310.989 42.1905 310.928 42.2114 310.865 42.2179Z" fill="#263238"/>
<path d="M333.976 343.597C333.396 343.641 332.819 343.489 332.337 343.165C332.184 343.034 332.067 342.867 331.995 342.679C331.924 342.49 331.9 342.287 331.927 342.088C331.925 341.972 331.955 341.858 332.014 341.759C332.073 341.66 332.159 341.58 332.262 341.527C333.21 341.042 335.937 342.724 336.25 342.918C336.282 342.938 336.307 342.967 336.322 343.002C336.337 343.036 336.342 343.074 336.336 343.112C336.333 343.153 336.316 343.191 336.289 343.223C336.262 343.254 336.225 343.275 336.185 343.284C335.463 343.47 334.721 343.575 333.976 343.597ZM332.714 341.84C332.625 341.832 332.535 341.851 332.456 341.894C332.391 341.894 332.337 341.969 332.326 342.131C332.308 342.264 332.322 342.4 332.369 342.526C332.416 342.652 332.494 342.764 332.596 342.853C333.542 343.284 334.618 343.338 335.603 343.004C334.724 342.434 333.743 342.039 332.714 341.84Z" fill="#407BFF"/>
<path d="M336.196 343.295H336.099C335.226 342.821 333.523 340.956 333.706 340.061C333.736 339.914 333.815 339.781 333.931 339.685C334.046 339.588 334.192 339.535 334.342 339.533C334.496 339.511 334.653 339.523 334.802 339.568C334.95 339.613 335.088 339.689 335.204 339.792C336.185 340.589 336.39 343.025 336.39 343.144C336.395 343.18 336.39 343.216 336.375 343.249C336.359 343.281 336.335 343.309 336.304 343.327C336.266 343.327 336.228 343.316 336.196 343.295ZM334.482 339.856H334.396C334.137 339.856 334.105 340.007 334.105 340.061C333.997 340.611 335.075 342.023 335.948 342.68C335.891 341.715 335.542 340.79 334.946 340.029C334.802 339.906 334.617 339.844 334.428 339.856H334.482Z" fill="#407BFF"/>
<path d="M276.684 335.383C275.293 335.286 272.868 334.962 272.189 333.917C272.079 333.762 272.012 333.58 271.995 333.391C271.978 333.202 272.011 333.011 272.092 332.839C272.123 332.734 272.181 332.638 272.26 332.563C272.34 332.487 272.438 332.434 272.544 332.408C273.687 332.149 276.522 334.704 276.856 334.995C276.887 335.019 276.909 335.052 276.92 335.09C276.932 335.127 276.932 335.167 276.92 335.204C276.908 335.241 276.886 335.274 276.855 335.298C276.824 335.323 276.787 335.337 276.748 335.34L276.684 335.383ZM272.652 332.839H272.598C272.555 332.85 272.516 332.873 272.486 332.906C272.455 332.938 272.434 332.979 272.426 333.022C272.378 333.131 272.358 333.25 272.368 333.368C272.377 333.487 272.416 333.601 272.48 333.701C272.868 334.283 274.183 334.779 276.069 334.93C274.937 333.949 273.32 332.763 272.652 332.839Z" fill="#407BFF"/>
<path d="M276.683 335.383C276.66 335.393 276.634 335.398 276.608 335.398C276.582 335.398 276.556 335.393 276.533 335.383C275.67 334.671 274.193 332.364 274.603 331.481C274.7 331.276 274.926 331.049 275.476 331.136C275.674 331.171 275.863 331.245 276.031 331.354C276.2 331.463 276.345 331.605 276.457 331.772C277.255 332.903 276.867 335.167 276.856 335.264C276.851 335.299 276.836 335.332 276.813 335.359C276.791 335.385 276.76 335.405 276.727 335.415L276.683 335.383ZM275.174 331.481C275.013 331.481 274.98 331.578 274.97 331.61C274.722 332.138 275.67 333.884 276.511 334.768C276.676 333.813 276.541 332.83 276.123 331.955C276.041 331.832 275.934 331.728 275.81 331.648C275.686 331.568 275.546 331.515 275.401 331.491C275.324 331.492 275.248 331.503 275.174 331.524V331.481Z" fill="#407BFF"/>
<path d="M344.594 144.093L335.97 144.956L341.112 153.116C341.112 153.116 348.097 150.367 347.051 146.508L344.594 144.093Z" fill="#FFC3BD"/>
<path d="M330.3 149.246L335.603 156.468L341.155 153.116L336.013 144.956L330.3 149.246Z" fill="#FFC3BD"/>
<path d="M364.762 107.055C363.985 104.9 363.101 102.744 362.164 100.706C361.463 98.4536 355.534 79.9563 348.452 77.3477C339.322 73.9846 336.487 82.2846 341.004 91.9968C343.063 96.0611 345.472 99.9383 348.205 103.585C348.69 104.371 349.175 105.158 349.627 105.956C350.705 107.918 351.783 109.912 352.71 111.928C354.551 115.68 355.77 119.707 356.321 123.85C356.321 124.313 356.386 124.766 356.386 125.208V125.52C356.381 125.567 356.381 125.614 356.386 125.661C356.395 125.772 356.395 125.884 356.386 125.995C356.321 126.733 356.154 127.458 355.89 128.151C355.118 130.045 354.104 131.832 352.872 133.465C350.104 137.16 346.981 140.575 343.548 143.662L347.213 148.879C351.724 146.29 355.948 143.229 359.814 139.749C361.947 137.835 363.834 135.662 365.43 133.282C366.385 131.842 367.112 130.264 367.586 128.603C367.716 128.125 367.817 127.639 367.888 127.148L367.985 126.372V125.768C368.049 124.992 368.06 124.227 368.071 123.472C367.898 117.853 366.779 112.303 364.762 107.055Z" fill="#263238"/>
<path d="M32.2948 174.76H211.328C213.638 174.738 215.851 173.832 217.513 172.228C219.175 170.624 220.16 168.444 220.264 166.137L224.274 51.9625C224.318 50.8438 224.135 49.7278 223.736 48.6817C223.337 47.6357 222.73 46.6811 221.953 45.8755C221.176 45.0699 220.243 44.4299 219.212 43.994C218.181 43.5581 217.072 43.3353 215.953 43.339H36.9083C34.5979 43.3589 32.3832 44.2643 30.7206 45.8687C29.058 47.4731 28.0743 49.6543 27.9723 51.9625L23.9624 166.126C23.9187 167.246 24.1022 168.364 24.5016 169.411C24.901 170.458 25.5082 171.414 26.2867 172.221C27.0651 173.027 27.9986 173.668 29.0311 174.105C30.0637 174.541 31.1738 174.764 32.2948 174.76Z" fill="#407BFF"/>
<path opacity="0.4" d="M32.2948 174.76H211.328C213.638 174.738 215.851 173.832 217.513 172.228C219.175 170.624 220.16 168.444 220.264 166.137L224.274 51.9625C224.318 50.8438 224.135 49.7278 223.736 48.6817C223.337 47.6357 222.73 46.6811 221.953 45.8755C221.176 45.0699 220.243 44.4299 219.212 43.994C218.181 43.5581 217.072 43.3353 215.953 43.339H36.9083C34.5979 43.3589 32.3832 44.2643 30.7206 45.8687C29.058 47.4731 28.0743 49.6543 27.9723 51.9625L23.9624 166.126C23.9187 167.246 24.1022 168.364 24.5016 169.411C24.901 170.458 25.5082 171.414 26.2867 172.221C27.0651 173.027 27.9986 173.668 29.0311 174.105C30.0637 174.541 31.1738 174.764 32.2948 174.76Z" fill="black"/>
<path d="M33.9978 174.76H213.042C215.351 174.735 217.563 173.828 219.224 172.225C220.886 170.622 221.871 168.443 221.978 166.137L225.988 51.9625C226.032 50.8429 225.848 49.7261 225.449 48.6793C225.049 47.6325 224.442 46.6774 223.663 45.8716C222.885 45.0658 221.951 44.4261 220.918 43.9908C219.886 43.5556 218.776 43.3339 217.656 43.3391H38.6113C36.3028 43.3617 34.0908 44.2683 32.4305 45.8725C30.7702 47.4766 29.788 49.6561 29.6861 51.9625L25.6762 166.126C25.631 167.246 25.8131 168.363 26.2113 169.41C26.6095 170.458 27.2157 171.413 27.9933 172.22C28.7709 173.027 29.7037 173.668 30.7357 174.105C31.7676 174.541 32.8773 174.764 33.9978 174.76Z" fill="#407BFF"/>
<path opacity="0.9" d="M211.328 167.57C212.24 167.56 213.113 167.202 213.768 166.568C214.424 165.935 214.812 165.075 214.853 164.164L218.701 53.9135C218.725 53.4745 218.659 53.0354 218.507 52.6229C218.355 52.2104 218.12 51.8333 217.818 51.5145C217.515 51.1957 217.15 50.942 216.746 50.7688C216.342 50.5956 215.907 50.5066 215.468 50.5072H40.3255C39.4148 50.5199 38.5433 50.8792 37.8883 51.5121C37.2334 52.145 36.8444 53.0038 36.8006 53.9135L32.9309 164.164C32.9074 164.603 32.9737 165.042 33.1257 165.455C33.2777 165.867 33.5122 166.244 33.8148 166.563C34.1175 166.882 34.4819 167.136 34.886 167.309C35.29 167.482 35.7251 167.571 36.1647 167.57H211.328Z" fill="white"/>
<path opacity="0.3" d="M158.488 137.733C164.15 130.602 167.45 121.883 167.931 112.79C168.398 103.955 165.943 95.2123 160.946 87.9115V87.7822C160.861 87.657 160.768 87.5381 160.666 87.4264C156.958 82.2022 152.043 77.9502 146.34 75.032C140.637 72.1138 134.314 70.6156 127.907 70.6646C121.285 70.7151 114.757 72.2455 108.802 75.1437C102.847 78.042 97.6149 82.2349 93.489 87.4157C93.4028 87.5127 93.3166 87.5989 93.2411 87.6959C93.2253 87.7329 93.2073 87.7689 93.1872 87.8037C87.5189 94.937 84.2146 103.659 83.7337 112.758C83.2475 121.623 85.7072 130.401 90.7295 137.723C90.7255 137.755 90.7255 137.787 90.7295 137.82L90.8265 137.938C94.5292 143.21 99.4564 147.505 105.185 150.453C110.913 153.401 117.272 154.914 123.714 154.862C130.326 154.81 136.843 153.283 142.79 150.393C148.737 147.502 153.964 143.321 158.089 138.154C158.189 138.047 158.282 137.936 158.37 137.82C158.411 137.794 158.451 137.765 158.488 137.733ZM123.994 149.882C117.969 149.882 112.892 142.843 110.316 132.462C115.124 131.499 120.017 131.018 124.921 131.029C129.78 131.018 134.627 131.502 139.387 132.473C135.787 142.886 130.02 149.882 124.005 149.882H123.994ZM125.169 126.006C119.848 125.995 114.539 126.522 109.324 127.579C108.684 123.519 108.403 119.411 108.483 115.302H142.923C142.585 119.444 141.9 123.551 140.875 127.579C135.711 126.518 130.452 125.991 125.18 126.006H125.169ZM88.703 115.302H103.471C103.366 119.815 103.669 124.328 104.376 128.787C100.7 129.821 97.1527 131.267 93.8016 133.098C90.5496 127.726 88.793 121.581 88.7138 115.302H88.703ZM95.8174 92.4927C99.0145 94.3368 102.424 95.7847 105.971 96.8044C104.835 101.229 104.088 105.745 103.74 110.3H88.9725C89.7278 103.885 92.0813 97.7621 95.8174 92.4927ZM127.67 75.7093C133.696 75.7093 138.762 82.7482 141.349 93.1287C136.536 94.0867 131.64 94.5669 126.732 94.5623C121.875 94.5708 117.028 94.0905 112.267 93.1287C115.867 82.7482 121.688 75.7093 127.659 75.7093H127.67ZM126.495 99.5747C131.817 99.5847 137.125 99.0574 142.341 98.0009C142.976 102.065 143.257 106.177 143.182 110.289H108.753C109.084 106.142 109.769 102.031 110.801 98.0009C115.961 99.0628 121.216 99.5902 126.484 99.5747H126.495ZM162.962 110.289H148.194C148.294 105.773 147.991 101.256 147.289 96.7937C150.963 95.756 154.51 94.3097 157.863 92.4819C161.112 97.8598 162.868 104.007 162.951 110.289H162.962ZM147.946 115.302H162.714C161.948 121.709 159.591 127.824 155.858 133.088C152.66 131.246 149.25 129.798 145.704 128.776C146.844 124.359 147.591 119.85 147.935 115.302H147.946ZM155.007 88.472C152.225 89.9126 149.303 91.0648 146.286 91.9106C145.172 86.8907 143.101 82.1328 140.185 77.8975C145.972 80.0465 151.084 83.6961 154.996 88.472H155.007ZM114.929 77.9191C111.629 82.1127 109.096 86.8568 107.448 91.9322C104.541 91.0889 101.733 89.9361 99.0727 88.4936C103.423 83.7406 108.86 80.1122 114.918 77.9191H114.929ZM96.6797 137.119C99.4604 135.681 102.378 134.526 105.389 133.67C106.506 138.689 108.577 143.446 111.49 147.683C105.701 145.538 100.585 141.892 96.6689 137.119H96.6797ZM136.779 147.661C140.086 143.472 142.619 138.727 144.26 133.648C147.167 134.493 149.976 135.649 152.635 137.098C148.283 141.851 142.842 145.476 136.779 147.661Z" fill="#407BFF"/>
<path opacity="0.6" d="M72.6093 50.5072L57.0439 167.57H77.7618L93.3271 50.5072H72.6093Z" fill="white"/>
<path opacity="0.6" d="M100.398 50.5072L84.833 167.57H93.3271L108.903 50.5072H100.398Z" fill="white"/>
<path opacity="0.3" d="M126.679 47.1117C126.672 47.2841 126.699 47.4562 126.761 47.6175C126.822 47.7789 126.916 47.926 127.036 48.0501C127.156 48.1741 127.3 48.2724 127.459 48.339C127.618 48.4056 127.789 48.4392 127.962 48.4375C128.317 48.435 128.657 48.2958 128.912 48.0489C129.167 47.802 129.317 47.4663 129.331 47.1117C129.338 46.9392 129.31 46.7671 129.249 46.6058C129.187 46.4445 129.094 46.2973 128.974 46.1733C128.854 46.0493 128.71 45.951 128.551 45.8843C128.392 45.8177 128.22 45.7842 128.048 45.7858C127.693 45.7883 127.353 45.9275 127.098 46.1744C126.843 46.4213 126.693 46.757 126.679 47.1117Z" fill="white"/>
<path d="M239.301 293.926H60.2458C57.7889 293.808 55.434 292.908 53.5255 291.357C51.617 289.805 50.2551 287.683 49.6389 285.302L26.7221 185.162C25.6442 180.419 28.63 176.539 33.3729 176.539H212.417C214.874 176.658 217.228 177.559 219.136 179.11C221.044 180.661 222.406 182.782 223.024 185.162L245.941 285.302C247.04 290.045 244.044 293.926 239.301 293.926Z" fill="#407BFF"/>
<path opacity="0.4" d="M239.301 293.926H60.2458C57.7889 293.808 55.434 292.908 53.5255 291.357C51.617 289.805 50.2551 287.683 49.6389 285.302L26.7221 185.162C25.6442 180.419 28.63 176.539 33.3729 176.539H212.417C214.874 176.658 217.228 177.559 219.136 179.11C221.044 180.661 222.406 182.782 223.024 185.162L245.941 285.302C247.04 290.045 244.044 293.926 239.301 293.926Z" fill="black"/>
<path d="M241.014 293.925H61.9699C59.5125 293.81 57.1568 292.91 55.248 291.359C53.3391 289.807 51.9776 287.684 51.363 285.302L28.4462 185.152C27.3683 180.409 30.3542 176.528 35.0971 176.528H214.141C216.598 176.647 218.952 177.548 220.86 179.099C222.768 180.65 224.13 182.771 224.748 185.152L247.665 285.291C248.754 290.045 245.757 293.925 241.014 293.925Z" fill="#407BFF"/>
<path opacity="0.2" d="M52.495 243.942C51.5252 243.896 50.5956 243.541 49.8428 242.928C49.09 242.314 48.5537 241.476 48.3126 240.536L36.0889 187.081C35.9733 186.683 35.9533 186.264 36.0304 185.857C36.1076 185.45 36.2798 185.067 36.533 184.739C36.7862 184.411 37.1133 184.148 37.4875 183.971C37.8618 183.793 38.2726 183.707 38.6867 183.718H213.818C214.788 183.762 215.719 184.117 216.472 184.73C217.225 185.344 217.761 186.183 218 187.124L230.235 240.536C230.357 240.939 230.382 241.365 230.306 241.779C230.23 242.194 230.056 242.584 229.798 242.917C229.541 243.25 229.207 243.517 228.826 243.696C228.444 243.874 228.026 243.958 227.605 243.942H52.495Z" fill="black"/>
<path opacity="0.2" d="M124.652 285.96C124.086 285.932 123.544 285.725 123.104 285.369C122.664 285.012 122.349 284.524 122.205 283.976L115.08 252.835C115.01 252.6 114.996 252.352 115.041 252.112C115.085 251.871 115.187 251.644 115.336 251.45C115.486 251.256 115.68 251.101 115.901 250.997C116.123 250.893 116.366 250.843 116.611 250.851H166.648C167.218 250.873 167.766 251.077 168.211 251.434C168.656 251.792 168.973 252.283 169.117 252.835L176.253 283.976C176.323 284.211 176.337 284.459 176.292 284.7C176.247 284.94 176.146 285.167 175.997 285.361C175.847 285.555 175.653 285.71 175.432 285.814C175.21 285.918 174.967 285.968 174.722 285.96H124.652Z" fill="black"/>
<path d="M245.898 216.077L251.287 74.0385C251.325 73.1496 251.183 72.2623 250.87 71.4296C250.557 70.5968 250.079 69.8357 249.466 69.1918C248.852 68.5478 248.115 68.0342 247.298 67.6816C246.481 67.329 245.601 67.1447 244.712 67.1397L154.166 66.3744C152.334 66.3751 150.574 67.081 149.249 68.3455C147.924 69.61 147.137 71.336 147.051 73.1654L141.662 215.193C141.623 216.083 141.763 216.972 142.076 217.806C142.388 218.64 142.865 219.402 143.479 220.047C144.093 220.692 144.831 221.207 145.649 221.56C146.466 221.913 147.347 222.098 148.237 222.103L238.783 222.868C240.614 222.865 242.373 222.158 243.697 220.894C245.021 219.63 245.809 217.906 245.898 216.077Z" fill="#407BFF"/>
<path opacity="0.4" d="M245.898 216.077L251.287 74.0385C251.325 73.1496 251.183 72.2623 250.87 71.4296C250.557 70.5968 250.079 69.8357 249.466 69.1918C248.852 68.5478 248.115 68.0342 247.298 67.6816C246.481 67.329 245.601 67.1447 244.712 67.1397L154.166 66.3744C152.334 66.3751 150.574 67.081 149.249 68.3455C147.924 69.61 147.137 71.336 147.051 73.1654L141.662 215.193C141.623 216.083 141.763 216.972 142.076 217.806C142.388 218.64 142.865 219.402 143.479 220.047C144.093 220.692 144.831 221.207 145.649 221.56C146.466 221.913 147.347 222.098 148.237 222.103L238.783 222.868C240.614 222.865 242.373 222.158 243.697 220.894C245.021 219.63 245.809 217.906 245.898 216.077Z" fill="black"/>
<path d="M247.892 216.077L253.335 74.0384C253.371 73.1491 253.228 72.2615 252.914 71.4287C252.6 70.5959 252.121 69.8349 251.506 69.1911C250.892 68.5473 250.154 68.0339 249.336 67.6814C248.519 67.329 247.639 67.1447 246.749 67.1397L156.181 66.3528C154.35 66.3535 152.589 67.0594 151.265 68.3239C149.94 69.5884 149.153 71.3144 149.067 73.1437L143.677 215.172C143.638 216.062 143.779 216.95 144.091 217.784C144.404 218.618 144.881 219.381 145.495 220.026C146.109 220.671 146.847 221.185 147.664 221.539C148.482 221.892 149.362 222.076 150.253 222.081L240.799 222.847C242.623 222.841 244.375 222.135 245.695 220.876C247.014 219.617 247.801 217.899 247.892 216.077Z" fill="#407BFF"/>
<path opacity="0.9" d="M247.568 75.5476C247.583 75.1969 247.526 74.847 247.402 74.5187C247.279 74.1903 247.09 73.8904 246.847 73.6368C246.605 73.3832 246.313 73.1811 245.991 73.0427C245.668 72.9043 245.321 72.8323 244.97 72.8312L157.539 72.0874C156.817 72.0894 156.123 72.3692 155.601 72.8689C155.08 73.3686 154.77 74.0498 154.737 74.7714L149.412 213.684C149.397 214.035 149.454 214.386 149.578 214.715C149.701 215.044 149.89 215.344 150.132 215.599C150.375 215.853 150.666 216.056 150.988 216.196C151.311 216.336 151.658 216.409 152.01 216.412L239.441 217.145C240.162 217.145 240.856 216.868 241.378 216.37C241.9 215.872 242.21 215.192 242.243 214.471L247.568 75.5476Z" fill="white"/>
<path opacity="0.3" d="M231 169.026C236.253 162.4 239.316 154.304 239.764 145.861C240.213 137.642 237.94 129.504 233.296 122.707V122.599C233.221 122.477 233.131 122.364 233.027 122.265C229.584 117.434 225.028 113.504 219.744 110.808C214.46 108.112 208.604 106.728 202.672 106.775C196.523 106.824 190.462 108.245 184.932 110.937C179.403 113.628 174.544 117.52 170.712 122.33C170.631 122.414 170.555 122.504 170.485 122.599L170.432 122.696C165.131 129.303 162.033 137.403 161.571 145.861C161.109 154.088 163.383 162.237 168.039 169.036C168.043 169.069 168.043 169.101 168.039 169.133L168.136 169.241C171.583 174.143 176.171 178.132 181.505 180.865C186.838 183.597 192.756 184.991 198.749 184.925C204.888 184.879 210.94 183.462 216.462 180.779C221.984 178.095 226.837 174.212 230.666 169.414C230.762 169.318 230.852 169.217 230.936 169.112L231 169.026ZM198.975 180.301C193.391 180.301 188.681 173.758 186.277 164.132C190.742 163.24 195.284 162.792 199.837 162.795C204.362 162.782 208.876 163.226 213.312 164.121C209.927 173.758 204.57 180.301 198.975 180.301ZM200.053 158.138C195.112 158.127 190.182 158.615 185.339 159.594C184.745 155.822 184.482 152.006 184.552 148.189H216.545C216.232 152.038 215.593 155.853 214.637 159.594C209.846 158.61 204.966 158.122 200.075 158.138H200.053ZM166.195 148.189H179.896C179.792 152.381 180.073 156.574 180.737 160.715C177.324 161.671 174.03 163.009 170.917 164.703C167.911 159.714 166.289 154.014 166.217 148.189H166.195ZM172.781 127.019C175.751 128.727 178.919 130.067 182.213 131.007C181.151 135.116 180.455 139.311 180.133 143.543H166.443C167.145 137.589 169.332 131.907 172.803 127.019H172.781ZM202.349 111.432C207.944 111.432 212.654 117.964 215.058 127.601C210.59 128.498 206.044 128.945 201.487 128.937C196.976 128.95 192.475 128.503 188.056 127.601C191.43 117.964 196.776 111.432 202.371 111.432H202.349ZM201.271 133.594C206.217 133.6 211.151 133.101 215.996 132.106C216.586 135.882 216.846 139.701 216.772 143.522H184.811C185.117 139.67 185.752 135.851 186.708 132.106C191.502 133.106 196.386 133.604 201.282 133.594H201.271ZM235.129 143.543H221.428C221.522 139.348 221.24 135.152 220.588 131.007C224.002 130.055 227.297 128.717 230.408 127.019C233.424 132.009 235.058 137.713 235.14 143.543H235.129ZM221.191 148.189H234.87C234.159 154.138 231.973 159.814 228.51 164.703C225.537 163.001 222.371 161.662 219.079 160.715C220.15 156.609 220.86 152.418 221.202 148.189H221.191ZM227.745 123.278C225.163 124.628 222.451 125.711 219.65 126.512C218.615 121.859 216.693 117.449 213.991 113.523C219.361 115.499 224.112 118.866 227.756 123.278H227.745ZM190.535 113.491C187.467 117.373 185.116 121.772 183.593 126.48C180.892 125.69 178.285 124.606 175.821 123.246C179.869 118.852 184.921 115.505 190.546 113.491H190.535ZM173.59 168.465C176.168 167.115 178.877 166.032 181.674 165.231C182.717 169.883 184.642 174.292 187.344 178.22C181.979 176.24 177.236 172.87 173.601 168.454L173.59 168.465ZM210.8 178.253C213.862 174.366 216.212 169.969 217.742 165.264C220.441 166.06 223.047 167.144 225.514 168.497C221.474 172.887 216.428 176.231 210.811 178.242L210.8 178.253Z" fill="#407BFF"/>
<path opacity="0.6" d="M176.436 72.249L160.903 216.487L181.599 216.659L197.132 72.4215L176.436 72.249Z" fill="white"/>
<path opacity="0.6" d="M204.193 72.4862L188.66 216.724L197.154 216.789L212.687 72.5509L204.193 72.4862Z" fill="white"/>
<path opacity="0.3" d="M199.427 70.3843C199.713 70.3843 199.987 70.2707 200.19 70.0685C200.392 69.8664 200.505 69.5922 200.505 69.3063C200.514 69.1679 200.495 69.0292 200.448 68.8987C200.401 68.7682 200.327 68.6487 200.232 68.5476C200.137 68.4466 200.023 68.3661 199.895 68.3112C199.768 68.2563 199.631 68.2281 199.492 68.2284C199.206 68.2284 198.932 68.342 198.73 68.5441C198.528 68.7463 198.414 69.0204 198.414 69.3063C198.405 69.4447 198.425 69.5835 198.472 69.714C198.519 69.8445 198.592 69.9639 198.687 70.065C198.782 70.166 198.897 70.2465 199.024 70.3014C199.151 70.3563 199.289 70.3845 199.427 70.3843Z" fill="white"/>
<path d="M273.191 254.15L278.635 142.67C278.672 141.781 278.531 140.893 278.218 140.06C277.905 139.227 277.427 138.465 276.814 137.82C276.2 137.175 275.463 136.66 274.646 136.307C273.829 135.953 272.949 135.767 272.059 135.761L219.704 135.006C217.875 135.007 216.115 135.711 214.791 136.974C213.467 138.236 212.679 139.959 212.59 141.787L207.2 253.277C207.163 254.166 207.304 255.053 207.617 255.886C207.93 256.719 208.408 257.48 209.022 258.124C209.636 258.768 210.373 259.281 211.19 259.634C212.007 259.986 212.886 260.171 213.776 260.176L266.131 260.941C267.953 260.926 269.7 260.214 271.013 258.951C272.326 257.688 273.106 255.97 273.191 254.15Z" fill="#407BFF"/>
<path opacity="0.4" d="M273.191 254.15L278.635 142.67C278.672 141.781 278.531 140.893 278.218 140.06C277.905 139.227 277.427 138.465 276.814 137.82C276.2 137.175 275.463 136.66 274.646 136.307C273.829 135.953 272.949 135.767 272.059 135.761L219.704 135.006C217.875 135.007 216.115 135.711 214.791 136.974C213.467 138.236 212.679 139.959 212.59 141.787L207.2 253.277C207.163 254.166 207.304 255.053 207.617 255.886C207.93 256.719 208.408 257.48 209.022 258.124C209.636 258.768 210.373 259.281 211.19 259.634C212.007 259.986 212.886 260.171 213.776 260.176L266.131 260.941C267.953 260.926 269.7 260.214 271.013 258.951C272.326 257.688 273.106 255.97 273.191 254.15Z" fill="black"/>
<path d="M275.196 254.15L280.586 142.67C280.625 141.781 280.484 140.892 280.172 140.058C279.859 139.224 279.382 138.462 278.768 137.817C278.154 137.172 277.416 136.657 276.599 136.304C275.781 135.95 274.901 135.766 274.01 135.761L221.655 135.006C219.827 135.007 218.069 135.712 216.746 136.974C215.423 138.237 214.637 139.96 214.552 141.787L209.108 253.277C209.07 254.166 209.212 255.053 209.525 255.886C209.838 256.719 210.316 257.48 210.93 258.124C211.543 258.768 212.281 259.281 213.098 259.634C213.914 259.986 214.794 260.171 215.683 260.176L268.038 260.941C269.876 260.949 271.647 260.247 272.98 258.982C274.313 257.717 275.107 255.986 275.196 254.15Z" fill="#407BFF"/>
<path opacity="0.9" d="M274.873 144.18C274.886 143.829 274.828 143.479 274.704 143.151C274.58 142.823 274.391 142.522 274.149 142.268C273.907 142.014 273.616 141.811 273.294 141.671C272.973 141.531 272.626 141.457 272.275 141.452L223.014 140.73C222.291 140.732 221.597 141.012 221.075 141.512C220.554 142.011 220.244 142.693 220.211 143.414L214.907 251.757C214.893 252.108 214.949 252.459 215.073 252.788C215.197 253.116 215.386 253.417 215.628 253.672C215.87 253.926 216.162 254.129 216.484 254.269C216.807 254.408 217.154 254.482 217.505 254.484L266.745 255.217C267.467 255.218 268.161 254.941 268.683 254.443C269.205 253.945 269.515 253.265 269.548 252.544L274.873 144.18Z" fill="white"/>
<path opacity="0.3" d="M263.5 212.951C266.728 208.886 268.612 203.917 268.89 198.734C269.162 193.686 267.764 188.689 264.912 184.516C264.912 184.516 264.912 184.516 264.912 184.451C264.868 184.378 264.818 184.31 264.761 184.246C262.644 181.281 259.844 178.87 256.598 177.215C253.353 175.56 249.756 174.711 246.113 174.739C242.339 174.768 238.62 175.64 235.227 177.293C231.835 178.945 228.855 181.336 226.505 184.289L226.355 184.451V184.516C223.121 188.578 221.237 193.549 220.965 198.734C220.68 203.786 222.079 208.79 224.942 212.962V213.016C224.942 213.016 224.942 213.016 224.996 213.081C227.109 216.071 229.915 218.503 233.174 220.17C236.434 221.838 240.049 222.689 243.709 222.653C247.477 222.624 251.19 221.755 254.578 220.108C257.967 218.461 260.945 216.079 263.295 213.135C263.358 213.075 263.416 213.01 263.468 212.941L263.5 212.951ZM243.849 219.872C240.411 219.872 237.522 215.862 236.056 209.944C238.796 209.397 241.583 209.123 244.378 209.125C247.147 209.12 249.91 209.395 252.624 209.944C250.565 215.808 247.277 219.818 243.849 219.818V219.872ZM244.518 206.268C241.484 206.262 238.458 206.562 235.485 207.163C235.124 204.849 234.965 202.508 235.01 200.167H254.629C254.442 202.528 254.053 204.869 253.465 207.163C250.54 206.545 247.56 206.227 244.572 206.214L244.518 206.268ZM223.735 200.167H232.154C232.095 202.739 232.268 205.312 232.671 207.853C230.573 208.439 228.548 209.26 226.635 210.3C224.778 207.223 223.776 203.707 223.735 200.113V200.167ZM227.777 187.081C229.602 188.125 231.545 188.947 233.566 189.528C232.916 192.051 232.49 194.626 232.294 197.224H223.875C224.307 193.57 225.649 190.083 227.777 187.081ZM245.93 177.509C249.368 177.509 252.257 181.519 253.734 187.437C250.991 187.988 248.199 188.263 245.402 188.256C242.632 188.266 239.869 187.992 237.155 187.437C239.182 181.551 242.502 177.541 245.93 177.541V177.509ZM245.261 191.113C248.295 191.119 251.321 190.819 254.295 190.218C254.655 192.535 254.814 194.88 254.769 197.224H235.15C235.341 194.86 235.731 192.517 236.315 190.218C239.257 190.833 242.255 191.143 245.261 191.145V191.113ZM266.044 197.224H257.625C257.685 194.649 257.511 192.073 257.108 189.528C259.206 188.942 261.231 188.121 263.144 187.081C264.999 190.155 266 193.667 266.044 197.257V197.224ZM257.507 200.113H265.925C265.492 203.764 264.15 207.247 262.023 210.246C260.199 209.202 258.255 208.38 256.235 207.799C256.884 205.28 257.31 202.708 257.507 200.113ZM261.538 184.817C259.952 185.638 258.288 186.295 256.569 186.779C255.932 183.921 254.75 181.213 253.087 178.803C256.38 180.026 259.289 182.102 261.517 184.817H261.538ZM238.697 178.803C236.798 181.185 235.338 183.886 234.385 186.779C232.726 186.302 231.125 185.644 229.61 184.817C232.1 182.107 235.211 180.043 238.675 178.803H238.697ZM228.295 212.542C229.878 211.724 231.539 211.067 233.253 210.58C233.895 213.436 235.077 216.144 236.735 218.557C233.428 217.342 230.507 215.266 228.273 212.542H228.295ZM251.125 218.557C253.024 216.175 254.484 213.474 255.437 210.58C257.094 211.062 258.695 211.72 260.212 212.542C257.711 215.258 254.584 217.322 251.104 218.557H251.125Z" fill="#407BFF"/>
<path opacity="0.6" d="M232.133 140.859L219.995 254.516L236.229 254.764L248.474 141.097L232.133 140.859Z" fill="white"/>
<path opacity="0.6" d="M254.047 141.183L241.802 254.851L248.506 254.948L260.752 141.28L254.047 141.183Z" fill="white"/>
<path opacity="0.3" d="M226.646 139.178C226.932 139.178 227.206 139.064 227.408 138.862C227.61 138.66 227.724 138.386 227.724 138.1C227.724 137.825 227.62 137.56 227.431 137.36C227.243 137.159 226.985 137.039 226.711 137.022C226.425 137.022 226.151 137.136 225.949 137.338C225.746 137.54 225.633 137.814 225.633 138.1C225.632 138.375 225.737 138.64 225.925 138.84C226.114 139.041 226.372 139.161 226.646 139.178Z" fill="white"/>
</svg>
