<svg width="58" height="58" viewBox="0 0 58 58" fill="none" xmlns="http://www.w3.org/2000/svg">
<rect width="58" height="58" rx="29" fill="#172AB4"/>
<path d="M22.5754 27.8399H35.4247C35.5666 27.8399 35.7028 27.7835 35.8032 27.6832C35.9036 27.5828 35.96 27.4467 35.96 27.3048C35.9589 25.8435 35.4975 24.4196 34.6413 23.2352C33.785 22.0508 32.5774 21.166 31.1898 20.7062C31.8332 20.2432 32.3131 19.5881 32.5605 18.8352C32.808 18.0823 32.8102 17.2704 32.5668 16.5161C32.3234 15.7619 31.847 15.1043 31.2061 14.6377C30.5653 14.1712 29.7929 13.9199 29 13.9199C28.2072 13.9199 27.4348 14.1712 26.7939 14.6377C26.153 15.1043 25.6766 15.7619 25.4333 16.5161C25.1899 17.2704 25.1921 18.0823 25.4395 18.8352C25.687 19.5881 26.1669 20.2432 26.8103 20.7062C25.4227 21.166 24.215 22.0508 23.3588 23.2352C22.5026 24.4196 22.0411 25.8435 22.04 27.3048C22.04 27.4467 22.0964 27.5828 22.1968 27.6832C22.2973 27.7835 22.4334 27.8399 22.5754 27.8399ZM26.3231 17.6719C26.3231 17.1426 26.4801 16.6253 26.7743 16.1853C27.0684 15.7452 27.4865 15.4023 27.9756 15.1997C28.4648 14.9972 29.003 14.9442 29.5223 15.0475C30.0416 15.1507 30.5185 15.4056 30.8929 15.7798C31.2673 16.154 31.5222 16.6308 31.6255 17.1498C31.7288 17.6689 31.6758 18.2069 31.4732 18.6958C31.2706 19.1848 30.9275 19.6027 30.4873 19.8967C30.047 20.1907 29.5295 20.3477 29 20.3477C28.2901 20.3477 27.6092 20.0657 27.1072 19.5639C26.6051 19.0621 26.3231 18.3815 26.3231 17.6719ZM29 21.418C30.4735 21.4119 31.8957 21.9581 32.9859 22.9488C34.0762 23.9396 34.7553 25.3029 34.8893 26.7696H23.1108C23.2447 25.3029 23.9239 23.9396 25.0141 22.9488C26.1044 21.9581 27.5266 21.4119 29 21.418Z" fill="white"/>
<path d="M40.1365 26.6799C39.4947 26.6798 38.8726 26.9107 38.3754 27.3334C37.8782 27.7562 37.5365 28.345 37.4081 29H34.5683C34.4206 29 34.279 29.0611 34.1746 29.1699C34.0701 29.2787 34.0115 29.4262 34.0115 29.5801C34.0115 30.6569 33.6008 31.6896 32.8699 32.451C32.1389 33.2124 31.1475 33.6402 30.1137 33.6402H27.8864C26.8527 33.6402 25.8613 33.2124 25.1303 32.451C24.3993 31.6896 23.9887 30.6569 23.9887 29.5801C23.9887 29.4262 23.93 29.2787 23.8256 29.1699C23.7212 29.0611 23.5795 29 23.4319 29H20.5921C20.4541 28.2959 20.07 27.6701 19.5143 27.2442C18.9586 26.8182 18.2708 26.6224 17.5844 26.6946C16.8979 26.7669 16.2617 27.102 15.799 27.6351C15.3363 28.1683 15.0801 28.8614 15.0801 29.5801C15.0801 30.2987 15.3363 30.9918 15.799 31.525C16.2617 32.0581 16.8979 32.3932 17.5844 32.4655C18.2708 32.5377 18.9586 32.3419 19.5143 31.9159C20.07 31.49 20.4541 30.8642 20.5921 30.1601H22.9084C23.0454 31.4358 23.6287 32.6142 24.547 33.4701C25.4653 34.3261 26.6542 34.7996 27.8864 34.8003H28.4433V36.0183C27.7672 36.162 27.1666 36.5621 26.7576 37.141C26.3487 37.7199 26.1607 38.4363 26.2301 39.1513C26.2994 39.8664 26.6212 40.5291 27.133 41.0111C27.6448 41.4931 28.3101 41.7599 29.0001 41.7599C29.69 41.7599 30.3554 41.4931 30.8672 41.0111C31.379 40.5291 31.7007 39.8664 31.7701 39.1513C31.8394 38.4363 31.6514 37.7199 31.2425 37.141C30.8336 36.5621 30.2329 36.162 29.5569 36.0183V34.8003H30.1137C31.346 34.7996 32.5349 34.3261 33.4532 33.4701C34.3715 32.6142 34.9548 31.4358 35.0917 30.1601H37.4081C37.5135 30.6977 37.7631 31.1932 38.128 31.5889C38.4928 31.9847 38.958 32.2645 39.4695 32.3958C39.9809 32.5272 40.5177 32.5047 41.0174 32.331C41.517 32.1573 41.9591 31.8395 42.2923 31.4145C42.6255 30.9895 42.8362 30.4747 42.8997 29.93C42.9633 29.3853 42.8772 28.833 42.6515 28.3372C42.4257 27.8414 42.0696 27.4225 41.6244 27.1292C41.1792 26.8358 40.6633 26.68 40.1365 26.6799ZM17.8636 31.3201C17.5332 31.3201 17.2103 31.2181 16.9356 31.0269C16.6609 30.8357 16.4467 30.5639 16.3203 30.2459C16.1939 29.928 16.1608 29.5781 16.2253 29.2406C16.2897 28.903 16.4488 28.593 16.6824 28.3496C16.916 28.1063 17.2137 27.9406 17.5377 27.8734C17.8618 27.8063 18.1976 27.8407 18.5029 27.9724C18.8081 28.1041 19.069 28.3272 19.2526 28.6133C19.4361 28.8995 19.5341 29.2359 19.5341 29.5801C19.5341 30.0415 19.3581 30.4841 19.0448 30.8105C18.7315 31.1368 18.3067 31.3201 17.8636 31.3201ZM30.6705 38.8604C30.6705 39.2046 30.5726 39.541 30.389 39.8271C30.2055 40.1133 29.9446 40.3363 29.6393 40.468C29.3341 40.5997 28.9982 40.6342 28.6742 40.567C28.3501 40.4999 28.0525 40.3342 27.8189 40.0908C27.5853 39.8475 27.4262 39.5374 27.3617 39.1999C27.2973 38.8623 27.3303 38.5125 27.4568 38.1945C27.5832 37.8766 27.7973 37.6048 28.072 37.4136C28.3467 37.2224 28.6697 37.1203 29.0001 37.1203C29.4431 37.1203 29.868 37.3037 30.1813 37.63C30.4946 37.9563 30.6705 38.3989 30.6705 38.8604ZM40.1365 31.3201C39.8061 31.3201 39.4832 31.2181 39.2085 31.0269C38.9338 30.8357 38.7197 30.5639 38.5932 30.2459C38.4668 29.928 38.4337 29.5781 38.4982 29.2406C38.5626 28.903 38.7217 28.593 38.9553 28.3496C39.189 28.1063 39.4866 27.9406 39.8106 27.8734C40.1347 27.8063 40.4706 27.8407 40.7758 27.9724C41.081 28.1041 41.3419 28.3272 41.5255 28.6133C41.709 28.8995 41.807 29.2359 41.807 29.5801C41.807 30.0415 41.631 30.4841 41.3177 30.8105C41.0045 31.1368 40.5796 31.3201 40.1365 31.3201Z" fill="white"/>
</svg>
