<svg width="58" height="58" viewBox="0 0 58 58" fill="none" xmlns="http://www.w3.org/2000/svg">
<rect width="58" height="58" rx="29" fill="#172AB4"/>
<path d="M41.7501 17H16.2501C15.4986 17 14.778 17.2985 14.2466 17.8299C13.7153 18.3612 13.4167 19.0819 13.4167 19.8333V38.25C13.4167 39.0014 13.7153 39.7221 14.2466 40.2535C14.778 40.7848 15.4986 41.0833 16.2501 41.0833H41.7501C42.5015 41.0833 43.2222 40.7848 43.7535 40.2535C44.2849 39.7221 44.5834 39.0014 44.5834 38.25V19.8333C44.5834 19.0819 44.2849 18.3612 43.7535 17.8299C43.2222 17.2985 42.5015 17 41.7501 17ZM16.2501 38.25V19.8333H27.5834V38.25H16.2501ZM41.7501 38.25H30.4167V19.8333H41.7501V38.25ZM31.8334 24.7917H40.3334V26.9167H31.8334V24.7917ZM31.8334 28.3333H40.3334V30.4583H31.8334V28.3333ZM31.8334 31.875H40.3334V34H31.8334V31.875Z" fill="white"/>
</svg>
