<svg width="110" height="110" viewBox="0 0 110 110" fill="none" xmlns="http://www.w3.org/2000/svg">
<path d="M3.02477 60.1562L9.24664 58.5922C10.1722 53.6678 12.103 48.987 14.9185 44.8422L11.6185 39.5312C11.4219 39.2029 11.3405 38.8184 11.3872 38.4385C11.4339 38.0587 11.606 37.7053 11.8763 37.4344L16.7404 32.5703C17.0071 32.2725 17.3692 32.077 17.7645 32.0174C18.1597 31.9578 18.5634 32.0379 18.906 32.2437L24.406 35.5437C28.5508 32.7283 33.2316 30.7974 38.156 29.8719L39.531 23.65C39.6251 23.2686 39.847 22.931 40.1597 22.6934C40.4724 22.4557 40.8571 22.3323 41.2498 22.3437H48.1248C48.5174 22.3323 48.9021 22.4557 49.2148 22.6934C49.5275 22.931 49.7494 23.2686 49.8435 23.65L51.4076 29.8719C56.332 30.7974 61.0127 32.7283 65.1576 35.5437L70.4685 32.2437C70.7968 32.0471 71.1814 31.9657 71.5612 32.0124C71.9411 32.0591 72.2945 32.2313 72.5654 32.5016L77.4294 37.3656C77.7272 37.6323 77.9227 37.9944 77.9823 38.3897C78.0419 38.7849 77.9619 39.1886 77.756 39.5312L74.456 45.0312C77.2715 49.1761 79.2023 53.8568 80.1279 58.7812L86.3498 60.1562C86.7311 60.2503 87.0687 60.4722 87.3064 60.785C87.5441 61.0977 87.6674 61.4824 87.656 61.875V68.75C87.6674 69.1426 87.5441 69.5273 87.3064 69.84C87.0687 70.1528 86.7311 70.3746 86.3498 70.4687L80.1279 72.0328C79.2023 76.9572 77.2715 81.638 74.456 85.7828L77.756 91.0937C77.9526 91.4221 78.034 91.8066 77.9873 92.1865C77.9406 92.5663 77.7685 92.9197 77.4982 93.1906L72.6341 98.0547C72.3632 98.325 72.0098 98.4971 71.63 98.5438C71.2502 98.5905 70.8656 98.5091 70.5373 98.3125L65.0373 95.0125C60.8924 97.828 56.2117 99.7588 51.2873 100.684L49.8435 106.975C49.7494 107.356 49.5275 107.694 49.2148 107.932C48.9021 108.169 48.5174 108.293 48.1248 108.281H41.2498C40.8571 108.293 40.4724 108.169 40.1597 107.932C39.847 107.694 39.6251 107.356 39.531 106.975L37.9669 100.753C33.0425 99.8275 28.3618 97.8967 24.217 95.0812L18.906 98.3812C18.5777 98.5779 18.1931 98.6592 17.8133 98.6125C17.4334 98.5658 17.0801 98.3937 16.8091 98.1234L11.9451 93.2594C11.6473 92.9927 11.4518 92.6306 11.3922 92.2353C11.3326 91.84 11.4126 91.4364 11.6185 91.0937L14.9185 85.5937C12.103 81.4489 10.1722 76.7682 9.24664 71.8437L3.02477 70.4687C2.64342 70.3746 2.30581 70.1528 2.06814 69.84C1.83047 69.5273 1.70708 69.1426 1.71851 68.75V61.875C1.70708 61.4824 1.83047 61.0977 2.06814 60.785C2.30581 60.4722 2.64342 60.2503 3.02477 60.1562ZM44.6873 79.0625C47.4068 79.0625 50.0652 78.2561 52.3263 76.7452C54.5875 75.2343 56.3499 73.0869 57.3906 70.5744C58.4313 68.0619 58.7036 65.2972 58.1731 62.63C57.6425 59.9628 56.3329 57.5128 54.41 55.5898C52.487 53.6668 50.037 52.3572 47.3698 51.8267C44.7025 51.2962 41.9379 51.5684 39.4254 52.6092C36.9129 53.6499 34.7654 55.4122 33.2546 57.6734C31.7437 59.9346 30.9373 62.593 30.9373 65.3125C30.9373 68.9592 32.3859 72.4566 34.9645 75.0352C37.5432 77.6138 41.0405 79.0625 44.6873 79.0625Z" fill="#59A4FE" fill-opacity="0.7"/>
<path d="M85.9375 46.4063H44.6875C44.2317 46.4063 43.7945 46.2252 43.4722 45.9029C43.1498 45.5806 42.9688 45.1434 42.9688 44.6876C42.9723 39.9944 44.4536 35.4215 47.2024 31.6176C49.9512 27.8137 53.828 24.9719 58.2828 23.4954C56.2173 22.0083 54.6766 19.9044 53.8822 17.4864C53.0879 15.0683 53.0808 12.4606 53.8621 10.0383C54.6434 7.61599 56.1727 5.50385 58.2302 4.0056C60.2877 2.50735 62.7673 1.7002 65.3125 1.7002C67.8577 1.7002 70.3373 2.50735 72.3948 4.0056C74.4523 5.50385 75.9816 7.61599 76.7629 10.0383C77.5442 12.4606 77.5371 15.0683 76.7428 17.4864C75.9485 19.9044 74.4077 22.0083 72.3422 23.4954C76.797 24.9719 80.6738 27.8137 83.4226 31.6176C86.1714 35.4215 87.6527 39.9944 87.6562 44.6876C87.6562 45.1434 87.4752 45.5806 87.1528 45.9029C86.8305 46.2252 86.3933 46.4063 85.9375 46.4063ZM73.9062 13.7501C73.9062 12.0504 73.4022 10.3889 72.4579 8.97564C71.5136 7.5624 70.1715 6.46092 68.6012 5.81048C67.0309 5.16004 65.303 4.98985 63.6359 5.32145C61.9689 5.65304 60.4377 6.47151 59.2358 7.67337C58.0339 8.87523 57.2155 10.4065 56.8839 12.0735C56.5523 13.7405 56.7225 15.4685 57.3729 17.0388C58.0233 18.6091 59.1248 19.9512 60.5381 20.8955C61.9513 21.8398 63.6128 22.3438 65.3125 22.3438C67.5917 22.3438 69.7776 21.4384 71.3892 19.8268C73.0008 18.2151 73.9062 16.0293 73.9062 13.7501ZM65.3125 25.7813C60.5823 25.7617 56.0166 27.516 52.5165 30.6979C49.0164 33.8798 46.8362 38.2582 46.4062 42.9688H84.2188C83.7888 38.2582 81.6086 33.8798 78.1085 30.6979C74.6084 27.516 70.0427 25.7617 65.3125 25.7813Z" fill="#14166C"/>
<path d="M30.9373 42.9688C32.9184 42.9684 34.8388 43.6525 36.3735 44.9053C37.9082 46.1581 38.963 47.9027 39.3592 49.8438H48.1248C48.5806 49.8438 49.0178 50.0248 49.3401 50.3472C49.6625 50.6695 49.8436 51.1067 49.8436 51.5625C49.8436 54.7534 51.1111 57.8136 53.3674 60.0699C55.6237 62.3262 58.6839 63.5938 61.8748 63.5938H68.7498C71.9407 63.5938 75.0009 62.3262 77.2572 60.0699C79.5135 57.8136 80.7811 54.7534 80.7811 51.5625C80.7811 51.1067 80.9621 50.6695 81.2845 50.3472C81.6068 50.0248 82.044 49.8438 82.4998 49.8438H91.2654C91.6914 47.7571 92.8769 45.903 94.5922 44.6408C96.3075 43.3786 98.4304 42.7982 100.549 43.0123C102.668 43.2263 104.632 44.2195 106.06 45.7993C107.489 47.3791 108.279 49.4329 108.279 51.5625C108.279 53.6922 107.489 55.746 106.06 57.3258C104.632 58.9055 102.668 59.8987 100.549 60.1128C98.4304 60.3268 96.3075 59.7465 94.5922 58.4843C92.8769 57.2221 91.6914 55.3679 91.2654 53.2813H84.1154C83.6928 57.0614 81.8922 60.5533 79.0577 63.0898C76.2232 65.6263 72.5535 67.0295 68.7498 67.0313H67.0311V70.6406C69.1177 71.0666 70.9718 72.2521 72.234 73.9674C73.4963 75.6828 74.0766 77.8056 73.8625 79.9245C73.6485 82.0434 72.6553 84.0073 71.0755 85.4355C69.4958 86.8638 67.442 87.6545 65.3123 87.6545C63.1826 87.6545 61.1288 86.8638 59.5491 85.4355C57.9693 84.0073 56.9761 82.0434 56.7621 79.9245C56.548 77.8056 57.1284 75.6828 58.3906 73.9674C59.6528 72.2521 61.5069 71.0666 63.5936 70.6406V67.0313H61.8748C58.0711 67.0295 54.4014 65.6263 51.5669 63.0898C48.7324 60.5533 46.9318 57.0614 46.5092 53.2813H39.3592C39.034 54.8744 38.2635 56.3426 37.1372 57.5153C36.0109 58.688 34.575 59.5172 32.9963 59.9064C31.4175 60.2956 29.7608 60.229 28.2185 59.7143C26.6761 59.1995 25.3114 58.2577 24.2829 56.9984C23.2544 55.739 22.6043 54.2137 22.4081 52.5996C22.2119 50.9854 22.4776 49.3488 23.1744 47.8797C23.8713 46.4106 24.9706 45.1693 26.3447 44.3C27.7188 43.4307 29.3113 42.9691 30.9373 42.9688ZM99.6873 56.7188C100.707 56.7188 101.704 56.4164 102.552 55.8498C103.4 55.2832 104.061 54.4779 104.451 53.5357C104.841 52.5935 104.943 51.5568 104.744 50.5566C104.546 49.5564 104.054 48.6376 103.333 47.9165C102.612 47.1954 101.693 46.7043 100.693 46.5053C99.693 46.3064 98.6563 46.4085 97.7141 46.7988C96.7719 47.189 95.9666 47.8499 95.4 48.6979C94.8335 49.5458 94.5311 50.5427 94.5311 51.5625C94.5311 52.93 95.0743 54.2416 96.0413 55.2085C97.0083 56.1755 98.3198 56.7188 99.6873 56.7188ZM60.1561 79.0625C60.1561 80.0823 60.4585 81.0792 61.025 81.9272C61.5916 82.7751 62.3969 83.436 63.3391 83.8263C64.2813 84.2165 65.318 84.3187 66.3182 84.1197C67.3185 83.9207 68.2372 83.4297 68.9583 82.7085C69.6794 81.9874 70.1705 81.0687 70.3695 80.0685C70.5684 79.0682 70.4663 78.0315 70.0761 77.0893C69.6858 76.1471 69.0249 75.3418 68.177 74.7753C67.329 74.2087 66.3321 73.9063 65.3123 73.9063C63.9448 73.9063 62.6333 74.4495 61.6663 75.4165C60.6993 76.3835 60.1561 77.695 60.1561 79.0625ZM30.9373 56.7188C31.9571 56.7188 32.954 56.4164 33.802 55.8498C34.6499 55.2832 35.3108 54.4779 35.7011 53.5357C36.0913 52.5935 36.1934 51.5568 35.9945 50.5566C35.7955 49.5564 35.3044 48.6376 34.5833 47.9165C33.8622 47.1954 32.9435 46.7043 31.9432 46.5053C30.943 46.3064 29.9063 46.4085 28.9641 46.7988C28.0219 47.189 27.2166 47.8499 26.65 48.6979C26.0835 49.5458 25.7811 50.5427 25.7811 51.5625C25.7811 52.93 26.3243 54.2416 27.2913 55.2085C28.2583 56.1755 29.5698 56.7188 30.9373 56.7188Z" fill="#14166C"/>
</svg>
