<svg width="110" height="110" viewBox="0 0 110 110" fill="none" xmlns="http://www.w3.org/2000/svg">
<path d="M32.6562 67.0312C32.6562 62.0469 32.9483 57.4406 33.3608 53.2812H49.0702C49.4827 57.4406 49.7233 62.0469 49.7749 67.0312H32.6562Z" fill="#59A4FE" fill-opacity="0.7"/>
<path d="M52.525 53.2812H77.5844C79.4462 57.6381 80.5003 62.2972 80.6953 67.0312H53.2812C53.1781 62.3562 52.9375 57.6984 52.525 53.2812Z" fill="#59A4FE" fill-opacity="0.7"/>
<path d="M29.8892 84.2188H4.82979C2.96796 79.8619 1.91383 75.2028 1.71885 70.4688H29.2188C29.2188 75.1438 29.4767 79.8016 29.8892 84.2188Z" fill="#59A4FE" fill-opacity="0.7"/>
<path d="M48.6748 87.6562C47.317 98.5359 44.9107 105.841 42.7279 108.281C41.7145 108.333 40.6991 108.333 39.6857 108.281C37.5029 105.875 35.0967 98.5703 33.7389 87.6562H48.6748Z" fill="#59A4FE" fill-opacity="0.7"/>
<path d="M49.8438 70.4688C49.8438 75.4531 49.5516 80.0594 49.1391 84.2188H33.3438C32.9313 80.0594 32.6906 75.4531 32.6391 70.4688H49.8438Z" fill="#59A4FE" fill-opacity="0.7"/>
<path d="M33.7389 49.8438C35.0967 38.9642 37.5029 31.6595 39.6857 29.2188C40.6991 29.1673 41.7145 29.1673 42.7279 29.2188C44.9107 31.6251 47.317 38.9298 48.6748 49.8438H33.7389Z" fill="#59A4FE" fill-opacity="0.7"/>
<path d="M52.1467 87.6562H75.917C72.9798 93.0325 68.8358 97.6543 63.8107 101.159C58.7855 104.663 53.0162 106.954 46.956 107.852C49.3967 103.383 51.1326 96.0781 52.1467 87.6562Z" fill="#59A4FE" fill-opacity="0.7"/>
<path d="M30.2671 87.6562C31.2812 96.0781 33.0171 103.383 35.4233 107.852C29.3672 106.955 23.6021 104.664 18.5823 101.16C13.5625 97.6551 9.42531 93.0325 6.49678 87.6562H30.2671Z" fill="#59A4FE" fill-opacity="0.7"/>
<path d="M52.1467 49.8438C51.1326 41.4219 49.3967 34.1172 46.9904 29.6484C53.0444 30.5513 58.8069 32.8446 63.8257 36.3486C68.8446 39.8525 72.9832 44.4717 75.917 49.8438H52.1467Z" fill="#59A4FE" fill-opacity="0.7"/>
<path d="M29.4765 58.7469C29.3047 61.4797 29.2187 64.2469 29.1844 67.0312H1.71873C1.91372 62.2972 2.96784 57.6381 4.82967 53.2812H24.3375C25.04 53.2823 25.7349 53.4269 26.3795 53.7062C27.0241 53.9855 27.6049 54.3936 28.0861 54.9054C28.5673 55.4172 28.9389 56.022 29.178 56.6826C29.4171 57.3432 29.5187 58.0456 29.4765 58.7469Z" fill="#59A4FE" fill-opacity="0.7"/>
<path d="M54.9141 70.4688H80.6953C80.5003 75.2028 79.4462 79.8619 77.5844 84.2188H52.525C52.8859 80.3344 53.1266 76.2609 53.1953 72.1875C53.1953 71.7317 53.3764 71.2945 53.6987 70.9722C54.021 70.6498 54.4582 70.4688 54.9141 70.4688Z" fill="#59A4FE" fill-opacity="0.7"/>
<path d="M30.2674 49.8438H6.49706C9.42899 44.4633 13.5715 39.838 18.5976 36.3332C23.6237 32.8284 29.3958 30.5399 35.458 29.6484C33.0174 34.1172 31.2814 41.4219 30.2674 49.8438Z" fill="#59A4FE" fill-opacity="0.7"/>
<path d="M34.8047 20.0578C33.6038 19.1387 32.6198 17.9667 31.9223 16.6249C31.2248 15.2831 30.831 13.8043 30.7687 12.2933C30.7065 10.7823 30.9773 9.27614 31.562 7.88149C32.1466 6.48684 33.0309 5.23784 34.1521 4.22301C35.2733 3.20819 36.6039 2.45236 38.0498 2.0091C39.4956 1.56584 41.0212 1.44599 42.5185 1.65804C44.0159 1.8701 45.4482 2.40886 46.7141 3.23617C47.98 4.06347 49.0485 5.15907 49.8438 6.44531C59.7608 2.40625 70.8642 2.40625 80.7812 6.44531C81.583 5.17393 82.653 4.09317 83.9163 3.27873C85.1796 2.46429 86.6056 1.93584 88.0946 1.7304C89.5836 1.52496 91.0995 1.64748 92.5361 2.0894C93.9727 2.53132 95.2954 3.28194 96.4115 4.28871C97.5276 5.29547 98.4101 6.53405 98.9973 7.91769C99.5844 9.30134 99.862 10.7966 99.8106 12.2988C99.7592 13.801 99.38 15.2738 98.6997 16.6141C98.0193 17.9544 97.0542 19.1297 95.8719 20.0578C99.5103 21.3892 102.652 23.8062 104.871 26.9818C107.091 30.1574 108.281 33.9382 108.281 37.8125C108.281 38.2683 108.1 38.7055 107.778 39.0278C107.456 39.3502 107.018 39.5312 106.562 39.5312H106.202C106.423 41.2414 106.544 42.9631 106.562 44.6875C106.545 52.3545 104.396 59.8656 100.357 66.382C96.3169 72.8984 90.5451 78.1635 83.6859 81.5891C84.0385 83.0117 84.2174 84.4718 84.2188 85.9375C84.2188 86.3933 84.0377 86.8305 83.7153 87.1528C83.393 87.4752 82.9558 87.6562 82.5 87.6562H48.125C47.6692 87.6562 47.232 87.4752 46.9097 87.1528C46.5873 86.8305 46.4062 86.3933 46.4062 85.9375C46.4076 84.4718 46.5865 83.0117 46.9391 81.5891C40.0799 78.1635 34.3081 72.8984 30.2684 66.382C26.2286 59.8656 24.08 52.3545 24.0625 44.6875C24.0813 42.9631 24.2018 41.2414 24.4234 39.5312H24.0625C23.6067 39.5312 23.1695 39.3502 22.8472 39.0278C22.5248 38.7055 22.3438 38.2683 22.3438 37.8125C22.3476 33.932 23.5455 30.1467 25.7748 26.9704C28.004 23.7941 31.1566 21.3807 34.8047 20.0578ZM41.25 5.15625C39.8903 5.15625 38.561 5.55946 37.4305 6.3149C36.2999 7.07033 35.4187 8.14406 34.8983 9.4003C34.378 10.6565 34.2418 12.0389 34.5071 13.3725C34.7724 14.7061 35.4272 15.9311 36.3886 16.8926C37.3501 17.8541 38.5751 18.5089 39.9088 18.7741C41.2424 19.0394 42.6247 18.9033 43.881 18.3829C45.1372 17.8626 46.2109 16.9814 46.9664 15.8508C47.7218 14.7202 48.125 13.391 48.125 12.0312C48.125 10.2079 47.4007 8.4592 46.1114 7.16989C44.822 5.88058 43.0734 5.15625 41.25 5.15625ZM96.25 12.0312C96.25 10.6715 95.8468 9.34229 95.0914 8.2117C94.3359 7.08112 93.2622 6.19993 92.0059 5.67958C90.7497 5.15923 89.3674 5.02308 88.0338 5.28835C86.7001 5.55362 85.4751 6.2084 84.5136 7.16989C83.5522 8.13138 82.8974 9.35638 82.6321 10.69C82.3668 12.0236 82.503 13.406 83.0233 14.6622C83.5437 15.9184 84.4249 16.9922 85.5555 17.7476C86.686 18.503 88.0153 18.9062 89.375 18.9062C91.1984 18.9062 92.947 18.1819 94.2364 16.8926C95.5257 15.6033 96.25 13.8546 96.25 12.0312ZM89.375 22.3438C85.5713 22.3456 81.9016 23.7487 79.0671 26.2852C76.2326 28.8217 74.432 32.3136 74.0094 36.0938H104.741C104.318 32.3136 102.517 28.8217 99.6829 26.2852C96.8484 23.7487 93.1787 22.3456 89.375 22.3438ZM80.6781 84.2187C80.2408 80.4502 78.4338 76.9739 75.6008 74.4506C72.7678 71.9274 69.1063 70.5332 65.3125 70.5332C61.5187 70.5332 57.8572 71.9274 55.0242 74.4506C52.1912 76.9739 50.3842 80.4502 49.9469 84.2187H80.6781ZM72.1875 60.1562C72.1875 58.7965 71.7843 57.4673 71.0289 56.3367C70.2734 55.2061 69.1997 54.3249 67.9434 53.8046C66.6872 53.2842 65.3049 53.1481 63.9713 53.4133C62.6376 53.6786 61.4126 54.3334 60.4511 55.2949C59.4897 56.2564 58.8349 57.4814 58.5696 58.815C58.3043 60.1486 58.4405 61.531 58.9608 62.7872C59.4812 64.0434 60.3624 65.1172 61.493 65.8726C62.6235 66.628 63.9528 67.0312 65.3125 67.0312C67.1359 67.0312 68.8845 66.3069 70.1739 65.0176C71.4632 63.7283 72.1875 61.9796 72.1875 60.1562ZM48.125 78.2891C49.1567 75.9624 50.6475 73.868 52.5082 72.1314C54.3688 70.3948 56.5609 69.0518 58.9531 68.1828C57.2853 66.8475 56.0733 65.027 55.4848 62.9731C54.8963 60.9192 54.9603 58.7332 55.6679 56.7172C56.3755 54.7012 57.6919 52.9548 59.435 51.7193C61.1781 50.4837 63.2619 49.8201 65.3984 49.8201C67.535 49.8201 69.6188 50.4837 71.3619 51.7193C73.105 52.9548 74.4213 54.7012 75.1289 56.7172C75.8365 58.7332 75.9005 60.9192 75.312 62.9731C74.7235 65.027 73.5116 66.8475 71.8438 68.1828C74.2043 69.0714 76.3632 70.4233 78.1933 72.1589C80.0234 73.8946 81.4877 75.9789 82.5 78.2891C89.5199 74.7775 95.2537 69.1416 98.8856 62.1832C102.518 55.2248 103.863 47.2983 102.73 39.5312H72.1875C71.7317 39.5312 71.2945 39.3502 70.9722 39.0278C70.6498 38.7055 70.4688 38.2683 70.4688 37.8125C70.4727 33.932 71.6705 30.1467 73.8998 26.9704C76.129 23.7941 79.2816 21.3807 82.9297 20.0578C81.726 19.0941 80.7538 17.8728 80.0845 16.4837C79.4153 15.0946 79.066 13.5731 79.0625 12.0312C79.069 11.2084 79.1729 10.3891 79.3719 9.59062C70.3431 5.99889 60.2819 5.99889 51.2531 9.59062C51.4521 10.3891 51.556 11.2084 51.5625 12.0312C51.559 13.5731 51.2097 15.0946 50.5405 16.4837C49.8712 17.8728 48.899 19.0941 47.6953 20.0578C51.3434 21.3807 54.496 23.7941 56.7252 26.9704C58.9545 30.1467 60.1523 33.932 60.1562 37.8125C60.1562 38.2683 59.9752 38.7055 59.6528 39.0278C59.3305 39.3502 58.8933 39.5312 58.4375 39.5312H27.8953C26.7551 47.2888 28.0875 55.2083 31.7034 62.1656C35.3194 69.1229 41.0351 74.7644 48.0391 78.2891H48.125ZM56.6156 36.0938C56.1783 32.3253 54.3713 28.8489 51.5383 26.3256C48.7053 23.8024 45.0438 22.4082 41.25 22.4082C37.4562 22.4082 33.7947 23.8024 30.9617 26.3256C28.1287 28.8489 26.3217 32.3253 25.8844 36.0938H56.6156Z" fill="#14166C"/>
</svg>
