<svg width="58" height="58" viewBox="0 0 58 58" fill="none" xmlns="http://www.w3.org/2000/svg">
<rect width="58" height="58" rx="29" fill="#172AB4"/>
<path d="M42.2242 13.9199H38.7457C38.5612 13.9199 38.3842 13.9932 38.2537 14.1237C38.1233 14.2542 38.05 14.4311 38.05 14.6156C38.05 14.8002 38.1233 14.9771 38.2537 15.1076C38.3842 15.2381 38.5612 15.3114 38.7457 15.3114H40.5476L36.1646 19.6874C36.0336 19.8184 35.96 19.9961 35.96 20.1814C35.96 20.3666 36.0336 20.5443 36.1646 20.6753C36.2956 20.8063 36.4733 20.8799 36.6585 20.8799C36.8438 20.8799 37.0215 20.8063 37.1525 20.6753L41.5285 16.2923V18.0942C41.5285 18.2787 41.6018 18.4557 41.7323 18.5862C41.8628 18.7166 42.0397 18.7899 42.2242 18.7899C42.4088 18.7899 42.5857 18.7166 42.7162 18.5862C42.8467 18.4557 42.92 18.2787 42.92 18.0942V14.6156C42.92 14.4311 42.8467 14.2542 42.7162 14.1237C42.5857 13.9932 42.4088 13.9199 42.2242 13.9199Z" fill="white"/>
<path d="M42.1871 36.6819C41.9927 36.6819 41.8062 36.7583 41.6687 36.8944C41.5313 37.0304 41.454 37.2149 41.454 37.4073V39.2862L38.522 36.3845C38.4553 34.4604 37.7951 32.6025 36.6302 31.0606C35.4653 29.5187 33.8514 28.3666 32.0054 27.7591C32.8864 27.1314 33.5435 26.2434 33.8822 25.2228C34.221 24.2022 34.224 23.1016 33.8908 22.0792C33.5576 21.0568 32.9054 20.1653 32.0279 19.533C31.1504 18.9006 30.0929 18.5599 29.0074 18.5599C27.9219 18.5599 26.8644 18.9006 25.9869 19.533C25.1094 20.1653 24.4572 21.0568 24.124 22.0792C23.7908 23.1016 23.7938 24.2022 24.1326 25.2228C24.4714 26.2434 25.1284 27.1314 26.0094 27.7591C24.1641 28.3629 22.5495 29.5107 21.3821 31.0485C20.2147 32.5863 19.5504 34.4406 19.4782 36.3627L16.5461 39.2644V37.4073C16.5461 37.2149 16.4689 37.0304 16.3314 36.8944C16.1939 36.7583 16.0075 36.6819 15.8131 36.6819C15.6187 36.6819 15.4322 36.7583 15.2948 36.8944C15.1573 37.0304 15.0801 37.2149 15.0801 37.4073V41.0345C15.0801 41.2269 15.1573 41.4114 15.2948 41.5475C15.4322 41.6835 15.6187 41.7599 15.8131 41.7599H19.4782C19.6726 41.7599 19.859 41.6835 19.9965 41.5475C20.134 41.4114 20.2112 41.2269 20.2112 41.0345C20.2112 40.8421 20.134 40.6576 19.9965 40.5215C19.859 40.3855 19.6726 40.3091 19.4782 40.3091H17.565L20.4971 37.4073H37.4884L40.4205 40.3091H38.522C38.3276 40.3091 38.1411 40.3855 38.0037 40.5215C37.8662 40.6576 37.789 40.8421 37.789 41.0345C37.789 41.2269 37.8662 41.4114 38.0037 41.5475C38.1411 41.6835 38.3276 41.7599 38.522 41.7599H42.1871C42.3815 41.7599 42.5679 41.6835 42.7054 41.5475C42.8428 41.4114 42.9201 41.2269 42.9201 41.0345V37.4073C42.9201 37.2149 42.8428 37.0304 42.7054 36.8944C42.5679 36.7583 42.3815 36.6819 42.1871 36.6819ZM25.3277 23.6241C25.3277 22.9067 25.5426 22.2054 25.9453 21.6089C26.3481 21.0124 26.9205 20.5475 27.5902 20.273C28.2599 19.9985 28.9968 19.9266 29.7078 20.0666C30.4187 20.2066 31.0718 20.552 31.5844 21.0593C32.0969 21.5665 32.446 22.2128 32.5874 22.9164C32.7288 23.6201 32.6562 24.3494 32.3788 25.0121C32.1014 25.6749 31.6317 26.2414 31.029 26.64C30.4262 27.0385 29.7176 27.2512 28.9927 27.2512C28.0207 27.2512 27.0885 26.8691 26.4011 26.1889C25.7138 25.5086 25.3277 24.5861 25.3277 23.6241ZM20.9296 35.9565C21.1016 33.9651 22.0226 32.1101 23.5102 30.7583C24.9978 29.4066 26.9439 28.6566 28.9634 28.6566C30.983 28.6566 32.929 29.4066 34.4167 30.7583C35.9043 32.1101 36.8252 33.9651 36.9973 35.9565H20.9296Z" fill="white"/>
<path d="M15.7758 18.7899C15.9603 18.7899 16.1373 18.7166 16.2677 18.5862C16.3982 18.4557 16.4715 18.2787 16.4715 18.0942V16.2923L20.8476 20.6753C20.9786 20.8063 21.1562 20.8799 21.3415 20.8799C21.5268 20.8799 21.7045 20.8063 21.8355 20.6753C21.9665 20.5443 22.0401 20.3666 22.0401 20.1814C22.0401 19.9961 21.9665 19.8184 21.8355 19.6874L17.4525 15.3114H19.2544C19.4389 15.3114 19.6158 15.2381 19.7463 15.1076C19.8768 14.9771 19.9501 14.8002 19.9501 14.6156C19.9501 14.4311 19.8768 14.2542 19.7463 14.1237C19.6158 13.9932 19.4389 13.9199 19.2544 13.9199H15.7758C15.5913 13.9199 15.4143 13.9932 15.2838 14.1237C15.1534 14.2542 15.0801 14.4311 15.0801 14.6156V18.0942C15.0801 18.2787 15.1534 18.4557 15.2838 18.5862C15.4143 18.7166 15.5913 18.7899 15.7758 18.7899Z" fill="white"/>
</svg>
