<svg width="110" height="110" viewBox="0 0 110 110" fill="none" xmlns="http://www.w3.org/2000/svg">
<path d="M64.3843 67.0312C64.3091 72.6237 63.7687 78.2003 62.7687 83.7031C52.7708 79.8069 41.6743 79.8069 31.6765 83.7031C30.6501 78.202 30.0753 72.6261 29.9577 67.0312H64.3843Z" fill="#59A4FE" fill-opacity="0.7"/>
<path d="M47.214 49.8438C52.5062 49.8307 57.7504 48.8401 62.6827 46.9219C63.6828 52.4247 64.2232 58.0013 64.2983 63.5938H29.9233C30.0409 57.9989 30.6157 52.423 31.6421 46.9219C36.6067 48.8526 41.8871 49.8434 47.214 49.8438Z" fill="#59A4FE" fill-opacity="0.7"/>
<path d="M29.2189 88.5845C31.1439 96.5079 34.0143 102.953 37.5205 107.164C30.3149 105.48 23.6664 101.963 18.2189 96.9548C21.3727 93.5482 25.0948 90.7159 29.2189 88.5845Z" fill="#59A4FE" fill-opacity="0.7"/>
<path d="M62.0469 87.1062C59.6234 97.5906 55.55 105.428 50.8234 108.127C48.4273 108.333 46.018 108.333 43.6219 108.127C38.8953 105.428 34.8219 97.5906 32.3984 87.1062C41.907 83.2598 52.5383 83.2598 62.0469 87.1062Z" fill="#59A4FE" fill-opacity="0.7"/>
<path d="M43.6219 22.4984C46.018 22.2922 48.4273 22.2922 50.8234 22.4984C55.55 25.1969 59.6234 33.0344 62.0469 43.5187C57.3343 45.4261 52.298 46.4065 47.2141 46.4062C42.1355 46.4086 37.1044 45.4281 32.3984 43.5187C34.8219 33.0344 38.8953 25.1969 43.6219 22.4984Z" fill="#59A4FE" fill-opacity="0.7"/>
<path d="M76.2607 96.9548C70.8133 101.963 64.1648 105.48 56.9592 107.164C60.3967 102.953 63.3357 96.5079 65.2436 88.5845C69.3757 90.7112 73.1042 93.544 76.2607 96.9548Z" fill="#59A4FE" fill-opacity="0.7"/>
<path d="M67.8219 63.5938C67.7642 57.5247 67.1602 51.4732 66.0172 45.5125C70.7813 43.176 75.0751 39.9833 78.6844 36.0938C85.6814 43.5881 89.7503 53.3485 90.1484 63.5938H67.8219Z" fill="#59A4FE" fill-opacity="0.7"/>
<path d="M65.3124 42.0405C63.4046 34.1343 60.5343 27.6718 57.028 23.478C64.2347 25.15 70.8848 28.6616 76.3296 33.6702C73.173 37.081 69.4445 39.9137 65.3124 42.0405Z" fill="#59A4FE" fill-opacity="0.7"/>
<path d="M28.4282 45.5125C27.3141 51.4758 26.7388 57.5273 26.7095 63.5938H4.36572C4.76389 53.3485 8.83278 43.5881 15.8298 36.0938C19.4152 39.9803 23.686 43.1732 28.4282 45.5125Z" fill="#59A4FE" fill-opacity="0.7"/>
<path d="M26.6235 67.0312C26.6529 73.0977 27.2281 79.1492 28.3423 85.1125C23.6062 87.4536 19.3414 90.6464 15.761 94.5312C8.76402 87.0369 4.69513 77.2765 4.29697 67.0312H26.6235Z" fill="#59A4FE" fill-opacity="0.7"/>
<path d="M66.0171 85.1125C67.1601 79.1518 67.7641 73.1003 67.8218 67.0312H90.1655C89.7674 77.2765 85.6985 87.0369 78.7015 94.5312C75.0871 90.64 70.7873 87.4472 66.0171 85.1125Z" fill="#59A4FE" fill-opacity="0.7"/>
<path d="M18.1843 33.6702C23.6291 28.6616 30.2792 25.15 37.4858 23.478C34.0483 27.6718 31.1093 34.1343 29.1843 42.0405C25.0602 39.9091 21.3381 37.0768 18.1843 33.6702Z" fill="#59A4FE" fill-opacity="0.7"/>
<path d="M42.1092 1.71875H50.7029C51.1588 1.71875 51.5959 1.89983 51.9183 2.22216C52.2406 2.54449 52.4217 2.98166 52.4217 3.4375C52.4217 3.89334 52.2406 4.33051 51.9183 4.65284C51.5959 4.97517 51.1588 5.15625 50.7029 5.15625H46.2514L57.0795 15.9672C57.4031 16.2908 57.585 16.7298 57.585 17.1875C57.585 17.6452 57.4031 18.0842 57.0795 18.4078C56.7558 18.7315 56.3169 18.9133 55.8592 18.9133C55.4015 18.9133 54.9625 18.7315 54.6389 18.4078L43.8279 7.57969V12.0312C43.8279 12.4871 43.6468 12.9243 43.3245 13.2466C43.0022 13.5689 42.565 13.75 42.1092 13.75C41.6533 13.75 41.2162 13.5689 40.8938 13.2466C40.5715 12.9243 40.3904 12.4871 40.3904 12.0312V3.4375C40.3904 2.98166 40.5715 2.54449 40.8938 2.22216C41.2162 1.89983 41.6533 1.71875 42.1092 1.71875Z" fill="#14166C"/>
<path d="M42.1091 55C42.5649 55 43.0021 55.1811 43.3244 55.5034C43.6468 55.8258 43.8278 56.2629 43.8278 56.7188V61.1703L50.7028 54.2953C50.8592 49.7366 52.4072 45.3349 55.1386 41.6817C57.8701 38.0285 61.6542 35.2988 65.9825 33.8594C63.917 32.3723 62.3763 30.2684 61.5819 27.8504C60.7876 25.4323 60.7805 22.8246 61.5618 20.4023C62.3431 17.98 63.8724 15.8679 65.9299 14.3696C67.9874 12.8714 70.467 12.0642 73.0122 12.0642C75.5574 12.0642 78.037 12.8714 80.0945 14.3696C82.152 15.8679 83.6813 17.98 84.4626 20.4023C85.2439 22.8246 85.2369 25.4323 84.4425 27.8504C83.6482 30.2684 82.1074 32.3723 80.0419 33.8594C84.3687 35.29 88.1545 38.0094 90.8918 41.6529C93.629 45.2964 95.1867 49.6898 95.356 54.2438L102.231 61.1188V56.7188C102.231 56.2629 102.412 55.8258 102.734 55.5034C103.057 55.1811 103.494 55 103.95 55C104.406 55 104.843 55.1811 105.165 55.5034C105.487 55.8258 105.668 56.2629 105.668 56.7188V65.3125C105.668 65.7684 105.487 66.2055 105.165 66.5279C104.843 66.8502 104.406 67.0313 103.95 67.0313H95.356C94.9001 67.0313 94.4629 66.8502 94.1406 66.5279C93.8183 66.2055 93.6372 65.7684 93.6372 65.3125C93.6372 64.8567 93.8183 64.4195 94.1406 64.0972C94.4629 63.7749 94.9001 63.5938 95.356 63.5938H99.8419L92.9669 56.7188H53.1263L46.2513 63.5938H50.7028C51.1587 63.5938 51.5959 63.7749 51.9182 64.0972C52.2405 64.4195 52.4216 64.8567 52.4216 65.3125C52.4216 65.7684 52.2405 66.2055 51.9182 66.5279C51.5959 66.8502 51.1587 67.0313 50.7028 67.0313H42.1091C41.6533 67.0313 41.2161 66.8502 40.8938 66.5279C40.5714 66.2055 40.3903 65.7684 40.3903 65.3125V56.7188C40.3903 56.2629 40.5714 55.8258 40.8938 55.5034C41.2161 55.1811 41.6533 55 42.1091 55ZM81.6403 24.0625C81.6403 22.3628 81.1363 20.7013 80.192 19.2881C79.2477 17.8749 77.9056 16.7734 76.3353 16.1229C74.765 15.4725 73.0371 15.3023 71.37 15.6339C69.703 15.9655 68.1717 16.784 66.9699 17.9858C65.768 19.1877 64.9496 20.7189 64.618 22.386C64.2864 24.053 64.4566 25.7809 65.107 27.3512C65.7574 28.9215 66.8589 30.2637 68.2722 31.208C69.6854 32.1523 71.3469 32.6563 73.0466 32.6563C75.3258 32.6563 77.5116 31.7509 79.1233 30.1392C80.7349 28.5276 81.6403 26.3417 81.6403 24.0625ZM91.9528 53.2813C91.5494 48.5631 89.39 44.1681 85.9019 40.9655C82.4137 37.7629 77.8507 35.9859 73.1153 35.9859C68.3799 35.9859 63.817 37.7629 60.3288 40.9655C56.8406 44.1681 54.6813 48.5631 54.2778 53.2813H91.9528Z" fill="#14166C"/>
<path d="M103.984 13.75C103.529 13.75 103.091 13.5689 102.769 13.2466C102.447 12.9243 102.266 12.4871 102.266 12.0312V7.57969L91.4547 18.4078C91.131 18.7315 90.6921 18.9133 90.2344 18.9133C89.7767 18.9133 89.3377 18.7315 89.0141 18.4078C88.6904 18.0842 88.5086 17.6452 88.5086 17.1875C88.5086 16.7298 88.6904 16.2908 89.0141 15.9672L99.8422 5.15625H95.3906C94.9348 5.15625 94.4976 4.97517 94.1753 4.65284C93.853 4.33051 93.6719 3.89334 93.6719 3.4375C93.6719 2.98166 93.853 2.54449 94.1753 2.22216C94.4976 1.89983 94.9348 1.71875 95.3906 1.71875H103.984C104.44 1.71875 104.877 1.89983 105.2 2.22216C105.522 2.54449 105.703 2.98166 105.703 3.4375V12.0312C105.703 12.4871 105.522 12.9243 105.2 13.2466C104.877 13.5689 104.44 13.75 103.984 13.75Z" fill="#14166C"/>
</svg>
