<svg width="172" height="87" viewBox="0 0 172 87" fill="none" xmlns="http://www.w3.org/2000/svg">
<path d="M86 85C133.496 85 172 82.3137 172 79C172 75.6863 133.496 73 86 73C38.5035 73 0 75.6863 0 79C0 82.3137 38.5035 85 86 85Z" fill="#F5F5F5"/>
<path d="M136.121 11.8168L54.2153 16.4534L57.7838 79.4897L139.689 74.8531L136.121 11.8168Z" fill="#407BFF"/>
<path d="M136.121 11.8167L139.689 74.8531L109.843 82.0442L27.8181 80.9207L54.2154 16.4533L106.472 13.4951L135.125 0.0184496L136.121 11.8167Z" fill="#3F7AFD"/>
<path d="M106.353 13.5077L24.4468 18.1443L28.0152 81.1806L109.921 76.544L106.353 13.5077Z" fill="#407BFF"/>
<path opacity="0.3" d="M106.353 13.5077L24.4468 18.1443L28.0152 81.1806L109.844 82.0444L106.353 13.5077Z" fill="white"/>
<path d="M51.9759 5.07517L24.4468 18.5588L107.034 13.5025L135.125 0.0187988L51.9759 5.07517Z" fill="#5572B3"/>
<path opacity="0.3" d="M116.485 18.9551L99.001 20.0042L99.3549 25.9033L116.839 24.8542L116.485 18.9551Z" fill="black"/>
<path opacity="0.5" d="M47.0164 24.755L29.5605 25.7432L30.1004 35.2788L47.5562 34.2907L47.0164 24.755Z" fill="white"/>
<path opacity="0.3" d="M53.1129 49.6214L26.3232 51.1379L26.7443 58.5757L53.5339 57.0592L53.1129 49.6214Z" fill="black"/>
</svg>
