<svg width="411" height="352" viewBox="0 0 411 352" fill="none" xmlns="http://www.w3.org/2000/svg">
<path d="M94.4458 38.7831C72.2744 60.1337 57.5509 88.2736 48.127 117.569C41.7228 137.46 37.6189 159.044 43.2124 179.178C48.8059 199.313 66.4073 217.32 87.312 217.522C103.292 217.685 117.945 207.683 127.683 195.017C137.421 182.35 143.156 167.15 149.266 152.396C155.377 137.642 162.227 122.716 173.586 111.479C184.945 100.241 200.5 93.3301 216.247 89.5402C227.302 86.8853 240.131 85.9632 248.896 93.2085C259.698 102.126 258.918 119.646 251.683 131.644C240.81 149.66 219.976 158.527 203.094 171.092C172.259 194.044 153.502 232.368 154.292 270.803C154.536 282.871 157.434 296.288 167.466 303.047C177.913 310.14 192.535 307.1 202.932 299.915C213.328 292.731 220.675 282.172 229.116 272.809C252.473 246.929 283.926 230.098 312.076 209.537C340.226 188.977 366.796 161.8 372.359 127.388C377.03 98.4372 365.428 68.2301 345.333 46.8694C325.239 25.5086 297.474 12.4165 268.808 6.2657C212.66 -5.8232 137.978 -3.13789 94.4458 38.7831Z" fill="#407BFF"/>
<path opacity="0.9" d="M94.4458 38.7831C72.2744 60.1337 57.5509 88.2736 48.127 117.569C41.7228 137.46 37.6189 159.044 43.2124 179.178C48.8059 199.313 66.4073 217.32 87.312 217.522C103.292 217.685 117.945 207.683 127.683 195.017C137.421 182.35 143.156 167.15 149.266 152.396C155.377 137.642 162.227 122.716 173.586 111.479C184.945 100.241 200.5 93.3301 216.247 89.5402C227.302 86.8853 240.131 85.9632 248.896 93.2085C259.698 102.126 258.918 119.646 251.683 131.644C240.81 149.66 219.976 158.527 203.094 171.092C172.259 194.044 153.502 232.368 154.292 270.803C154.536 282.871 157.434 296.288 167.466 303.047C177.913 310.14 192.535 307.1 202.932 299.915C213.328 292.731 220.675 282.172 229.116 272.809C252.473 246.929 283.926 230.098 312.076 209.537C340.226 188.977 366.796 161.8 372.359 127.388C377.03 98.4372 365.428 68.2301 345.333 46.8694C325.239 25.5086 297.474 12.4165 268.808 6.2657C212.66 -5.8232 137.978 -3.13789 94.4458 38.7831Z" fill="white"/>
<path d="M207.836 352C316.344 352 404.308 346.864 404.308 340.529C404.308 334.194 316.344 329.058 207.836 329.058C99.327 329.058 11.3633 334.194 11.3633 340.529C11.3633 346.864 99.327 352 207.836 352Z" fill="#F5F5F5"/>
<path d="M390.587 287.046L395.735 205.109C396.187 197.903 395.159 190.681 392.712 183.888C390.266 177.094 386.454 170.874 381.511 165.611C376.568 160.348 370.599 156.154 363.972 153.287C357.345 150.42 350.202 148.941 342.981 148.941C329.48 148.943 316.492 154.111 306.68 163.385C296.869 172.66 290.979 185.337 290.218 198.817L284.847 294.514H382.632C384.659 294.513 386.609 293.741 388.087 292.354C389.564 290.966 390.458 289.069 390.587 287.046Z" fill="#407BFF"/>
<path opacity="0.1" d="M390.769 284.098L395.735 205.13C396.187 197.923 395.159 190.701 392.712 183.908C390.266 177.115 386.454 170.895 381.511 165.632C376.568 160.369 370.599 156.174 363.972 153.307C357.345 150.44 350.202 148.961 342.981 148.961C329.48 148.963 316.492 154.131 306.68 163.406C296.869 172.68 290.979 185.357 290.218 198.837L284.847 294.514H379.684C382.507 294.505 385.222 293.425 387.28 291.491C389.337 289.557 390.585 286.915 390.769 284.098Z" fill="black"/>
<path d="M374.719 294.514L380.333 205.109C380.784 197.904 379.754 190.682 377.308 183.889C374.861 177.097 371.048 170.877 366.106 165.615C361.163 160.352 355.194 156.157 348.568 153.29C341.943 150.422 334.799 148.942 327.58 148.941C314.078 148.94 301.088 154.108 291.276 163.383C281.464 172.658 275.575 185.336 274.816 198.817L269.415 294.514H374.719Z" fill="#407BFF"/>
<path d="M376.4 309.907H377.748C378.112 309.887 378.456 309.739 378.72 309.488C378.983 309.237 379.149 308.901 379.187 308.539L381.214 294.525H373.006L375.032 308.539C375.07 308.889 375.226 309.216 375.475 309.464C375.724 309.713 376.05 309.869 376.4 309.907Z" fill="#407BFF"/>
<path opacity="0.7" d="M376.4 309.907H377.748C378.112 309.887 378.456 309.739 378.72 309.488C378.983 309.237 379.149 308.901 379.187 308.539L381.214 294.525H373.006L375.032 308.539C375.07 308.889 375.226 309.216 375.475 309.464C375.724 309.713 376.05 309.869 376.4 309.907Z" fill="white"/>
<path d="M244.011 309.907H245.227C245.572 309.871 245.893 309.714 246.133 309.463C246.372 309.213 246.515 308.885 246.535 308.539L248.369 294.525H240.911L242.724 308.539C242.744 308.882 242.883 309.207 243.119 309.457C243.354 309.708 243.67 309.867 244.011 309.907Z" fill="#407BFF"/>
<path opacity="0.5" d="M244.011 309.907H245.227C245.572 309.871 245.893 309.714 246.133 309.463C246.372 309.213 246.515 308.885 246.535 308.539L248.369 294.525H240.911L242.724 308.539C242.744 308.882 242.883 309.207 243.119 309.457C243.354 309.708 243.67 309.867 244.011 309.907Z" fill="white"/>
<path d="M282.122 309.907H283.348C283.693 309.871 284.014 309.714 284.253 309.463C284.493 309.213 284.635 308.885 284.655 308.539L286.459 294.525H279.011L280.794 308.539C280.815 308.888 280.96 309.218 281.204 309.47C281.447 309.721 281.773 309.876 282.122 309.907Z" fill="#407BFF"/>
<path opacity="0.7" d="M282.122 309.907H283.348C283.693 309.871 284.014 309.714 284.253 309.463C284.493 309.213 284.635 308.885 284.655 308.539L286.459 294.525H279.011L280.794 308.539C280.815 308.888 280.96 309.218 281.204 309.47C281.447 309.721 281.773 309.876 282.122 309.907Z" fill="white"/>
<path d="M335.361 309.907H336.709C337.073 309.885 337.418 309.737 337.683 309.486C337.948 309.236 338.116 308.901 338.158 308.539L340.185 294.525H331.967L333.993 308.539C334.029 308.89 334.185 309.217 334.434 309.466C334.683 309.716 335.011 309.871 335.361 309.907Z" fill="#407BFF"/>
<path opacity="0.5" d="M335.361 309.907H336.709C337.073 309.885 337.418 309.737 337.683 309.486C337.948 309.236 338.116 308.901 338.158 308.539L340.185 294.525H331.967L333.993 308.539C334.029 308.89 334.185 309.217 334.434 309.466C334.683 309.716 335.011 309.871 335.361 309.907Z" fill="white"/>
<path d="M290.745 260.791H254.711L252.33 226.055L251.813 218.597L251.58 215.161C251.515 214.26 251.397 213.363 251.226 212.476C251.226 212.284 251.144 212.071 251.104 211.878C251.082 211.733 251.045 211.59 250.992 211.453C250.021 207.912 248.13 204.692 245.51 202.12C242.488 199.134 238.492 197.336 234.252 197.053H268.148C268.513 197.053 268.888 197.053 269.263 197.053C273.858 197.074 278.263 198.892 281.534 202.12C284.156 204.692 286.051 207.912 287.026 211.453C287.079 211.59 287.116 211.733 287.138 211.878C287.376 212.96 287.535 214.057 287.614 215.161L287.847 218.597L290.745 260.791Z" fill="#407BFF"/>
<path opacity="0.1" d="M290.745 260.791H254.711L252.33 226.055L251.813 218.597L251.58 215.161C251.515 214.26 251.397 213.363 251.226 212.476C251.226 212.284 251.144 212.071 251.104 211.878C251.082 211.733 251.045 211.59 250.992 211.453C250.021 207.912 248.13 204.692 245.51 202.12C242.488 199.134 238.492 197.336 234.252 197.053H268.148C268.513 197.053 268.888 197.053 269.263 197.053C273.858 197.074 278.263 198.892 281.534 202.12C284.156 204.692 286.051 207.912 287.026 211.453C287.079 211.59 287.116 211.733 287.138 211.878C287.376 212.96 287.535 214.057 287.614 215.161L287.847 218.597L290.745 260.791Z" fill="black"/>
<g opacity="0.1">
<path opacity="0.1" d="M319.3 242.247H333.77C337.297 242.247 340.144 244.477 340.144 247.223V255.775C340.144 258.531 337.297 260.751 333.77 260.751H319.3V242.247Z" fill="black"/>
</g>
<path d="M260.214 260.751H323.952C326.985 260.751 329.444 258.292 329.444 255.258V247.729C329.444 244.696 326.985 242.237 323.952 242.237H260.214C257.181 242.237 254.722 244.696 254.722 247.729V255.258C254.722 258.292 257.181 260.751 260.214 260.751Z" fill="#407BFF"/>
<path d="M410.5 217.492C410.508 222.337 408.803 227.029 405.686 230.738C402.568 234.447 398.24 236.933 393.466 237.759L389.767 287.138C389.443 291.333 386.393 294.545 382.745 294.545H343.002C346.65 294.545 349.69 291.333 350.015 287.138L352.041 260.791L353.754 237.728C356.877 237.192 359.833 235.937 362.388 234.062C364.943 232.187 367.028 229.744 368.477 226.926C368.676 226.568 368.856 226.199 369.014 225.822C370.185 223.201 370.786 220.362 370.777 217.492C370.775 216.086 370.633 214.684 370.352 213.307C370.24 212.76 370.099 212.213 369.947 211.676C369.225 209.262 368.071 207 366.542 204.998C364.624 202.5 362.159 200.476 359.335 199.081C356.512 197.687 353.407 196.958 350.258 196.952H390C393.185 196.941 396.328 197.684 399.171 199.121C401.95 200.504 404.376 202.504 406.264 204.968C409.022 208.559 410.511 212.964 410.5 217.492Z" fill="#407BFF"/>
<path opacity="0.1" d="M410.5 217.492C410.508 222.337 408.803 227.029 405.686 230.738C402.568 234.447 398.24 236.933 393.466 237.759L389.767 287.138C389.443 291.333 386.393 294.545 382.745 294.545H343.002C346.65 294.545 349.69 291.333 350.015 287.138L352.041 260.791L353.754 237.728C356.877 237.192 359.833 235.937 362.388 234.062C364.943 232.187 367.028 229.744 368.477 226.926C368.676 226.568 368.856 226.199 369.014 225.822C370.185 223.201 370.786 220.362 370.777 217.492C370.775 216.086 370.633 214.684 370.352 213.307C370.24 212.76 370.099 212.213 369.947 211.676C369.225 209.262 368.071 207 366.542 204.998C364.624 202.5 362.159 200.476 359.335 199.081C356.512 197.687 353.407 196.958 350.258 196.952H390C393.185 196.941 396.328 197.684 399.171 199.121C401.95 200.504 404.376 202.504 406.264 204.968C409.022 208.559 410.511 212.964 410.5 217.492Z" fill="black"/>
<path d="M370.788 217.502C370.788 227.635 364.11 236.076 355.345 237.769L351.96 287.138C351.666 291.333 348.92 294.555 345.597 294.555H239.462C236.158 294.555 233.382 291.333 233.098 287.138L229.703 237.677C221.11 235.874 214.615 227.544 214.615 217.533C214.595 213.329 215.787 209.209 218.05 205.667C219.762 202.965 222.12 200.733 224.91 199.171C227.45 197.743 230.316 196.993 233.23 196.993C237.827 197.02 242.232 198.837 245.511 202.059C248.13 204.628 250.022 207.844 250.993 211.382C251.046 211.526 251.083 211.676 251.105 211.828C251.344 212.905 251.503 213.999 251.581 215.101L251.824 218.536L254.712 260.791H330.346L333.477 215.192C333.923 208.747 337.064 203.377 341.422 200.833C344.175 198.63 347.539 197.325 351.058 197.094C351.429 197.057 351.801 197.04 352.173 197.043C355.003 197.028 357.79 197.725 360.28 199.07C360.357 199.104 360.432 199.145 360.503 199.192C363.072 200.618 365.278 202.619 366.947 205.038C369.462 208.707 370.802 213.054 370.788 217.502Z" fill="#407BFF"/>
<path opacity="0.1" d="M328.593 294.525H239.421C236.118 294.525 233.341 291.302 233.057 287.107L229.663 237.647C221.07 235.843 214.574 227.514 214.574 217.502C214.554 213.299 215.747 209.179 218.01 205.636C219.721 202.935 222.079 200.703 224.87 199.141C227.41 197.713 230.275 196.962 233.189 196.962C237.786 196.989 242.192 198.807 245.471 202.029C248.09 204.597 249.981 207.814 250.953 211.351C251.005 211.496 251.043 211.645 251.064 211.797C251.304 212.875 251.463 213.969 251.54 215.07L251.784 218.505L254.712 260.791H330.346L328.593 294.525Z" fill="white"/>
<path d="M317.031 154.109C315.268 155.122 313.657 155.963 311.964 156.825C310.272 157.686 308.61 158.476 306.898 159.267C303.493 160.817 300.048 162.307 296.501 163.594C292.926 164.923 289.287 166.073 285.598 167.039C281.76 168.071 277.841 168.772 273.884 169.137L273.043 169.218H272.648C269.07 168.802 265.899 168.204 262.717 167.495C259.535 166.786 256.384 166.086 253.263 165.286C250.142 164.485 247.041 163.665 243.94 162.773C240.839 161.881 237.769 160.959 234.699 159.915L236.107 152.883C242.481 153.288 248.845 153.896 255.147 154.555L264.561 155.497C267.662 155.801 270.834 156.065 273.61 156.166H272.384C275.564 155.599 278.7 154.807 281.767 153.795C284.939 152.782 288.111 151.626 291.282 150.269C294.454 148.911 297.595 147.512 300.716 146.023C302.317 145.293 303.868 144.523 305.388 143.763C306.908 143.003 308.529 142.192 309.917 141.473L317.031 154.109Z" fill="#263238"/>
<path opacity="0.1" d="M317.031 154.109C315.268 155.122 313.657 155.963 311.964 156.825C310.272 157.686 308.61 158.476 306.898 159.267C303.493 160.817 300.048 162.307 296.501 163.594C292.926 164.923 289.287 166.073 285.598 167.039C281.76 168.071 277.841 168.772 273.884 169.137L273.043 169.218H272.648C269.07 168.802 265.899 168.204 262.717 167.495C259.535 166.786 256.384 166.086 253.263 165.286C250.142 164.485 247.041 163.665 243.94 162.773C240.839 161.881 237.769 160.959 234.699 159.915L236.107 152.883C242.481 153.288 248.845 153.896 255.147 154.555L264.561 155.497C267.662 155.801 270.834 156.065 273.61 156.166H272.384C275.564 155.599 278.7 154.807 281.767 153.795C284.939 152.782 288.111 151.626 291.282 150.269C294.454 148.911 297.595 147.512 300.716 146.023C302.317 145.293 303.868 144.523 305.388 143.763C306.908 143.003 308.529 142.192 309.917 141.473L317.031 154.109Z" fill="black"/>
<path d="M234.82 149.022C233.322 147.971 231.666 147.164 229.916 146.631L227.291 156.875L235.154 160.179L236.046 159.084C236.651 158.353 237.1 157.507 237.367 156.597C237.633 155.686 237.712 154.731 237.597 153.789C237.482 152.848 237.177 151.939 236.699 151.12C236.222 150.3 235.582 149.586 234.82 149.022Z" fill="#FFC3BD"/>
<path d="M227.291 156.875L229.916 146.631L222.579 142.628L220.37 149.843L227.291 156.875Z" fill="#FFC3BD"/>
<path opacity="0.2" d="M292.356 164.526H292.64H292.761C296.632 164.11 308.012 162.195 316.24 154.079C315.014 151.707 313.332 149.873 311.275 149.458C305.6 148.384 298.649 152.447 292.356 164.526Z" fill="black"/>
<path d="M299.034 217.492C308.741 191.278 302.357 167.171 303.573 153.825C303.872 150.536 305.234 147.433 307.454 144.986C309.674 142.54 312.63 140.883 315.875 140.267C322.502 138.99 330.7 137.551 338.513 136.498C340.696 136.196 342.918 136.371 345.028 137.009C347.137 137.647 349.083 138.734 350.733 140.195C352.383 141.657 353.697 143.457 354.586 145.474C355.474 147.491 355.916 149.676 355.881 151.88C355.202 191.399 342.535 217.492 342.535 217.492L322.066 217.401L299.034 217.492Z" fill="#407BFF"/>
<path opacity="0.8" d="M299.034 217.492C308.741 191.278 302.357 167.171 303.573 153.825C303.872 150.536 305.234 147.433 307.454 144.986C309.674 142.54 312.63 140.883 315.875 140.267C322.502 138.99 330.7 137.551 338.513 136.498C340.696 136.196 342.918 136.371 345.028 137.009C347.137 137.647 349.083 138.734 350.733 140.195C352.383 141.657 353.697 143.457 354.586 145.474C355.474 147.491 355.916 149.676 355.881 151.88C355.202 191.399 342.535 217.492 342.535 217.492L322.066 217.401L299.034 217.492Z" fill="white"/>
<path d="M221.373 306.938L218.779 323.992H227.018L232.429 306.938H221.373Z" fill="#FFC3BD"/>
<path d="M217.725 320.192L228.74 319.929C228.826 319.919 228.913 319.927 228.996 319.953C229.078 319.979 229.155 320.022 229.22 320.079C229.285 320.136 229.337 320.207 229.373 320.286C229.409 320.364 229.428 320.45 229.429 320.537V328.643C229.38 329.092 229.168 329.508 228.834 329.812C228.5 330.116 228.067 330.288 227.615 330.295C223.785 330.295 221.961 330.153 217.117 330.295C211.96 330.278 206.809 329.94 201.694 329.281C197.773 328.613 198.837 324.934 200.61 324.874C208.615 324.58 213.094 322.908 215.972 320.82C216.473 320.428 217.088 320.207 217.725 320.192Z" fill="#263238"/>
<path opacity="0.2" d="M220.329 313.778L221.373 306.938H232.428L229.773 315.47L220.329 313.778Z" fill="black"/>
<path d="M293.967 211.351C293.967 211.351 226.936 212.02 225.893 233.249C224.413 263.77 219.255 310.262 219.255 310.262L231.891 313.737C231.891 313.737 249.929 267.601 250.628 243.757C269.486 240.008 317.953 243.757 323.648 231.375C326.431 225.072 327.182 218.06 325.796 211.311L293.967 211.351Z" fill="#407BFF"/>
<path opacity="0.6" d="M293.967 211.351C293.967 211.351 226.936 212.02 225.893 233.249C224.413 263.77 219.255 310.262 219.255 310.262L231.891 313.737C231.891 313.737 249.929 267.601 250.628 243.757C269.486 240.008 317.953 243.757 323.648 231.375C326.431 225.072 327.182 218.06 325.796 211.311L293.967 211.351Z" fill="black"/>
<path d="M280.348 313.535L284.817 325.107H293.856L290.745 312.937L280.348 313.535Z" fill="#FFC3BD"/>
<path opacity="0.2" d="M291.586 316.22L289.833 307.313L278.413 308.731L281.341 316.473L291.586 316.22Z" fill="black"/>
<path d="M282.365 321.276H293.907C294.093 321.262 294.278 321.323 294.42 321.444C294.563 321.566 294.651 321.738 294.667 321.925L295.224 330.568C295.213 331.036 295.019 331.481 294.684 331.807C294.348 332.133 293.898 332.314 293.43 332.311C289.377 332.24 287.492 332.017 282.416 332.017C279.305 332.017 273.002 332.321 268.695 332.321C264.389 332.321 264.51 328.268 266.324 327.954C274.532 326.312 277.704 324.053 280.592 321.874C281.105 321.493 281.726 321.284 282.365 321.276Z" fill="#263238"/>
<path d="M311.994 211.351C311.994 211.351 251.195 215.476 252.694 236.684C254.326 259.91 278.676 313.768 278.676 313.768H290.927C290.927 313.768 282.82 264.905 279.091 241.234C296.237 241.234 335.969 243.818 341.684 231.405C344.456 225.099 345.199 218.088 343.812 211.341L311.994 211.351Z" fill="#407BFF"/>
<path opacity="0.5" d="M311.994 211.351C311.994 211.351 251.195 215.476 252.694 236.684C254.326 259.91 278.676 313.768 278.676 313.768H290.927C290.927 313.768 282.82 264.905 279.091 241.234C296.237 241.234 335.969 243.818 341.684 231.405C344.456 225.099 345.199 218.088 343.812 211.341L311.994 211.351Z" fill="black"/>
<path d="M321.206 125.432C322.604 130.843 323.04 137.592 315.48 140.379C313.383 143.722 312.359 147.249 320.436 145.992C326.864 145.161 332.715 141.852 336.74 136.771C331.906 132.535 332.788 119.545 334.014 112.218L321.206 125.432Z" fill="#FFC3BD"/>
<path d="M320.314 135.281C313.373 136.467 307.668 141.838 304.607 148.171C301.547 154.504 300.807 161.719 300.868 168.762C300.929 175.804 301.73 182.816 301.537 189.849C301.324 197.955 299.369 203.701 296.572 211.341C296.572 213.155 299.318 214.179 301.638 214.655C306.482 204.086 309.664 193.973 309.329 182.36C309.076 173.929 308.965 164.323 310.343 156.014C311.721 147.705 321.662 136.852 321.185 135.352L320.314 135.281Z" fill="#263238"/>
<path opacity="0.3" d="M327.103 129.404C326.375 129.944 325.546 130.332 324.665 130.545C323.784 130.757 322.87 130.79 321.976 130.64C321.992 129.324 321.897 128.009 321.692 126.709L330.082 119.818C330.266 120.714 330.384 121.621 330.437 122.534C330.527 123.87 330.268 125.207 329.683 126.412C329.098 127.617 328.209 128.648 327.103 129.404Z" fill="black"/>
<path d="M314.558 93.4314C305.691 98.4474 305.6 112.624 308.336 120.791C309.026 122.934 310.292 124.846 311.996 126.318C313.699 127.791 315.775 128.766 317.995 129.139C320.216 129.511 322.496 129.266 324.586 128.43C326.677 127.594 328.497 126.199 329.849 124.398C334.186 118.916 333.558 113.384 333.345 103.859C333.132 94.3333 323.435 88.4257 314.558 93.4314Z" fill="#FFC3BD"/>
<path opacity="0.2" d="M317.415 118.927C314.558 120.153 311.427 121.744 308.539 121.399C309.316 123.453 310.629 125.26 312.343 126.633C314.056 128.006 316.107 128.894 318.28 129.205C320.454 129.515 322.671 129.237 324.701 128.399C326.73 127.56 328.497 126.193 329.818 124.439C333.395 119.94 334.5 116.9 333.486 108.712C327.933 115.218 323.526 116.292 317.415 118.927Z" fill="black"/>
<path d="M325.989 96.6336C325.068 98.1295 324.658 99.8839 324.821 101.633C324.984 103.382 325.71 105.031 326.891 106.331C327.691 107.172 328.674 107.821 329.444 108.682C330.645 110.033 331.271 111.801 331.187 113.607C331.367 112.445 331.946 111.382 332.824 110.599C333.702 109.817 334.825 109.365 336 109.32C334.798 113.043 333.595 116.758 332.393 120.467C334.773 119.357 336.83 117.657 338.369 115.529C339.909 113.401 340.879 110.915 341.188 108.307C341.959 101.112 333.082 85.6999 325.989 96.6336Z" fill="#263238"/>
<path d="M305.296 97.1301C304.618 97.8835 304.135 98.7915 303.888 99.7748C303.769 100.262 303.803 100.774 303.984 101.241C304.165 101.709 304.485 102.109 304.901 102.389C305.669 102.698 306.518 102.741 307.313 102.511L315.42 101.102C320.061 100.292 324.702 99.4911 329.282 98.3866C331.308 97.9002 333.649 97.1199 334.46 95.1743C337.084 88.8411 325.877 88.0203 322.128 88.1926C315.744 88.527 309.289 92.1952 305.296 97.1301Z" fill="#263238"/>
<path d="M334.784 107.699C332.129 108.297 330.994 112.117 331.065 114.569C331.065 117.356 333.092 119.17 335.443 117.488C337.189 116.19 338.377 114.278 338.766 112.137C339.243 109.513 337.449 107.101 334.784 107.699Z" fill="#FFC3BD"/>
<path d="M316.027 117.376C315.625 117.644 315.168 117.82 314.69 117.892C314.212 117.964 313.724 117.93 313.261 117.792C314.274 115.501 314.152 116.018 314.467 112.127L316.027 117.376Z" fill="#ED847E"/>
<path d="M320.699 104.74C319.939 103.889 317.861 103.565 316.737 103.727C316.623 103.742 316.508 103.712 316.415 103.644C316.323 103.576 316.26 103.475 316.24 103.362C316.225 103.24 316.256 103.118 316.327 103.018C316.399 102.918 316.505 102.849 316.625 102.825C318.044 102.612 320.405 103.038 321.368 104.102C321.451 104.187 321.498 104.302 321.498 104.421C321.498 104.54 321.451 104.655 321.368 104.74C321.311 104.799 321.242 104.844 321.165 104.872C321.083 104.897 320.995 104.898 320.912 104.875C320.83 104.851 320.755 104.805 320.699 104.74Z" fill="#263238"/>
<path d="M307.586 106.635C307.491 106.569 307.425 106.469 307.402 106.356C307.38 106.242 307.402 106.124 307.464 106.027C307.819 105.388 308.318 104.839 308.921 104.426C309.525 104.013 310.216 103.746 310.94 103.646C310.995 103.644 311.051 103.654 311.102 103.674C311.154 103.695 311.201 103.725 311.24 103.764C311.28 103.802 311.312 103.849 311.333 103.9C311.355 103.951 311.366 104.006 311.366 104.061C311.371 104.184 311.329 104.305 311.248 104.397C311.167 104.49 311.053 104.547 310.93 104.558C310.359 104.649 309.816 104.869 309.342 105.2C308.868 105.532 308.475 105.967 308.194 106.473C308.157 106.539 308.105 106.595 308.041 106.635C307.977 106.676 307.905 106.7 307.829 106.706C307.742 106.713 307.656 106.688 307.586 106.635Z" fill="#263238"/>
<path d="M315.247 121.5C316.222 122.741 317.118 124.04 317.932 125.391L318.561 125.128C321.418 123.892 322.229 122.169 322.269 120.639C322.235 119.422 321.859 118.238 321.185 117.224C320.172 118.977 317.608 120.376 316.21 121.054C315.612 121.348 315.247 121.5 315.247 121.5Z" fill="#2E353A"/>
<path d="M316.19 121.054L316.605 121.622C316.719 121.774 316.881 121.884 317.065 121.933C317.249 121.983 317.444 121.97 317.619 121.896C319.726 120.882 321.125 119.869 321.672 118.724C321.722 118.616 321.748 118.498 321.748 118.379C321.748 118.26 321.722 118.143 321.672 118.035C321.537 117.754 321.381 117.483 321.206 117.224C320.142 118.977 317.588 120.376 316.19 121.054Z" fill="white"/>
<path d="M318.54 125.128C321.398 123.892 322.208 122.169 322.249 120.639C321.163 121.14 320.199 121.869 319.422 122.777C318.886 123.448 318.578 124.271 318.54 125.128Z" fill="#DE5753"/>
<path d="M310.839 109.807C310.342 109.898 310.069 110.607 310.211 111.367C310.353 112.127 310.89 112.674 311.386 112.573C311.883 112.472 312.156 111.783 312.014 111.023C311.873 110.263 311.335 109.807 310.839 109.807Z" fill="#263238"/>
<path d="M319.533 108.408C319.037 108.499 318.763 109.199 318.905 109.969C319.047 110.739 319.584 111.276 320.08 111.175C320.577 111.073 320.851 110.374 320.709 109.614C320.567 108.854 320.03 108.317 319.533 108.408Z" fill="#263238"/>
<path opacity="0.9" d="M307.009 113.921L313.403 112.482L313.514 115.198L307.566 116.616L307.009 113.921Z" fill="white"/>
<g opacity="0.8">
<path opacity="0.9" d="M315.349 112.056L316.109 114.549L324.317 112.786L323.83 109.908L315.349 112.056Z" fill="white"/>
</g>
<path d="M313.444 113.485L313.403 112.482L315.349 112.056L315.633 112.999L313.444 113.485Z" fill="#263238"/>
<path d="M311.112 216.327C311.112 216.327 322.654 220.796 325.299 221.667C328.339 222.857 331.539 223.591 334.794 223.846C336.444 223.957 338.099 223.715 339.649 223.136C341.199 222.558 342.607 221.657 343.782 220.492C346.538 217.553 347.399 213.094 348.119 208.909C350.226 196.621 352.341 184.333 354.462 172.045C355.475 165.965 358.14 156.845 357.917 153.41C357.502 147.026 353.439 139.487 343.093 135.342C339.039 133.731 335.098 134.329 331.713 138.382C329.686 140.794 323.789 146.61 322.34 156.855C321.185 165.063 319.381 175.693 319.492 184.032C319.624 194.996 315.247 208.818 311.112 216.327Z" fill="#263238"/>
<path d="M357.35 150.035C358.526 160.716 352.618 187.64 351.483 189.261C346.64 204.876 333.335 196.456 331.409 195.736C328.055 194.5 324.64 192.078 321.448 190.467C315.257 187.427 309.39 184.914 303.634 181.094L306.877 174.69C313.19 176.838 331.055 181.459 334.003 182.178C335.28 182.512 340.256 185.117 340.205 181.681C340.904 180.536 341.877 158.233 344.015 150.35C344.259 149.465 344.683 148.64 345.261 147.928L345.454 147.685C346.234 146.706 347.269 145.962 348.443 145.531C349.618 145.101 350.889 145.001 352.117 145.244C353.344 145.487 354.482 146.062 355.405 146.907C356.328 147.752 357.001 148.834 357.35 150.035Z" fill="#263238"/>
<path opacity="0.1" d="M357.35 150.035C358.526 160.716 352.618 187.64 351.483 189.261C346.64 204.876 333.335 196.456 331.409 195.736C328.055 194.5 324.64 192.078 321.448 190.467C315.257 187.427 309.39 184.914 303.634 181.094L306.877 174.69C313.19 176.838 331.055 181.459 334.003 182.178C335.28 182.512 340.256 185.117 340.205 181.681C340.904 180.536 341.877 158.233 344.015 150.35C344.259 149.465 344.683 148.64 345.261 147.928L345.454 147.685C346.234 146.706 347.269 145.962 348.443 145.531C349.618 145.101 350.889 145.001 352.117 145.244C353.344 145.487 354.482 146.062 355.405 146.907C356.328 147.752 357.001 148.834 357.35 150.035Z" fill="white"/>
<path d="M304.344 190.366H274.35L270.925 151.231H300.919L304.344 190.366Z" fill="#263238"/>
<path opacity="0.5" d="M304.344 190.366H274.35L270.925 151.231H300.919L304.344 190.366Z" fill="white"/>
<path d="M303.28 190.173H273.285L269.86 151.039H299.855L303.28 190.173Z" fill="#407BFF"/>
<path opacity="0.8" d="M303.28 190.173H273.285L269.86 151.039H299.855L303.28 190.173Z" fill="white"/>
<path d="M291.383 153.481H278.767L278.342 148.586H290.947L291.383 153.481Z" fill="#407BFF"/>
<path d="M278.342 148.586L279.578 148.161H292.64L292.822 150.238L291.849 151.363L291.789 153.065L291.383 153.481L290.947 148.586H278.342Z" fill="#407BFF"/>
<path opacity="0.5" d="M278.342 148.586L279.578 148.161H292.64L292.822 150.238L291.849 151.363L291.789 153.065L291.383 153.481L290.947 148.586H278.342Z" fill="black"/>
<path d="M309.268 176.807L309.947 180.465C308.326 184.691 299.034 183.576 299.034 183.576V172.764L307.231 174.669C307.74 174.793 308.202 175.061 308.563 175.44C308.924 175.819 309.169 176.293 309.268 176.807Z" fill="#FFC3BD"/>
<path d="M299.013 172.764L299.054 183.597L290.826 183.799L288.941 174.274L299.013 172.764Z" fill="#FFC3BD"/>
<path d="M330.345 260.791L333.476 215.192C333.922 208.747 337.064 203.377 341.421 200.833C344.175 198.63 347.538 197.325 351.058 197.094C351.428 197.057 351.8 197.04 352.172 197.043C355.002 197.028 357.79 197.725 360.279 199.07C360.356 199.104 360.431 199.145 360.502 199.192C363.071 200.618 365.277 202.619 366.946 205.038C369.473 208.717 370.816 213.08 370.797 217.543C370.797 227.676 364.119 236.117 355.354 237.809L351.959 287.138C351.666 291.333 348.919 294.555 345.596 294.555H328.592L330.345 260.791Z" fill="#407BFF"/>
<path opacity="0.1" d="M330.345 260.791L333.476 215.192C333.922 208.747 337.064 203.377 341.421 200.833C344.175 198.63 347.538 197.325 351.058 197.094C351.428 197.057 351.8 197.04 352.172 197.043C355.002 197.028 357.79 197.725 360.279 199.07C360.356 199.104 360.431 199.145 360.502 199.192C363.071 200.618 365.277 202.619 366.946 205.038C369.473 208.717 370.816 213.08 370.797 217.543C370.797 227.676 364.119 236.117 355.354 237.809L351.959 287.138C351.666 291.333 348.919 294.555 345.596 294.555H328.592L330.345 260.791Z" fill="white"/>
<path d="M175.715 48.6021V90.9689C175.715 92.0439 175.288 93.0749 174.528 93.835C173.768 94.5952 172.737 95.0222 171.662 95.0222H128.272L112.768 107.01C112.328 107.342 111.804 107.545 111.255 107.595C110.706 107.646 110.154 107.542 109.661 107.295C109.168 107.049 108.754 106.669 108.465 106.2C108.176 105.731 108.024 105.19 108.025 104.639V95.0222H105.604C104.529 95.0222 103.498 94.5952 102.737 93.835C101.977 93.0749 101.55 92.0439 101.55 90.9689V48.5919C101.553 48.0642 101.66 47.5422 101.866 47.0562C102.071 46.5701 102.371 46.1297 102.748 45.7603C103.125 45.3909 103.572 45.0999 104.062 44.9041C104.552 44.7083 105.076 44.6117 105.604 44.6197H171.733C172.789 44.6197 173.802 45.0393 174.549 45.7861C175.296 46.533 175.715 47.5459 175.715 48.6021V48.6021Z" stroke="#407BFF" stroke-miterlimit="10"/>
<path d="M135.081 38.6512H126.802V39.6646H135.081V38.6512Z" fill="#407BFF"/>
<path d="M96.3717 50.5881H95.3584V45.5925C95.3611 43.7479 96.0957 41.9799 97.4009 40.6765C98.7062 39.3732 100.475 38.6411 102.32 38.6411H120.793V39.6544H102.3C100.725 39.6571 99.2148 40.2833 98.1002 41.396C96.9855 42.5087 96.3568 44.0175 96.3514 45.5925L96.3717 50.5881Z" fill="#407BFF"/>
<path d="M154.911 75.6577C154.471 75.6603 154.035 75.5717 153.63 75.3975C153.226 75.2233 152.862 74.9674 152.561 74.6457C152.26 74.324 152.029 73.9435 151.883 73.5283C151.736 73.113 151.677 72.6719 151.709 72.2327C152.794 59.8803 162.582 58.7454 163.808 44.7008C164.163 40.6475 162.684 39.1275 159.856 39.1275C157.029 39.1275 155.286 40.6577 154.932 44.7008L154.729 47.0112C154.638 48.055 154.158 49.0265 153.385 49.7339C152.612 50.4412 151.602 50.8328 150.554 50.8314C149.974 50.8308 149.401 50.7096 148.87 50.4756C148.339 50.2416 147.863 49.8999 147.472 49.4721C147.08 49.0443 146.782 48.5398 146.595 47.9905C146.409 47.4413 146.339 46.8593 146.389 46.2816L146.481 45.2683C147.271 36.2294 152.165 31.0818 160.809 31.0818C169.453 31.0818 173.435 36.2497 172.645 45.2683C171.358 59.9107 160.667 62.1805 159.755 72.5063C159.76 72.5568 159.76 72.6077 159.755 72.6583C159.709 73.4774 159.352 74.248 158.757 74.8128C158.162 75.3777 157.373 75.6944 156.553 75.6982L154.911 75.6577ZM159.299 84.2506C159.208 85.3133 158.721 86.3028 157.934 87.0234C157.148 87.744 156.12 88.1432 155.053 88.1418C154.462 88.1427 153.878 88.0204 153.336 87.7829C152.795 87.5453 152.309 87.1977 151.91 86.762C151.511 86.3264 151.206 85.8123 151.016 85.2525C150.827 84.6928 150.755 84.0997 150.808 83.5109C150.899 82.4465 151.388 81.4555 152.176 80.7347C152.964 80.0138 153.995 79.6158 155.063 79.6198C155.653 79.6218 156.236 79.7461 156.775 79.9848C157.315 80.2235 157.799 80.5714 158.197 81.0066C158.595 81.4417 158.898 81.9547 159.088 82.513C159.278 83.0714 159.35 83.6631 159.299 84.2506Z" fill="#407BFF"/>
<path d="M143.491 65.7372H120.185C119.647 65.7372 119.132 65.5237 118.752 65.1436C118.372 64.7636 118.158 64.2481 118.158 63.7106C118.158 63.1731 118.372 62.6576 118.752 62.2775C119.132 61.8975 119.647 61.684 120.185 61.684H143.491C144.029 61.684 144.544 61.8975 144.924 62.2775C145.304 62.6576 145.518 63.1731 145.518 63.7106C145.518 64.2481 145.304 64.7636 144.924 65.1436C144.544 65.5237 144.029 65.7372 143.491 65.7372Z" fill="#407BFF"/>
<path d="M140.269 73.7627H120.225C119.688 73.7627 119.172 73.5492 118.792 73.1692C118.412 72.7891 118.199 72.2736 118.199 71.7361C118.199 71.1986 118.412 70.6831 118.792 70.3031C119.172 69.923 119.688 69.7095 120.225 69.7095H140.269C140.806 69.7095 141.322 69.923 141.702 70.3031C142.082 70.6831 142.295 71.1986 142.295 71.7361C142.295 72.2736 142.082 72.7891 141.702 73.1692C141.322 73.5492 140.806 73.7627 140.269 73.7627Z" fill="#407BFF"/>
<path d="M137.046 81.7781H120.225C119.688 81.7781 119.172 81.5646 118.792 81.1845C118.412 80.8045 118.199 80.289 118.199 79.7515C118.199 79.214 118.412 78.6985 118.792 78.3184C119.172 77.9384 119.688 77.7249 120.225 77.7249H137.046C137.584 77.7249 138.099 77.9384 138.48 78.3184C138.86 78.6985 139.073 79.214 139.073 79.7515C139.073 80.289 138.86 80.8045 138.48 81.1845C138.099 81.5646 137.584 81.7781 137.046 81.7781Z" fill="#407BFF"/>
<path d="M89.3597 247.121H74.5551C70.9477 247.121 68.0293 249.401 68.0293 252.188V260.943C68.0293 263.76 70.9477 266.01 74.5551 266.01H89.3597V247.121Z" fill="#407BFF"/>
<path d="M20.5544 288.353L15.4067 206.416C14.9541 199.212 15.9824 191.991 18.4283 185.199C20.8741 178.407 24.6857 172.188 29.6278 166.926C34.5699 161.664 40.5377 157.47 47.1631 154.603C53.7885 151.737 60.931 150.258 68.15 150.258C81.6527 150.258 94.6437 155.425 104.457 164.699C114.271 173.974 120.163 186.653 120.924 200.134L126.314 295.832H28.4785C26.4555 295.823 24.5115 295.045 23.0402 293.657C21.5689 292.268 20.6803 290.373 20.5544 288.353Z" fill="#407BFF"/>
<path opacity="0.1" d="M20.372 285.384L15.4067 206.416C14.9541 199.212 15.9824 191.991 18.4283 185.199C20.8741 178.407 24.6857 172.188 29.6278 166.926C34.5699 161.664 40.5377 157.47 47.1631 154.603C53.7885 151.737 60.931 150.258 68.15 150.258C81.6527 150.258 94.6437 155.425 104.457 164.699C114.271 173.974 120.163 186.653 120.924 200.134L126.314 295.832H31.5185C28.6795 295.837 25.9454 294.759 23.874 292.818C21.8026 290.876 20.5501 288.218 20.372 285.384Z" fill="black"/>
<path d="M36.4233 295.832L30.8096 206.416C30.3568 199.211 31.3855 191.989 33.832 185.196C36.2784 178.403 40.0909 172.184 45.0341 166.922C49.9772 161.66 55.9463 157.466 62.5729 154.6C69.1995 151.734 76.3431 150.257 83.5629 150.258C97.0639 150.26 110.052 155.428 119.864 164.703C129.675 173.977 135.565 186.654 136.326 200.134L141.727 295.832H36.4233Z" fill="#407BFF"/>
<path d="M34.7414 311.224H33.3937C33.029 311.2 32.6842 311.05 32.4194 310.798C32.1546 310.546 31.9866 310.209 31.9446 309.846L29.918 295.832H38.136L36.1093 309.846C36.0742 310.198 35.919 310.527 35.6699 310.778C35.4208 311.029 35.0929 311.186 34.7414 311.224Z" fill="#407BFF"/>
<path opacity="0.7" d="M34.7414 311.224H33.3937C33.029 311.2 32.6842 311.05 32.4194 310.798C32.1546 310.546 31.9866 310.209 31.9446 309.846L29.918 295.832H38.136L36.1093 309.846C36.0742 310.198 35.919 310.527 35.6699 310.778C35.4208 311.029 35.0929 311.186 34.7414 311.224Z" fill="white"/>
<path d="M167.131 311.224H165.905C165.56 311.186 165.238 311.027 164.999 310.775C164.76 310.522 164.618 310.193 164.598 309.846L162.794 295.832H170.242L168.439 309.846C168.419 310.193 168.277 310.522 168.038 310.775C167.798 311.027 167.477 311.186 167.131 311.224Z" fill="#407BFF"/>
<path opacity="0.5" d="M167.131 311.224H165.905C165.56 311.186 165.238 311.027 164.999 310.775C164.76 310.522 164.618 310.193 164.598 309.846L162.794 295.832H170.242L168.439 309.846C168.419 310.193 168.277 310.522 168.038 310.775C167.798 311.027 167.477 311.186 167.131 311.224Z" fill="white"/>
<path d="M129.02 311.224H127.784C127.438 311.186 127.117 311.027 126.878 310.775C126.639 310.522 126.496 310.193 126.477 309.846L124.663 295.832H132.121L130.317 309.846C130.296 310.191 130.155 310.518 129.918 310.77C129.681 311.021 129.364 311.182 129.02 311.224Z" fill="#407BFF"/>
<path opacity="0.7" d="M129.02 311.224H127.784C127.438 311.186 127.117 311.027 126.878 310.775C126.639 310.522 126.496 310.193 126.477 309.846L124.663 295.832H132.121L130.317 309.846C130.296 310.191 130.155 310.518 129.918 310.77C129.681 311.021 129.364 311.182 129.02 311.224Z" fill="white"/>
<path d="M75.7809 311.224H74.4332C74.0679 311.202 73.722 311.052 73.4568 310.8C73.1916 310.548 73.0242 310.21 72.9842 309.846L70.9575 295.832H79.1755L77.1489 309.846C77.1137 310.198 76.9585 310.527 76.7094 310.778C76.4603 311.029 76.1325 311.186 75.7809 311.224Z" fill="#407BFF"/>
<path opacity="0.5" d="M75.7809 311.224H74.4332C74.0679 311.202 73.722 311.052 73.4568 310.8C73.1916 310.548 73.0242 310.21 72.9842 309.846L70.9575 295.832H79.1755L77.1489 309.846C77.1137 310.198 76.9585 310.527 76.7094 310.778C76.4603 311.029 76.1325 311.186 75.7809 311.224Z" fill="white"/>
<path d="M120.397 262.058H156.431L158.812 227.352L159.319 219.894L159.562 216.459C159.624 215.558 159.739 214.661 159.906 213.773C159.906 213.581 159.997 213.378 160.038 213.186C160.06 213.037 160.097 212.891 160.149 212.75C161.121 209.212 163.012 205.996 165.632 203.427C168.651 200.443 172.643 198.645 176.879 198.361H142.984C142.609 198.361 142.244 198.361 141.869 198.361C137.271 198.384 132.864 200.202 129.588 203.427C126.969 205.996 125.077 209.212 124.106 212.75C124.053 212.891 124.016 213.037 123.994 213.186C123.756 214.264 123.597 215.357 123.518 216.459L123.285 219.894L120.397 262.058Z" fill="#407BFF"/>
<path opacity="0.1" d="M120.397 262.058H156.431L158.812 227.352L159.319 219.894L159.562 216.459C159.624 215.558 159.739 214.661 159.906 213.773C159.906 213.581 159.997 213.378 160.038 213.186C160.06 213.037 160.097 212.891 160.149 212.75C161.121 209.212 163.012 205.996 165.632 203.427C168.651 200.443 172.643 198.645 176.879 198.361H142.984C142.609 198.361 142.244 198.361 141.869 198.361C137.271 198.384 132.864 200.202 129.588 203.427C126.969 205.996 125.077 209.212 124.106 212.75C124.053 212.891 124.016 213.037 123.994 213.186C123.756 214.264 123.597 215.357 123.518 216.459L123.285 219.894L120.397 262.058Z" fill="black"/>
<g opacity="0.1">
<path opacity="0.1" d="M91.842 243.565H77.3617C73.8455 243.565 70.998 245.794 70.998 248.54V257.103C70.998 259.849 73.8455 262.078 77.3617 262.078H91.842V243.565Z" fill="black"/>
</g>
<path d="M150.929 243.555H87.1914C84.1582 243.555 81.6992 246.014 81.6992 249.047V256.576C81.6992 259.609 84.1582 262.068 87.1914 262.068H150.929C153.962 262.068 156.421 259.609 156.421 256.576V249.047C156.421 246.014 153.962 243.555 150.929 243.555Z" fill="#407BFF"/>
<path d="M0.612825 218.809C0.60424 223.654 2.3094 228.346 5.42671 232.055C8.54401 235.764 12.8726 238.251 17.6467 239.076L21.3859 288.414C21.7101 292.609 24.7501 295.832 28.398 295.832H68.1505C64.5026 295.832 61.4626 292.609 61.1384 288.414L59.1117 262.068L57.3688 239.055C54.25 238.51 51.2998 237.25 48.749 235.374C46.1982 233.498 44.1161 231.058 42.6656 228.243C42.473 227.879 42.3008 227.504 42.1386 227.129C40.963 224.513 40.3585 221.677 40.3653 218.809C40.3657 217.4 40.5117 215.994 40.8011 214.614C40.9125 214.067 41.0544 213.52 41.1963 212.993C41.9234 210.577 43.0802 208.311 44.6111 206.305C46.505 203.847 48.9298 201.848 51.7044 200.458C54.5341 199.035 57.6569 198.293 60.8242 198.29H21.1427C19.0811 198.289 17.0313 198.599 15.0628 199.212C11.0088 200.462 7.44319 202.941 4.85863 206.305C2.10146 209.89 0.608546 214.287 0.612825 218.809Z" fill="#407BFF"/>
<path opacity="0.1" d="M0.612825 218.809C0.60424 223.654 2.3094 228.346 5.42671 232.055C8.54401 235.764 12.8726 238.251 17.6467 239.076L21.3859 288.414C21.7101 292.609 24.7501 295.832 28.398 295.832H68.1505C64.5026 295.832 61.4626 292.609 61.1384 288.414L59.1117 262.068L57.3688 239.055C54.25 238.51 51.2998 237.25 48.749 235.374C46.1982 233.498 44.1161 231.058 42.6656 228.243C42.473 227.879 42.3008 227.504 42.1386 227.129C40.963 224.513 40.3585 221.677 40.3653 218.809C40.3657 217.4 40.5117 215.994 40.8011 214.614C40.9125 214.067 41.0544 213.52 41.1963 212.993C41.9234 210.577 43.0802 208.311 44.6111 206.305C46.505 203.847 48.9298 201.848 51.7044 200.458C54.5341 199.035 57.6569 198.293 60.8242 198.29H21.1427C19.0811 198.289 17.0313 198.599 15.0628 199.212C11.0088 200.462 7.44319 202.941 4.85863 206.305C2.10146 209.89 0.608546 214.287 0.612825 218.809Z" fill="black"/>
<path d="M40.3553 218.809C40.3553 228.943 47.0331 237.394 55.7983 239.076L59.1828 288.455C59.4766 292.66 62.2227 295.872 65.5464 295.872H171.681C174.985 295.872 177.761 292.66 178.045 288.455L181.44 239.005C190.023 237.201 196.518 228.872 196.518 218.85C196.541 214.647 195.352 210.528 193.093 206.984C191.376 204.283 189.015 202.051 186.223 200.489C183.683 199.069 180.823 198.323 177.913 198.32C173.315 198.341 168.907 200.159 165.632 203.387C163.011 205.955 161.116 209.172 160.14 212.709C160.095 212.852 160.061 212.997 160.038 213.145C159.795 214.222 159.636 215.316 159.562 216.418L159.319 219.853L156.431 262.048H80.7969L77.6657 216.448C77.2097 210.004 74.0785 204.633 69.7213 202.09C66.963 199.894 63.6019 198.59 60.0846 198.35C59.7097 198.35 59.3449 198.35 58.97 198.35C56.1405 198.335 53.3526 199.032 50.8634 200.377C50.782 200.406 50.7039 200.443 50.6303 200.489C48.0668 201.924 45.863 203.923 44.1856 206.335C41.6679 210.006 40.3315 214.358 40.3553 218.809Z" fill="#407BFF"/>
<path opacity="0.1" d="M82.5393 295.832H171.711C175.015 295.832 177.791 292.62 178.075 288.414L181.47 238.964C190.052 237.161 196.548 228.831 196.548 218.809C196.571 214.607 195.382 210.487 193.123 206.943C191.406 204.243 189.045 202.011 186.252 200.448C183.713 199.029 180.853 198.282 177.943 198.28C173.345 198.3 168.937 200.119 165.662 203.346C163.041 205.915 161.146 209.131 160.17 212.669C160.125 212.811 160.091 212.957 160.068 213.104C159.825 214.181 159.666 215.276 159.592 216.377L159.349 219.813L156.461 262.007H80.7964L82.5393 295.832Z" fill="white"/>
<path d="M109.676 313.271L118.32 315.662L126.082 295.345L117.438 292.954L109.676 313.271Z" fill="#FFC3BD"/>
<path d="M122.191 312.967C121.509 312.083 120.524 311.484 119.425 311.285L110.558 309.552C110.351 309.492 110.129 309.516 109.94 309.618C109.75 309.72 109.608 309.893 109.545 310.099L106.799 318.206C106.72 318.426 106.686 318.66 106.698 318.893C106.71 319.126 106.768 319.355 106.869 319.566C106.97 319.777 107.111 319.966 107.285 320.122C107.459 320.278 107.663 320.398 107.883 320.476H107.944C111.227 321.773 113.446 321.327 118.574 322.32C121.745 322.928 128.383 325.036 132.821 324.853C137.259 324.671 137.249 320.283 135.385 319.959C128.798 318.946 123.732 314.973 122.191 312.967Z" fill="#263238"/>
<g opacity="0.2">
<path opacity="0.2" d="M126.082 295.355L122.079 305.833L113.436 303.421L117.428 292.954L126.082 295.355Z" fill="black"/>
</g>
<path d="M97.2334 218.232C97.2334 218.232 149.277 217.948 147.656 235.377C146.562 247.152 140.907 259.525 136.51 271.472C130.116 288.789 124.573 303.898 124.573 303.898L112.717 299.794C112.717 299.794 123.367 249.716 130.541 244.588H86.5327C71.9713 244.588 65.6786 228.598 79.855 209.953C88.5189 209.983 97.2334 218.232 97.2334 218.232Z" fill="#407BFF"/>
<path opacity="0.6" d="M97.2334 218.232C97.2334 218.232 149.277 217.948 147.656 235.377C148.457 246.21 124.563 303.878 124.563 303.878L112.707 299.774C112.707 299.774 123.357 249.695 130.531 244.568H86.5327C71.9713 244.568 65.6786 228.578 79.855 209.933C88.5189 209.983 97.2334 218.232 97.2334 218.232Z" fill="black"/>
<path d="M133.936 186.586C127.531 192.433 114.956 178.591 112.929 176.949C108.592 173.402 95.8448 161.506 96.5136 157.372C98.5403 145.212 118.482 162.438 124.248 174.314L133.936 186.586Z" fill="#263238"/>
<path d="M77.8886 149.995C74.6764 150.674 71.2007 149.519 68.941 151.9C66.6813 154.281 65.7389 157.625 65.4146 160.888C65.1293 165.447 65.3673 170.023 66.124 174.527C66.7995 180.019 67.5054 185.508 68.2418 190.994C68.6986 195.512 68.5247 200.072 67.725 204.542C67.6407 205.017 67.7163 205.506 67.94 205.933C68.1637 206.361 68.5229 206.702 68.9612 206.903C68.9612 206.903 93.8788 207.754 101.124 207.48C104.975 207.339 102.33 197.205 103.515 191.267C103.779 189.95 106.353 184.539 106.738 183.161C108.521 176.625 107.336 172.126 105.724 165.559C104.519 160.787 104.022 153.906 101.59 153.4C97.2126 152.498 86.8261 148.09 77.8886 149.995Z" fill="#407BFF"/>
<path opacity="0.8" d="M77.8886 149.995C74.6764 150.674 71.2007 149.519 68.941 151.9C66.6813 154.281 65.7389 157.625 65.4146 160.888C65.1293 165.447 65.3673 170.023 66.124 174.527C66.7995 180.019 67.5054 185.508 68.2418 190.994C68.6986 195.512 68.5247 200.072 67.725 204.542C67.6407 205.017 67.7163 205.506 67.94 205.933C68.1637 206.361 68.5229 206.702 68.9612 206.903C68.9612 206.903 93.8788 207.754 101.124 207.48C104.975 207.339 102.33 197.205 103.515 191.267C103.779 189.95 106.353 184.539 106.738 183.161C108.521 176.625 107.336 172.126 105.724 165.559C104.519 160.787 104.022 153.906 101.59 153.4C97.2126 152.498 86.8261 148.09 77.8886 149.995Z" fill="white"/>
<path d="M74.3311 154.676C73.9967 154.17 65.2113 146.793 63.6406 155.315C61.4214 167.181 66.0118 178.854 66.0118 178.854C66.0118 178.854 67.0251 191.693 70.7947 192.98C74.5642 194.267 78.0703 194.581 79.3268 192.382C80.1394 190.668 80.5682 188.797 80.5833 186.9C80.5833 186.9 80.1577 163.513 74.3311 154.676Z" fill="#263238"/>
<path d="M80.402 133.711C81.3039 139.173 82.0639 149.154 78.1626 152.67C78.1626 152.67 87.6979 157.666 93.9602 166.38C95.3507 165.342 96.379 163.893 96.8992 162.238C97.4195 160.583 97.4051 158.806 96.8583 157.159C96.5444 156.12 96.0234 155.155 95.3268 154.323C94.6303 153.49 93.7725 152.808 92.8051 152.315C89.1064 150.289 89.4611 146.458 90.4744 142.871L80.402 133.711Z" fill="#E8BFBF"/>
<path opacity="0.2" d="M81.6475 142.983L85.2042 144.351C86.727 144.939 88.3565 145.202 89.9871 145.121C89.7334 146.235 89.7334 147.391 89.9871 148.505C88.7119 148.854 87.3629 148.825 86.1038 148.422C84.8448 148.019 83.7296 147.26 82.8938 146.236C82.319 145.219 81.8989 144.123 81.6475 142.983Z" fill="black"/>
<path d="M169.938 295.801H179.626L169.482 271.512L162.916 282.659L169.938 295.801Z" fill="#FFC3BD"/>
<path d="M178.825 293.501L167.466 290.917C167.271 290.868 167.065 290.894 166.889 290.99C166.712 291.086 166.578 291.244 166.513 291.434L163.342 300.169C163.278 300.389 163.259 300.62 163.284 300.847C163.31 301.075 163.381 301.295 163.492 301.496C163.603 301.696 163.752 301.873 163.932 302.016C164.111 302.158 164.317 302.264 164.537 302.327C168.52 303.158 170.475 303.34 175.471 304.485C178.511 305.185 186.334 307.232 190.58 308.194C194.825 309.157 195.94 305.002 194.248 304.212C186.668 300.706 182.564 297.352 180.365 294.494C179.981 293.996 179.437 293.645 178.825 293.501Z" fill="#263238"/>
<g opacity="0.2">
<path opacity="0.2" d="M169.482 271.512L173.799 281.858L165.085 286.722L162.916 282.669L169.482 271.512Z" fill="black"/>
</g>
<path d="M67.5324 207.014L66.5191 210.318C66.3873 210.571 66.6812 210.835 67.1068 210.855L104.6 211.99C104.944 211.99 105.218 211.848 105.248 211.635L105.684 208.311C105.684 208.088 105.42 207.886 105.066 207.866L68.1809 206.751C68.0591 206.732 67.9343 206.746 67.8201 206.793C67.7058 206.839 67.6064 206.916 67.5324 207.014Z" fill="#263238"/>
<path d="M114.428 234.121C102.096 239.38 88.7204 244.629 81.4448 244.629C66.8732 244.629 53.9332 234.11 67.7244 210.176C76.3984 210.176 91.4665 210.419 91.4665 210.419C91.4665 210.419 119.839 202.312 140.491 204.704C145.384 205.275 149.971 207.382 153.592 210.723C157.214 214.064 159.683 218.466 160.646 223.298C165.874 249.645 173.93 278.139 173.93 278.139L163.564 285.232C163.564 285.232 147.402 251.256 138.099 224.312C133.175 225.862 124.126 229.986 114.428 234.121Z" fill="#407BFF"/>
<path opacity="0.5" d="M160.646 223.298C159.687 218.463 157.22 214.056 153.598 210.711C149.977 207.366 145.388 205.256 140.492 204.684C119.881 202.333 91.4672 210.399 91.4672 210.399C91.4672 210.399 76.3991 210.125 67.7251 210.156C53.7109 233.989 66.8739 244.608 81.4454 244.608C88.7211 244.608 102.097 239.359 114.429 234.1C124.126 229.966 133.175 225.842 138.1 224.261C147.402 251.236 163.565 285.222 163.565 285.222L173.931 278.129C173.931 278.129 165.875 249.645 160.646 223.298Z" fill="black"/>
<path d="M147.655 235.458C147.326 238.843 146.818 242.209 146.135 245.541C146.085 245.429 146.044 245.328 146.003 245.216C145.963 245.105 146.003 245.166 146.003 245.135C145.97 245.023 145.926 244.915 145.872 244.811C143.116 237.961 140.42 230.939 138.14 224.322H138.211C144.109 226.825 148.131 230.392 147.655 235.458Z" fill="#407BFF"/>
<path opacity="0.6" d="M147.655 235.458C147.326 238.843 146.818 242.209 146.135 245.541C146.085 245.429 146.044 245.328 146.003 245.216C145.963 245.105 146.003 245.166 146.003 245.135C145.97 245.023 145.926 244.915 145.872 244.811C143.116 237.961 140.42 230.939 138.14 224.322H138.211C144.109 226.825 148.131 230.392 147.655 235.458Z" fill="black"/>
<path d="M73.7542 128.462C76.7941 137.024 77.9088 140.713 83.6036 143.925C92.1864 148.769 102.016 143.135 101.59 133.792C101.205 125.432 96.2904 112.826 86.7652 111.813C84.6638 111.577 82.5368 111.882 80.5867 112.7C78.6365 113.518 76.9281 114.821 75.624 116.485C74.3199 118.15 73.4634 120.121 73.1361 122.21C72.8089 124.299 73.0216 126.437 73.7542 128.421V128.462Z" fill="#E8BFBF"/>
<path d="M89.1463 127.347C89.3591 128.087 89.8962 128.523 90.3623 128.36C90.8285 128.198 91.0109 127.55 90.8285 126.83C90.6461 126.111 90.0887 125.655 89.6125 125.817C89.1362 125.979 88.9437 126.638 89.1463 127.347Z" fill="#263238"/>
<path d="M97.1006 124.834C97.3134 125.584 97.8505 126.02 98.3166 125.847C98.7827 125.675 98.9651 125.037 98.7827 124.317C98.6003 123.598 98.0329 123.142 97.5769 123.304C97.1209 123.466 96.8979 124.135 97.1006 124.834Z" fill="#263238"/>
<path d="M97.3848 123.416L98.9453 122.402C98.9453 122.402 98.4488 123.993 97.3848 123.416Z" fill="#263238"/>
<path d="M94.2539 126.455C95.3503 127.895 96.6391 129.177 98.0843 130.266C97.7941 130.624 97.4285 130.915 97.0134 131.116C96.5983 131.317 96.144 131.425 95.6827 131.431L94.2539 126.455Z" fill="#ED847E"/>
<path d="M68.1607 134.126C68.7832 135.668 69.2549 137.266 69.5692 138.899C69.6555 140.541 69.1273 142.156 68.0877 143.43C67.048 144.704 65.5713 145.545 63.9453 145.79C65.3613 146.167 66.8642 146.043 68.1993 145.439C69.5345 144.835 70.6199 143.789 71.2716 142.476C70.497 144.539 68.9637 146.228 66.9853 147.198C68.3994 147.214 69.7979 146.903 71.0722 146.289C72.3464 145.676 73.4619 144.777 74.3318 143.662C73.8556 144.898 73.3185 146.124 72.8929 147.36C75.299 145.903 77.2748 143.833 78.6182 141.362C79.1552 140.348 79.5606 139.031 78.8512 138.139C78.1419 137.247 77.0171 137.308 75.9835 137.288C74.95 137.268 73.7036 137.025 73.3286 136.062C72.9537 135.099 73.6428 134.137 74.3926 133.478C75.1425 132.819 76.0443 132.211 76.3179 131.249C76.4477 130.552 76.3989 129.834 76.1761 129.161C75.7099 127.297 75.2506 125.429 74.798 123.558C74.6749 122.897 74.4384 122.263 74.0988 121.683C72.0721 118.643 69.8124 123.102 69.0322 124.611C67.5717 127.565 67.2611 130.956 68.1607 134.126Z" fill="#263238"/>
<path d="M73.1567 136.852C74.3044 138.344 75.9937 139.323 77.8585 139.578C80.3411 139.882 81.2126 137.551 80.2195 135.433C79.3177 133.488 76.9465 131.005 74.6057 131.664C72.265 132.323 71.7583 134.988 73.1567 136.852Z" fill="#E8BFBF"/>
<path d="M89.2783 121.227C89.2618 121.321 89.2172 121.409 89.1503 121.477C89.0834 121.546 88.9973 121.593 88.9033 121.612C86.8767 121.997 85.7012 124.439 85.7012 124.459C85.6504 124.57 85.5583 124.656 85.4447 124.7C85.3311 124.743 85.205 124.741 85.0932 124.692C84.9853 124.642 84.9015 124.551 84.8598 124.439C84.8181 124.327 84.8219 124.204 84.8703 124.094C84.9615 124.003 86.218 121.196 88.7311 120.71C88.8489 120.692 88.9692 120.72 89.0672 120.787C89.1652 120.855 89.2335 120.958 89.258 121.075C89.2797 121.122 89.2867 121.175 89.2783 121.227Z" fill="#263238"/>
<path d="M94.6897 119.2C94.622 119.189 94.5528 119.193 94.4865 119.21C94.4203 119.228 94.3583 119.259 94.3046 119.301C94.1931 119.423 93.8182 119.636 94.031 119.747C95.2673 120.376 96.9798 121.409 98.2971 121.196C98.52 121.196 99.0469 120.963 98.9355 120.801C98.8593 120.719 98.7633 120.659 98.6568 120.625C98.5503 120.591 98.4368 120.586 98.3275 120.609C97.3142 120.75 95.8854 119.768 94.9126 119.261C94.8412 119.231 94.7662 119.211 94.6897 119.2Z" fill="#263238"/>
<path d="M89.4199 125.918L90.9906 124.905C90.9906 124.905 90.494 126.516 89.4199 125.918Z" fill="#263238"/>
<path d="M89.2787 108.064C85.8232 107.435 85.3774 107.202 81.8713 107.425C78.33 107.536 74.9059 108.72 72.0522 110.82C69.3864 113.023 67.5057 116.031 66.6918 119.393C65.8952 122.742 65.8055 126.221 66.4283 129.607C66.5402 131.224 67.2393 132.745 68.3942 133.883C68.5118 132.062 68.8209 130.259 69.3163 128.502C69.833 126.729 70.897 125.165 72.3562 124.034C73.0003 123.685 73.5552 123.193 73.9775 122.595C74.1968 122.003 74.32 121.381 74.3423 120.75C74.6601 119.332 75.5084 118.088 76.7135 117.275C77.9104 116.48 79.1916 115.821 80.5337 115.309C84.7998 113.475 89.4509 112.421 93.3826 109.948C92.0962 109.156 90.7181 108.523 89.2787 108.064Z" fill="#263238"/>
<path d="M71.5955 121.622C72.5234 122.749 73.7935 123.542 75.2131 123.882C76.8952 124.267 81.1004 124.165 81.3538 123.73C81.6071 123.294 80.1074 118.572 78.405 118.288C79.5794 119.422 80.9819 120.292 82.5191 120.842C84.2583 121.189 86.0491 121.189 87.7884 120.842C88.6801 120.639 86.6838 116.951 85.2348 115.897C89.6022 116.809 94.2229 117.852 97.3946 120.963C100.566 124.074 101.934 128.999 101.772 133.589C102.515 132.991 103.112 132.231 103.518 131.367C103.924 130.503 104.127 129.558 104.113 128.604C104.878 130.977 105.158 133.48 104.937 135.964C104.716 138.448 103.998 140.863 102.826 143.064C107.467 139.254 109.2 132.596 107.984 126.719C106.768 120.842 102.917 115.724 98.2458 111.965C94.1925 108.753 89.3691 106.351 84.2316 106.23C77.493 106.027 65.0089 113.688 71.5955 121.622Z" fill="#263238"/>
<path d="M77.0574 148.718C77.0574 148.384 77.1385 147.938 77.179 147.472C77.2675 146.402 76.9558 145.337 76.3044 144.483C75.653 143.63 74.7081 143.048 73.6526 142.851C73.3393 142.795 73.0465 142.657 72.8043 142.45C72.5621 142.243 72.3793 141.976 72.2745 141.676C71.4943 139.406 71.1903 138.717 70.4404 136.487C68.4138 135.991 65.9717 136.751 63.8538 136.974C63.2666 139.517 63.2251 142.155 63.7322 144.715C63.8135 145.288 64.0364 145.831 64.3808 146.296C66.3038 147.872 68.4307 149.181 70.7039 150.187C72.5278 150.745 75.0916 148.89 77.0574 148.718Z" fill="#E8BFBF"/>
<path d="M70.9166 150.238C70.9166 150.238 65.3332 186.262 71.0889 191.784C74.4632 195.006 77.3816 193.223 79.1954 191.207C79.8603 190.455 80.3606 189.573 80.6642 188.617C80.9679 187.66 81.0682 186.651 80.9586 185.654L77.037 148.748C77.037 148.748 73.1864 146.469 70.9166 150.238Z" fill="#E8BFBF"/>
<path d="M130.906 182.766C133.198 180.765 134.843 178.126 135.628 175.186C135.807 174.149 135.875 173.096 135.83 172.045C135.78 165.519 133.936 153.552 133.936 153.552L128.636 151.799C128.636 151.799 126.984 160.918 126.609 165.904C126.538 166.917 126.427 168.042 126.305 169.268C126.072 171.497 125.788 173.95 125.535 175.987L130.906 182.766Z" fill="#E8BFBF"/>
<path d="M133.936 186.586C135.567 185.096 135.841 183.293 136.682 179.493C137.482 175.865 136.58 171.386 135.83 172.065C135.737 172.15 135.667 172.259 135.628 172.379C134.341 175.419 129.335 172.754 127.916 171.234C127.305 170.653 126.768 170 126.315 169.289C126.129 169.017 126.03 168.696 126.03 168.366C126.03 168.037 126.129 167.716 126.315 167.444C124.775 166.806 123.539 172.866 124.289 174.355L124.674 175.48C125.284 177.305 126.225 179.002 127.45 180.486L130.237 183.84L133.936 186.586Z" fill="#263238"/>
<path d="M128.493 152.559L127.865 143.297C129.504 144.077 131.198 144.737 132.932 145.273C135.506 146.154 139.012 144.604 138.201 146.286C136.909 148.789 135.467 151.212 133.884 153.542L128.493 152.559Z" fill="#E8BFBF"/>
<path d="M127.865 143.297L131.837 134.025L137.026 137.197C138.454 140.297 138.282 146.316 138.282 146.316C138.282 146.316 131.067 146.6 127.865 143.297Z" fill="#E8BFBF"/>
<path d="M93.6452 136.153C93.7769 136.812 94.2532 137.278 94.6585 137.166C95.0638 137.055 95.3172 136.467 95.1753 135.808C95.0335 135.15 94.5673 134.684 94.162 134.795C93.7567 134.907 93.5033 135.535 93.6452 136.153Z" fill="#263238"/>
<path d="M80.7971 262.058L77.666 216.459C77.21 210.014 74.0788 204.643 69.7215 202.1C66.9632 199.904 63.6021 198.6 60.0849 198.361C59.7099 198.361 59.3451 198.361 58.9702 198.361C56.1407 198.345 53.3528 199.042 50.8637 200.387C50.7822 200.416 50.7041 200.453 50.6306 200.499C48.067 201.934 45.8633 203.933 44.1859 206.346C41.6551 210.023 40.3113 214.386 40.3353 218.85C40.3353 228.983 47.0131 237.434 55.7783 239.116L59.1627 288.495C59.4566 292.701 62.2027 295.913 65.5264 295.913H82.5198L80.7971 262.058Z" fill="#407BFF"/>
<path opacity="0.1" d="M80.7971 262.058L77.666 216.459C77.21 210.014 74.0788 204.643 69.7215 202.1C66.9632 199.904 63.6021 198.6 60.0849 198.361C59.7099 198.361 59.3451 198.361 58.9702 198.361C56.1407 198.345 53.3528 199.042 50.8637 200.387C50.7822 200.416 50.7041 200.453 50.6306 200.499C48.067 201.934 45.8633 203.933 44.1859 206.346C41.6551 210.023 40.3113 214.386 40.3353 218.85C40.3353 228.983 47.0131 237.434 55.7783 239.116L59.1627 288.495C59.4566 292.701 62.2027 295.913 65.5264 295.913H82.5198L80.7971 262.058Z" fill="white"/>
<path d="M201.918 345.373C220.689 345.373 235.905 341.48 235.905 336.679C235.905 331.877 220.689 327.984 201.918 327.984C183.148 327.984 167.932 331.877 167.932 336.679C167.932 341.48 183.148 345.373 201.918 345.373Z" fill="#263238"/>
<path opacity="0.3" d="M201.918 342.475C220.689 342.475 235.905 339.231 235.905 335.23C235.905 331.228 220.689 327.984 201.918 327.984C183.148 327.984 167.932 331.228 167.932 335.23C167.932 339.231 183.148 342.475 201.918 342.475Z" fill="white"/>
<path d="M204.725 335.219H199.112L192.626 265.28H211.211L204.725 335.219Z" fill="#263238"/>
<path d="M211.211 265.28C211.211 267.307 207.056 268.969 201.919 268.969C196.781 268.969 192.626 267.317 192.626 265.28C192.626 263.243 196.791 261.592 201.919 261.592C207.046 261.592 211.211 263.243 211.211 265.28Z" fill="#263238"/>
<path opacity="0.7" d="M211.211 265.28C211.211 267.307 207.056 268.969 201.919 268.969C196.781 268.969 192.626 267.317 192.626 265.28C192.626 263.243 196.791 261.592 201.919 261.592C207.046 261.592 211.211 263.243 211.211 265.28Z" fill="white"/>
<path opacity="0.7" d="M88.2646 266.374C88.2901 265.956 88.3991 265.546 88.5853 265.17C88.7715 264.794 89.0312 264.46 89.3489 264.186C97.2021 272.09 147.027 278.18 207.32 278.18C267.612 278.18 317.437 272.1 325.3 264.186C325.618 264.46 325.878 264.794 326.064 265.17C326.25 265.546 326.359 265.956 326.384 266.374C326.384 275.302 273.074 282.588 207.32 282.588C141.565 282.588 88.2646 275.302 88.2646 266.374Z" fill="white"/>
<path opacity="0.7" d="M89.3896 268.391C97.2429 260.487 147.068 254.407 207.36 254.407C267.653 254.407 317.478 260.487 325.341 268.391C317.478 276.295 267.653 282.385 207.36 282.385C147.068 282.385 97.2429 276.295 89.3896 268.391Z" fill="white"/>
<path opacity="0.7" d="M88.2646 266.06C88.2646 257.123 141.565 249.847 207.32 249.847C273.074 249.847 326.384 257.082 326.384 266.06C326.36 266.478 326.251 266.886 326.065 267.26C325.879 267.635 325.619 267.968 325.3 268.239C317.437 260.335 267.612 254.255 207.32 254.255C147.027 254.255 97.2021 260.335 89.3489 268.239C89.0306 267.968 88.7704 267.635 88.5841 267.26C88.3978 266.886 88.2891 266.478 88.2646 266.06Z" fill="white"/>
<path d="M253.283 258.187L203.468 257.245C203.334 257.231 203.204 257.19 203.085 257.125C202.967 257.061 202.863 256.973 202.779 256.867C202.695 256.761 202.633 256.64 202.596 256.51C202.56 256.38 202.55 256.244 202.567 256.11C202.556 255.975 202.572 255.839 202.614 255.711C202.656 255.582 202.723 255.464 202.812 255.362C202.901 255.26 203.009 255.177 203.131 255.117C203.252 255.058 203.384 255.023 203.519 255.015L253.334 255.958C253.469 255.97 253.6 256.01 253.72 256.074C253.84 256.138 253.945 256.226 254.03 256.332C254.115 256.438 254.178 256.56 254.215 256.69C254.252 256.821 254.263 256.958 254.246 257.093C254.257 257.228 254.24 257.365 254.198 257.494C254.155 257.623 254.087 257.742 253.997 257.844C253.907 257.946 253.797 258.029 253.675 258.088C253.552 258.147 253.419 258.181 253.283 258.187Z" fill="#263238"/>
<path opacity="0.2" d="M253.283 258.187L203.468 257.245C203.334 257.231 203.204 257.19 203.085 257.125C202.967 257.061 202.863 256.973 202.779 256.867C202.695 256.761 202.633 256.64 202.596 256.51C202.56 256.38 202.55 256.244 202.567 256.11C202.556 255.975 202.572 255.839 202.614 255.711C202.656 255.582 202.723 255.464 202.812 255.362C202.901 255.26 203.009 255.177 203.131 255.117C203.252 255.058 203.384 255.023 203.519 255.015L253.334 255.958C253.469 255.97 253.6 256.01 253.72 256.074C253.84 256.138 253.945 256.226 254.03 256.332C254.115 256.438 254.178 256.56 254.215 256.69C254.252 256.821 254.263 256.958 254.246 257.093C254.257 257.228 254.24 257.365 254.198 257.494C254.155 257.623 254.087 257.742 253.997 257.844C253.907 257.946 253.797 258.029 253.675 258.088C253.552 258.147 253.419 258.181 253.283 258.187Z" fill="white"/>
<path d="M277.471 254.549L253.658 258.146C253.398 258.147 253.147 258.047 252.959 257.868C252.77 257.689 252.658 257.444 252.645 257.184C252.603 256.911 252.664 256.633 252.816 256.403C252.967 256.173 253.199 256.007 253.465 255.937L277.278 252.34C277.539 252.34 277.789 252.44 277.978 252.619C278.166 252.798 278.279 253.043 278.292 253.303C278.333 253.575 278.272 253.853 278.121 254.084C277.969 254.314 277.738 254.48 277.471 254.549Z" fill="#263238"/>
<path d="M277.259 252.34H226.917L203.52 255.015L251.976 255.927L277.259 252.34Z" fill="#263238"/>
<path opacity="0.6" d="M277.259 252.34H226.917L203.52 255.015L251.976 255.927L277.259 252.34Z" fill="white"/>
<path opacity="0.5" d="M277.471 254.549L253.658 258.146C253.398 258.147 253.147 258.047 252.959 257.868C252.77 257.689 252.658 257.444 252.645 257.184C252.603 256.911 252.664 256.633 252.816 256.403C252.967 256.173 253.199 256.007 253.465 255.937L277.278 252.34C277.539 252.34 277.789 252.44 277.978 252.619C278.166 252.798 278.279 253.043 278.292 253.303C278.333 253.575 278.272 253.853 278.121 254.084C277.969 254.314 277.738 254.48 277.471 254.549Z" fill="white"/>
<path d="M251.977 255.927L205.526 255.056C204.65 254.944 203.846 254.515 203.265 253.851C202.685 253.186 202.368 252.331 202.375 251.448L200.976 223.4C200.875 221.444 202.142 219.873 203.773 219.904L250.224 220.785C251.101 220.893 251.908 221.32 252.49 221.986C253.071 222.652 253.387 223.509 253.375 224.393L254.784 252.431C254.875 254.387 253.618 255.958 251.977 255.927Z" fill="#407BFF"/>
<path opacity="0.2" d="M251.977 255.927L205.526 255.056C204.65 254.944 203.846 254.515 203.265 253.851C202.685 253.186 202.368 252.331 202.375 251.448L200.976 223.4C200.875 221.444 202.142 219.873 203.773 219.904L250.224 220.785C251.101 220.893 251.908 221.32 252.49 221.986C253.071 222.652 253.387 223.509 253.375 224.393L254.784 252.431C254.875 254.387 253.618 255.958 251.977 255.927Z" fill="white"/>
<path d="M250.618 255.785L204.168 254.904C203.29 254.794 202.483 254.367 201.9 253.702C201.318 253.037 200.999 252.181 201.006 251.296L199.608 223.298C199.506 221.343 200.773 219.772 202.415 219.802L248.855 220.674C249.733 220.783 250.539 221.211 251.122 221.876C251.705 222.541 252.023 223.397 252.017 224.281L253.435 252.289C253.516 254.245 252.25 255.816 250.618 255.785Z" fill="#407BFF"/>
<path opacity="0.6" d="M250.618 255.785L204.168 254.904C203.29 254.794 202.483 254.367 201.9 253.702C201.318 253.037 200.999 252.181 201.006 251.296L199.608 223.298C199.506 221.343 200.773 219.772 202.415 219.802L248.855 220.674C249.733 220.783 250.539 221.211 251.122 221.876C251.705 222.541 252.023 223.397 252.017 224.281L253.435 252.289C253.516 254.245 252.25 255.816 250.618 255.785Z" fill="white"/>
<path d="M220.361 237.312C220.497 238.647 221.118 239.885 222.106 240.793C223.094 241.7 224.38 242.214 225.721 242.237C226.352 242.248 226.978 242.125 227.557 241.875C228.137 241.625 228.656 241.255 229.082 240.79C229.507 240.324 229.829 239.773 230.025 239.174C230.222 238.574 230.288 237.94 230.22 237.312C230.073 235.985 229.448 234.756 228.462 233.856C227.475 232.955 226.195 232.444 224.86 232.418C224.232 232.408 223.609 232.53 223.032 232.778C222.455 233.026 221.937 233.393 221.512 233.855C221.087 234.318 220.765 234.865 220.566 235.461C220.368 236.057 220.298 236.688 220.361 237.312Z" fill="white"/>
</svg>
