<svg width="32" height="26" viewBox="0 0 32 26" fill="none" xmlns="http://www.w3.org/2000/svg">
<path d="M22.6663 25V22.3333C22.6663 20.9188 22.1044 19.5623 21.1042 18.5621C20.104 17.5619 18.7475 17 17.333 17H6.66634C5.25185 17 3.8953 17.5619 2.8951 18.5621C1.89491 19.5623 1.33301 20.9188 1.33301 22.3333V25" stroke="#1E266D" stroke-width="2" stroke-linecap="round" stroke-linejoin="round"/>
<path d="M11.9998 11.6667C14.9454 11.6667 17.3332 9.27885 17.3332 6.33333C17.3332 3.38781 14.9454 1 11.9998 1C9.05432 1 6.6665 3.38781 6.6665 6.33333C6.6665 9.27885 9.05432 11.6667 11.9998 11.6667Z" stroke="#1E266D" stroke-width="2" stroke-linecap="round" stroke-linejoin="round"/>
<path d="M30.6665 25V22.3333C30.6656 21.1516 30.2723 20.0037 29.5483 19.0698C28.8243 18.1358 27.8107 17.4688 26.6665 17.1733" stroke="#1E266D" stroke-width="2" stroke-linecap="round" stroke-linejoin="round"/>
<path d="M21.333 1.17334C22.4802 1.46707 23.4971 2.13427 24.2232 3.06975C24.9493 4.00523 25.3435 5.15578 25.3435 6.34001C25.3435 7.52423 24.9493 8.67478 24.2232 9.61026C23.4971 10.5457 22.4802 11.2129 21.333 11.5067" stroke="#1E266D" stroke-width="2" stroke-linecap="round" stroke-linejoin="round"/>
</svg>
