<svg width="58" height="58" viewBox="0 0 58 58" fill="none" xmlns="http://www.w3.org/2000/svg">
<rect width="58" height="58" rx="29" fill="#172AB4"/>
<path d="M19.1167 21.0624C18.7277 20.7652 18.4089 20.3862 18.183 19.9523C17.957 19.5185 17.8294 19.0403 17.8092 18.5518C17.7891 18.0632 17.8768 17.5762 18.0662 17.1252C18.2556 16.6743 18.5421 16.2704 18.9053 15.9423C19.2685 15.6141 19.6996 15.3697 20.168 15.2264C20.6364 15.0831 21.1306 15.0443 21.6157 15.1129C22.1007 15.1815 22.5648 15.3557 22.9749 15.6232C23.3849 15.8907 23.7311 16.2449 23.9887 16.6608C27.2014 15.3548 30.7984 15.3548 34.0111 16.6608C34.2709 16.2497 34.6175 15.9003 35.0267 15.6369C35.436 15.3736 35.898 15.2027 36.3803 15.1363C36.8627 15.0699 37.3538 15.1095 37.8192 15.2524C38.2846 15.3953 38.7131 15.638 39.0746 15.9635C39.4362 16.289 39.7221 16.6895 39.9123 17.1369C40.1025 17.5843 40.1925 18.0678 40.1758 18.5535C40.1591 19.0393 40.0363 19.5155 39.8159 19.9489C39.5955 20.3822 39.2828 20.7623 38.8998 21.0624C40.0785 21.4929 41.0962 22.2744 41.8153 23.3012C42.5343 24.328 42.9199 25.5505 42.9199 26.8033C42.9199 26.9506 42.8613 27.092 42.7568 27.1962C42.6524 27.3004 42.5108 27.359 42.3631 27.359H42.2462C42.318 27.912 42.357 28.4687 42.3631 29.0262C42.3575 31.5053 41.6614 33.934 40.3527 36.0411C39.044 38.1481 37.1742 39.8505 34.9521 40.9582C35.0663 41.4182 35.1243 41.8903 35.1247 42.3642C35.1247 42.5116 35.0661 42.653 34.9616 42.7572C34.8572 42.8614 34.7156 42.92 34.5679 42.92H23.4319C23.2842 42.92 23.1426 42.8614 23.0382 42.7572C22.9338 42.653 22.8751 42.5116 22.8751 42.3642C22.8756 41.8903 22.9335 41.4182 23.0477 40.9582C20.8257 39.8505 18.9558 38.1481 17.6471 36.0411C16.3384 33.934 15.6424 31.5053 15.6367 29.0262C15.6428 28.4687 15.6818 27.912 15.7536 27.359H15.6367C15.489 27.359 15.3474 27.3004 15.243 27.1962C15.1386 27.092 15.0799 26.9506 15.0799 26.8033C15.0812 25.5485 15.4692 24.3245 16.1914 23.2975C16.9136 22.2705 17.9349 21.4901 19.1167 21.0624ZM21.2047 16.244C20.7642 16.244 20.3336 16.3744 19.9674 16.6187C19.6011 16.8629 19.3156 17.2101 19.1471 17.6163C18.9785 18.0225 18.9344 18.4695 19.0203 18.9007C19.1063 19.3319 19.3184 19.728 19.6299 20.0389C19.9413 20.3498 20.3382 20.5615 20.7702 20.6473C21.2023 20.7331 21.6501 20.6891 22.057 20.5208C22.464 20.3525 22.8118 20.0676 23.0566 19.7021C23.3013 19.3365 23.4319 18.9067 23.4319 18.467C23.4319 17.8774 23.1973 17.312 22.7796 16.8951C22.3619 16.4782 21.7954 16.244 21.2047 16.244ZM39.0223 18.467C39.0223 18.0274 38.8917 17.5976 38.647 17.232C38.4022 16.8664 38.0544 16.5815 37.6474 16.4132C37.2405 16.245 36.7927 16.201 36.3606 16.2867C35.9286 16.3725 35.5317 16.5842 35.2203 16.8951C34.9088 17.206 34.6967 17.6021 34.6107 18.0333C34.5248 18.4646 34.5689 18.9115 34.7375 19.3177C34.906 19.7239 35.1915 20.0711 35.5578 20.3154C35.924 20.5596 36.3546 20.69 36.7951 20.69C37.3858 20.69 37.9523 20.4558 38.37 20.0389C38.7877 19.622 39.0223 19.0566 39.0223 18.467ZM36.7951 21.8015C35.5629 21.8021 34.3741 22.2558 33.4558 23.076C32.5376 23.8961 31.9542 25.0252 31.8173 26.2475H41.7729C41.636 25.0252 41.0527 23.8961 40.1344 23.076C39.2162 22.2558 38.0274 21.8021 36.7951 21.8015ZM33.9777 41.8085C33.836 40.5899 33.2507 39.4659 32.3329 38.65C31.4151 37.8341 30.2289 37.3833 28.9999 37.3833C27.7709 37.3833 26.5847 37.8341 25.667 38.65C24.7492 39.4659 24.1638 40.5899 24.0221 41.8085H33.9777ZM31.2271 34.028C31.2271 33.5883 31.0965 33.1585 30.8518 32.793C30.607 32.4274 30.2592 32.1425 29.8522 31.9742C29.4453 31.8059 28.9975 31.7619 28.5654 31.8477C28.1334 31.9335 27.7365 32.1452 27.4251 32.4561C27.1136 32.767 26.9015 33.1631 26.8155 33.5943C26.7296 34.0255 26.7737 34.4725 26.9423 34.8787C27.1108 35.2849 27.3963 35.6321 27.7626 35.8763C28.1288 36.1206 28.5594 36.251 28.9999 36.251C29.5906 36.251 30.1571 36.0168 30.5748 35.5999C30.9925 35.183 31.2271 34.6176 31.2271 34.028ZM23.4319 39.8911C23.7661 39.1388 24.2491 38.4616 24.8519 37.9001C25.4546 37.3386 26.1648 36.9043 26.9398 36.6233C26.3994 36.1915 26.0068 35.6029 25.8162 34.9388C25.6255 34.2747 25.6463 33.5678 25.8755 32.916C26.1047 32.2641 26.5312 31.6994 27.0959 31.2999C27.6605 30.9004 28.3356 30.6858 29.0278 30.6858C29.7199 30.6858 30.395 30.9004 30.9597 31.2999C31.5244 31.6994 31.9508 32.2641 32.18 32.916C32.4093 33.5678 32.43 34.2747 32.2393 34.9388C32.0487 35.6029 31.6561 36.1915 31.1158 36.6233C31.8805 36.9106 32.5799 37.3478 33.1727 37.909C33.7656 38.4702 34.24 39.1441 34.5679 39.8911C36.8421 38.7557 38.6996 36.9333 39.8761 34.6834C41.0527 32.4334 41.4885 29.8704 41.1215 27.359H31.2271C31.0794 27.359 30.9378 27.3004 30.8334 27.1962C30.729 27.092 30.6703 26.9506 30.6703 26.8033C30.6716 25.5485 31.0596 24.3245 31.7818 23.2975C32.504 22.2705 33.5253 21.4901 34.7071 21.0624C34.3172 20.7508 34.0022 20.3559 33.7854 19.9067C33.5686 19.4575 33.4555 18.9656 33.4543 18.467C33.4564 18.2009 33.4901 17.936 33.5545 17.6779C30.6296 16.5165 27.3702 16.5165 24.4453 17.6779C24.5098 17.936 24.5434 18.2009 24.5455 18.467C24.5444 18.9656 24.4312 19.4575 24.2144 19.9067C23.9976 20.3559 23.6827 20.7508 23.2927 21.0624C24.4745 21.4901 25.4958 22.2705 26.218 23.2975C26.9402 24.3245 27.3283 25.5485 27.3295 26.8033C27.3295 26.9506 27.2709 27.092 27.1664 27.1962C27.062 27.3004 26.9204 27.359 26.7727 27.359H16.8784C16.509 29.8673 16.9406 32.4281 18.112 34.6777C19.2835 36.9273 21.1351 38.7514 23.4041 39.8911H23.4319ZM26.1825 26.2475C26.0408 25.029 25.4555 23.9049 24.5377 23.089C23.6199 22.2731 22.4337 21.8224 21.2047 21.8224C19.9757 21.8224 18.7895 22.2731 17.8718 23.089C16.954 23.9049 16.3686 25.029 16.2269 26.2475H26.1825Z" fill="white"/>
</svg>
