<svg width="343" height="303" viewBox="0 0 343 303" fill="none" xmlns="http://www.w3.org/2000/svg">
<path d="M239.717 170.136C282.326 152.791 326.167 181.868 340.311 121.854C348.758 85.9991 332.334 51.7861 301.196 26.7904C265.006 -2.27765 233.181 -10.0202 192.658 15.2017C151.7 40.6583 141.636 44.7642 94.7285 40.2477C21.1407 33.1588 -38.5037 123.204 30.6346 174.862C64.2359 200.001 115.099 223.505 157.163 224.083C171.467 224.276 190.865 222.7 203.116 214.028C220.21 201.978 217.109 179.304 239.717 170.136Z" fill="#407BFF"/>
<path opacity="0.9" d="M239.717 170.136C282.326 152.791 326.167 181.868 340.311 121.854C348.758 85.9991 332.334 51.7861 301.196 26.7904C265.006 -2.27765 233.181 -10.0202 192.658 15.2017C151.7 40.6583 141.636 44.7642 94.7285 40.2477C21.1407 33.1588 -38.5037 123.204 30.6346 174.862C64.2359 200.001 115.099 223.505 157.163 224.083C171.467 224.276 190.865 222.7 203.116 214.028C220.21 201.978 217.109 179.304 239.717 170.136Z" fill="white"/>
<path d="M173.612 303C263.341 303 336.08 298.753 336.08 293.514C336.08 288.276 263.341 284.029 173.612 284.029C83.8839 284.029 11.1445 288.276 11.1445 293.514C11.1445 298.753 83.8839 303 173.612 303Z" fill="#F5F5F5"/>
<path d="M161.721 283.091H63.7412V294.269H161.721V283.091Z" fill="#407BFF"/>
<path opacity="0.3" d="M161.721 283.091H63.7412V294.269H161.721V283.091Z" fill="black"/>
<path d="M68.7442 284.683H66.2891V292.685H68.7442V284.683Z" fill="#263238"/>
<path d="M73.0509 284.683H70.5957V292.685H73.0509V284.683Z" fill="#263238"/>
<path d="M77.3663 284.683H74.9111V292.685H77.3663V284.683Z" fill="#263238"/>
<path d="M81.6739 284.683H79.2188V292.685H81.6739V284.683Z" fill="#263238"/>
<path d="M85.9796 284.683H83.5244V292.685H85.9796V284.683Z" fill="#263238"/>
<path d="M90.2882 284.683H87.833V292.685H90.2882V284.683Z" fill="#263238"/>
<path d="M94.6026 284.683H92.1475V292.685H94.6026V284.683Z" fill="#263238"/>
<path d="M98.9102 284.683H96.4551V292.685H98.9102V284.683Z" fill="#263238"/>
<path d="M103.217 284.683H100.762V292.685H103.217V284.683Z" fill="#263238"/>
<path d="M107.524 284.683H105.068V292.685H107.524V284.683Z" fill="#263238"/>
<path d="M111.831 284.683H109.376V292.685H111.831V284.683Z" fill="#263238"/>
<path d="M116.147 284.683H113.691V292.685H116.147V284.683Z" fill="#263238"/>
<path d="M120.453 284.683H117.998V292.685H120.453V284.683Z" fill="#263238"/>
<path d="M124.76 284.683H122.305V292.685H124.76V284.683Z" fill="#263238"/>
<path d="M129.067 284.683H126.612V292.685H129.067V284.683Z" fill="#263238"/>
<path d="M133.383 284.683H130.928V292.685H133.383V284.683Z" fill="#263238"/>
<path d="M137.689 284.683H135.233V292.685H137.689V284.683Z" fill="#263238"/>
<path d="M141.997 284.683H139.542V292.685H141.997V284.683Z" fill="#263238"/>
<path d="M146.304 284.683H143.849V292.685H146.304V284.683Z" fill="#263238"/>
<path d="M150.619 284.683H148.164V292.685H150.619V284.683Z" fill="#263238"/>
<path d="M154.926 284.683H152.471V292.685H154.926V284.683Z" fill="#263238"/>
<path d="M159.232 284.683H156.777V292.685H159.232V284.683Z" fill="#263238"/>
<path d="M161.731 294.277H177.015V283.099H161.731V294.277Z" fill="#263238"/>
<path d="M161.731 85.5468H58.6475V283.091H161.731V85.5468Z" fill="#407BFF"/>
<path opacity="0.3" d="M161.731 85.5468H58.6475V283.091H161.731V85.5468Z" fill="white"/>
<path d="M175.346 83.854H65.4004V85.5466H175.346V83.854Z" fill="#263238"/>
<path d="M55.3965 177.594H54.5586V185.915H55.3965V177.594Z" fill="#407BFF"/>
<path d="M55.3965 188.714H54.5586V210.358H55.3965V188.714Z" fill="#407BFF"/>
<path d="M161.721 283.091H182.108L182.108 85.5467H161.721L161.721 283.091Z" fill="#407BFF"/>
<g style="mix-blend-mode:multiply" opacity="0.6">
<path d="M156.585 137.801H63.783C62.2697 137.801 61.043 139.027 61.043 140.541V154.668C61.043 156.182 62.2697 157.408 63.783 157.408H156.585C158.098 157.408 159.325 156.182 159.325 154.668V140.541C159.325 139.027 158.098 137.801 156.585 137.801Z" fill="#407BFF"/>
</g>
<path opacity="0.2" d="M156.585 137.801H63.783C62.2697 137.801 61.043 139.027 61.043 140.541V154.668C61.043 156.182 62.2697 157.408 63.783 157.408H156.585C158.098 157.408 159.325 156.182 159.325 154.668V140.541C159.325 139.027 158.098 137.801 156.585 137.801Z" fill="black"/>
<path d="M151.055 144.998L147.092 136.82V158.405H159.368V147.604H155.262C154.387 147.608 153.528 147.365 152.785 146.905C152.041 146.444 151.442 145.783 151.055 144.998Z" fill="#407BFF"/>
<path d="M159.325 87.9097H61.043V109.554H159.325V87.9097Z" fill="#407BFF"/>
<path opacity="0.2" d="M159.325 87.9097H61.043V109.554H159.325V87.9097Z" fill="white"/>
<path d="M159.325 258.958H61.043V280.602H159.325V258.958Z" fill="#407BFF"/>
<path opacity="0.2" d="M159.325 258.958H61.043V280.602H159.325V258.958Z" fill="white"/>
<path d="M159.325 234.524H61.043V256.168H159.325V234.524Z" fill="#407BFF"/>
<path opacity="0.2" d="M159.325 234.524H61.043V256.168H159.325V234.524Z" fill="white"/>
<path d="M159.325 210.089H61.043V231.733H159.325V210.089Z" fill="#407BFF"/>
<path opacity="0.2" d="M159.325 210.089H61.043V231.733H159.325V210.089Z" fill="white"/>
<path d="M159.325 185.655H61.043V207.299H159.325V185.655Z" fill="#407BFF"/>
<path opacity="0.2" d="M159.325 185.655H61.043V207.299H159.325V185.655Z" fill="white"/>
<path d="M159.325 161.221H61.043V182.865H159.325V161.221Z" fill="#407BFF"/>
<path opacity="0.2" d="M159.325 161.221H61.043V182.865H159.325V161.221Z" fill="white"/>
<path d="M147.091 136.787H48.8096V158.431H147.091V136.787Z" fill="#407BFF"/>
<path opacity="0.2" d="M147.091 136.787H48.8096V158.431H147.091V136.787Z" fill="white"/>
<path d="M159.325 112.344H61.043V133.988H159.325V112.344Z" fill="#407BFF"/>
<path opacity="0.2" d="M159.325 112.344H61.043V133.988H159.325V112.344Z" fill="white"/>
<path d="M153.208 91.0017H115.845C114.1 91.0017 112.686 92.4161 112.686 94.1607V103.303C112.686 105.047 114.1 106.462 115.845 106.462H153.208C154.953 106.462 156.367 105.047 156.367 103.303V94.1607C156.367 92.4161 154.953 91.0017 153.208 91.0017Z" fill="#407BFF"/>
<path opacity="0.2" d="M150.611 99.3727V98.099C150.611 97.3586 150.011 96.7583 149.271 96.7583H137.162C136.422 96.7583 135.822 97.3586 135.822 98.099V99.3727C135.822 100.113 136.422 100.713 137.162 100.713H149.271C150.011 100.713 150.611 100.113 150.611 99.3727Z" fill="white"/>
<path d="M153.208 115.436H115.845C114.1 115.436 112.686 116.85 112.686 118.595V127.737C112.686 129.482 114.1 130.896 115.845 130.896H153.208C154.953 130.896 156.367 129.482 156.367 127.737V118.595C156.367 116.85 154.953 115.436 153.208 115.436Z" fill="#407BFF"/>
<path opacity="0.2" d="M150.611 123.807V122.533C150.611 121.793 150.011 121.193 149.271 121.193H137.162C136.422 121.193 135.822 121.793 135.822 122.533V123.807C135.822 124.547 136.422 125.148 137.162 125.148H149.271C150.011 125.148 150.611 124.547 150.611 123.807Z" fill="white"/>
<path d="M140.975 139.879H103.611C101.866 139.879 100.452 141.293 100.452 143.038V152.179C100.452 153.924 101.866 155.338 103.611 155.338H140.975C142.72 155.338 144.134 153.924 144.134 152.179V143.038C144.134 141.293 142.72 139.879 140.975 139.879Z" fill="#407BFF"/>
<path opacity="0.2" d="M138.376 148.241V146.968C138.376 146.227 137.776 145.627 137.035 145.627H124.927C124.187 145.627 123.586 146.227 123.586 146.968V148.241C123.586 148.982 124.187 149.582 124.927 149.582H137.035C137.776 149.582 138.376 148.982 138.376 148.241Z" fill="white"/>
<path d="M153.208 164.313H115.845C114.1 164.313 112.686 165.727 112.686 167.472V176.614C112.686 178.358 114.1 179.773 115.845 179.773H153.208C154.953 179.773 156.367 178.358 156.367 176.614V167.472C156.367 165.727 154.953 164.313 153.208 164.313Z" fill="#407BFF"/>
<path opacity="0.2" d="M150.611 172.675V171.402C150.611 170.661 150.011 170.061 149.271 170.061H137.162C136.422 170.061 135.822 170.661 135.822 171.402V172.675C135.822 173.416 136.422 174.016 137.162 174.016H149.271C150.011 174.016 150.611 173.416 150.611 172.675Z" fill="white"/>
<path d="M153.208 188.747H115.845C114.1 188.747 112.686 190.162 112.686 191.906V201.048C112.686 202.793 114.1 204.207 115.845 204.207H153.208C154.953 204.207 156.367 202.793 156.367 201.048V191.906C156.367 190.162 154.953 188.747 153.208 188.747Z" fill="#407BFF"/>
<path opacity="0.2" d="M150.611 197.11V195.836C150.611 195.096 150.011 194.495 149.271 194.495H137.162C136.422 194.495 135.822 195.096 135.822 195.836V197.11C135.822 197.85 136.422 198.45 137.162 198.45H149.271C150.011 198.45 150.611 197.85 150.611 197.11Z" fill="white"/>
<path d="M153.208 213.181H115.845C114.1 213.181 112.686 214.596 112.686 216.34V225.482C112.686 227.227 114.1 228.641 115.845 228.641H153.208C154.953 228.641 156.367 227.227 156.367 225.482V216.34C156.367 214.596 154.953 213.181 153.208 213.181Z" fill="#407BFF"/>
<path opacity="0.2" d="M150.611 221.544V220.27C150.611 219.53 150.011 218.93 149.271 218.93H137.162C136.422 218.93 135.822 219.53 135.822 220.27V221.544C135.822 222.285 136.422 222.885 137.162 222.885H149.271C150.011 222.885 150.611 222.285 150.611 221.544Z" fill="white"/>
<path d="M153.208 237.616H115.845C114.1 237.616 112.686 239.03 112.686 240.775V249.917C112.686 251.661 114.1 253.076 115.845 253.076H153.208C154.953 253.076 156.367 251.661 156.367 249.917V240.775C156.367 239.03 154.953 237.616 153.208 237.616Z" fill="#407BFF"/>
<path opacity="0.2" d="M150.611 245.987V244.713C150.611 243.973 150.011 243.372 149.271 243.372H137.162C136.422 243.372 135.822 243.973 135.822 244.713V245.987C135.822 246.727 136.422 247.327 137.162 247.327H149.271C150.011 247.327 150.611 246.727 150.611 245.987Z" fill="white"/>
<path d="M153.208 262.05H115.845C114.1 262.05 112.686 263.464 112.686 265.209V274.351C112.686 276.096 114.1 277.51 115.845 277.51H153.208C154.953 277.51 156.367 276.096 156.367 274.351V265.209C156.367 263.464 154.953 262.05 153.208 262.05Z" fill="#407BFF"/>
<path opacity="0.2" d="M150.618 270.421V269.147C150.618 268.407 150.018 267.807 149.277 267.807H137.169C136.429 267.807 135.829 268.407 135.829 269.147V270.421C135.829 271.161 136.429 271.762 137.169 271.762H149.277C150.018 271.762 150.618 271.161 150.618 270.421Z" fill="white"/>
<path d="M105.085 101.233C106.464 101.233 107.582 100.115 107.582 98.7358C107.582 97.3567 106.464 96.2388 105.085 96.2388C103.706 96.2388 102.588 97.3567 102.588 98.7358C102.588 100.115 103.706 101.233 105.085 101.233Z" fill="#407BFF"/>
<path d="M97.9463 101.233C99.3254 101.233 100.443 100.115 100.443 98.7358C100.443 97.3567 99.3254 96.2388 97.9463 96.2388C96.5672 96.2388 95.4492 97.3567 95.4492 98.7358C95.4492 100.115 96.5672 101.233 97.9463 101.233Z" fill="#407BFF"/>
<path d="M90.8154 101.233C92.1945 101.233 93.3125 100.115 93.3125 98.7358C93.3125 97.3567 92.1945 96.2388 90.8154 96.2388C89.4363 96.2388 88.3184 97.3567 88.3184 98.7358C88.3184 100.115 89.4363 101.233 90.8154 101.233Z" fill="#407BFF"/>
<path opacity="0.4" d="M90.8154 101.233C92.1945 101.233 93.3125 100.115 93.3125 98.7358C93.3125 97.3567 92.1945 96.2388 90.8154 96.2388C89.4363 96.2388 88.3184 97.3567 88.3184 98.7358C88.3184 100.115 89.4363 101.233 90.8154 101.233Z" fill="white"/>
<path d="M86.1731 98.7359C86.1731 99.233 86.0257 99.7191 85.7495 100.132C85.4733 100.546 85.0807 100.868 84.6213 101.058C84.162 101.249 83.6565 101.298 83.1689 101.201C82.6813 101.104 82.2334 100.865 81.8818 100.513C81.5302 100.162 81.2908 99.7139 81.1938 99.2263C81.0968 98.7387 81.1466 98.2332 81.3369 97.7739C81.5271 97.3145 81.8493 96.9219 82.2627 96.6457C82.6761 96.3695 83.1621 96.222 83.6593 96.222C84.326 96.222 84.9654 96.4869 85.4369 96.9583C85.9083 97.4298 86.1731 98.0692 86.1731 98.7359Z" fill="#407BFF"/>
<path d="M105.085 125.667C106.464 125.667 107.582 124.549 107.582 123.17C107.582 121.791 106.464 120.673 105.085 120.673C103.706 120.673 102.588 121.791 102.588 123.17C102.588 124.549 103.706 125.667 105.085 125.667Z" fill="#407BFF"/>
<path d="M97.9463 125.667C99.3254 125.667 100.443 124.549 100.443 123.17C100.443 121.791 99.3254 120.673 97.9463 120.673C96.5672 120.673 95.4492 121.791 95.4492 123.17C95.4492 124.549 96.5672 125.667 97.9463 125.667Z" fill="#407BFF"/>
<path d="M90.8154 125.667C92.1945 125.667 93.3125 124.549 93.3125 123.17C93.3125 121.791 92.1945 120.673 90.8154 120.673C89.4363 120.673 88.3184 121.791 88.3184 123.17C88.3184 124.549 89.4363 125.667 90.8154 125.667Z" fill="#407BFF"/>
<path d="M86.1731 123.212C86.1731 123.709 86.0257 124.195 85.7495 124.609C85.4733 125.022 85.0807 125.344 84.6213 125.534C84.162 125.725 83.6565 125.774 83.1689 125.677C82.6813 125.58 82.2334 125.341 81.8818 124.989C81.5302 124.638 81.2908 124.19 81.1938 123.702C81.0968 123.215 81.1466 122.709 81.3369 122.25C81.5271 121.791 81.8493 121.398 82.2627 121.122C82.6761 120.846 83.1621 120.698 83.6593 120.698C84.326 120.698 84.9654 120.963 85.4369 121.434C85.9083 121.906 86.1731 122.545 86.1731 123.212Z" fill="#407BFF"/>
<path opacity="0.4" d="M86.1731 123.212C86.1731 123.709 86.0257 124.195 85.7495 124.609C85.4733 125.022 85.0807 125.344 84.6213 125.534C84.162 125.725 83.6565 125.774 83.1689 125.677C82.6813 125.58 82.2334 125.341 81.8818 124.989C81.5302 124.638 81.2908 124.19 81.1938 123.702C81.0968 123.215 81.1466 122.709 81.3369 122.25C81.5271 121.791 81.8493 121.398 82.2627 121.122C82.6761 120.846 83.1621 120.698 83.6593 120.698C84.326 120.698 84.9654 120.963 85.4369 121.434C85.9083 121.906 86.1731 122.545 86.1731 123.212Z" fill="white"/>
<path d="M92.8515 150.101C94.2306 150.101 95.3486 148.983 95.3486 147.604C95.3486 146.225 94.2306 145.107 92.8515 145.107C91.4725 145.107 90.3545 146.225 90.3545 147.604C90.3545 148.983 91.4725 150.101 92.8515 150.101Z" fill="#407BFF"/>
<path opacity="0.4" d="M92.8515 150.101C94.2306 150.101 95.3486 148.983 95.3486 147.604C95.3486 146.225 94.2306 145.107 92.8515 145.107C91.4725 145.107 90.3545 146.225 90.3545 147.604C90.3545 148.983 91.4725 150.101 92.8515 150.101Z" fill="white"/>
<path d="M85.7119 150.101C87.091 150.101 88.209 148.983 88.209 147.604C88.209 146.225 87.091 145.107 85.7119 145.107C84.3328 145.107 83.2148 146.225 83.2148 147.604C83.2148 148.983 84.3328 150.101 85.7119 150.101Z" fill="#407BFF"/>
<path d="M78.582 150.101C79.9611 150.101 81.0791 148.983 81.0791 147.604C81.0791 146.225 79.9611 145.107 78.582 145.107C77.2029 145.107 76.085 146.225 76.085 147.604C76.085 148.983 77.2029 150.101 78.582 150.101Z" fill="#407BFF"/>
<path opacity="0.4" d="M78.582 150.101C79.9611 150.101 81.0791 148.983 81.0791 147.604C81.0791 146.225 79.9611 145.107 78.582 145.107C77.2029 145.107 76.085 146.225 76.085 147.604C76.085 148.983 77.2029 150.101 78.582 150.101Z" fill="white"/>
<path d="M71.4434 150.101C72.8224 150.101 73.9404 148.983 73.9404 147.604C73.9404 146.225 72.8224 145.107 71.4434 145.107C70.0643 145.107 68.9463 146.225 68.9463 147.604C68.9463 148.983 70.0643 150.101 71.4434 150.101Z" fill="#407BFF"/>
<path d="M105.085 174.536C106.464 174.536 107.582 173.418 107.582 172.039C107.582 170.66 106.464 169.542 105.085 169.542C103.706 169.542 102.588 170.66 102.588 172.039C102.588 173.418 103.706 174.536 105.085 174.536Z" fill="#407BFF"/>
<path opacity="0.4" d="M105.085 174.536C106.464 174.536 107.582 173.418 107.582 172.039C107.582 170.66 106.464 169.542 105.085 169.542C103.706 169.542 102.588 170.66 102.588 172.039C102.588 173.418 103.706 174.536 105.085 174.536Z" fill="white"/>
<path d="M97.9463 174.536C99.3254 174.536 100.443 173.418 100.443 172.039C100.443 170.66 99.3254 169.542 97.9463 169.542C96.5672 169.542 95.4492 170.66 95.4492 172.039C95.4492 173.418 96.5672 174.536 97.9463 174.536Z" fill="#407BFF"/>
<path opacity="0.4" d="M97.9463 174.536C99.3254 174.536 100.443 173.418 100.443 172.039C100.443 170.66 99.3254 169.542 97.9463 169.542C96.5672 169.542 95.4492 170.66 95.4492 172.039C95.4492 173.418 96.5672 174.536 97.9463 174.536Z" fill="white"/>
<path d="M90.8154 174.536C92.1945 174.536 93.3125 173.418 93.3125 172.039C93.3125 170.66 92.1945 169.542 90.8154 169.542C89.4363 169.542 88.3184 170.66 88.3184 172.039C88.3184 173.418 89.4363 174.536 90.8154 174.536Z" fill="#407BFF"/>
<path d="M86.1731 172.039C86.1731 172.536 86.0257 173.022 85.7495 173.435C85.4733 173.849 85.0807 174.171 84.6213 174.361C84.162 174.551 83.6565 174.601 83.1689 174.504C82.6813 174.407 82.2334 174.168 81.8818 173.816C81.5302 173.465 81.2908 173.017 81.1938 172.529C81.0968 172.041 81.1466 171.536 81.3369 171.077C81.5271 170.617 81.8493 170.225 82.2627 169.948C82.6761 169.672 83.1621 169.525 83.6593 169.525C84.326 169.525 84.9654 169.79 85.4369 170.261C85.9083 170.733 86.1731 171.372 86.1731 172.039Z" fill="#407BFF"/>
<path d="M105.085 198.97C106.464 198.97 107.582 197.852 107.582 196.473C107.582 195.094 106.464 193.976 105.085 193.976C103.706 193.976 102.588 195.094 102.588 196.473C102.588 197.852 103.706 198.97 105.085 198.97Z" fill="#407BFF"/>
<path d="M97.9463 198.97C99.3254 198.97 100.443 197.852 100.443 196.473C100.443 195.094 99.3254 193.976 97.9463 193.976C96.5672 193.976 95.4492 195.094 95.4492 196.473C95.4492 197.852 96.5672 198.97 97.9463 198.97Z" fill="#407BFF"/>
<path opacity="0.4" d="M97.9463 198.97C99.3254 198.97 100.443 197.852 100.443 196.473C100.443 195.094 99.3254 193.976 97.9463 193.976C96.5672 193.976 95.4492 195.094 95.4492 196.473C95.4492 197.852 96.5672 198.97 97.9463 198.97Z" fill="white"/>
<path d="M90.8154 198.97C92.1945 198.97 93.3125 197.852 93.3125 196.473C93.3125 195.094 92.1945 193.976 90.8154 193.976C89.4363 193.976 88.3184 195.094 88.3184 196.473C88.3184 197.852 89.4363 198.97 90.8154 198.97Z" fill="#407BFF"/>
<path d="M86.1731 196.473C86.1731 196.97 86.0257 197.456 85.7495 197.87C85.4733 198.283 85.0807 198.605 84.6213 198.795C84.162 198.986 83.6565 199.035 83.1689 198.938C82.6813 198.841 82.2334 198.602 81.8818 198.25C81.5302 197.899 81.2908 197.451 81.1938 196.963C81.0968 196.476 81.1466 195.97 81.3369 195.511C81.5271 195.052 81.8493 194.659 82.2627 194.383C82.6761 194.107 83.1621 193.959 83.6593 193.959C84.326 193.959 84.9654 194.224 85.4369 194.695C85.9083 195.167 86.1731 195.806 86.1731 196.473Z" fill="#407BFF"/>
<path d="M105.085 223.404C106.464 223.404 107.582 222.286 107.582 220.907C107.582 219.528 106.464 218.41 105.085 218.41C103.706 218.41 102.588 219.528 102.588 220.907C102.588 222.286 103.706 223.404 105.085 223.404Z" fill="#407BFF"/>
<path d="M97.9463 223.404C99.3254 223.404 100.443 222.286 100.443 220.907C100.443 219.528 99.3254 218.41 97.9463 218.41C96.5672 218.41 95.4492 219.528 95.4492 220.907C95.4492 222.286 96.5672 223.404 97.9463 223.404Z" fill="#407BFF"/>
<path d="M90.8154 223.404C92.1945 223.404 93.3125 222.286 93.3125 220.907C93.3125 219.528 92.1945 218.41 90.8154 218.41C89.4363 218.41 88.3184 219.528 88.3184 220.907C88.3184 222.286 89.4363 223.404 90.8154 223.404Z" fill="#407BFF"/>
<path opacity="0.4" d="M90.8154 223.404C92.1945 223.404 93.3125 222.286 93.3125 220.907C93.3125 219.528 92.1945 218.41 90.8154 218.41C89.4363 218.41 88.3184 219.528 88.3184 220.907C88.3184 222.286 89.4363 223.404 90.8154 223.404Z" fill="white"/>
<path d="M86.1731 220.907C86.1731 221.404 86.0257 221.89 85.7495 222.304C85.4733 222.717 85.0807 223.039 84.6213 223.23C84.162 223.42 83.6565 223.47 83.1689 223.373C82.6813 223.276 82.2334 223.036 81.8818 222.685C81.5302 222.333 81.2908 221.885 81.1938 221.398C81.0968 220.91 81.1466 220.404 81.3369 219.945C81.5271 219.486 81.8493 219.093 82.2627 218.817C82.6761 218.541 83.1621 218.393 83.6593 218.393C84.326 218.393 84.9654 218.658 85.4369 219.13C85.9083 219.601 86.1731 220.24 86.1731 220.907Z" fill="#407BFF"/>
<path opacity="0.4" d="M86.1731 220.907C86.1731 221.404 86.0257 221.89 85.7495 222.304C85.4733 222.717 85.0807 223.039 84.6213 223.23C84.162 223.42 83.6565 223.47 83.1689 223.373C82.6813 223.276 82.2334 223.036 81.8818 222.685C81.5302 222.333 81.2908 221.885 81.1938 221.398C81.0968 220.91 81.1466 220.404 81.3369 219.945C81.5271 219.486 81.8493 219.093 82.2627 218.817C82.6761 218.541 83.1621 218.393 83.6593 218.393C84.326 218.393 84.9654 218.658 85.4369 219.13C85.9083 219.601 86.1731 220.24 86.1731 220.907Z" fill="white"/>
<path d="M107.582 245.35C107.582 245.847 107.435 246.333 107.159 246.746C106.882 247.16 106.49 247.482 106.03 247.672C105.571 247.863 105.066 247.912 104.578 247.815C104.09 247.718 103.643 247.479 103.291 247.127C102.939 246.776 102.7 246.328 102.603 245.84C102.506 245.353 102.556 244.847 102.746 244.388C102.936 243.929 103.259 243.536 103.672 243.26C104.085 242.983 104.571 242.836 105.069 242.836C105.735 242.836 106.375 243.101 106.846 243.572C107.317 244.044 107.582 244.683 107.582 245.35Z" fill="#407BFF"/>
<path opacity="0.4" d="M107.582 245.35C107.582 245.847 107.435 246.333 107.159 246.746C106.882 247.16 106.49 247.482 106.03 247.672C105.571 247.863 105.066 247.912 104.578 247.815C104.09 247.718 103.643 247.479 103.291 247.127C102.939 246.776 102.7 246.328 102.603 245.84C102.506 245.353 102.556 244.847 102.746 244.388C102.936 243.929 103.259 243.536 103.672 243.26C104.085 242.983 104.571 242.836 105.069 242.836C105.735 242.836 106.375 243.101 106.846 243.572C107.317 244.044 107.582 244.683 107.582 245.35Z" fill="white"/>
<path d="M100.451 245.35C100.451 245.847 100.304 246.333 100.028 246.746C99.7516 247.16 99.359 247.482 98.8996 247.672C98.4403 247.863 97.9349 247.912 97.4472 247.815C96.9596 247.718 96.5117 247.479 96.1601 247.127C95.8085 246.776 95.5691 246.328 95.4721 245.84C95.3751 245.353 95.4249 244.847 95.6152 244.388C95.8054 243.929 96.1276 243.536 96.541 243.26C96.9544 242.983 97.4405 242.836 97.9376 242.836C98.6043 242.836 99.2437 243.101 99.7152 243.572C100.187 244.044 100.451 244.683 100.451 245.35Z" fill="#407BFF"/>
<path d="M93.3128 245.35C93.3128 245.847 93.1654 246.333 92.8891 246.746C92.6129 247.16 92.2203 247.482 91.761 247.672C91.3016 247.863 90.7962 247.912 90.3086 247.815C89.8209 247.718 89.373 247.479 89.0214 247.127C88.6699 246.776 88.4305 246.328 88.3335 245.84C88.2365 245.353 88.2862 244.847 88.4765 244.388C88.6668 243.929 88.989 243.536 89.4024 243.26C89.8158 242.983 90.3018 242.836 90.799 242.836C91.4657 242.836 92.1051 243.101 92.5765 243.572C93.0479 244.044 93.3128 244.683 93.3128 245.35Z" fill="#407BFF"/>
<path d="M86.1731 245.35C86.1731 245.847 86.0257 246.333 85.7495 246.746C85.4733 247.16 85.0807 247.482 84.6213 247.672C84.162 247.863 83.6565 247.912 83.1689 247.815C82.6813 247.718 82.2334 247.479 81.8818 247.127C81.5302 246.776 81.2908 246.328 81.1938 245.84C81.0968 245.353 81.1466 244.847 81.3369 244.388C81.5271 243.929 81.8493 243.536 82.2627 243.26C82.6761 242.983 83.1621 242.836 83.6593 242.836C84.326 242.836 84.9654 243.101 85.4369 243.572C85.9083 244.044 86.1731 244.683 86.1731 245.35Z" fill="#407BFF"/>
<path d="M105.085 272.281C106.464 272.281 107.582 271.163 107.582 269.784C107.582 268.405 106.464 267.287 105.085 267.287C103.706 267.287 102.588 268.405 102.588 269.784C102.588 271.163 103.706 272.281 105.085 272.281Z" fill="#407BFF"/>
<path d="M97.9463 272.281C99.3254 272.281 100.443 271.163 100.443 269.784C100.443 268.405 99.3254 267.287 97.9463 267.287C96.5672 267.287 95.4492 268.405 95.4492 269.784C95.4492 271.163 96.5672 272.281 97.9463 272.281Z" fill="#407BFF"/>
<path d="M90.8154 272.281C92.1945 272.281 93.3125 271.163 93.3125 269.784C93.3125 268.405 92.1945 267.287 90.8154 267.287C89.4363 267.287 88.3184 268.405 88.3184 269.784C88.3184 271.163 89.4363 272.281 90.8154 272.281Z" fill="#407BFF"/>
<path opacity="0.4" d="M90.8154 272.281C92.1945 272.281 93.3125 271.163 93.3125 269.784C93.3125 268.405 92.1945 267.287 90.8154 267.287C89.4363 267.287 88.3184 268.405 88.3184 269.784C88.3184 271.163 89.4363 272.281 90.8154 272.281Z" fill="white"/>
<path d="M86.1731 269.784C86.1731 270.281 86.0257 270.767 85.7495 271.181C85.4733 271.594 85.0807 271.916 84.6213 272.107C84.162 272.297 83.6565 272.347 83.1689 272.25C82.6813 272.153 82.2334 271.913 81.8818 271.562C81.5302 271.21 81.2908 270.762 81.1938 270.275C81.0968 269.787 81.1466 269.282 81.3369 268.822C81.5271 268.363 81.8493 267.97 82.2627 267.694C82.6761 267.418 83.1621 267.27 83.6593 267.27C84.326 267.27 84.9654 267.535 85.4369 268.007C85.9083 268.478 86.1731 269.117 86.1731 269.784Z" fill="#407BFF"/>
<path d="M76.1924 98.7357C76.1924 99.8067 75.8747 100.854 75.2795 101.744C74.6843 102.634 73.8384 103.328 72.8488 103.738C71.8592 104.147 70.7704 104.254 69.7202 104.044C68.6699 103.835 67.7054 103.318 66.9487 102.56C66.192 101.802 65.6771 100.837 65.4692 99.7866C65.2613 98.736 65.3697 97.6474 65.7807 96.6584C66.1917 95.6694 66.8868 94.8246 67.778 94.2308C68.6693 93.637 69.7167 93.321 70.7877 93.3226C72.2219 93.3249 73.5965 93.8961 74.6099 94.911C75.6232 95.926 76.1924 97.3015 76.1924 98.7357Z" fill="#407BFF"/>
<path opacity="0.4" d="M76.1924 98.7357C76.1924 99.8067 75.8747 100.854 75.2795 101.744C74.6843 102.634 73.8384 103.328 72.8488 103.738C71.8592 104.147 70.7704 104.254 69.7202 104.044C68.6699 103.835 67.7054 103.318 66.9487 102.56C66.192 101.802 65.6771 100.837 65.4692 99.7866C65.2613 98.736 65.3697 97.6474 65.7807 96.6584C66.1917 95.6694 66.8868 94.8246 67.778 94.2308C68.6693 93.637 69.7167 93.321 70.7877 93.3226C72.2219 93.3249 73.5965 93.8961 74.6099 94.911C75.6232 95.926 76.1924 97.3015 76.1924 98.7357Z" fill="white"/>
<path d="M76.1924 123.212C76.1924 124.283 75.8747 125.33 75.2795 126.22C74.6843 127.111 73.8384 127.804 72.8488 128.214C71.8592 128.623 70.7704 128.73 69.7202 128.52C68.6699 128.311 67.7054 127.795 66.9487 127.037C66.192 126.279 65.6771 125.314 65.4692 124.263C65.2613 123.212 65.3697 122.124 65.7807 121.135C66.1917 120.146 66.8868 119.301 67.778 118.707C68.6693 118.113 69.7167 117.797 70.7877 117.799C72.2219 117.801 73.5965 118.372 74.6099 119.387C75.6232 120.402 76.1924 121.778 76.1924 123.212Z" fill="#407BFF"/>
<path opacity="0.4" d="M76.1924 123.212C76.1924 124.283 75.8747 125.33 75.2795 126.22C74.6843 127.111 73.8384 127.804 72.8488 128.214C71.8592 128.623 70.7704 128.73 69.7202 128.52C68.6699 128.311 67.7054 127.795 66.9487 127.037C66.192 126.279 65.6771 125.314 65.4692 124.263C65.2613 123.212 65.3697 122.124 65.7807 121.135C66.1917 120.146 66.8868 119.301 67.778 118.707C68.6693 118.113 69.7167 117.797 70.7877 117.799C72.2219 117.801 73.5965 118.372 74.6099 119.387C75.6232 120.402 76.1924 121.778 76.1924 123.212Z" fill="white"/>
<path d="M63.96 147.604C63.9599 148.675 63.6423 149.722 63.0471 150.613C62.4519 151.503 61.606 152.197 60.6164 152.606C59.6268 153.016 58.538 153.122 57.4877 152.913C56.4375 152.703 55.473 152.187 54.7163 151.429C53.9596 150.671 53.4447 149.706 53.2368 148.655C53.0289 147.605 53.1373 146.516 53.5482 145.527C53.9592 144.538 54.6543 143.693 55.5456 143.099C56.4369 142.506 57.4843 142.19 58.5553 142.191C59.9894 142.194 61.3641 142.765 62.3775 143.78C63.3908 144.795 63.96 146.17 63.96 147.604Z" fill="#407BFF"/>
<path opacity="0.4" d="M63.96 147.604C63.9599 148.675 63.6423 149.722 63.0471 150.613C62.4519 151.503 61.606 152.197 60.6164 152.606C59.6268 153.016 58.538 153.122 57.4877 152.913C56.4375 152.703 55.473 152.187 54.7163 151.429C53.9596 150.671 53.4447 149.706 53.2368 148.655C53.0289 147.605 53.1373 146.516 53.5482 145.527C53.9592 144.538 54.6543 143.693 55.5456 143.099C56.4369 142.506 57.4843 142.19 58.5553 142.191C59.9894 142.194 61.3641 142.765 62.3775 143.78C63.3908 144.795 63.96 146.17 63.96 147.604Z" fill="white"/>
<path d="M76.1924 172.039C76.1924 173.11 75.8747 174.156 75.2795 175.047C74.6843 175.937 73.8384 176.631 72.8488 177.04C71.8592 177.45 70.7704 177.557 69.7202 177.347C68.6699 177.137 67.7054 176.621 66.9487 175.863C66.192 175.105 65.6771 174.14 65.4692 173.089C65.2613 172.039 65.3697 170.95 65.7807 169.961C66.1917 168.972 66.8868 168.127 67.778 167.534C68.6693 166.94 69.7167 166.624 70.7877 166.625C72.2219 166.628 73.5965 167.199 74.6099 168.214C75.6232 169.229 76.1924 170.604 76.1924 172.039Z" fill="#407BFF"/>
<path opacity="0.4" d="M76.1924 172.039C76.1924 173.11 75.8747 174.156 75.2795 175.047C74.6843 175.937 73.8384 176.631 72.8488 177.04C71.8592 177.45 70.7704 177.557 69.7202 177.347C68.6699 177.137 67.7054 176.621 66.9487 175.863C66.192 175.105 65.6771 174.14 65.4692 173.089C65.2613 172.039 65.3697 170.95 65.7807 169.961C66.1917 168.972 66.8868 168.127 67.778 167.534C68.6693 166.94 69.7167 166.624 70.7877 166.625C72.2219 166.628 73.5965 167.199 74.6099 168.214C75.6232 169.229 76.1924 170.604 76.1924 172.039Z" fill="white"/>
<path d="M76.1924 196.473C76.194 197.544 75.8777 198.592 75.2836 199.484C74.6894 200.375 73.8441 201.07 72.8547 201.481C71.8652 201.892 70.7761 202 69.7253 201.791C68.6745 201.582 67.7092 201.067 66.9517 200.309C66.1941 199.552 65.6784 198.586 65.4698 197.535C65.2612 196.485 65.3691 195.396 65.7799 194.406C66.1906 193.417 66.8857 192.571 67.7772 191.977C68.6686 191.383 69.7163 191.067 70.7877 191.068C72.2204 191.071 73.5938 191.641 74.6069 192.654C75.62 193.667 76.1902 195.04 76.1924 196.473Z" fill="#407BFF"/>
<path opacity="0.4" d="M76.1924 196.473C76.194 197.544 75.8777 198.592 75.2836 199.484C74.6894 200.375 73.8441 201.07 72.8547 201.481C71.8652 201.892 70.7761 202 69.7253 201.791C68.6745 201.582 67.7092 201.067 66.9517 200.309C66.1941 199.552 65.6784 198.586 65.4698 197.535C65.2612 196.485 65.3691 195.396 65.7799 194.406C66.1906 193.417 66.8857 192.571 67.7772 191.977C68.6686 191.383 69.7163 191.067 70.7877 191.068C72.2204 191.071 73.5938 191.641 74.6069 192.654C75.62 193.667 76.1902 195.04 76.1924 196.473Z" fill="white"/>
<path d="M76.1924 220.907C76.194 221.979 75.8777 223.026 75.2836 223.918C74.6894 224.809 73.8441 225.504 72.8547 225.915C71.8652 226.326 70.7761 226.434 69.7253 226.225C68.6745 226.017 67.7092 225.501 66.9517 224.743C66.1941 223.986 65.6784 223.02 65.4698 221.97C65.2612 220.919 65.3691 219.83 65.7799 218.84C66.1906 217.851 66.8857 217.006 67.7772 216.411C68.6686 215.817 69.7163 215.501 70.7877 215.503C72.2204 215.505 73.5938 216.075 74.6069 217.088C75.62 218.101 76.1902 219.475 76.1924 220.907Z" fill="#407BFF"/>
<path opacity="0.4" d="M76.1924 220.907C76.194 221.979 75.8777 223.026 75.2836 223.918C74.6894 224.809 73.8441 225.504 72.8547 225.915C71.8652 226.326 70.7761 226.434 69.7253 226.225C68.6745 226.017 67.7092 225.501 66.9517 224.743C66.1941 223.986 65.6784 223.02 65.4698 221.97C65.2612 220.919 65.3691 219.83 65.7799 218.84C66.1906 217.851 66.8857 217.006 67.7772 216.411C68.6686 215.817 69.7163 215.501 70.7877 215.503C72.2204 215.505 73.5938 216.075 74.6069 217.088C75.62 218.101 76.1902 219.475 76.1924 220.907Z" fill="white"/>
<path d="M76.1924 245.35C76.1924 246.421 75.8747 247.468 75.2795 248.358C74.6843 249.248 73.8384 249.942 72.8488 250.352C71.8592 250.761 70.7704 250.868 69.7202 250.658C68.6699 250.449 67.7054 249.932 66.9487 249.175C66.192 248.417 65.6771 247.451 65.4692 246.401C65.2613 245.35 65.3697 244.262 65.7807 243.273C66.1917 242.284 66.8868 241.439 67.778 240.845C68.6693 240.251 69.7167 239.935 70.7877 239.937C71.4981 239.937 72.2016 240.077 72.8579 240.349C73.5142 240.621 74.1104 241.02 74.6123 241.523C75.1143 242.026 75.5122 242.622 75.7834 243.279C76.0545 243.936 76.1935 244.639 76.1924 245.35Z" fill="#407BFF"/>
<path opacity="0.4" d="M76.1924 245.35C76.1924 246.421 75.8747 247.468 75.2795 248.358C74.6843 249.248 73.8384 249.942 72.8488 250.352C71.8592 250.761 70.7704 250.868 69.7202 250.658C68.6699 250.449 67.7054 249.932 66.9487 249.175C66.192 248.417 65.6771 247.451 65.4692 246.401C65.2613 245.35 65.3697 244.262 65.7807 243.273C66.1917 242.284 66.8868 241.439 67.778 240.845C68.6693 240.251 69.7167 239.935 70.7877 239.937C71.4981 239.937 72.2016 240.077 72.8579 240.349C73.5142 240.621 74.1104 241.02 74.6123 241.523C75.1143 242.026 75.5122 242.622 75.7834 243.279C76.0545 243.936 76.1935 244.639 76.1924 245.35Z" fill="white"/>
<path d="M76.1924 269.784C76.1924 270.855 75.8747 271.902 75.2795 272.792C74.6843 273.683 73.8384 274.377 72.8488 274.786C71.8592 275.195 70.7704 275.302 69.7202 275.093C68.6699 274.883 67.7054 274.367 66.9487 273.609C66.192 272.851 65.6771 271.886 65.4692 270.835C65.2613 269.784 65.3697 268.696 65.7807 267.707C66.1917 266.718 66.8868 265.873 67.778 265.279C68.6693 264.686 69.7167 264.369 70.7877 264.371C71.4981 264.371 72.2016 264.511 72.8579 264.783C73.5142 265.055 74.1104 265.454 74.6123 265.957C75.1143 266.46 75.5122 267.057 75.7834 267.713C76.0545 268.37 76.1935 269.074 76.1924 269.784Z" fill="#407BFF"/>
<path opacity="0.4" d="M76.1924 269.784C76.1924 270.855 75.8747 271.902 75.2795 272.792C74.6843 273.683 73.8384 274.377 72.8488 274.786C71.8592 275.195 70.7704 275.302 69.7202 275.093C68.6699 274.883 67.7054 274.367 66.9487 273.609C66.192 272.851 65.6771 271.886 65.4692 270.835C65.2613 269.784 65.3697 268.696 65.7807 267.707C66.1917 266.718 66.8868 265.873 67.778 265.279C68.6693 264.686 69.7167 264.369 70.7877 264.371C71.4981 264.371 72.2016 264.511 72.8579 264.783C73.5142 265.055 74.1104 265.454 74.6123 265.957C75.1143 266.46 75.5122 267.057 75.7834 267.713C76.0545 268.37 76.1935 269.074 76.1924 269.784Z" fill="white"/>
<path d="M150.612 66.6343C150.251 64.6155 149.448 62.7013 148.262 61.0284C147.076 59.3554 145.535 57.9649 143.749 56.9561C143.749 56.8472 143.749 56.7383 143.749 56.6293C143.749 52.9202 142.276 49.3631 139.653 46.7403C137.03 44.1176 133.473 42.6442 129.764 42.6442H124.401V43.7083C122.63 44.4487 121.03 45.5446 119.7 46.9282C118.369 48.3119 117.337 49.9539 116.667 51.7526C116.207 51.673 115.742 51.6309 115.276 51.6269C113.603 51.6296 111.969 52.133 110.585 53.0724C109.2 54.0117 108.129 55.3439 107.508 56.8975C105.589 56.4327 103.573 56.5821 101.743 57.3248C99.8949 58.0439 98.297 59.2875 97.1462 60.9028C95.9954 62.5181 95.3419 64.4346 95.266 66.4165C95.237 67.7486 95.4744 69.073 95.9642 70.3121C96.454 71.5513 97.1863 72.6801 98.1183 73.6323C99.0502 74.5846 100.163 75.3411 101.391 75.8574C102.62 76.3738 103.939 76.6396 105.271 76.6393H143.154C145.154 76.6596 147.082 75.8908 148.518 74.4994C149.955 73.1081 150.786 71.2064 150.83 69.2068V69.123C150.834 68.2885 150.761 67.4553 150.612 66.6343Z" fill="#407BFF"/>
<path d="M145.257 66.6354C144.898 64.6188 144.1 62.7061 142.918 61.0333C141.736 59.3605 140.2 57.9688 138.419 56.9572C138.419 56.8483 138.419 56.7393 138.419 56.6304C138.418 53.352 137.265 50.1782 135.162 47.6634C133.058 45.1486 130.138 43.4526 126.912 42.8718C123.685 42.2909 120.357 42.8621 117.509 44.4855C114.661 46.1089 112.473 48.6814 111.329 51.7536C109.444 51.4213 107.502 51.7524 105.834 52.6904C104.166 53.6284 102.874 55.1155 102.178 56.8985C100.259 56.4337 98.2429 56.5832 96.4134 57.3259C94.565 58.0449 92.9671 59.2886 91.8163 60.9039C90.6655 62.5192 90.012 64.4356 89.9362 66.4175C89.906 67.7492 90.1423 69.0735 90.6312 70.3126C91.12 71.5516 91.8516 72.6805 92.7829 73.6329C93.7142 74.5853 94.8264 75.3419 96.0542 75.8584C97.2821 76.3748 98.6007 76.6407 99.9328 76.6404H137.824C139.824 76.6585 141.75 75.8889 143.186 74.498C144.623 73.1071 145.454 71.2067 145.5 69.2078V69.1241C145.496 68.2887 145.415 67.4556 145.257 66.6354Z" fill="#407BFF"/>
<path opacity="0.3" d="M145.257 66.6354C144.898 64.6188 144.1 62.7061 142.918 61.0333C141.736 59.3605 140.2 57.9688 138.419 56.9572C138.419 56.8483 138.419 56.7393 138.419 56.6304C138.418 53.352 137.265 50.1782 135.162 47.6634C133.058 45.1486 130.138 43.4526 126.912 42.8718C123.685 42.2909 120.357 42.8621 117.509 44.4855C114.661 46.1089 112.473 48.6814 111.329 51.7536C109.444 51.4213 107.502 51.7524 105.834 52.6904C104.166 53.6284 102.874 55.1155 102.178 56.8985C100.259 56.4337 98.2429 56.5832 96.4134 57.3259C94.565 58.0449 92.9671 59.2886 91.8163 60.9039C90.6655 62.5192 90.012 64.4356 89.9362 66.4175C89.906 67.7492 90.1423 69.0735 90.6312 70.3126C91.12 71.5516 91.8516 72.6805 92.7829 73.6329C93.7142 74.5853 94.8264 75.3419 96.0542 75.8584C97.2821 76.3748 98.6007 76.6407 99.9328 76.6404H137.824C139.824 76.6585 141.75 75.8889 143.186 74.498C144.623 73.1071 145.454 71.2067 145.5 69.2078V69.1241C145.496 68.2887 145.415 67.4556 145.257 66.6354Z" fill="white"/>
<path d="M125.439 33.8207H124.735V35.9239H125.439V33.8207Z" fill="#407BFF"/>
<path opacity="0.2" d="M125.439 33.8207H124.735V35.9239H125.439V33.8207Z" fill="black"/>
<path d="M260.238 81.5999H259.534V77.4103H260.238V81.5999ZM260.238 73.2206H259.534V69.0309H260.238V73.2206ZM260.238 64.8412H259.534V60.6515H260.238V64.8412ZM260.238 56.4618H259.534V52.2721H260.238V56.4618ZM260.238 48.0824H259.534V43.8927H260.238V48.0824ZM260.238 39.703H259.534V35.5133H260.238V39.703ZM260.238 31.3237H259.534V27.134H260.238V31.3237ZM125.439 29.5808H124.735V26.7569C124.735 26.3089 124.76 25.8613 124.811 25.4162L125.506 25.5C125.463 25.9176 125.44 26.3371 125.439 26.7569V29.5808ZM258.923 23.1454C258.472 21.8695 257.781 20.6919 256.887 19.6763L257.406 19.3076C258.363 20.3908 259.103 21.6483 259.585 23.0113L258.923 23.1454ZM126.73 21.6622L126.118 21.3271C126.807 20.0462 127.734 18.9086 128.85 17.9753L129.302 18.52C128.249 19.3906 127.375 20.4579 126.73 21.6622ZM253.694 17.2714C252.5 16.6618 251.2 16.289 249.865 16.1737L249.923 15.4699C251.363 15.5921 252.765 15.9904 254.054 16.643L253.694 17.2714ZM132.83 16.6262L132.62 15.9643C133.734 15.6091 134.896 15.4282 136.064 15.428H136.86V16.1318H136.064C134.967 16.131 133.877 16.2978 132.83 16.6262ZM245.675 16.1318H241.485V15.428H245.675V16.1318ZM237.296 16.1318H233.106V15.428H237.296V16.1318ZM228.916 16.1318H224.727V15.428H228.916V16.1318ZM220.537 16.1318H216.347V15.428H220.537V16.1318ZM212.157 16.1318H207.968V15.428H212.157V16.1318ZM203.778 16.1318H199.588V15.428H203.778V16.1318ZM195.399 16.1318H191.209V15.428H195.399V16.1318ZM187.019 16.1318H182.83V15.428H187.019V16.1318ZM178.64 16.1318H174.45V15.428H178.64V16.1318ZM170.261 16.1318H166.071V15.428H170.261V16.1318ZM161.881 16.1318H157.691V15.428H161.881V16.1318ZM153.502 16.1318H149.312V15.428H153.502V16.1318ZM145.122 16.1318H140.933V15.428H145.122V16.1318Z" fill="#407BFF"/>
<path opacity="0.2" d="M260.238 81.5999H259.534V77.4103H260.238V81.5999ZM260.238 73.2206H259.534V69.0309H260.238V73.2206ZM260.238 64.8412H259.534V60.6515H260.238V64.8412ZM260.238 56.4618H259.534V52.2721H260.238V56.4618ZM260.238 48.0824H259.534V43.8927H260.238V48.0824ZM260.238 39.703H259.534V35.5133H260.238V39.703ZM260.238 31.3237H259.534V27.134H260.238V31.3237ZM125.439 29.5808H124.735V26.7569C124.735 26.3089 124.76 25.8613 124.811 25.4162L125.506 25.5C125.463 25.9176 125.44 26.3371 125.439 26.7569V29.5808ZM258.923 23.1454C258.472 21.8695 257.781 20.6919 256.887 19.6763L257.406 19.3076C258.363 20.3908 259.103 21.6483 259.585 23.0113L258.923 23.1454ZM126.73 21.6622L126.118 21.3271C126.807 20.0462 127.734 18.9086 128.85 17.9753L129.302 18.52C128.249 19.3906 127.375 20.4579 126.73 21.6622ZM253.694 17.2714C252.5 16.6618 251.2 16.289 249.865 16.1737L249.923 15.4699C251.363 15.5921 252.765 15.9904 254.054 16.643L253.694 17.2714ZM132.83 16.6262L132.62 15.9643C133.734 15.6091 134.896 15.4282 136.064 15.428H136.86V16.1318H136.064C134.967 16.131 133.877 16.2978 132.83 16.6262ZM245.675 16.1318H241.485V15.428H245.675V16.1318ZM237.296 16.1318H233.106V15.428H237.296V16.1318ZM228.916 16.1318H224.727V15.428H228.916V16.1318ZM220.537 16.1318H216.347V15.428H220.537V16.1318ZM212.157 16.1318H207.968V15.428H212.157V16.1318ZM203.778 16.1318H199.588V15.428H203.778V16.1318ZM195.399 16.1318H191.209V15.428H195.399V16.1318ZM187.019 16.1318H182.83V15.428H187.019V16.1318ZM178.64 16.1318H174.45V15.428H178.64V16.1318ZM170.261 16.1318H166.071V15.428H170.261V16.1318ZM161.881 16.1318H157.691V15.428H161.881V16.1318ZM153.502 16.1318H149.312V15.428H153.502V16.1318ZM145.122 16.1318H140.933V15.428H145.122V16.1318Z" fill="black"/>
<path d="M260.239 85.8064H259.535V87.9096H260.239V85.8064Z" fill="#407BFF"/>
<path opacity="0.2" d="M260.239 85.8064H259.535V87.9096H260.239V85.8064Z" fill="black"/>
<path d="M203.945 287.984H210.104L210.766 273.731H204.607L203.945 287.984Z" fill="#E4897B"/>
<path d="M210.313 287.272H203.61C203.488 287.272 203.37 287.315 203.277 287.393C203.183 287.471 203.12 287.579 203.099 287.699L202.102 293.171C202.078 293.305 202.085 293.443 202.12 293.574C202.156 293.705 202.22 293.827 202.308 293.931C202.396 294.035 202.505 294.118 202.629 294.175C202.753 294.232 202.887 294.261 203.023 294.26C205.445 294.218 208.948 294.076 211.998 294.076C215.559 294.076 216.062 294.277 220.235 294.277C222.748 294.277 223.377 291.763 222.313 291.487C217.453 290.431 216.104 290.322 211.847 287.758C211.392 287.453 210.86 287.285 210.313 287.272Z" fill="#263238"/>
<path d="M210.757 273.739L210.422 281.08H204.263L204.606 273.739H210.757Z" fill="#CE6F64"/>
<path d="M245.204 83.0915C245.086 85.0271 244.952 87.1471 244.894 89.1749C244.835 91.2027 244.793 93.264 244.818 95.2835C244.843 97.3029 244.919 99.314 245.095 101.241C245.229 103.06 245.524 104.862 245.975 106.629C246.146 107.302 246.391 107.954 246.704 108.573C246.795 108.76 246.902 108.939 247.022 109.109L247.399 109.721C247.642 110.123 247.935 110.559 248.237 110.945C249.335 112.579 250.55 114.204 251.807 115.838C254.32 119.064 257.061 122.324 259.75 125.516L256.541 129.262C252.829 126.851 249.333 124.123 246.092 121.109C244.429 119.573 242.851 117.948 241.366 116.24C240.989 115.796 240.603 115.402 240.251 114.9L239.707 114.196C239.494 113.931 239.301 113.651 239.129 113.358C238.337 112.15 237.695 110.85 237.218 109.487C236.425 107.165 235.864 104.771 235.542 102.339C235.199 100.035 235.048 97.7638 234.931 95.5181C234.813 93.2724 234.822 91.0351 234.931 88.8146C235.04 86.5941 235.107 84.4238 235.358 82.1111L245.204 83.0915Z" fill="#E4897B"/>
<path d="M247.349 95.7108L244.735 96.7582L240.336 98.5095L232.526 101.635C232.526 101.635 228.965 83.1082 230.85 77.4773C232.962 71.2933 240.42 71.4357 244.45 78.4828C248.439 85.3539 247.349 95.7108 247.349 95.7108Z" fill="#407BFF"/>
<path opacity="0.6" d="M247.349 95.7108L244.735 96.7582L240.336 98.5095L232.526 101.635C232.526 101.635 228.965 83.1082 230.85 77.4773C232.962 71.2933 240.42 71.4357 244.45 78.4828C248.439 85.3539 247.349 95.7108 247.349 95.7108Z" fill="white"/>
<path d="M244.383 96.9091L240.369 98.5096C239.699 95.602 239.079 90.7335 241.065 87.0885C243.78 89.3593 244.199 93.9428 244.383 96.9091Z" fill="#407BFF"/>
<path opacity="0.4" d="M244.383 96.9091L240.369 98.5096C239.699 95.602 239.079 90.7335 241.065 87.0885C243.78 89.3593 244.199 93.9428 244.383 96.9091Z" fill="white"/>
<path d="M240.394 122.65H206.701C206.458 119.626 207.22 111.43 206.701 100.269C206.584 97.6967 206.399 94.9734 206.123 92.116C205.508 85.6249 204.438 79.1848 202.922 72.8434C206.629 72.1218 210.38 71.6459 214.15 71.4189C218.922 71.1423 223.707 71.1423 228.479 71.4189C231.779 71.7531 235.046 72.3527 238.249 73.2121C238.249 73.2121 246.185 87.2308 240.394 122.65Z" fill="#407BFF"/>
<path opacity="0.6" d="M240.394 122.65H206.701C206.458 119.626 207.22 111.43 206.701 100.269C206.584 97.6967 206.399 94.9734 206.123 92.116C205.508 85.6249 204.438 79.1848 202.922 72.8434C206.629 72.1218 210.38 71.6459 214.15 71.4189C218.922 71.1423 223.707 71.1423 228.479 71.4189C231.779 71.7531 235.046 72.3527 238.249 73.2121C238.249 73.2121 246.185 87.2308 240.394 122.65Z" fill="white"/>
<path d="M206.718 100.269C206.601 97.6967 206.416 94.9734 206.14 92.116C207.229 91.4373 208.653 91.3954 208.947 95.3839C209.215 99.0709 207.966 100.093 206.718 100.269Z" fill="#407BFF"/>
<path opacity="0.4" d="M206.718 100.269C206.601 97.6967 206.416 94.9734 206.14 92.116C207.229 91.4373 208.653 91.3954 208.947 95.3839C209.215 99.0709 207.966 100.093 206.718 100.269Z" fill="white"/>
<path d="M269.279 130.008L264.419 133.033L258.419 131.751L263.195 125.826L269.279 130.008Z" fill="#E4897B"/>
<path d="M257.581 124.888L263.195 125.793L258.419 131.717C258.419 131.717 255.419 131.415 254.606 127.36L257.581 124.888Z" fill="#E4897B"/>
<path d="M215.014 55.2887C216.078 59.8974 217.285 68.3438 214.176 71.419C214.176 71.419 215.743 74.511 224.306 74.511C232.124 74.511 228.496 71.419 228.496 71.419C223.309 70.1872 223.309 66.3914 224.072 62.7966L215.014 55.2887Z" fill="#E4897B"/>
<path d="M218.709 58.3555L224.072 62.7965C223.879 63.6221 223.761 64.4635 223.72 65.3103C222.086 66.9024 218.969 62.8719 218.692 60.819C218.552 60.0033 218.557 59.1691 218.709 58.3555Z" fill="#CE6F64"/>
<path d="M233.306 43.6079C235.452 46.2726 232.946 54.6687 228.505 54.5011C224.064 54.3335 229.234 38.5133 233.306 43.6079Z" fill="#263238"/>
<path d="M215.927 47.63C215.441 53.8475 214.846 57.4423 217.528 61.146C218.389 62.3589 219.563 63.3158 220.925 63.9152C222.286 64.5146 223.785 64.7339 225.261 64.55C226.738 64.3662 228.137 63.7858 229.31 62.8708C230.483 61.9557 231.386 60.74 231.923 59.3528C234.027 54.0654 234.437 44.7978 228.748 41.2952C227.54 40.4981 226.145 40.0313 224.702 39.9412C223.258 39.8512 221.816 40.141 220.519 40.7818C219.222 41.4226 218.115 42.3921 217.31 43.5937C216.504 44.7952 216.028 46.1869 215.927 47.63Z" fill="#E4897B"/>
<path d="M213.681 39.812L220.384 42.1918C217.443 46.1217 221.717 55.3893 216.521 53.6548C214.142 52.8671 206.382 44.2866 213.681 39.812Z" fill="#263238"/>
<path d="M216.933 41.4208C219.447 43.281 229.762 45.4931 235.653 42.2084C234.44 41.8884 233.264 41.4447 232.142 40.8845C232.142 40.8845 236.549 40.675 238.502 37.4154C235.762 37.8796 232.946 37.524 230.407 36.3931C231.382 36.1052 232.286 35.6165 233.061 34.9585C233.836 34.3004 234.465 33.4876 234.907 32.5721C226.77 32.6727 209.249 34.3234 212.282 40.0465C215.316 45.7697 216.933 41.4208 216.933 41.4208Z" fill="#263238"/>
<path d="M213.414 40.6666C212.179 40.0785 211.058 39.2756 210.104 38.2953C209.718 39.2589 209.718 41.8649 213.414 40.6666Z" fill="#263238"/>
<path d="M212.157 53.9145C212.818 55.3806 214.018 56.5358 215.508 57.1406C217.461 57.9366 218.609 56.3027 218.206 54.3251C217.846 52.5738 216.397 50.0517 214.369 50.0852C212.341 50.1187 211.402 52.1297 212.157 53.9145Z" fill="#E4897B"/>
<path d="M222.841 287.984H228.991L230.265 273.731H224.114L222.841 287.984Z" fill="#E4897B"/>
<path d="M229.275 287.272H222.572C222.449 287.27 222.331 287.312 222.237 287.391C222.143 287.469 222.08 287.579 222.06 287.699L221.038 293.171C221.015 293.305 221.021 293.443 221.057 293.574C221.093 293.705 221.157 293.827 221.244 293.931C221.332 294.035 221.442 294.118 221.566 294.175C221.689 294.232 221.824 294.261 221.96 294.26C224.39 294.218 227.884 294.076 230.934 294.076C234.495 294.076 237.587 294.277 241.76 294.277C244.274 294.277 244.903 291.763 243.83 291.487C238.978 290.431 235.04 290.322 230.792 287.758C230.341 287.457 229.816 287.289 229.275 287.272Z" fill="#263238"/>
<path d="M230.264 273.739L229.61 281.08H223.451L224.105 273.739H230.264Z" fill="#CE6F64"/>
<path d="M231.849 288.219C232.265 288.32 232.702 288.276 233.089 288.093C233.215 288.016 233.319 287.908 233.389 287.778C233.46 287.649 233.495 287.503 233.491 287.356C233.502 287.269 233.488 287.182 233.453 287.102C233.417 287.022 233.361 286.954 233.29 286.903C232.645 286.442 230.475 287.356 230.223 287.465C230.198 287.477 230.177 287.496 230.163 287.52C230.148 287.543 230.14 287.571 230.14 287.599C230.143 287.629 230.153 287.658 230.171 287.683C230.189 287.708 230.213 287.728 230.24 287.741C230.758 287.956 231.297 288.117 231.849 288.219ZM232.938 287.079C233.004 287.086 233.068 287.109 233.123 287.146C233.165 287.146 233.198 287.213 233.198 287.331C233.2 287.43 233.176 287.529 233.129 287.617C233.082 287.705 233.014 287.779 232.93 287.833C232.182 288.042 231.382 287.958 230.693 287.599C231.4 287.28 232.163 287.103 232.938 287.079Z" fill="#407BFF"/>
<path d="M230.272 287.749H230.347C231.034 287.498 232.45 286.333 232.408 285.621C232.399 285.508 232.351 285.401 232.274 285.317C232.196 285.234 232.093 285.178 231.981 285.16C231.872 285.127 231.757 285.119 231.644 285.135C231.531 285.15 231.423 285.191 231.327 285.252C230.49 285.73 230.154 287.498 230.146 287.573C230.141 287.614 230.15 287.656 230.174 287.69C230.197 287.724 230.232 287.748 230.272 287.758V287.749ZM231.839 285.42H231.906C232.098 285.479 232.107 285.562 232.107 285.604C232.107 286.023 231.21 286.928 230.506 287.28C230.64 286.584 230.982 285.944 231.487 285.445C231.598 285.398 231.722 285.389 231.839 285.42Z" fill="#407BFF"/>
<path d="M221.131 279.32H231.186C231.186 279.32 246.612 220.396 246.319 200.411C246.026 181.189 240.453 122.651 240.453 122.651H218.248C218.248 122.651 219.966 135.672 221.927 151.735C223.678 165.913 225.605 182.479 226.711 194.546C227.03 198.132 227.289 201.316 227.44 203.93C228.588 223.555 221.131 279.32 221.131 279.32Z" fill="#407BFF"/>
<path opacity="0.3" d="M221.131 279.32H231.186C231.186 279.32 246.612 220.396 246.319 200.411C246.026 181.189 240.453 122.651 240.453 122.651H218.248C218.248 122.651 219.966 135.672 221.927 151.735C223.678 165.913 225.605 182.479 226.711 194.546C227.03 198.132 227.289 201.316 227.44 203.93C228.588 223.555 221.131 279.32 221.131 279.32Z" fill="black"/>
<path d="M221.928 151.702C223.679 165.88 225.606 182.446 226.712 194.512C229.05 183.979 234.757 153.361 226.193 137.876C224.048 140.968 222.741 146.255 221.928 151.702Z" fill="#407BFF"/>
<path opacity="0.4" d="M221.928 151.702C223.679 165.88 225.606 182.446 226.712 194.512C229.05 183.979 234.757 153.361 226.193 137.876C224.048 140.968 222.741 146.255 221.928 151.702Z" fill="black"/>
<path d="M228.446 122.651C228.446 122.651 227.608 179.102 224.332 197.135C220.746 216.885 213.606 279.32 213.606 279.32H202.102C202.102 279.32 203.777 218.477 205.537 198.928C207.431 177.703 206.735 122.676 206.735 122.676L228.446 122.651Z" fill="#407BFF"/>
<path opacity="0.3" d="M228.446 122.651C228.446 122.651 227.608 179.102 224.332 197.135C220.746 216.885 213.606 279.32 213.606 279.32H202.102C202.102 279.32 203.777 218.477 205.537 198.928C207.431 177.703 206.735 122.676 206.735 122.676L228.446 122.651Z" fill="black"/>
<path d="M201.632 279.571H214.059L214.972 274.879L201.205 274.493L201.632 279.571Z" fill="#263238"/>
<path d="M220.562 279.571H232.988L233.91 274.879L220.185 275.122L220.562 279.571Z" fill="#263238"/>
<path d="M206.475 272.507C206.461 272.506 206.448 272.503 206.435 272.496C206.423 272.489 206.412 272.48 206.403 272.469C206.395 272.458 206.388 272.445 206.385 272.432C206.381 272.418 206.381 272.404 206.383 272.39C206.459 271.804 207.322 217.204 208.897 199.64C210.573 180.577 209.534 129.999 209.567 129.572C209.572 129.545 209.586 129.52 209.608 129.503C209.63 129.486 209.657 129.477 209.685 129.48C209.713 129.484 209.739 129.498 209.757 129.52C209.776 129.541 209.786 129.569 209.785 129.597C209.785 130.024 210.816 180.602 209.107 199.665C207.54 217.262 206.677 271.837 206.593 272.424C206.587 272.45 206.572 272.472 206.55 272.488C206.528 272.503 206.502 272.51 206.475 272.507Z" fill="#407BFF"/>
<path opacity="0.3" d="M206.475 272.507C206.461 272.506 206.448 272.503 206.435 272.496C206.423 272.489 206.412 272.48 206.403 272.469C206.395 272.458 206.388 272.445 206.385 272.432C206.381 272.418 206.381 272.404 206.383 272.39C206.459 271.804 207.322 217.204 208.897 199.64C210.573 180.577 209.534 129.999 209.567 129.572C209.572 129.545 209.586 129.52 209.608 129.503C209.63 129.486 209.657 129.477 209.685 129.48C209.713 129.484 209.739 129.498 209.757 129.52C209.776 129.541 209.786 129.569 209.785 129.597C209.785 130.024 210.816 180.602 209.107 199.665C207.54 217.262 206.677 271.837 206.593 272.424C206.587 272.45 206.572 272.472 206.55 272.488C206.528 272.503 206.502 272.51 206.475 272.507Z" fill="white"/>
<path d="M225.069 51.0487C224.994 51.543 225.203 51.9955 225.538 52.0542C225.873 52.1128 226.192 51.7525 226.259 51.2163C226.326 50.68 226.116 50.261 225.79 50.2024C225.463 50.1437 225.136 50.5459 225.069 51.0487Z" fill="#263238"/>
<path d="M230.877 51.7442C230.81 52.247 231.019 52.6911 231.346 52.7498C231.673 52.8084 232 52.4481 232.067 51.9118C232.134 51.3755 231.924 50.9566 231.597 50.8979C231.271 50.8393 230.944 51.2415 230.877 51.7442Z" fill="#263238"/>
<path d="M228.916 51.9202C229.308 53.5605 229.916 55.1414 230.726 56.621C230.338 56.8004 229.917 56.8933 229.49 56.8933C229.063 56.8933 228.641 56.8004 228.254 56.621L228.916 51.9202Z" fill="#DE5753"/>
<path d="M227.239 58.6908C227.258 58.6943 227.278 58.6939 227.297 58.6894C227.316 58.6849 227.334 58.6764 227.35 58.6646C227.366 58.6528 227.379 58.6379 227.389 58.6207C227.398 58.6036 227.404 58.5847 227.406 58.5651C227.409 58.5254 227.397 58.4863 227.372 58.4553C227.347 58.4243 227.312 58.4037 227.272 58.3975C226.635 58.3259 226.022 58.1089 225.482 57.7631C224.941 57.4174 224.487 56.9521 224.155 56.4032C224.147 56.3848 224.136 56.3684 224.121 56.3549C224.106 56.3414 224.089 56.3311 224.07 56.3248C224.051 56.3185 224.031 56.3162 224.011 56.3182C223.991 56.3201 223.972 56.3263 223.954 56.3362C223.937 56.3442 223.921 56.3556 223.909 56.3698C223.896 56.3839 223.886 56.4004 223.88 56.4184C223.874 56.4363 223.871 56.4554 223.872 56.4743C223.874 56.4933 223.879 56.5119 223.887 56.5289C224.24 57.1247 224.726 57.6303 225.308 58.0056C225.89 58.3808 226.551 58.6154 227.239 58.6908Z" fill="#263238"/>
<path d="M223.535 47.4288C223.579 47.4414 223.626 47.4434 223.671 47.4346C223.716 47.4259 223.758 47.4067 223.795 47.3785C224.08 47.1402 224.419 46.9739 224.782 46.8937C225.145 46.8135 225.522 46.8217 225.881 46.9177C225.918 46.9308 225.957 46.9365 225.996 46.9343C226.035 46.9321 226.073 46.9221 226.108 46.9049C226.144 46.8878 226.175 46.8637 226.201 46.8343C226.226 46.8048 226.246 46.7705 226.258 46.7333C226.28 46.6556 226.271 46.5725 226.234 46.5009C226.196 46.4294 226.133 46.3747 226.057 46.3479C225.604 46.2219 225.128 46.2071 224.668 46.3049C224.209 46.4026 223.78 46.61 223.418 46.9093C223.386 46.933 223.359 46.963 223.34 46.9975C223.32 47.0319 223.308 47.0701 223.304 47.1095C223.3 47.149 223.305 47.1888 223.317 47.2265C223.329 47.2641 223.349 47.2988 223.376 47.3283C223.418 47.3767 223.473 47.4117 223.535 47.4288Z" fill="#263238"/>
<path d="M207.9 71.704L209.484 71.5615C209.561 71.5587 209.637 71.582 209.699 71.6276C209.762 71.6732 209.807 71.7385 209.827 71.8129C215.106 95.5852 213.523 120.824 213.523 120.824H211.771C212.138 104.481 210.75 88.1451 207.632 72.0978C207.614 72.0541 207.607 72.0066 207.612 71.9596C207.617 71.9126 207.633 71.8675 207.66 71.8285C207.686 71.7894 207.722 71.7576 207.764 71.7358C207.806 71.7141 207.853 71.7031 207.9 71.704Z" fill="#407BFF"/>
<path opacity="0.1" d="M207.9 71.704L209.484 71.5615C209.561 71.5587 209.637 71.582 209.699 71.6276C209.762 71.6732 209.807 71.7385 209.827 71.8129C215.106 95.5852 213.523 120.824 213.523 120.824H211.771C212.138 104.481 210.75 88.1451 207.632 72.0978C207.614 72.0541 207.607 72.0066 207.612 71.9596C207.617 71.9126 207.633 71.8675 207.66 71.8285C207.686 71.7894 207.722 71.7576 207.764 71.7358C207.806 71.7141 207.853 71.7031 207.9 71.704Z" fill="white"/>
<path d="M212.098 121.385H213.313C213.386 121.386 213.459 121.373 213.528 121.345C213.596 121.317 213.658 121.275 213.709 121.223C213.761 121.17 213.801 121.108 213.828 121.039C213.855 120.971 213.868 120.897 213.866 120.824C213.857 120.671 213.791 120.527 213.681 120.422C213.57 120.316 213.424 120.256 213.271 120.254H212.064C211.99 120.254 211.917 120.269 211.848 120.298C211.78 120.327 211.719 120.369 211.667 120.422C211.615 120.475 211.575 120.538 211.548 120.607C211.521 120.676 211.509 120.75 211.511 120.824C211.519 120.974 211.585 121.116 211.694 121.22C211.802 121.324 211.947 121.383 212.098 121.385Z" fill="#263238"/>
<path d="M213.505 122.868L213.447 121.276C213.438 121.078 213.353 120.89 213.21 120.753C213.066 120.615 212.875 120.539 212.676 120.539C212.58 120.538 212.485 120.556 212.396 120.593C212.307 120.63 212.227 120.685 212.16 120.754C212.094 120.823 212.042 120.905 212.008 120.995C211.974 121.085 211.959 121.18 211.964 121.276L212.022 122.868C212.031 123.066 212.115 123.252 212.257 123.389C212.398 123.526 212.588 123.604 212.785 123.606C212.881 123.606 212.976 123.587 213.065 123.549C213.153 123.512 213.233 123.458 213.3 123.389C213.368 123.32 213.42 123.239 213.456 123.149C213.491 123.06 213.508 122.965 213.505 122.868Z" fill="#263238"/>
<path d="M233.498 48.7277C233.542 48.7403 233.589 48.7403 233.632 48.7277C233.67 48.7173 233.705 48.6993 233.735 48.6748C233.766 48.6502 233.791 48.6197 233.809 48.5852C233.827 48.5506 233.837 48.5127 233.84 48.4738C233.843 48.4349 233.838 48.3958 233.825 48.359C233.693 47.8965 233.455 47.4713 233.129 47.1177C232.803 46.7641 232.398 46.4918 231.948 46.3228C231.911 46.3114 231.872 46.3076 231.834 46.3116C231.796 46.3156 231.759 46.3274 231.725 46.3462C231.691 46.365 231.662 46.3904 231.638 46.421C231.614 46.4516 231.597 46.4866 231.588 46.524C231.567 46.6017 231.577 46.6845 231.616 46.7549C231.655 46.8253 231.72 46.8777 231.797 46.901C232.151 47.0401 232.467 47.2593 232.722 47.5413C232.976 47.8234 233.162 48.1607 233.264 48.5266C233.279 48.5792 233.31 48.6261 233.351 48.6618C233.393 48.6974 233.444 48.7203 233.498 48.7277Z" fill="#263238"/>
<path d="M206.735 82.7899C205.772 86.7365 204.8 90.8424 203.945 94.8394C203.526 96.8421 203.107 98.8364 202.814 100.797C202.497 102.61 202.32 104.445 202.286 106.286C202.397 109.681 203.593 112.952 205.696 115.62C206.828 117.117 208.114 118.491 209.534 119.718C210.255 120.363 211.009 120.983 211.796 121.561C212.19 121.846 212.592 122.131 212.995 122.399C213.397 122.667 213.833 122.961 214.159 123.162L212.333 127.745C211.662 127.544 211.16 127.368 210.59 127.159C210.02 126.949 209.517 126.723 208.981 126.488C207.925 126.011 206.886 125.483 205.864 124.896C203.795 123.684 201.881 122.223 200.166 120.547C198.357 118.776 196.84 116.728 195.674 114.481C194.471 112.124 193.704 109.569 193.412 106.939C193.193 104.525 193.193 102.097 193.412 99.6827C193.605 97.4203 193.881 95.2081 194.25 93.0211C194.958 88.6863 195.909 84.3949 197.099 80.1671L206.735 82.7899Z" fill="#E4897B"/>
<path d="M202.939 72.8436C196.278 74.0334 192.507 91.8396 192.507 91.8396L208.981 97.7052C209.744 93.221 209.744 88.6399 208.981 84.1557C207.791 76.5975 209.266 71.7123 202.939 72.8436Z" fill="#407BFF"/>
<path opacity="0.6" d="M202.939 72.8436C196.278 74.0334 192.507 91.8396 192.507 91.8396L208.981 97.7052C209.744 93.221 209.744 88.6399 208.981 84.1557C207.791 76.5975 209.266 71.7123 202.939 72.8436Z" fill="white"/>
<path d="M234.579 72.0224L236.163 72.3157C236.229 72.3273 236.29 72.3595 236.336 72.4077C236.383 72.4558 236.413 72.5175 236.423 72.5838C240.612 96.3645 237.839 120.824 237.839 120.824H236.079C237.755 94.94 234.747 75.4328 234.227 72.366C234.218 72.318 234.22 72.2685 234.235 72.2218C234.249 72.1751 234.275 72.1328 234.31 72.0987C234.345 72.0645 234.388 72.0397 234.435 72.0264C234.482 72.013 234.532 72.0117 234.579 72.0224Z" fill="#407BFF"/>
<path opacity="0.1" d="M234.579 72.0224L236.163 72.3157C236.229 72.3273 236.29 72.3595 236.336 72.4077C236.383 72.4558 236.413 72.5175 236.423 72.5838C240.612 96.3645 237.839 120.824 237.839 120.824H236.079C237.755 94.94 234.747 75.4328 234.227 72.366C234.218 72.318 234.22 72.2685 234.235 72.2218C234.249 72.1751 234.275 72.1328 234.31 72.0987C234.345 72.0645 234.388 72.0397 234.435 72.0264C234.482 72.013 234.532 72.0117 234.579 72.0224Z" fill="white"/>
<path d="M236.391 121.385H237.606C237.755 121.385 237.899 121.326 238.006 121.221C238.112 121.116 238.173 120.973 238.175 120.824C238.175 120.674 238.117 120.53 238.011 120.424C237.906 120.317 237.764 120.256 237.614 120.254H236.399C236.249 120.256 236.105 120.317 235.998 120.423C235.892 120.53 235.831 120.673 235.829 120.824C235.828 120.898 235.842 120.971 235.87 121.04C235.897 121.109 235.939 121.171 235.991 121.223C236.043 121.276 236.106 121.317 236.174 121.345C236.243 121.373 236.317 121.386 236.391 121.385Z" fill="#263238"/>
<path d="M237.721 122.868V121.276C237.723 121.179 237.704 121.083 237.668 120.993C237.631 120.903 237.577 120.821 237.508 120.752C237.439 120.684 237.358 120.629 237.268 120.593C237.178 120.556 237.081 120.538 236.984 120.539C236.788 120.539 236.599 120.616 236.46 120.754C236.32 120.892 236.241 121.08 236.238 121.276V122.868C236.237 122.965 236.255 123.061 236.291 123.15C236.328 123.239 236.381 123.321 236.449 123.389C236.517 123.458 236.597 123.512 236.686 123.55C236.775 123.587 236.871 123.606 236.967 123.606C237.164 123.604 237.352 123.526 237.492 123.389C237.633 123.251 237.715 123.065 237.721 122.868Z" fill="#263238"/>
<path d="M212.886 288.219C213.304 288.32 213.745 288.276 214.134 288.093C214.26 288.016 214.364 287.908 214.435 287.778C214.505 287.649 214.54 287.503 214.537 287.356C214.547 287.269 214.533 287.182 214.498 287.102C214.463 287.022 214.407 286.954 214.336 286.903C213.69 286.442 211.512 287.356 211.269 287.465C211.242 287.475 211.22 287.494 211.205 287.518C211.19 287.542 211.183 287.57 211.185 287.599C211.186 287.628 211.195 287.657 211.212 287.682C211.228 287.707 211.25 287.728 211.277 287.741C211.796 287.955 212.335 288.115 212.886 288.219ZM213.975 287.079C214.044 287.086 214.11 287.109 214.168 287.146C214.195 287.168 214.216 287.196 214.228 287.229C214.24 287.261 214.242 287.297 214.235 287.331C214.238 287.431 214.215 287.53 214.168 287.618C214.121 287.706 214.052 287.78 213.967 287.833C213.221 288.043 212.424 287.959 211.738 287.599C212.442 287.28 213.203 287.103 213.975 287.079Z" fill="#407BFF"/>
<path d="M211.319 287.749H211.394C212.09 287.498 213.506 286.333 213.455 285.621C213.446 285.508 213.398 285.401 213.321 285.317C213.244 285.234 213.14 285.178 213.028 285.16C212.919 285.127 212.804 285.119 212.691 285.135C212.578 285.15 212.47 285.191 212.375 285.252C211.578 285.73 211.21 287.498 211.193 287.573C211.188 287.6 211.19 287.626 211.199 287.651C211.208 287.676 211.223 287.699 211.243 287.716C211.265 287.733 211.291 287.745 211.319 287.749ZM212.894 285.42H212.961C213.145 285.479 213.154 285.562 213.154 285.604C213.154 286.023 212.266 286.928 211.562 287.28C211.689 286.583 212.029 285.942 212.534 285.445C212.645 285.399 212.769 285.39 212.886 285.42H212.894Z" fill="#407BFF"/>
<path d="M209.182 126.564L211.109 123.061L216.396 123.245L220.511 124.921L223.309 129.044L216.12 128.608C216.12 128.608 211.712 129.857 209.182 126.564Z" fill="#E4897B"/>
<path d="M223.779 74.5026L222.513 73.6144L219.991 76.1282L223.779 74.5026Z" fill="#407BFF"/>
<path opacity="0.4" d="M223.779 74.5026L222.513 73.6144L219.991 76.1282L223.779 74.5026Z" fill="white"/>
<path d="M222.513 73.6144C222.513 73.6144 220.46 76.6394 220.117 78.8264C217.494 77.7539 212.517 75.0725 211.737 71.285C212.667 70.9876 213.553 70.5648 214.368 70.0281C214.368 70.0281 217.041 72.2402 222.513 73.6144Z" fill="#407BFF"/>
<path opacity="0.2" d="M222.513 73.6144C222.513 73.6144 220.46 76.6394 220.117 78.8264C217.494 77.7539 212.517 75.0725 211.737 71.285C212.667 70.9876 213.553 70.5648 214.368 70.0281C214.368 70.0281 217.041 72.2402 222.513 73.6144Z" fill="white"/>
<path d="M223.779 74.5027L224.249 73.472L227.726 76.1283L223.779 74.5027Z" fill="#407BFF"/>
<path opacity="0.4" d="M223.779 74.5027L224.249 73.472L227.726 76.1283L223.779 74.5027Z" fill="white"/>
<path d="M224.248 73.472C225.629 74.7553 226.562 76.4465 226.913 78.2985C229.426 77.2259 230.34 73.7233 229.586 71.4023C228.591 70.9579 227.552 70.6208 226.485 70.3967C226.555 71.0945 226.365 71.7935 225.953 72.3606C225.54 72.9277 224.933 73.3232 224.248 73.472Z" fill="#407BFF"/>
<path opacity="0.2" d="M224.248 73.472C225.629 74.7553 226.562 76.4465 226.913 78.2985C229.426 77.2259 230.34 73.7233 229.586 71.4023C228.591 70.9579 227.552 70.6208 226.485 70.3967C226.555 71.0945 226.365 71.7935 225.953 72.3606C225.54 72.9277 224.933 73.3232 224.248 73.472Z" fill="white"/>
<path d="M284.596 98.4425L231.831 96.5739L224.197 127.418L276.962 129.287L284.596 98.4425Z" fill="#407BFF"/>
<path opacity="0.1" d="M284.596 98.4425L231.831 96.5739L224.197 127.418L276.962 129.287L284.596 98.4425Z" fill="white"/>
<path d="M286.213 98.4927L233.457 96.6324L225.823 127.477L278.588 129.346L286.213 98.4927Z" fill="#263238"/>
<path d="M278.588 129.346L278.37 131.055L225.605 129.186L225.823 127.477L278.588 129.346Z" fill="#263238"/>
<path d="M225.824 127.477L225.606 129.186L204.9 128.457L205.11 126.748L225.824 127.477Z" fill="#407BFF"/>
<path opacity="0.1" d="M225.824 127.477L225.606 129.186L204.9 128.457L205.11 126.748L225.824 127.477Z" fill="white"/>
</svg>
