<svg width="530" height="395" viewBox="0 0 530 395" fill="none" xmlns="http://www.w3.org/2000/svg">
<path d="M530 346.87H0.264771V347.135H530V346.87Z" fill="#EBEBEB"/>
<path d="M476.921 356.957H380.615V357.221H476.921V356.957Z" fill="#EBEBEB"/>
<path d="M351.183 354.086H324.812V354.35H351.183V354.086Z" fill="#EBEBEB"/>
<path d="M411.456 366.799H370.571V367.064H411.456V366.799Z" fill="#EBEBEB"/>
<path d="M79.831 365.019H55.8446V365.284H79.831V365.019Z" fill="#EBEBEB"/>
<path d="M117.749 365.019H89.2603V365.284H117.749V365.019Z" fill="#EBEBEB"/>
<path d="M238.805 360.548H189.179V360.813H238.805V360.548Z" fill="#EBEBEB"/>
<path d="M251.359 299.618H46.7967C45.1923 299.618 43.6535 298.981 42.519 297.846C41.3845 296.712 40.7471 295.173 40.7471 293.569V5.9966C40.7611 4.40135 41.4046 2.8762 42.5376 1.75311C43.6706 0.630027 45.2014 -6.11589e-05 46.7967 4.45248e-09H251.359C252.964 4.45249e-09 254.502 0.637365 255.637 1.77188C256.771 2.9064 257.409 4.44513 257.409 6.04958V293.569C257.409 295.173 256.771 296.712 255.637 297.846C254.502 298.981 252.964 299.618 251.359 299.618ZM46.7967 0.211895C45.2634 0.214696 43.7936 0.825052 42.7094 1.90929C41.6252 2.99353 41.0148 4.46326 41.012 5.9966V293.569C41.0148 295.102 41.6252 296.572 42.7094 297.656C43.7936 298.74 45.2634 299.351 46.7967 299.353H251.359C252.893 299.351 254.362 298.74 255.447 297.656C256.531 296.572 257.141 295.102 257.144 293.569V5.9966C257.141 4.46326 256.531 2.99353 255.447 1.90929C254.362 0.825052 252.893 0.214696 251.359 0.211895H46.7967Z" fill="#EBEBEB"/>
<path d="M480.533 299.618H275.95C274.346 299.615 272.809 298.977 271.675 297.843C270.541 296.709 269.903 295.172 269.9 293.569V5.9966C269.917 4.40222 270.561 2.87866 271.694 1.75617C272.826 0.633678 274.355 0.00269984 275.95 0H480.533C482.125 0.00551401 483.65 0.638065 484.779 1.76055C485.907 2.88304 486.548 4.40502 486.562 5.9966V293.569C486.562 295.169 485.927 296.705 484.797 297.839C483.667 298.973 482.134 299.613 480.533 299.618ZM275.95 0.211895C274.416 0.214696 272.947 0.825052 271.862 1.90929C270.778 2.99353 270.168 4.46326 270.165 5.9966V293.569C270.168 295.102 270.778 296.572 271.862 297.656C272.947 298.74 274.416 299.351 275.95 299.353H480.533C482.067 299.351 483.536 298.74 484.621 297.656C485.705 296.572 486.315 295.102 486.318 293.569V5.9966C486.315 4.46326 485.705 2.99353 484.621 1.90929C483.536 0.825052 482.067 0.214696 480.533 0.211895H275.95Z" fill="#EBEBEB"/>
<path d="M378.898 103.468H390.542L389.165 75.4553H378.898V103.468Z" fill="#F5F5F5"/>
<path d="M450.932 106.71L456.303 120.017H450.932L418.003 106.71H450.932Z" fill="#F5F5F5"/>
<path d="M456.303 106.71V120.017L423.375 106.71H456.303Z" fill="#E6E6E6"/>
<path d="M324.495 106.71L329.866 120.017H324.495L291.566 106.71H324.495Z" fill="#F5F5F5"/>
<path d="M329.866 106.71V120.017L296.938 106.71H329.866Z" fill="#E6E6E6"/>
<path d="M462.565 103.552H444.66V107.388H462.565V103.552Z" fill="#E6E6E6"/>
<path d="M282.953 107.398L444.67 107.398V103.563L282.953 103.563V107.398Z" fill="#F5F5F5"/>
<path d="M361.809 103.468H386.791L389.874 69.5223H364.892L361.809 103.468Z" fill="#E6E6E6"/>
<path d="M360.517 103.468H385.499L388.582 69.5223H363.6L360.517 103.468Z" fill="#F0F0F0"/>
<path d="M383.401 99.7068L386.219 73.2836H365.697L362.879 99.7068H383.401Z" fill="white"/>
<path d="M339.359 103.468H356.501L354.478 62.2122H339.359V103.468Z" fill="#E0E0E0"/>
<path d="M314.175 103.468H350.971L355.526 53.4714H318.72L314.175 103.468Z" fill="#F0F0F0"/>
<path d="M312.268 103.468H349.064L353.619 53.4714H316.813L312.268 103.468Z" fill="#F5F5F5"/>
<path d="M345.981 97.9268L350.144 59.0018H319.907L315.743 97.9268H345.981Z" fill="#E0E0E0"/>
<path d="M422.654 103.468H442.975L440.581 54.5626H422.654V103.468Z" fill="#EBEBEB"/>
<path d="M392.799 103.468H436.428L441.82 44.201H398.202L392.799 103.468Z" fill="#F0F0F0"/>
<path d="M390.542 103.468H434.16L439.553 44.201H395.935L390.542 103.468Z" fill="#FAFAFA"/>
<path d="M430.505 96.9095L435.432 50.7695H399.6L394.663 96.9095H430.505Z" fill="#F0F0F0"/>
<path d="M81.3779 277.369H233.804L233.804 33.9029L81.3779 33.9029L81.3779 277.369Z" fill="#E6E6E6"/>
<path d="M74.9998 277.369H230.827L230.827 33.9029L74.9998 33.9029L74.9998 277.369Z" fill="#F0F0F0"/>
<path d="M81.3779 289.235H233.804V277.369H81.3779V289.235Z" fill="#E6E6E6"/>
<path d="M64.3521 289.235H220.179V277.369H64.3521V289.235Z" fill="#F5F5F5"/>
<path d="M221.885 268.438V42.845L83.9311 42.845V268.438H221.885Z" fill="#FAFAFA"/>
<path d="M202.994 268.438L179.326 42.845H140.931L164.61 268.438H202.994Z" fill="white"/>
<path d="M156.367 268.438L132.688 42.845H117.718L141.397 268.438H156.367Z" fill="white"/>
<path d="M85.0648 268.427L85.0648 42.8344H83.9312L83.9312 268.427H85.0648Z" fill="#E6E6E6"/>
<path d="M127.571 273.396H125.876C125.876 269.911 125.876 261.043 125.706 240.743C125.399 203.948 124.816 201.702 124.816 201.702L128.853 218.653C131.406 237.501 128.111 256.392 127.571 273.396Z" fill="#E6E6E6"/>
<path d="M129.711 218.865C133.016 211.947 140.051 209.923 147.266 208.207C150.095 207.529 139.85 218.929 134.807 227.023C130.908 233.317 128.45 235.054 127.391 241.326C126.787 233.507 126.872 224.83 129.711 218.865Z" fill="#E6E6E6"/>
<path d="M125.06 222.658C122.941 218.537 116.891 213.314 114.825 213.398C113.257 213.451 119.392 222.52 122.39 227.574C124.721 231.494 125.982 232.871 127.073 236.219C126.543 232.373 126.893 226.218 125.06 222.658Z" fill="#E6E6E6"/>
<path d="M129.764 233.624C132.349 229.767 138.949 225.286 140.994 225.593C142.552 225.837 135.4 234.143 131.851 238.804C129.086 242.438 127.613 243.636 126.204 246.856C127.168 243.095 127.528 236.94 129.764 233.624Z" fill="#E6E6E6"/>
<path d="M125.346 231.24C122.04 224.322 112.187 219.183 104.972 217.467C102.143 216.789 115.228 231.314 120.25 239.408C124.149 245.702 126.607 247.439 127.666 253.711C128.27 245.882 128.185 237.205 125.346 231.24Z" fill="#E6E6E6"/>
<path d="M126.755 202.783C123.28 194.868 118.057 186.71 111.085 183.712C108.341 182.557 117.442 199 120.885 209.606C123.566 217.838 127.126 227.511 127.677 234.461C129.435 224.078 132.19 215.189 126.755 202.783Z" fill="#E6E6E6"/>
<path d="M126.215 277.369C131.406 277.369 135.75 272.294 135.994 265.8L136.862 254.707H115.578L116.446 265.8C116.743 272.284 121.044 277.369 126.215 277.369Z" fill="#E6E6E6"/>
<path d="M114.2 261.901H138.24L138.928 257.96H113.512L114.2 261.901Z" fill="#E6E6E6"/>
<path d="M114.2 256.042H138.24L138.928 252.101H113.512L114.2 256.042Z" fill="#E6E6E6"/>
<path d="M362.254 228.358C362.207 228.132 362.084 227.929 361.904 227.784C361.724 227.639 361.5 227.561 361.269 227.564H323.128C322.897 227.561 322.672 227.639 322.493 227.784C322.313 227.929 322.189 228.132 322.143 228.358L308.571 346.871H310.69L323.933 229.566H360.485L373.728 346.871H375.784L362.254 228.358Z" fill="#F0F0F0"/>
<path d="M436.12 228.358C436.074 228.132 435.95 227.929 435.77 227.784C435.59 227.639 435.366 227.561 435.135 227.564H396.994C396.763 227.561 396.539 227.639 396.359 227.784C396.179 227.929 396.055 228.132 396.009 228.358L382.469 346.871H384.524L397.799 229.566H434.319L447.605 346.871H449.65L436.12 228.358Z" fill="#F0F0F0"/>
<path d="M437.212 219.935H317.216C311.484 219.935 306.833 222.69 306.833 226.101V226.313C306.833 227.553 308.528 228.559 310.615 228.559H443.802C445.92 228.559 447.594 227.5 447.594 226.313V226.101C447.594 222.69 442.943 219.935 437.212 219.935Z" fill="#E0E0E0"/>
<path d="M367.467 191.701C367.467 199.189 370.441 206.371 375.736 211.666C381.032 216.961 388.213 219.936 395.702 219.936C403.19 219.936 410.372 216.961 415.667 211.666C420.962 206.371 423.937 199.189 423.937 191.701H367.467Z" fill="#E6E6E6"/>
<path d="M344.328 198.174C344.328 203.945 346.621 209.48 350.702 213.561C354.783 217.643 360.318 219.935 366.089 219.935C371.861 219.935 377.396 217.643 381.477 213.561C385.558 209.48 387.851 203.945 387.851 198.174H344.328Z" fill="#EBEBEB"/>
<path d="M265.132 394.716C378.583 394.716 470.553 389.347 470.553 382.723C470.553 376.1 378.583 370.73 265.132 370.73C151.682 370.73 59.7117 376.1 59.7117 382.723C59.7117 389.347 151.682 394.716 265.132 394.716Z" fill="#F5F5F5"/>
<path d="M465.266 129.457C466.919 132.879 468.445 136.301 469.833 139.797C471.221 143.293 472.577 146.832 473.732 150.529C473.88 150.996 474.018 151.462 474.155 151.939L474.357 152.638L474.463 153.019L474.6 153.612C474.923 155.119 474.879 156.682 474.473 158.168C473.793 160.493 472.577 162.627 470.924 164.398C468.167 167.393 464.89 169.863 461.251 171.687L458.73 167.968C461.213 165.608 463.43 162.983 465.341 160.139C466.08 159.044 466.582 157.806 466.813 156.505C466.853 156.178 466.809 155.846 466.686 155.541L466.305 154.566C466.156 154.153 465.997 153.75 465.817 153.326C464.493 150.021 463.01 146.673 461.516 143.336L457.045 133.292L465.266 129.457Z" fill="#EBB376"/>
<path d="M458.539 167.396L452.468 171.115L458.941 176.667C458.941 176.667 463.338 173.107 463.264 168.932L460.404 167.354C460.117 167.193 459.793 167.113 459.465 167.12C459.137 167.128 458.817 167.223 458.539 167.396Z" fill="#EBB376"/>
<path d="M451.207 178.372L456.335 180.777L458.941 176.698L452.468 171.147L451.207 178.372Z" fill="#EBB376"/>
<path d="M444.352 374.184C445.142 374.164 445.927 374.057 446.694 373.866C446.735 373.857 446.772 373.837 446.8 373.806C446.829 373.776 446.847 373.738 446.853 373.696C446.863 373.655 446.858 373.612 446.841 373.574C446.824 373.536 446.795 373.504 446.757 373.484C446.461 373.283 443.759 371.546 442.731 372.012C442.615 372.064 442.515 372.146 442.442 372.251C442.369 372.355 442.327 372.478 442.318 372.605C442.272 372.804 442.28 373.011 442.339 373.207C442.399 373.402 442.508 373.578 442.657 373.717C443.149 374.07 443.75 374.235 444.352 374.184ZM446.101 373.569C444.554 373.876 443.399 373.823 442.922 373.41C442.824 373.314 442.753 373.194 442.716 373.062C442.679 372.93 442.677 372.791 442.71 372.658C442.712 372.603 442.729 372.549 442.759 372.502C442.788 372.456 442.83 372.418 442.88 372.393C443.452 372.149 444.999 372.933 446.101 373.569Z" fill="#407BFF"/>
<path d="M446.652 373.866H446.758C446.787 373.846 446.812 373.819 446.828 373.788C446.845 373.756 446.853 373.721 446.853 373.686C446.853 373.569 446.853 371.016 445.878 370.168C445.762 370.056 445.621 369.971 445.467 369.922C445.312 369.872 445.149 369.858 444.988 369.882C444.822 369.884 444.662 369.943 444.535 370.049C444.408 370.155 444.321 370.302 444.289 370.465C444.088 371.524 445.698 373.378 446.546 373.866C446.58 373.877 446.617 373.877 446.652 373.866ZM445.137 370.274C445.309 370.276 445.474 370.34 445.603 370.454C446.157 371.28 446.446 372.256 446.429 373.251C445.582 372.573 444.575 371.132 444.692 370.528C444.692 370.433 444.776 370.306 445.041 370.274H445.137Z" fill="#407BFF"/>
<path d="M445.868 98.6047C444.808 103.902 442.689 114.497 446.344 118.046C446.344 118.046 444.903 123.343 435.114 123.343C424.36 123.343 429.975 118.046 429.975 118.046C435.845 116.648 435.697 112.293 434.68 108.193L445.868 98.6047Z" fill="#EBB376"/>
<path d="M434.849 113.363C434.182 114.285 433.641 115.609 434.16 115.588C443.06 115.207 445.221 115.715 445.094 114.709C444.967 113.702 445.094 112.664 444.607 112.664C444.119 112.664 435.167 112.961 434.849 113.363Z" fill="#407BFF"/>
<path d="M444.236 115.577C444.844 115.774 445.484 115.853 446.122 115.81C446.526 115.927 446.868 116.197 447.075 116.563C447.165 115.952 447.018 115.329 446.666 114.822C446.314 114.315 445.783 113.96 445.179 113.829C442.922 113.215 443.505 115.281 444.236 115.577Z" fill="#407BFF"/>
<path d="M443.208 113.236C443.802 112.039 445.327 111.53 445.793 112.325C446.259 113.119 445.423 113.787 444.363 113.893C443.304 113.999 442.795 114.073 443.208 113.236Z" fill="#407BFF"/>
<path d="M443.78 113.3C444.84 112.505 446.418 112.717 446.503 113.649C446.588 114.582 445.507 114.783 444.511 114.401C443.515 114.02 443.028 113.861 443.78 113.3Z" fill="#407BFF"/>
<path d="M427.835 87.3639C427.769 87.354 427.705 87.3287 427.65 87.2901C427.595 87.2515 427.55 87.2006 427.517 87.1414C427.289 86.6671 426.952 86.2532 426.535 85.933C426.117 85.6128 425.63 85.3952 425.112 85.2979C425.052 85.2992 424.993 85.2877 424.938 85.2642C424.882 85.2407 424.833 85.2058 424.792 85.1617C424.751 85.1176 424.721 85.0654 424.702 85.0085C424.683 84.9516 424.676 84.8912 424.682 84.8315C424.688 84.7718 424.707 84.7141 424.737 84.6621C424.767 84.6102 424.807 84.5652 424.856 84.5302C424.905 84.4951 424.96 84.4708 425.019 84.4589C425.078 84.447 425.139 84.4477 425.197 84.4609C425.854 84.5754 426.475 84.8433 427.009 85.2428C427.542 85.6423 427.975 86.1621 428.27 86.76C428.318 86.8586 428.327 86.9724 428.293 87.0772C428.26 87.182 428.187 87.2696 428.09 87.3215C428.011 87.361 427.922 87.3758 427.835 87.3639Z" fill="#263238"/>
<path d="M424.742 92.0042C423.927 93.552 422.9 94.9784 421.69 96.242C422.025 96.5425 422.421 96.7664 422.851 96.8981C423.281 97.0299 423.735 97.0663 424.18 97.0048L424.742 92.0042Z" fill="#D58745"/>
<path d="M425.515 90.86C425.441 91.5698 424.996 92.0996 424.53 92.0466C424.064 91.9936 423.756 91.3791 423.83 90.6693C423.905 89.9595 424.35 89.4191 424.816 89.4721C425.282 89.5251 425.6 90.1501 425.515 90.86Z" fill="#263238"/>
<path d="M425.017 89.5356L423.364 88.8469C423.364 88.8469 424.053 90.2878 425.017 89.5356Z" fill="#263238"/>
<path d="M456.971 373.664H448.092L448.792 353.111H457.659L456.971 373.664Z" fill="#EBB376"/>
<path d="M447.361 372.637H457.331C457.503 372.633 457.67 372.692 457.801 372.803C457.932 372.915 458.017 373.07 458.041 373.241L459.174 381.123C459.197 381.323 459.177 381.524 459.116 381.715C459.055 381.906 458.953 382.082 458.819 382.231C458.685 382.381 458.521 382.5 458.337 382.581C458.154 382.662 457.955 382.703 457.755 382.702C454.269 382.649 452.595 382.437 448.22 382.437C445.529 382.437 441.587 382.723 437.858 382.723C434.129 382.723 433.938 379.036 435.485 378.708C442.445 377.203 443.547 375.148 445.889 373.177C446.303 372.833 446.823 372.642 447.361 372.637Z" fill="#263238"/>
<g opacity="0.2">
<path opacity="0.2" d="M457.67 353.111H448.792L448.432 363.705H457.31L457.67 353.111Z" fill="black"/>
</g>
<path d="M449.703 91.1142C448.188 99.7912 447.732 103.499 442.816 107.483C435.4 113.48 425.091 109.718 423.989 100.766C422.994 92.7034 425.653 79.8732 434.584 77.3516C436.554 76.7872 438.634 76.7358 440.629 77.2023C442.624 77.6687 444.467 78.6375 445.982 80.0165C447.497 81.3956 448.634 83.1392 449.285 85.0815C449.936 87.0239 450.08 89.1006 449.703 91.1142Z" fill="#EBB376"/>
<path d="M428.736 173.88C428.736 173.88 433.885 234.789 439.225 269.116C443.547 296.842 446.948 361.661 446.948 361.661H459.016C459.016 361.661 463.02 299.226 461.484 271.754C457.84 206.597 467.64 192.643 455.223 173.88H428.736Z" fill="#407BFF"/>
<path opacity="0.2" d="M442.297 206.755C441.789 224.978 438.345 236.262 435.644 242.343C434.224 230.456 432.921 218.049 431.83 207.105C435.548 194.709 442.689 193.035 442.297 206.755Z" fill="black"/>
<path d="M434.478 369.882C434.493 369.849 434.501 369.813 434.501 369.776C434.501 369.74 434.493 369.704 434.478 369.67C434.464 369.63 434.438 369.594 434.405 369.568C434.371 369.542 434.33 369.526 434.287 369.522C433.842 369.522 429.869 369.374 429.138 370.37C429.068 370.462 429.024 370.572 429.009 370.687C428.994 370.802 429.009 370.919 429.054 371.026C429.109 371.208 429.209 371.372 429.344 371.505C429.479 371.639 429.645 371.736 429.827 371.789C431.067 372.171 433.228 370.73 434.404 369.903L434.478 369.882ZM429.552 370.581C430.018 370.062 432.115 369.914 433.684 369.925C432.041 371.058 430.685 371.599 429.997 371.387C429.877 371.352 429.768 371.288 429.68 371.202C429.591 371.115 429.525 371.007 429.488 370.889C429.461 370.85 429.447 370.804 429.447 370.756C429.447 370.709 429.461 370.663 429.488 370.624L429.552 370.581Z" fill="#407BFF"/>
<path d="M434.478 369.882C434.499 369.851 434.51 369.814 434.51 369.776C434.51 369.739 434.499 369.702 434.478 369.67C434.478 369.586 433.239 367.551 431.83 367.138C431.627 367.083 431.416 367.07 431.208 367.099C431.001 367.128 430.801 367.199 430.622 367.308C430.124 367.604 430.092 367.943 430.156 368.176C430.431 369.162 433.143 369.999 434.298 369.988C434.335 369.988 434.371 369.978 434.402 369.959C434.434 369.94 434.46 369.914 434.478 369.882ZM430.654 367.763L430.855 367.615C430.986 367.532 431.133 367.478 431.287 367.458C431.441 367.438 431.597 367.452 431.745 367.498C432.664 367.916 433.428 368.613 433.927 369.49C432.677 369.363 430.749 368.6 430.579 368.007C430.573 367.965 430.576 367.922 430.589 367.882C430.602 367.841 430.624 367.804 430.654 367.774V367.763Z" fill="#407BFF"/>
<path d="M444.246 367.255L435.855 370.179L432.868 362.381L428.969 352.168L428.513 350.981L436.894 348.046L437.413 349.381L441.185 359.277L444.246 367.255Z" fill="#EBB376"/>
<path opacity="0.2" d="M441.185 359.277L432.868 362.381L428.969 352.168L437.413 349.382L441.185 359.277Z" fill="black"/>
<path d="M419.222 173.88C419.222 173.88 405.936 234.418 405.947 265.577C405.947 293.727 429.636 359.468 429.636 359.468L440.877 354.838C440.877 354.838 429.976 284.118 427.443 267.77C433.588 242.343 444.183 206.597 444.183 173.88H419.222Z" fill="#407BFF"/>
<path d="M434.415 368.558L443.441 364.32C443.597 364.248 443.773 364.234 443.939 364.281C444.104 364.328 444.247 364.431 444.342 364.574L448.707 371.238C448.811 371.41 448.877 371.601 448.902 371.8C448.927 371.998 448.91 372.2 448.852 372.392C448.794 372.584 448.697 372.761 448.566 372.913C448.435 373.065 448.274 373.187 448.092 373.272C444.914 374.692 443.314 375.211 439.341 377.065C436.904 378.21 432.465 381.896 428.81 382.617C425.155 383.337 424.244 379.767 425.695 379.142C432.232 376.313 432.052 372.446 433.302 369.67C433.531 369.18 433.925 368.786 434.415 368.558Z" fill="#263238"/>
<path d="M428.768 361.703L443.229 356.363L441.863 350.526L426.373 356.236L428.768 361.703Z" fill="#263238"/>
<path d="M445.295 361.894H460.711L461.516 356.491L445.2 355.94L445.295 361.894Z" fill="#263238"/>
<path d="M469.282 134.14L460.372 141.238L455.074 145.476C455.074 145.476 454.513 143.982 453.835 141.842C452.532 137.71 450.858 131.162 452.023 128.154C453.856 123.386 457.32 119.084 461.707 120.038C465.372 120.875 469.282 134.14 469.282 134.14Z" fill="#263238"/>
<path opacity="0.2" d="M459.206 142.16L455.021 145.508C455.021 145.508 454.46 144.014 453.782 141.874L456.96 126.141L459.206 142.16Z" fill="black"/>
<path d="M414.973 120.324C414.973 120.324 410.735 121.807 419.211 173.88H455.233C454.629 159.217 454.619 150.169 461.59 120.059C456.542 119.017 451.426 118.345 446.281 118.046C440.831 117.653 435.361 117.653 429.912 118.046C422.994 118.66 414.973 120.324 414.973 120.324Z" fill="#263238"/>
<path d="M418.756 131.523C417.961 136.163 417.018 140.687 415.906 145.296C414.849 149.971 413.486 154.572 411.827 159.069C411.322 160.38 410.712 161.648 410.004 162.862C409.748 163.281 409.461 163.681 409.146 164.059C408.843 164.438 408.51 164.793 408.15 165.118C407.368 165.822 406.468 166.382 405.491 166.771C404.477 167.157 403.398 167.344 402.313 167.322C401.361 167.289 400.418 167.118 399.516 166.814C398.063 166.305 396.706 165.557 395.5 164.599C393.492 162.989 391.71 161.114 390.203 159.027C389.461 158.041 388.783 157.035 388.148 156.007C387.486 154.979 386.878 153.919 386.325 152.829L390.076 150.349C391.517 151.939 393.106 153.528 394.695 155.011C396.173 156.417 397.8 157.657 399.547 158.709C400.207 159.097 400.921 159.383 401.666 159.556C402.249 159.652 402.419 159.556 402.44 159.429C402.461 159.302 402.535 159.334 402.641 159.196C402.706 159.115 402.766 159.03 402.821 158.942C402.821 158.942 402.821 158.942 402.927 158.719C403.311 157.906 403.637 157.067 403.902 156.208C404.548 154.248 405.11 152.087 405.629 149.926C406.148 147.764 406.688 145.561 407.144 143.357C408.076 138.939 408.987 134.447 409.856 130.029L418.756 131.523Z" fill="#EBB376"/>
<path d="M414.973 120.324C410.566 121.383 405.247 137.381 405.247 137.381L420.43 148.145C420.43 148.145 426.479 131.607 425.028 126.956C423.523 122.04 420.324 119.021 414.973 120.324Z" fill="#263238"/>
<path d="M429.795 92.0043C425.377 90.0125 426.522 84.9271 429.35 85.9124C419.222 78.6338 424.678 75.2223 427.729 77.0022C426.394 75.0422 421.849 69.4588 422.284 64.225C422.718 58.9912 432.423 61.4492 436.841 68.0709C435.093 62.8583 440.761 62.3498 444.978 68.696C446.676 71.3186 447.929 74.2039 448.686 77.2353C448.686 77.2353 453.538 69.5753 454.778 76.9175C456.144 85.0542 452.044 87.9466 452.044 87.9466C452.044 87.9466 459.153 88.5823 455.583 93.3181C454.539 94.4917 453.35 95.5277 452.044 96.4012C452.044 96.4012 454.651 98.1811 451.154 101.624C448.241 104.495 445.327 107.091 440.295 107.356C434.648 107.663 427.316 101.465 429.795 92.0043Z" fill="#263238"/>
<path d="M448.686 77.5C448.619 77.5002 448.555 77.4753 448.506 77.4301C448.456 77.3849 448.426 77.3229 448.421 77.2563C448.093 74.1823 447.263 71.1829 445.963 68.378C444.045 64.3944 441.216 62.5721 439.606 63.0806C438.547 63.4091 438.186 64.6698 438.547 66.4391C438.556 66.4745 438.558 66.5115 438.553 66.5478C438.548 66.5841 438.535 66.6189 438.515 66.6499C438.496 66.681 438.47 66.7076 438.44 66.7282C438.409 66.7488 438.375 66.7628 438.339 66.7694C438.303 66.7761 438.266 66.7751 438.23 66.7667C438.194 66.7582 438.161 66.7425 438.132 66.7204C438.102 66.6983 438.078 66.6704 438.06 66.6384C438.042 66.6064 438.031 66.571 438.027 66.5345C437.635 64.4791 438.186 62.9959 439.479 62.5721C441.301 61.9788 444.374 63.7163 446.493 68.1131C447.824 70.9768 448.673 74.0413 449.004 77.1822C449.006 77.217 449.002 77.252 448.992 77.2853C448.981 77.3185 448.964 77.3493 448.941 77.3759C448.919 77.4025 448.891 77.4243 448.86 77.4402C448.829 77.456 448.795 77.4656 448.76 77.4682L448.686 77.5Z" fill="#263238"/>
<path d="M432.751 92.7988C432.352 94.4171 431.414 95.8517 430.092 96.8671C428.302 98.2339 426.839 97.0578 426.861 95.119C426.861 93.3815 427.825 90.5633 429.859 89.9382C431.893 89.3131 433.175 90.8811 432.751 92.7988Z" fill="#D58745"/>
<path d="M391.072 150.317L386.887 148.198L385.223 155.721C385.223 155.721 390.288 156.59 392.449 153.464L391.072 150.317Z" fill="#EBB376"/>
<path d="M381.971 149.078L381.144 155.445L385.234 155.7L386.887 148.177L381.971 149.078Z" fill="#EBB376"/>
<path d="M455.837 171.772L457.469 174.95C457.596 175.205 457.299 175.459 456.876 175.459H419.042C418.713 175.459 418.449 175.3 418.427 175.088L418.099 171.91C418.099 171.687 418.364 171.496 418.713 171.496H455.212C455.332 171.477 455.455 171.492 455.566 171.541C455.677 171.59 455.771 171.67 455.837 171.772Z" fill="#407BFF"/>
<path opacity="0.2" d="M455.837 171.772L457.469 174.95C457.596 175.205 457.299 175.459 456.876 175.459H419.042C418.713 175.459 418.449 175.3 418.427 175.088L418.099 171.91C418.099 171.687 418.364 171.496 418.713 171.496H455.212C455.332 171.477 455.455 171.492 455.566 171.541C455.677 171.59 455.771 171.67 455.837 171.772Z" fill="white"/>
<path d="M450.9 175.872H451.875C452.065 175.872 452.214 175.766 452.203 175.65L451.748 171.412C451.748 171.285 451.568 171.189 451.366 171.189H450.391C450.201 171.189 450.052 171.285 450.063 171.412L450.519 175.65C450.54 175.745 450.699 175.872 450.9 175.872Z" fill="#407BFF"/>
<path d="M427.231 175.872H428.217C428.407 175.872 428.556 175.766 428.545 175.65L428.079 171.412C428.079 171.285 427.899 171.189 427.708 171.189H426.733C426.532 171.189 426.384 171.285 426.394 171.412L426.861 175.65C426.839 175.745 427.009 175.872 427.231 175.872Z" fill="#407BFF"/>
<path d="M353.068 81.3567C353.683 83.9842 356.416 87.1626 359.637 86.6541C357.042 85.4357 356.226 79.4391 356.226 79.4391L353.068 81.3567Z" fill="#263238"/>
<path d="M353.386 81.3564C353.386 84.0475 355.251 87.7874 358.493 88.0523C356.279 86.2512 355.696 80.636 355.696 80.636L353.386 81.3564Z" fill="#263238"/>
<path d="M287.116 368.092L278.715 366.799L279.467 346.987L287.869 348.28L287.116 368.092Z" fill="#FFC3BD"/>
<path d="M339.592 374.035H331.095L328.828 354.34H337.335L339.592 374.035Z" fill="#FFC3BD"/>
<path d="M330.279 373.05H340.651C340.818 373.05 340.979 373.108 341.107 373.215C341.235 373.321 341.321 373.469 341.351 373.633L342.717 381.197C342.747 381.385 342.735 381.576 342.683 381.758C342.63 381.94 342.539 382.109 342.415 382.252C342.291 382.395 342.137 382.51 341.964 382.587C341.791 382.665 341.604 382.704 341.414 382.702C338.077 382.649 335.651 382.448 331.445 382.448C328.86 382.448 321.062 382.723 317.491 382.723C313.921 382.723 313.593 379.195 315.076 378.867C321.687 377.436 326.73 375.466 328.849 373.569C329.245 373.225 329.755 373.04 330.279 373.05Z" fill="#263238"/>
<path d="M278.905 365.835L288.091 367.244C288.258 367.27 288.411 367.353 288.525 367.478C288.639 367.604 288.706 367.764 288.716 367.933L289.225 375.656C289.237 375.843 289.207 376.03 289.136 376.203C289.066 376.376 288.958 376.531 288.819 376.656C288.681 376.781 288.516 376.874 288.336 376.926C288.157 376.979 287.968 376.99 287.784 376.959C284.489 376.398 279.732 375.466 275.568 374.841C270.705 374.088 267.834 373.781 262.123 372.902C258.68 372.372 258.256 368.738 259.75 368.664C266.541 368.229 270.557 368.844 276.787 366.206C277.443 365.884 278.178 365.755 278.905 365.835Z" fill="#263238"/>
<path d="M322.185 120.97C320.839 124.307 319.377 127.327 317.873 130.505C316.368 133.684 314.694 136.672 312.967 139.67C311.241 142.668 309.386 145.666 307.321 148.58C305.234 151.572 302.929 154.405 300.423 157.056L300.307 157.183L300.106 157.384L299.703 157.776C299.438 158.03 299.088 158.295 298.781 158.55C298.474 158.804 298.071 159.048 297.722 159.27C297.316 159.509 296.895 159.722 296.461 159.906C294.633 160.683 292.611 160.883 290.666 160.478C289.148 160.147 287.709 159.524 286.428 158.645C285.446 157.971 284.534 157.201 283.705 156.346C282.31 154.908 281.061 153.336 279.976 151.652C278.916 150.074 278.037 148.474 277.2 146.906C274.038 140.682 271.525 134.15 269.699 127.412L275.664 125.155C277.179 128.005 278.747 130.95 280.41 133.747C282.073 136.544 283.726 139.341 285.527 141.905C287.104 144.325 288.98 146.535 291.111 148.485C291.484 148.8 291.889 149.077 292.318 149.311C292.647 149.481 292.838 149.459 292.71 149.396C292.425 149.301 292.117 149.301 291.831 149.396C291.779 149.405 291.729 149.423 291.683 149.449H291.63C291.63 149.449 291.63 149.449 291.63 149.396L291.746 149.258C295.564 144.309 298.916 139.017 301.758 133.451C303.273 130.611 304.725 127.708 306.144 124.784C307.564 121.86 308.952 118.841 310.245 116.012L322.185 120.97Z" fill="#FFC3BD"/>
<path d="M325.861 116.753C327.376 124.731 317.46 136.142 317.46 136.142L302.892 129.87C302.892 129.87 304.396 120.726 310.223 114.126C317.354 106.042 324.198 108.066 325.861 116.753Z" fill="#263238"/>
<path opacity="0.2" d="M317.989 119.572C321.962 118.152 324.897 118.618 325.957 119.572C325.236 127.158 317.481 136.099 317.481 136.099L307.162 131.66C307.924 128.132 311.749 121.839 317.989 119.572Z" fill="black"/>
<path d="M276.172 127.443L275.844 121.087L267.304 122.485C267.304 122.485 265.726 128.556 271.775 129.901L276.172 127.443Z" fill="#FFC3BD"/>
<path d="M274.975 118.48L267.919 119.9L267.304 122.432L275.844 121.034L274.975 118.48Z" fill="#FFC3BD"/>
<path opacity="0.2" d="M279.467 346.998L279.075 357.2L287.487 358.493L287.879 348.29L279.467 346.998Z" fill="black"/>
<path opacity="0.2" d="M337.335 354.35H328.828L329.993 364.5H338.501L337.335 354.35Z" fill="black"/>
<path d="M364.023 116.87C351.755 148.135 350.25 182.441 348.767 189.264L303.941 181.487C302.881 139.235 313.476 115.885 316.315 110.407C316.519 110.015 316.822 109.682 317.194 109.443C317.565 109.203 317.993 109.064 318.434 109.04C325.978 108.684 333.538 108.967 341.033 109.888C348.449 110.895 364.055 116.87 364.055 116.87" fill="#263238"/>
<path d="M323.605 183.055C323.605 182.674 322.948 144.151 331.625 119.847L332.133 120.016C323.478 144.236 324.134 182.663 324.134 183.044L323.605 183.055Z" fill="white"/>
<path d="M334.316 123.322C334.093 124.074 333.638 124.625 333.256 124.541C332.875 124.456 332.78 123.767 332.992 123.004C333.203 122.242 333.67 121.701 334.051 121.786C334.432 121.871 334.528 122.559 334.316 123.322Z" fill="white"/>
<path d="M332.229 132.105C332.059 132.879 331.635 133.451 331.265 133.387C330.894 133.324 330.735 132.646 330.904 131.872C331.074 131.099 331.498 130.537 331.868 130.601C332.239 130.664 332.398 131.374 332.229 132.105Z" fill="white"/>
<path d="M330.608 141.217C330.449 141.99 330.036 142.562 329.665 142.509C329.294 142.456 329.125 141.778 329.273 141.005C329.421 140.231 329.845 139.649 330.216 139.712C330.587 139.776 330.756 140.443 330.608 141.217Z" fill="white"/>
<path d="M329.23 150.137C329.124 150.921 328.743 151.525 328.372 151.494C328.001 151.462 327.79 150.794 327.895 150.01C328.001 149.226 328.383 148.622 328.754 148.665C329.124 148.707 329.336 149.385 329.23 150.137Z" fill="white"/>
<path opacity="0.2" d="M359.669 129.446C358.186 134.341 356.914 139.214 355.844 143.939C354.435 135.39 353.81 126.607 353.81 126.607L359.669 129.446Z" fill="black"/>
<path d="M351.077 90.7223C348.809 96.6447 345.885 107.081 349.456 111.912C347.422 114.868 340.175 119.328 331.879 119.932C325.957 117.442 327.906 111.329 330.29 109.019C337.41 108.564 338.013 103.648 337.653 98.6789L351.077 90.7223Z" fill="#FFC3BD"/>
<path opacity="0.2" d="M345.652 93.9749L337.706 98.6789C337.807 99.8386 337.807 101.005 337.706 102.165C340.376 102.239 344.466 99.9926 345.218 97.3016C345.565 96.2285 345.712 95.101 345.652 93.9749Z" fill="black"/>
<path d="M335.704 69.7343C327.535 68.6748 329.432 79.9264 332.599 84.1643C343.12 77.5638 340.651 70.3912 335.704 69.7343Z" fill="#263238"/>
<path d="M333.934 72.2134C333.754 76.1864 330.639 81.5049 325.84 81.6215C327.982 79.9728 329.565 77.7055 330.375 75.1269L333.934 72.2134Z" fill="#263238"/>
<path d="M353.407 81.6321C351.458 89.843 350.738 94.7484 345.8 98.2764C338.384 103.574 328.796 98.0115 328.256 89.3875C327.768 81.6215 331.042 69.4906 339.74 67.6047C341.656 67.1771 343.649 67.2467 345.53 67.8068C347.412 68.3669 349.118 69.399 350.488 70.8049C351.858 72.2107 352.845 73.9436 353.356 75.8388C353.867 77.7339 353.885 79.7282 353.407 81.6321Z" fill="#FFC3BD"/>
<path d="M354.192 73.1669C346.012 72.1074 347.909 83.3484 351.077 87.5863C361.279 81.9711 359.129 73.8131 354.192 73.1669Z" fill="#263238"/>
<path d="M353.736 74.4594C349.042 77.3094 344.148 73.1033 341.902 71.281C339.656 69.4587 334.602 73.0185 328.616 71.5989C325.077 70.7513 324.579 67.2656 324.579 65.0407C327.154 69.766 331.413 70.4652 333.945 68.4628C336.477 66.4604 339.528 62.8052 343.184 64.6911C346.839 66.577 352.02 68.929 354.361 68.3463C358.44 67.3186 359.033 71.2386 353.736 74.4594Z" fill="#263238"/>
<path d="M341.298 69.925C338.257 73.5167 331.498 76.2819 326.921 72.8916C330.119 72.8933 333.24 71.9133 335.863 70.084L341.298 69.925Z" fill="#263238"/>
<path d="M345.716 71.281C345.197 75.2222 347.316 81.0069 352.02 81.9711C350.202 79.9703 349.044 77.4587 348.703 74.7773L345.716 71.281Z" fill="#263238"/>
<path d="M354.838 81.2295C353.439 84.9482 348.841 89.0484 344.243 87.6711C348.259 86.3891 350.091 81.6215 350.091 81.6215L354.838 81.2295Z" fill="#263238"/>
<path d="M334.92 66.8312C335.354 65.973 338.098 62.8264 344.18 61.7987C353.439 60.2519 358.726 67.8377 363.398 63.6104C364.765 62.3814 366.132 65.0725 364.543 66.7888C363.144 68.3462 363.96 80.2441 357.878 79.1104C354.128 78.4006 334.92 66.8312 334.92 66.8312Z" fill="#2439D6"/>
<path d="M334.92 66.8312C335.354 65.973 338.098 62.8264 344.18 61.7987C353.439 60.2519 358.726 67.8377 363.398 63.6104C364.765 62.3814 366.132 65.0725 364.543 66.7888C363.144 68.3462 363.96 80.2441 357.878 79.1104C354.128 78.4006 334.92 66.8312 334.92 66.8312Z" fill="#394EE7"/>
<path d="M331.169 69.554C329.464 69.1726 333.956 65.9942 335.142 65.9518C336.329 65.9095 358.281 73.1033 358.811 79.4601C358.47 80.4504 358.018 81.3993 357.465 82.2889C357.413 82.369 357.345 82.4378 357.266 82.4911C357.186 82.5443 357.097 82.581 357.003 82.5988C356.909 82.6166 356.812 82.6152 356.719 82.5947C356.625 82.5742 356.537 82.5351 356.459 82.4796C353.694 80.5196 341.51 71.8743 331.169 69.554Z" fill="#172AB4"/>
<path d="M365.263 68.6959C367.732 68.6959 369.734 66.6942 369.734 64.225C369.734 61.7557 367.732 59.754 365.263 59.754C362.794 59.754 360.792 61.7557 360.792 64.225C360.792 66.6942 362.794 68.6959 365.263 68.6959Z" fill="#407BFF"/>
<path d="M355.516 89.5676C354.446 91.1952 352.78 92.3369 350.875 92.746C348.396 93.2333 347.443 90.8919 348.364 88.5823C349.212 86.4633 351.543 83.7617 353.884 84.3444C356.226 84.9271 356.851 87.5546 355.516 89.5676Z" fill="#FFC3BD"/>
<path d="M276.935 354.764L291.174 356.946C291.174 356.946 294.109 307.342 299.269 281.353C300.847 273.439 305.202 263.342 309.079 251.688C313.963 237.035 319.833 221.26 324.569 208.917C329.569 195.917 333.256 186.583 333.256 186.583L303.941 181.487C303.941 181.487 278.672 249.94 275.155 275.653C271.489 302.394 276.935 354.764 276.935 354.764Z" fill="#407BFF"/>
<path d="M276.935 354.764L291.174 356.946C291.174 356.946 294.109 307.342 299.269 281.353C300.847 273.439 305.202 263.342 309.079 251.688C313.963 237.035 319.833 221.26 324.569 208.917C329.569 195.917 333.256 186.583 333.256 186.583L303.941 181.487C303.941 181.487 278.672 249.94 275.155 275.653C271.489 302.394 276.935 354.764 276.935 354.764Z" fill="#172AB4"/>
<path opacity="0.2" d="M309.079 251.688C313.963 237.035 319.833 221.26 324.569 208.917L322.174 201.967C313.921 209.955 309.164 236.834 309.079 251.688Z" fill="black"/>
<path d="M317.905 183.913C317.905 183.913 315.521 257.144 316.58 282.031C317.746 309.302 326.063 362.551 326.063 362.551H341.637C341.637 362.551 338.172 314.271 338.458 287.667C338.84 257.366 348.725 189.285 348.725 189.285L317.905 183.913Z" fill="#407BFF"/>
<path d="M317.905 183.913C317.905 183.913 315.521 257.144 316.58 282.031C317.746 309.302 326.063 362.551 326.063 362.551H341.637C341.637 362.551 338.172 314.271 338.458 287.667C338.84 257.366 348.725 189.285 348.725 189.285L317.905 183.913Z" fill="#172AB4"/>
<path d="M324.198 362.869H342.537V357.391L322.037 357.031L324.198 362.869Z" fill="#407BFF"/>
<path d="M275.102 354.817L292.064 357.423L292.901 351.945L273.99 348.746L275.102 354.817Z" fill="#407BFF"/>
<path d="M341.118 81.8864C341.001 82.5644 340.546 83.0412 340.058 82.9458C339.571 82.8505 339.348 82.2572 339.465 81.5897C339.581 80.9222 340.037 80.4243 340.524 80.5302C341.012 80.6362 341.234 81.2083 341.118 81.8864Z" fill="#263238"/>
<path d="M333.479 80.5197C333.362 81.1977 332.907 81.6745 332.472 81.5791C332.038 81.4838 331.763 80.8905 331.879 80.223C331.996 79.5555 332.451 79.0576 332.939 79.1635C333.426 79.2695 333.595 79.884 333.479 80.5197Z" fill="#263238"/>
<path d="M335.142 81.1976C333.98 83.1245 332.553 84.879 330.904 86.4102C331.315 86.8279 331.813 87.1498 332.362 87.3531C332.912 87.5564 333.499 87.636 334.083 87.5862L335.142 81.1976Z" fill="#ED847E"/>
<path d="M336.573 89.8855C337.348 89.9301 338.124 89.8149 338.853 89.547C339.582 89.279 340.248 88.8642 340.81 88.3281C340.829 88.3093 340.844 88.2871 340.855 88.2625C340.865 88.238 340.87 88.2116 340.87 88.185C340.87 88.1584 340.865 88.1321 340.855 88.1076C340.844 88.083 340.829 88.0607 340.81 88.042C340.771 88.0063 340.72 87.9865 340.667 87.9865C340.614 87.9865 340.563 88.0063 340.524 88.042C339.897 88.6204 339.142 89.0428 338.321 89.2747C337.5 89.5067 336.636 89.5417 335.799 89.3769C335.746 89.3706 335.693 89.3845 335.649 89.416C335.606 89.4474 335.576 89.494 335.566 89.5465C335.557 89.5984 335.568 89.6519 335.598 89.6955C335.628 89.7391 335.673 89.7693 335.725 89.7796C336.005 89.8329 336.288 89.8682 336.573 89.8855Z" fill="#263238"/>
<path d="M343.194 79.7038C343.26 79.7195 343.329 79.7195 343.395 79.7038C343.489 79.654 343.56 79.5702 343.594 79.4696C343.627 79.369 343.621 79.2594 343.576 79.1635C343.294 78.5891 342.881 78.0897 342.369 77.7066C341.856 77.3235 341.261 77.0675 340.63 76.9597C340.524 76.9485 340.417 76.9801 340.333 77.0477C340.25 77.1153 340.197 77.2132 340.185 77.32C340.174 77.4267 340.206 77.5336 340.273 77.6171C340.341 77.7005 340.439 77.7537 340.546 77.7649C341.043 77.8536 341.511 78.0594 341.913 78.3652C342.314 78.6711 342.638 79.0682 342.855 79.5237C342.891 79.5803 342.942 79.6265 343.001 79.6581C343.061 79.6896 343.127 79.7054 343.194 79.7038Z" fill="#263238"/>
<path d="M329.94 77.2353C330.006 77.2392 330.071 77.2267 330.13 77.1989C330.189 77.1711 330.241 77.129 330.279 77.0763C330.562 76.6547 330.941 76.3068 331.385 76.0617C331.829 75.8165 332.325 75.6813 332.833 75.6673C332.94 75.6702 333.045 75.6308 333.124 75.5575C333.204 75.4843 333.251 75.383 333.256 75.2753C333.257 75.1692 333.216 75.0672 333.143 74.9903C333.07 74.9134 332.97 74.8675 332.864 74.8621C332.226 74.8715 331.599 75.0343 331.037 75.3367C330.474 75.6391 329.993 76.0722 329.633 76.5996C329.6 76.6415 329.577 76.6897 329.563 76.741C329.55 76.7924 329.547 76.846 329.555 76.8985C329.563 76.951 329.581 77.0014 329.609 77.0465C329.637 77.0917 329.674 77.1306 329.718 77.1611C329.782 77.2092 329.86 77.2353 329.94 77.2353Z" fill="#263238"/>
<path d="M327.408 374.544C328.162 374.522 328.912 374.419 329.644 374.237C329.683 374.225 329.718 374.203 329.746 374.173C329.774 374.143 329.793 374.107 329.803 374.067C329.808 374.029 329.803 373.99 329.788 373.955C329.773 373.919 329.749 373.888 329.718 373.866C329.411 373.675 326.741 371.99 325.777 372.467C325.672 372.523 325.583 372.605 325.52 372.705C325.457 372.806 325.421 372.921 325.416 373.039C325.384 373.233 325.401 373.431 325.466 373.617C325.531 373.802 325.641 373.968 325.787 374.099C326.261 374.427 326.833 374.584 327.408 374.544ZM329.072 373.95C327.609 374.237 326.508 374.184 326.052 373.792C325.954 373.701 325.881 373.588 325.838 373.462C325.796 373.337 325.786 373.202 325.808 373.071C325.809 373.022 325.821 372.974 325.845 372.931C325.87 372.889 325.904 372.853 325.946 372.827C326.444 372.573 327.98 373.304 329.072 373.993V373.95Z" fill="#407BFF"/>
<path d="M329.591 374.237C329.629 374.248 329.669 374.248 329.707 374.237C329.741 374.207 329.764 374.167 329.773 374.123C329.783 374.08 329.778 374.034 329.76 373.993C329.76 373.887 329.654 371.429 328.701 370.624C328.586 370.523 328.451 370.448 328.305 370.404C328.158 370.36 328.004 370.348 327.853 370.37C327.701 370.368 327.553 370.419 327.433 370.513C327.314 370.608 327.23 370.74 327.196 370.889C326.974 371.842 328.595 373.707 329.453 374.184L329.591 374.237ZM328.023 370.815C328.192 370.814 328.355 370.878 328.478 370.995C329.047 371.766 329.358 372.696 329.368 373.654C328.521 372.987 327.493 371.535 327.631 371.027C327.631 370.974 327.631 370.846 327.927 370.815H328.023Z" fill="#407BFF"/>
<path d="M277.91 366.873C277.947 366.864 277.981 366.846 278.008 366.82C278.036 366.794 278.057 366.761 278.069 366.725C278.079 366.685 278.078 366.642 278.065 366.603C278.052 366.563 278.027 366.528 277.994 366.503C277.645 366.248 274.53 364.023 273.417 364.437C273.314 364.475 273.222 364.539 273.15 364.622C273.078 364.705 273.028 364.806 273.004 364.913C272.952 365.095 272.947 365.288 272.987 365.472C273.028 365.657 273.114 365.829 273.237 365.973C274.032 366.926 276.49 366.969 277.888 366.905L277.91 366.873ZM273.672 364.754C274.339 364.638 276.066 365.613 277.295 366.45C275.399 366.45 274.021 366.185 273.576 365.644C273.498 365.552 273.445 365.441 273.421 365.323C273.397 365.204 273.403 365.082 273.439 364.966C273.444 364.924 273.46 364.884 273.486 364.85C273.512 364.817 273.547 364.791 273.587 364.776L273.672 364.754Z" fill="#407BFF"/>
<path d="M277.91 366.873H277.973C278.003 366.856 278.029 366.831 278.047 366.802C278.066 366.772 278.077 366.739 278.079 366.704C278.079 366.608 278.206 364.309 277.274 363.26C277.141 363.108 276.979 362.984 276.797 362.897C276.615 362.809 276.416 362.76 276.215 362.752C275.664 362.752 275.462 362.974 275.388 363.197C275.091 364.119 276.818 366.248 277.772 366.863C277.817 366.876 277.864 366.88 277.91 366.873ZM275.992 363.144H276.193C276.342 363.15 276.487 363.187 276.621 363.252C276.754 363.318 276.872 363.411 276.967 363.525C277.486 364.35 277.734 365.317 277.677 366.291C276.744 365.507 275.558 363.864 275.78 363.313C275.791 363.261 275.812 363.176 275.992 363.144Z" fill="#407BFF"/>
<path d="M365.39 122.04C366.714 124.827 367.795 127.486 368.908 130.241C370.02 132.995 371.026 135.76 371.959 138.568C373.906 144.27 375.422 150.11 376.493 156.039C376.737 157.586 376.981 159.111 377.108 160.711L377.224 161.898V162.194V162.798C377.251 163.225 377.251 163.653 377.224 164.08C377.03 165.832 376.364 167.498 375.296 168.901C374.443 169.992 373.399 170.918 372.213 171.634C371.303 172.183 370.341 172.64 369.342 173.001C367.675 173.598 365.949 174.013 364.193 174.24C361.093 174.654 357.96 174.771 354.838 174.59C351.818 174.447 348.813 174.093 345.843 173.531L346.182 167.174C351.548 166.656 356.863 165.703 362.074 164.324C363.137 163.999 364.168 163.581 365.157 163.074C365.983 162.671 366.45 162.067 366.121 162.268C365.909 162.508 365.766 162.801 365.708 163.116C365.708 163.19 365.708 163.275 365.708 163.328V163.391V163.158L365.538 162.215C365.348 160.965 365.041 159.683 364.754 158.401C364.14 155.837 363.42 153.231 362.572 150.635C361.724 148.04 360.834 145.423 359.891 142.838C358.949 140.253 357.921 137.646 356.914 135.061C355.908 132.476 354.795 129.859 353.736 127.422L365.39 122.04Z" fill="#FFC3BD"/>
<path d="M364.023 116.87C368.42 119.254 371.44 133.578 371.44 133.578L358.408 141.587C358.408 141.587 355.039 134.976 352.56 129.52C347.856 119.105 355.357 112.187 364.023 116.87Z" fill="#263238"/>
<path d="M347.284 167.025L338.713 166.655L342.474 174.813C342.474 174.813 350.558 174.325 349.488 170.458L347.284 167.025Z" fill="#FFC3BD"/>
<path d="M333.066 172.27L337.335 177.588L342.506 174.77L338.702 166.644L333.066 172.27Z" fill="#FFC3BD"/>
<path d="M133.302 127.264C133.822 129.965 134.362 132.868 135.072 135.644C135.782 138.42 136.407 141.249 137.191 144.003C137.572 145.391 137.985 146.768 138.409 148.125C138.833 149.481 139.257 150.847 139.712 152.204C140.168 153.56 140.645 154.884 141.164 156.187C141.418 156.855 141.672 157.511 141.958 158.147L142.372 159.111L142.583 159.588L142.689 159.832V159.959L142.636 159.863C142.552 159.726 142.456 159.609 142.319 159.429C142.165 159.277 142.003 159.136 141.831 159.005C141.51 158.788 141.15 158.634 140.772 158.55C140.189 158.476 140.094 158.55 140.115 158.55C140.485 158.45 140.841 158.304 141.174 158.115C142.311 157.498 143.395 156.79 144.416 155.996C146.631 154.365 148.856 152.521 151.027 150.614C153.199 148.707 155.392 146.758 157.533 144.766C159.673 142.774 161.834 140.751 163.964 138.748L167.322 141.715C165.521 144.141 163.646 146.44 161.728 148.75C159.81 151.059 157.797 153.284 155.742 155.509C153.647 157.762 151.433 159.901 149.11 161.919C147.845 163.021 146.499 164.027 145.084 164.928C144.157 165.516 143.151 165.969 142.096 166.273C141.17 166.538 140.196 166.593 139.246 166.432C138.483 166.301 137.759 166.001 137.127 165.553C136.497 165.12 135.972 164.552 135.591 163.889L135.464 163.667L135.379 163.508L135.315 163.37L135.188 163.116L134.923 162.586L134.415 161.527C134.055 160.828 133.737 160.128 133.43 159.408C132.773 157.999 132.19 156.579 131.618 155.17C130.484 152.32 129.499 149.428 128.588 146.514C127.677 143.601 126.871 140.676 126.162 137.721C125.452 134.765 124.837 131.851 124.339 128.715L133.302 127.264Z" fill="#EBB376"/>
<path d="M129.743 117.421C134.86 118.481 137.996 143.558 137.996 143.558L124.763 144.109C124.763 144.109 119.625 128.567 121.161 122.327C122.273 117.781 124.371 116.351 129.743 117.421Z" fill="#3686FF"/>
<path d="M124.223 143.304C124.163 144.043 124.257 144.786 124.498 145.486C124.816 146.08 136.778 144.66 137.752 144.363C138.727 144.067 138.812 142.244 138.812 141.895C138.812 141.545 124.223 142.393 124.223 143.304Z" fill="#2361BE"/>
<path opacity="0.2" d="M134.754 143.696L134.298 141.958L131.205 130.008L130.241 142.244L130.113 143.887L129.997 145.349C131.734 145.19 133.578 144.978 135.04 144.787L134.754 143.696Z" fill="black"/>
<path d="M162.65 140.91L163.137 137.254L169.61 136.11C169.61 136.11 168.943 141.746 165.521 143.092L162.65 140.91Z" fill="#EBB376"/>
<path d="M163.487 132.052L170.172 131.533L169.611 136.057L163.137 137.201L163.487 132.052Z" fill="#EBB376"/>
<path d="M120.631 371.758H129.467L130.802 351.289H121.966L120.631 371.758Z" fill="#EBB376"/>
<path d="M69.2892 353.8L77.8921 355.823L85.3402 336.551L76.7373 334.528L69.2892 353.8Z" fill="#EBB376"/>
<path d="M79.227 355.092L70.3275 350.685C70.1757 350.608 70.0012 350.588 69.8359 350.629C69.6705 350.669 69.5254 350.768 69.4269 350.907L64.8924 357.465C64.7857 357.634 64.7155 357.823 64.6866 358.02C64.6577 358.217 64.6707 358.418 64.7247 358.61C64.7786 358.802 64.8724 358.98 64.9999 359.134C65.1274 359.287 65.2857 359.411 65.4645 359.499C68.6429 360.983 70.1792 361.534 74.0992 363.473C76.5042 364.659 82.2783 368.929 85.6051 370.571C88.9318 372.213 90.7329 369.014 89.4933 368.039C85.4821 364.937 82.3129 360.879 80.2759 356.236C80.0695 355.745 79.6987 355.34 79.227 355.092Z" fill="#263238"/>
<path d="M130.145 370.73H120.218C120.047 370.728 119.88 370.788 119.75 370.899C119.62 371.01 119.534 371.164 119.508 371.334L118.374 379.195C118.354 379.394 118.375 379.594 118.437 379.784C118.499 379.974 118.6 380.148 118.734 380.296C118.868 380.444 119.032 380.562 119.214 380.643C119.397 380.723 119.595 380.764 119.794 380.763C123.259 380.699 124.922 380.498 129.329 380.498C132.02 380.498 137.572 380.774 141.28 380.774C144.988 380.774 145.19 377.108 143.643 376.779C136.725 375.286 133.991 373.23 131.66 371.27C131.236 370.915 130.698 370.724 130.145 370.73Z" fill="#263238"/>
<g opacity="0.2">
<path opacity="0.2" d="M130.802 351.289L130.113 361.841H121.277L121.966 351.289H130.802Z" fill="black"/>
<path opacity="0.2" d="M76.7373 334.528L85.3402 336.562L81.24 347.157L72.8914 344.466L76.7373 334.528Z" fill="black"/>
</g>
<path d="M129.743 117.421C129.743 117.421 134.055 118.608 129.276 170.924L93.4981 173.446C93.0743 158.825 92.4387 149.841 83.4014 120.472C88.3384 119.084 93.3701 118.057 98.4564 117.4C103.831 116.613 109.256 116.217 114.688 116.213C121.712 116.362 129.743 117.421 129.743 117.421Z" fill="#3686FF"/>
<path opacity="0.2" d="M85.8487 127.528L85.658 128.048C89.7158 141.884 91.5699 150.561 92.481 158.073C94.0506 155.434 94.9526 152.452 95.1085 149.385C95.6806 138.791 90.6799 128.196 85.8487 127.528Z" fill="black"/>
<path d="M88.7835 83.6345C85.3614 86.7282 88.9 90.5741 88.0207 94.5153C87.1413 98.4565 89.0801 99.3995 88.7199 101.932C88.4381 104.38 87.6517 106.743 86.4103 108.871C86.4103 108.871 117.04 111.467 122.93 106.752C125.876 104.4 118.989 94.6954 119.985 91.0402C120.981 87.385 123.767 82.5645 120.451 77.7333C116.213 71.5883 103.584 67.6153 93.6147 76.0275C86.8447 76.9916 88.7835 83.6345 88.7835 83.6345Z" fill="#263238"/>
<path d="M99.41 98.9333C100.808 104.093 103.648 114.338 100.205 118.089C100.205 118.089 103.913 119.148 109.041 120.43C112.749 118.703 113.67 117.379 113.67 117.379C109.433 116.245 109.263 110.895 109.994 106.784L99.41 98.9333Z" fill="#EBB376"/>
<path d="M99.41 117.241C99.9715 116.256 98.9332 113.85 98.7531 111.816C98.573 109.782 100.734 110.365 103.298 110.979C105.862 111.594 112.399 108.86 112.664 111.202C112.929 113.543 113.098 116.319 114.073 116.722C115.048 117.124 113.406 120.207 108.945 121.182C104.485 122.157 98.1386 119.466 99.41 117.241Z" fill="#68A4FF"/>
<path opacity="0.1" d="M99.7702 113.173C103.148 113.763 106.587 113.92 110.005 113.639C108.553 114.603 102.525 115.133 99.7702 113.173Z" fill="black"/>
<path opacity="0.2" d="M103.733 102.122L109.994 106.752C109.804 107.716 109.701 108.694 109.687 109.676C107.441 109.507 103.807 107.854 103.15 105.439C102.843 104.337 103.574 102.684 103.733 102.122Z" fill="black"/>
<path d="M92.7989 89.186C94.7589 97.7359 95.4052 101.391 100.501 105.078C108.172 110.661 118.237 106.381 118.872 97.4181C119.445 89.3555 116.139 76.7266 107.112 74.6924C105.123 74.2325 103.048 74.2896 101.087 74.8584C99.1257 75.4272 97.3426 76.4886 95.9077 77.9416C94.4727 79.3946 93.4337 81.1908 92.8895 83.1591C92.3453 85.1274 92.3141 87.2022 92.7989 89.186Z" fill="#EBB376"/>
<path d="M96.4117 75.6674C101.211 74.3431 110.672 69.0881 117.23 79.8311C116.616 81.3038 110.121 81.9501 110.121 81.9501C110.121 81.9501 109.21 78.1466 107.377 76.9388C107.996 78.7106 108.46 80.5326 108.765 82.3844C108.765 82.3844 101.01 85.1285 97.397 84.8848C93.7842 84.6411 92.0891 76.854 96.4117 75.6674Z" fill="#263238"/>
<path d="M129.276 170.924C129.276 170.924 141.005 238.349 142.308 265.217C143.675 293.229 131.999 359.743 131.999 359.743H120.048C120.048 359.743 123.513 296.281 120.525 268.893C117.273 239.091 103.033 172.768 103.033 172.768L129.276 170.924Z" fill="#263238"/>
<path d="M119.021 360.23H133.038L134.065 355.759L118.364 355.208L119.021 360.23Z" fill="#407BFF"/>
<path opacity="0.2" d="M115.016 188.914C125.06 205.982 120.313 238.709 118.025 250.978C115.164 233.052 110.926 211.195 107.695 195.154C108.384 185.905 110.386 181.042 115.016 188.914Z" fill="black"/>
<path d="M119.815 171.634C119.815 171.634 116.637 242.809 112.134 265.927C106.752 293.346 84.0477 345.048 84.0477 345.048L72.6372 340.906C72.6372 340.906 85.1072 286.873 88.9636 269.391C95.9667 237.607 85.372 193.915 93.4664 173.509L119.815 171.634Z" fill="#263238"/>
<path d="M70.7513 341.435L84.7469 346.669L87.8935 342.823L71.6942 335.916L70.7513 341.435Z" fill="#407BFF"/>
<path d="M106.953 89.1966C107.07 89.8959 107.536 90.4044 108.013 90.3302C108.49 90.2561 108.755 89.6204 108.638 88.9211C108.521 88.2219 108.055 87.7028 107.579 87.7875C107.102 87.8723 106.837 88.4868 106.953 89.1966Z" fill="#263238"/>
<path d="M114.899 87.9359C115.016 88.6352 115.482 89.1437 115.959 89.0695C116.436 88.9954 116.701 88.3597 116.584 87.6604C116.467 86.9612 116.001 86.442 115.525 86.5162C115.048 86.5904 114.783 87.1731 114.899 87.9359Z" fill="#263238"/>
<path d="M115.323 86.5375L116.934 85.7747C116.934 85.7747 116.287 87.2367 115.323 86.5375Z" fill="#263238"/>
<path d="M112.664 89.5464C113.549 91.0505 114.64 92.4234 115.906 93.6253C115.59 93.9397 115.209 94.1812 114.79 94.3331C114.371 94.485 113.924 94.5435 113.48 94.5047L112.664 89.5464Z" fill="#D58745"/>
<path d="M110.1 97.8952C110.455 97.8937 110.81 97.8618 111.159 97.7998C111.186 97.7956 111.211 97.7863 111.234 97.7723C111.257 97.7583 111.277 97.74 111.293 97.7184C111.308 97.6967 111.32 97.6722 111.326 97.6462C111.332 97.6202 111.333 97.5932 111.329 97.5667C111.325 97.5403 111.315 97.5149 111.302 97.4921C111.288 97.4693 111.269 97.4494 111.248 97.4337C111.226 97.4179 111.201 97.4066 111.175 97.4004C111.149 97.3941 111.122 97.393 111.096 97.3972C110.223 97.5586 109.325 97.5133 108.473 97.2649C107.621 97.0166 106.84 96.572 106.191 95.9669C106.173 95.9422 106.151 95.9214 106.125 95.906C106.098 95.8907 106.069 95.8811 106.039 95.878C106.009 95.8748 105.979 95.8782 105.95 95.8878C105.921 95.8974 105.895 95.913 105.873 95.9336C105.851 95.9543 105.833 95.9794 105.822 96.0074C105.81 96.0353 105.804 96.0654 105.805 96.0957C105.806 96.126 105.814 96.1557 105.827 96.1828C105.841 96.2099 105.86 96.2339 105.883 96.253C106.442 96.7936 107.102 97.2173 107.826 97.4993C108.55 97.7813 109.323 97.9158 110.1 97.8952Z" fill="#263238"/>
<path d="M95.49 95.2251C99.6325 90.2774 100.999 82.0664 95.2675 76.9916C91.5593 80.7421 88.2856 92.1738 95.49 95.2251Z" fill="#263238"/>
<path d="M91.3791 96.3483C92.1289 97.8677 93.4453 99.0319 95.0449 99.5903C97.1639 100.3 98.3505 98.4249 97.8525 96.3483C97.4075 94.4836 95.7336 91.8773 93.6146 92.0574C93.137 92.1053 92.6788 92.2713 92.2813 92.5404C91.8838 92.8095 91.5596 93.1733 91.3378 93.599C91.116 94.0247 91.0037 94.4989 91.0109 94.9789C91.0181 95.4588 91.1447 95.9295 91.3791 96.3483Z" fill="#EBB376"/>
<path d="M103.786 87.0884C103.874 87.0992 103.964 87.08 104.041 87.034C104.118 86.9879 104.177 86.9176 104.209 86.8342C104.983 85.0649 107.388 84.5457 107.451 84.5351C107.505 84.5251 107.556 84.5044 107.601 84.4742C107.646 84.4439 107.685 84.4049 107.714 84.3593C107.744 84.3138 107.764 84.2627 107.774 84.2092C107.783 84.1556 107.782 84.1007 107.769 84.0478C107.762 83.9911 107.743 83.9365 107.713 83.8876C107.683 83.8387 107.644 83.7965 107.597 83.7636C107.55 83.7308 107.497 83.708 107.441 83.6967C107.385 83.6854 107.327 83.6859 107.271 83.6981C107.155 83.6981 104.379 84.3126 103.436 86.4845C103.413 86.5345 103.4 86.5886 103.399 86.6435C103.397 86.6985 103.406 86.7532 103.426 86.8045C103.446 86.8558 103.476 86.9027 103.514 86.9423C103.552 86.982 103.597 87.0136 103.648 87.0355C103.688 87.0649 103.736 87.0831 103.786 87.0884Z" fill="#263238"/>
<path d="M117.739 83.6028C117.811 83.6133 117.884 83.604 117.951 83.576C118.019 83.548 118.077 83.5024 118.12 83.4439C118.153 83.4002 118.177 83.3504 118.191 83.2974C118.205 83.2443 118.208 83.189 118.2 83.1348C118.192 83.0806 118.173 83.0285 118.145 82.9815C118.117 82.9345 118.08 82.8936 118.035 82.8612C117.519 82.4427 116.91 82.1549 116.259 82.0221C115.608 81.8893 114.934 81.9155 114.296 82.0984C114.192 82.1349 114.106 82.2112 114.059 82.3106C114.011 82.4099 114.005 82.5242 114.041 82.6281C114.078 82.7321 114.154 82.8173 114.253 82.865C114.353 82.9126 114.467 82.9189 114.571 82.8824C115.08 82.7496 115.613 82.739 116.126 82.8513C116.64 82.9636 117.12 83.1957 117.527 83.5287C117.589 83.5735 117.662 83.5993 117.739 83.6028Z" fill="#263238"/>
<path d="M82.9034 358.175H83.0094C83.2026 358.116 83.3772 358.007 83.5164 357.861C83.6556 357.714 83.7546 357.534 83.804 357.338C83.8499 357.221 83.8643 357.094 83.8457 356.969C83.8271 356.844 83.7762 356.727 83.698 356.628C82.9776 355.749 79.8098 356.12 79.4601 356.162C79.4179 356.163 79.3773 356.179 79.3447 356.205C79.3122 356.232 79.2894 356.269 79.28 356.31C79.2691 356.351 79.2703 356.393 79.2835 356.433C79.2967 356.472 79.3213 356.507 79.3542 356.533C80.1806 357.221 81.8439 358.387 82.9034 358.175ZM80.0005 356.49C81.2718 356.384 82.9988 356.395 83.3696 356.861C83.4001 356.907 83.4164 356.96 83.4164 357.015C83.4164 357.07 83.4001 357.123 83.3696 357.168C83.3408 357.301 83.2777 357.424 83.1866 357.524C83.0954 357.624 82.9795 357.699 82.8504 357.741C82.2677 357.921 81.2189 357.444 79.9687 356.49H80.0005Z" fill="#407BFF"/>
<path d="M79.778 356.501C80.8375 356.289 82.7339 355.442 82.9564 354.509C83.0012 354.348 82.9887 354.177 82.921 354.024C82.8534 353.872 82.7348 353.747 82.5856 353.672C82.4505 353.585 82.2984 353.528 82.1395 353.504C81.9806 353.481 81.8185 353.491 81.6639 353.535C80.4243 353.874 79.2906 356.141 79.2377 356.247C79.22 356.277 79.2107 356.312 79.2107 356.347C79.2107 356.383 79.22 356.417 79.2377 356.448C79.2573 356.478 79.284 356.502 79.3155 356.519C79.347 356.535 79.3822 356.544 79.4178 356.543C79.5389 356.54 79.6595 356.526 79.778 356.501ZM81.8969 353.927C81.9836 353.905 82.0738 353.903 82.1615 353.919C82.2493 353.936 82.3324 353.971 82.4055 354.022C82.6386 354.17 82.628 354.308 82.6068 354.403C82.4479 354.997 80.9116 355.844 79.8628 356.067C80.2865 355.336 81.0917 354.138 81.8334 353.948L81.8969 353.927Z" fill="#407BFF"/>
<path d="M133.461 372.277C134.208 372.339 134.954 372.149 135.58 371.736C135.726 371.605 135.837 371.439 135.903 371.254C135.97 371.07 135.99 370.871 135.962 370.677C135.953 370.562 135.916 370.451 135.853 370.355C135.79 370.258 135.703 370.18 135.602 370.126C134.542 369.533 131.003 371.334 130.601 371.535C130.563 371.558 130.533 371.591 130.514 371.63C130.495 371.67 130.489 371.714 130.495 371.758C130.499 371.799 130.517 371.839 130.546 371.869C130.574 371.9 130.612 371.92 130.654 371.927C131.577 372.131 132.517 372.248 133.461 372.277ZM135.04 370.444C135.172 370.44 135.303 370.469 135.421 370.529C135.465 370.547 135.502 370.578 135.529 370.618C135.555 370.657 135.569 370.704 135.57 370.751C135.587 370.874 135.574 370.999 135.532 371.115C135.489 371.232 135.419 371.336 135.326 371.419C134.786 371.906 133.334 371.991 131.374 371.662C132.518 371.052 133.758 370.64 135.04 370.444Z" fill="#407BFF"/>
<path d="M130.717 371.969H130.802C131.862 371.493 133.98 369.586 133.779 368.579C133.779 368.346 133.578 368.049 132.995 367.996C132.787 367.971 132.575 367.99 132.374 368.052C132.173 368.114 131.988 368.218 131.83 368.357C130.77 369.278 130.516 371.662 130.516 371.758C130.51 371.794 130.515 371.832 130.53 371.866C130.545 371.899 130.57 371.928 130.601 371.948C130.637 371.966 130.677 371.973 130.717 371.969ZM132.836 368.378H132.963C133.345 368.378 133.366 368.569 133.377 368.622C133.472 369.225 132.063 370.74 130.993 371.366C131.07 370.362 131.463 369.409 132.116 368.643C132.314 368.474 132.565 368.38 132.826 368.378H132.836Z" fill="#407BFF"/>
<path d="M107.377 87.8513L108.988 87.0885C108.988 87.0885 108.331 88.5506 107.377 87.8513Z" fill="#263238"/>
<path d="M92.7883 171.38L92.0996 174.654C91.9831 174.908 92.3009 175.141 92.7141 175.109L129.52 172.524C129.849 172.524 130.103 172.323 130.103 172.121L130.209 168.89C130.209 168.668 129.923 168.498 129.562 168.519L93.3074 171.073C93.2022 171.077 93.0997 171.107 93.0091 171.161C92.9184 171.214 92.8426 171.29 92.7883 171.38Z" fill="white"/>
<path d="M98.0645 175.088L97.0898 175.152C96.8991 175.152 96.7402 175.078 96.7507 174.951L96.9097 170.713C96.9097 170.596 97.0792 170.48 97.2699 170.469L98.2446 170.395C98.4353 170.395 98.5836 170.48 98.5836 170.596L98.4247 174.834C98.4141 174.961 98.2552 175.067 98.0645 175.088Z" fill="#263238"/>
<path d="M126.861 173.065L125.886 173.128C125.695 173.128 125.537 173.054 125.547 172.927L125.706 168.689C125.706 168.572 125.876 168.456 126.066 168.445L127.041 168.371C127.232 168.371 127.391 168.445 127.38 168.572L127.221 172.81C127.211 172.937 127.052 173.043 126.861 173.065Z" fill="#263238"/>
<path d="M112.569 174.071L111.605 174.135C111.403 174.135 111.255 174.06 111.255 173.933L111.424 169.695C111.424 169.579 111.583 169.462 111.785 169.452L112.749 169.378C112.95 169.378 113.098 169.462 113.098 169.579L112.929 173.817C112.876 173.944 112.717 174.05 112.569 174.071Z" fill="#263238"/>
<path d="M88.9424 131.056C89.3026 133.758 89.6417 136.576 90.076 139.32C90.5104 142.064 90.8918 144.84 91.411 147.542C91.9301 150.243 92.4705 152.913 93.2121 155.382C93.5234 156.491 93.9201 157.575 94.3987 158.624C94.5046 158.867 94.6 158.973 94.6847 159.143C94.7292 159.22 94.7788 159.295 94.8331 159.365C95.0266 159.576 95.2609 159.746 95.5217 159.863C96.4452 160.29 97.4272 160.575 98.4353 160.711C99.6697 160.899 100.916 160.998 102.165 161.008C104.858 161.023 107.551 160.878 110.227 160.573C112.961 160.287 115.715 159.874 118.47 159.376C121.224 158.878 124 158.317 126.702 157.787L128.058 162.025C125.314 163.137 122.581 164.038 119.794 164.917C117.008 165.796 114.179 166.496 111.318 167.121C108.364 167.783 105.364 168.23 102.345 168.456C100.743 168.572 99.136 168.572 97.5347 168.456C95.7148 168.33 93.9266 167.915 92.2374 167.227C91.1854 166.782 90.2123 166.17 89.3556 165.415C88.8936 164.993 88.4683 164.532 88.0842 164.038C87.7876 163.603 87.4486 163.137 87.2367 162.745C86.3823 161.27 85.6727 159.716 85.1177 158.105C84.1342 155.251 83.331 152.339 82.7127 149.385C82.077 146.503 81.5473 143.632 81.0811 140.761C80.615 137.89 80.2442 135.029 80.0217 132.073L88.9424 131.056Z" fill="#EBB376"/>
<path d="M83.3696 120.43C75.2223 122.718 80.5196 151.589 80.5196 151.589L93.1485 148.135C93.1485 148.135 95.384 132.73 93.5511 128.196C91.6441 123.481 87.4909 119.264 83.3696 120.43Z" fill="#3686FF"/>
<path d="M79.9475 149.979C79.9762 150.744 80.1563 151.497 80.4772 152.193C80.8481 152.744 92.0679 149.364 92.9472 148.898C93.8266 148.432 93.6994 146.514 93.6571 146.186C93.6147 145.857 79.8416 149.046 79.9475 149.979Z" fill="#2361BE"/>
<path d="M300.169 133.758C287.22 124.392 271.08 120.553 255.3 123.087C239.52 125.62 225.393 134.317 216.026 147.266C203.071 137.96 186.955 134.17 171.21 136.726C155.465 139.282 141.376 147.976 132.031 160.903C122.685 173.829 118.846 189.934 121.354 205.686C123.863 221.439 132.514 235.554 145.412 244.939L243.074 315.563L313.699 217.901C323.062 204.949 326.898 188.807 324.36 173.028C321.823 157.248 313.121 143.122 300.169 133.758Z" fill="#407BFF"/>
<path opacity="0.3" d="M300.169 133.758C287.22 124.392 271.08 120.553 255.3 123.087C239.52 125.62 225.393 134.317 216.026 147.266C203.071 137.96 186.955 134.17 171.21 136.726C155.465 139.282 141.376 147.976 132.031 160.903C122.685 173.829 118.846 189.934 121.354 205.686C123.863 221.439 132.514 235.554 145.412 244.939L243.074 315.563L313.699 217.901C323.062 204.949 326.898 188.807 324.36 173.028C321.823 157.248 313.121 143.122 300.169 133.758Z" fill="#00C5FD" fill-opacity="0.5"/>
<path d="M140.539 159.09L136.735 165.584L129.7 163.911L133.822 155.922L140.539 159.09Z" fill="#EBB376"/>
<path d="M125.378 157.861L133.853 155.933L129.732 163.921C129.732 163.921 124.053 164.069 122.242 160.88L123.979 158.762C124.332 158.314 124.824 157.997 125.378 157.861Z" fill="#EBB376"/>
</svg>
